<?xml version="1.0" encoding="utf-8"?>
<!-- Generator: Adobe Illustrator 25.0.0, SVG Export Plug-In . SVG Version: 6.00 Build 0)  -->
<svg version="1.1" id="Layer_1" xmlns="http://www.w3.org/2000/svg" xmlns:xlink="http://www.w3.org/1999/xlink" x="0px" y="0px"
	 viewBox="0 0 1128.4 171.4" style="enable-background:new 0 0 1128.4 171.4;" xml:space="preserve">
<style type="text/css">
	.st0{fill:#FFFFFF;}
	.st1{fill:url(#Path_35_1_);}
	.st2{fill:#E6E6E6;}
	.st3{fill:#0082FF;}
	.st4{fill:none;stroke:#0082FF;stroke-miterlimit:10;}
	.st5{fill:none;stroke:#0082FF;stroke-miterlimit:10;stroke-dasharray:1.026,1.026;}
</style>
<g id="Group_996" transform="translate(-140 -56)">
	<g id="Group_973" transform="translate(315.942 80.543)">
		<g id="Group_9">
			<g id="Group_8" transform="translate(0 0)">
				<path id="Path_21" class="st0" d="M0,2.2h16.6v44.9C24,37,35.8,30.9,48.3,30.8c22.5,0,43.9,16.7,43.9,45.4
					c0,27.8-19.7,46.1-44.5,46.1c-14.8,0-26.2-7.1-31.8-17.4v14.9H0.2V2.2H0z M75.7,76.4c0-16.9-12.9-30.2-29.9-30.2
					C28.1,46.3,16,60,16,76.4c0,16.6,11.8,30.5,29.4,30.5c19.7,0,30.2-15.4,30.3-30.3L75.7,76.4z"/>
				<path id="Path_22" class="st0" d="M108.7,2.2h16.6v17.4h-16.6V2.2z M108.7,33.4h16.6v86.5h-16.6V33.4z"/>
				<path id="Path_23" class="st0" d="M146.8,2.2h16.6v117.5h-16.6V2.2z"/>
				<path id="Path_24" class="st0" d="M185,2.2h16.6v117.5H185V2.2z"/>
				<path id="Path_25" class="st0" d="M223.1,2.2h16.6v17.4h-16.6V2.2z M223.1,33.4h16.6v86.5h-16.6V33.4z"/>
				<path id="Path_26" class="st0" d="M282.8,119.9h-17.3V99.2h17.3V119.9z"/>
				<path id="Path_27" class="st0" d="M346.6,56c0-6.7-4.1-11.8-12.6-11.5c-8.1,0-12.6,5.5-12.4,11.1c0.3,6.8,6.5,10.1,15.7,12.6
					c13.2,3.7,27.6,7.5,28.1,26c0.3,16.9-13.6,28.2-30.8,28.2c-13.6,0-30.6-7.8-31.5-27.5h16.4c0.6,10.5,9,14,15.2,14
					c8,0,14.2-5.6,14.2-12.9c-0.1-8.6-6.7-11.4-22-16.6c-12.1-3.7-21.6-9.3-21.7-22.5c0-16.4,13.3-26.2,29.1-26.2
					c12,0,27.5,5.9,28.8,25.1L346.6,56L346.6,56z"/>
				<path id="Path_28" class="st0" d="M377.5,76.4c0-23.1,17-45.5,46.1-45.5s46.1,22.6,46.1,45.8s-17,45.5-46.1,45.5
					s-46.1-22.5-46.1-45.5V76.4z M394,76.7c0,17.2,13,30,29.6,30s29.6-12.9,29.6-30.2s-13-30.2-29.6-30.2S394,59.3,394,76.6V76.7z"
					/>
				<path id="Path_29" class="st0" d="M488.2,46.3h-11.8V33.4h11.8v-5.9c0-26,20.1-27.4,32.4-27.5v13c-5.6,0.1-15.8,0.1-15.8,15.2v5
					h15.8v12.9h-15.8v73.6h-16.6V46.3z"/>
				<path id="Path_30" class="st0" d="M538.9,46.3h-15.5V33.4h15.5V2.2h16.6v31.2h16.7v12.9h-16.7v73.6h-16.6V46.3z"/>
				<path id="Path_31" class="st0" d="M575,33.4h17.3l20.4,65.4L631,38.4h13.8l18.8,60.2l20-65.3h17.2l-28.5,86.6h-15.7l-18.6-60.5
					l-18.2,60.5H604L575,33.4z"/>
				<path id="Path_32" class="st0" d="M797.5,119.9h-16.6v-15.1c-6.1,11.5-18.5,17.6-32.1,17.6c-27.8,0-44.4-21.6-44.4-45.8
					c0-26.3,19.2-45.8,44.4-45.8c17.2,0,28.1,9.5,32.1,17.7V33.4h16.6V119.9z M721.1,76.9c0.1,12.9,9.2,30,30.2,30
					c13.2,0,22.6-7.2,26.9-17.2c1.9-4,2.9-8.4,3-12.9c0.2-4.4-0.6-8.8-2.5-12.9c-4.1-10.1-13.8-17.7-27.6-17.7
					c-18.2,0-29.9,14.3-29.9,30.5L721.1,76.9z"/>
				<path id="Path_33" class="st0" d="M819.2,33.4h15.5v12.7c4.9-10.2,14-15.1,25.7-15.2v16.4h-1.2c-15.5,0-23.7,8.6-23.7,25.7v46.7
					h-16.6V33.4H819.2z"/>
				<path id="Path_34" class="st0" d="M878.4,81.9c0.7,17.4,16.1,26.3,29.1,26.3c11.5,0,20.1-5.6,25-14.6h17.2
					c-4.1,9.5-10.2,16.7-17.4,21.4c-7.3,4.8-15.9,7.4-24.7,7.2c-28.2,0-45.8-22.8-45.8-45.5c0-24.8,19.4-46,45.5-46
					c11.9-0.2,23.4,4.4,31.9,12.7c10.2,10.3,14.5,23.8,13,38.3h-73.8V81.9z M935.9,69c-0.7-11.4-12.3-24.2-28.5-24
					c-16.9,0-27.8,12.3-28.5,24H935.9z"/>
			</g>
		</g>
	</g>
	
		<linearGradient id="Path_35_1_" gradientUnits="userSpaceOnUse" x1="22.931" y1="525.3483" x2="23.387" y2="524.5233" gradientTransform="matrix(141.788 0 0 -171.3627 -3097.3359 90067.1406)">
		<stop  offset="0" style="stop-color:#00FC9B"/>
		<stop  offset="1" style="stop-color:#0082FF"/>
	</linearGradient>
	<path id="Path_35" class="st1" d="M273.1,155.1c-5.9-7.5-14-12.9-23.2-15.4c7.8-3.3,14.2-9.1,18.5-16.4c4.1-7,6.2-15.1,6.2-23.2
		c0-5.5-0.9-11-2.8-16.1c-1.8-5.1-4.5-9.8-7.8-14c-3.4-4.1-7.6-7.5-12.3-10.1c-5-2.6-10.5-3.9-16.1-3.8H140v171.4h83.5
		c7.6,0.1,15.1-0.9,22.5-2.8c6.6-1.6,12.9-4.4,18.6-8.1c5.2-3.5,9.5-8.1,12.6-13.6c3.1-5.5,4.6-11.8,4.6-19.4
		C281.5,171.9,278.7,162.5,273.1,155.1z"/>
	<path id="Path_36" class="st2" d="M249.4,164.1c1.7,0,3.1,1.4,3.1,3.1v5.6c0,11.5-6.6,22.1-17,27.1c-10.9-4.8-17.9-15.6-17.9-27.5
		v-8.4h31.8V164.1z"/>
	<path id="Path_37" class="st0" d="M217.6,164.1v8.4c0,11.9,7,22.7,17.9,27.5c-4.1,2-8.5,3-13,3h-34.6c-16.6,0-30-13.4-30-30V83.8
		c0-1.7,1.4-3.1,3.1-3.1h53.7c1.7,0,3.1,1.4,3.1,3.1v80.3"/>
	<g id="Group_16" transform="translate(167.352 127.56)">
		<g id="Group_10" transform="translate(0)">
			<rect id="Rectangle_13" x="0" y="0" class="st3" width="28.2" height="3.7"/>
		</g>
		<g id="Group_11" transform="translate(19.812 7.54)">
			<rect id="Rectangle_14" x="0" y="0" class="st3" width="22.6" height="3.7"/>
		</g>
		<g id="Group_12" transform="translate(0 7.54)">
			<rect id="Rectangle_15" x="0" y="0" class="st3" width="9.5" height="3.7"/>
		</g>
		<g id="Group_13" transform="translate(0 22.621)">
			<rect id="Rectangle_16" x="0" y="0" class="st3" width="28.2" height="3.7"/>
		</g>
		<g id="Group_14" transform="translate(0 30.162)">
			<rect id="Rectangle_17" x="0" y="0" class="st3" width="22.6" height="3.7"/>
		</g>
		<g id="Group_15" transform="translate(0 15.081)">
			<rect id="Rectangle_18" x="0" y="0" class="st3" width="43" height="3.7"/>
		</g>
	</g>
	<g id="Group_17" transform="translate(167.352 93.998)">
		<path id="Path_38" class="st3" d="M26.8,11.2c-0.3,0.4-0.7,0.6-1.2,0.6h-9.3c-0.9,0-1.2-0.3-1.2-1.2V1.2c0-0.9,0.3-1,1-1h9.5
			c0.5,0,0.9,0.2,1.2,0.6C26.8,4.1,26.8,7.7,26.8,11.2z M18.5,3.4v5h5v-5H18.5z"/>
		<path id="Path_39" class="st3" d="M0.6,26.9C0.2,26.6,0,26.2,0,25.7v-9.3c0-0.9,0.3-1.2,1.2-1.2h9.5c0.9,0,1.2,0.3,1.2,1.2v9.3
			c0,0.5-0.2,0.9-0.6,1.2L0.6,26.9z M3.4,23.5h5v-4.9h-5V23.5z"/>
		<path id="Path_40" class="st3" d="M15.7,26.9c-0.4-0.3-0.6-0.7-0.6-1.2v-1.2c-0.1-0.4,0.2-0.8,0.7-0.9c0.1,0,0.1,0,0.2,0h4.1v-2.2
			c0-0.7,0.3-1,1-1h2.2v-4.1c0-0.7,0.3-1,1-1h1.2c0.5,0,0.9,0.2,1.2,0.6v11.2C23.1,26.9,19.4,26.9,15.7,26.9z"/>
		<path id="Path_41" class="st3" d="M0,5.9V1c0-0.7,0.3-1,1-1h9.6c0.7,0,1,0.3,1,1v9.6c0,0.7-0.3,1-1,1H1c-0.7,0-1-0.3-1-1L0,5.9z
			 M3.4,8.4h5v-5h-5V8.4z"/>
		<path id="Path_42" class="st3" d="M20.1,17.6v1.6c0.1,0.4-0.2,0.8-0.7,0.9c-0.1,0-0.1,0-0.2,0H16c-0.4,0.1-0.8-0.2-0.9-0.7
			c0-0.1,0-0.1,0-0.2V16c-0.1-0.4,0.2-0.8,0.7-0.9c0.1,0,0.1,0,0.2,0h3.3c0.4-0.1,0.8,0.2,0.9,0.7c0,0.1,0,0.1,0,0.2L20.1,17.6z"/>
	</g>
	<path id="Path_43" class="st3" d="M217.6,164.1l5.8,5.8l5.8-5.8l5.6,5.6l5.6-5.6l5.6,5.6l5.9-5.9"/>
	<g id="Group_19" transform="translate(167.352 174.428)">
		<g id="Group_18">
			<line id="Line_4" class="st4" x1="0" y1="0" x2="0.7" y2="0"/>
			<line id="Line_5" class="st5" x1="2.2" y1="0" x2="41" y2="0"/>
			<line id="Line_6" class="st4" x1="41.7" y1="0" x2="42.4" y2="0"/>
		</g>
	</g>
</g>
</svg>
