<svg xmlns="http://www.w3.org/2000/svg" xmlns:xlink="http://www.w3.org/1999/xlink" width="1128.384" height="171.359" viewBox="0 0 1128.384 171.359">
  <defs>
    <linearGradient id="linear-gradient" x1="0.098" y1="-0.081" x2="0.554" y2="0.744" gradientUnits="objectBoundingBox">
      <stop offset="0" stop-color="#00fc9b"/>
      <stop offset="1" stop-color="#0082ff"/>
    </linearGradient>
  </defs>
  <g id="Group_996" data-name="Group 996" transform="translate(-140 -56)">
    <g id="Group_973" data-name="Group 973" transform="translate(315.942 80.543)">
      <g id="Group_9" data-name="Group 9">
        <g id="Group_8" data-name="Group 8" transform="translate(0 0)">
          <path id="Path_21" data-name="Path 21" d="M129.4,37.5h16.559V82.447a39.862,39.862,0,0,1,31.788-16.411c22.473,0,43.912,16.707,43.912,45.39,0,27.8-19.664,46.129-44.5,46.129-14.785,0-26.17-7.1-31.788-17.446v14.933h-15.82V37.5Zm75.7,74.221c0-16.855-12.863-30.162-29.866-30.162-17.742,0-29.866,13.75-29.866,30.162,0,16.559,11.828,30.457,29.422,30.457,19.664,0,30.161-15.376,30.309-30.309Z" transform="translate(-129.4 -35.282)"/>
          <path id="Path_22" data-name="Path 22" d="M202.9,37.5h16.559V54.946H202.9Zm0,31.2h16.559v86.493H202.9Z" transform="translate(-94.23 -35.282)"/>
          <path id="Path_23" data-name="Path 23" d="M228.7,37.5h16.559V155.041H228.7Z" transform="translate(-81.884 -35.282)"/>
          <path id="Path_24" data-name="Path 24" d="M254.5,37.5h16.559V155.041H254.5Z" transform="translate(-69.539 -35.282)"/>
          <path id="Path_25" data-name="Path 25" d="M280.3,37.5h16.559V54.946H280.3Zm0,31.2h16.559v86.493H280.3Z" transform="translate(-57.194 -35.282)"/>
          <path id="Path_26" data-name="Path 26" d="M326.3,123.8H309V103.1h17.3Z" transform="translate(-43.46 -3.892)"/>
          <path id="Path_27" data-name="Path 27" d="M377.868,82.035c0-6.653-4.14-11.828-12.567-11.532-8.132,0-12.567,5.47-12.42,11.089.3,6.8,6.506,10.054,15.672,12.567,13.159,3.7,27.648,7.54,28.092,26.022.3,16.855-13.6,28.239-30.753,28.239-13.6,0-30.6-7.836-31.492-27.5h16.411c.592,10.5,9.019,14.046,15.229,14.046,7.984,0,14.194-5.618,14.194-12.863-.148-8.575-6.653-11.384-22.03-16.559-12.124-3.7-21.586-9.315-21.734-22.473,0-16.411,13.307-26.17,29.127-26.17,11.976,0,27.5,5.914,28.831,25.135H377.868Z" transform="translate(-31.306 -25.999)"/>
          <path id="Path_28" data-name="Path 28" d="M384.7,102.438c0-23.065,17-45.538,46.129-45.538s46.129,22.621,46.129,45.834-17,45.538-46.129,45.538S384.7,125.8,384.7,102.734Zm16.559.3c0,17.151,13.011,30.014,29.57,30.014s29.57-12.863,29.57-30.161-13.011-30.161-29.57-30.161-29.57,12.863-29.57,30.161Z" transform="translate(-7.237 -25.999)"/>
          <path id="Path_29" data-name="Path 29" d="M463.428,82.277H451.6V69.414h11.828V63.5c0-26.022,20.108-27.352,32.379-27.5V49.011c-5.618.148-15.82.148-15.82,15.229v5.027h15.82V82.129h-15.82v73.63H463.428Z" transform="translate(24.775 -36)"/>
          <path id="Path_30" data-name="Path 30" d="M498.924,81.559H483.4V68.7h15.524V37.5h16.559V68.7h16.707V81.559H515.484v73.63H498.924Z" transform="translate(39.991 -35.282)"/>
          <path id="Path_31" data-name="Path 31" d="M518.3,58.648h17.3L556,124l18.333-60.323h13.75l18.777,60.175,19.96-65.35h17.151l-28.535,86.64H599.766L581.137,84.67,562.951,145.14H547.279Z" transform="translate(56.691 -25.234)"/>
          <path id="Path_32" data-name="Path 32" d="M698.9,145.954H682.339V130.873c-6.062,11.532-18.481,17.594-32.083,17.594-27.8,0-44.355-21.586-44.355-45.834,0-26.317,19.22-45.834,44.355-45.834,17.15,0,28.091,9.462,32.083,17.742V59.461H698.9Zm-76.439-43.025c.148,12.863,9.167,30.014,30.161,30.014,13.159,0,22.621-7.245,26.909-17.151a32.1,32.1,0,0,0,2.957-12.863,27.45,27.45,0,0,0-2.513-12.863c-4.14-10.054-13.75-17.742-27.648-17.742-18.186,0-29.866,14.342-29.866,30.457Z" transform="translate(98.608 -26.047)"/>
          <path id="Path_33" data-name="Path 33" d="M683.548,59.413h15.524V72.129c4.879-10.2,14.046-15.081,25.726-15.229V73.311h-1.183c-15.524,0-23.656,8.575-23.656,25.726v46.721H683.4V59.413Z" transform="translate(135.692 -25.999)"/>
          <path id="Path_34" data-name="Path 34" d="M728.907,107.956c.739,17.446,16.116,26.317,29.127,26.317,11.532,0,20.108-5.618,24.987-14.637h17.151c-4.14,9.462-10.2,16.707-17.446,21.438a43.907,43.907,0,0,1-24.691,7.245c-28.24,0-45.834-22.769-45.834-45.538,0-24.839,19.368-45.982,45.538-45.982a45.037,45.037,0,0,1,31.936,12.715c10.2,10.35,14.489,23.8,13.01,38.293H728.907Zm57.514-12.863c-.739-11.385-12.271-24.248-28.535-23.952-16.855,0-27.8,12.272-28.535,23.952Z" transform="translate(149.473 -26.047)"/>
        </g>
      </g>
    </g>
    <path id="Path_35" data-name="Path 35" d="M143.466,118.46a44,44,0,0,0-23.213-15.376,39.374,39.374,0,0,0,18.481-16.411,45.908,45.908,0,0,0,6.21-23.213,46.843,46.843,0,0,0-2.809-16.116A48.362,48.362,0,0,0,134.3,33.3a42.592,42.592,0,0,0-12.272-10.054A34.569,34.569,0,0,0,105.911,19.4H10.4V190.759H93.936a85.889,85.889,0,0,0,22.473-2.809,59.333,59.333,0,0,0,18.629-8.132,39.523,39.523,0,0,0,12.567-13.6c3.1-5.47,4.583-11.828,4.583-19.368C151.893,135.315,149.084,125.852,143.466,118.46Z" transform="translate(129.6 36.6)" fill="url(#linear-gradient)"/>
    <path id="Path_36" data-name="Path 36" d="M94.688,92.548a3.123,3.123,0,0,1,3.1,3.1v5.618a30,30,0,0,1-17,27.057,30.2,30.2,0,0,1-17.89-27.5V92.4H94.688Z" transform="translate(154.722 71.531)" fill="#e6e6e6"/>
    <path id="Path_37" data-name="Path 37" d="M82.232,119.488v8.427a30.2,30.2,0,0,0,17.89,27.5,29.966,29.966,0,0,1-13.011,2.957h-34.6A30.035,30.035,0,0,1,22.5,128.359V39.2a3.123,3.123,0,0,1,3.1-3.1h53.67a3.123,3.123,0,0,1,3.1,3.1v80.283" transform="translate(135.39 44.591)" fill="#fff"/>
    <g id="Group_16" data-name="Group 16" transform="translate(167.352 127.56)">
      <g id="Group_10" data-name="Group 10" transform="translate(0)">
        <rect id="Rectangle_13" data-name="Rectangle 13" width="28.239" height="3.696" fill="#0082ff"/>
      </g>
      <g id="Group_11" data-name="Group 11" transform="translate(19.812 7.54)">
        <rect id="Rectangle_14" data-name="Rectangle 14" width="22.621" height="3.696" fill="#0082ff"/>
      </g>
      <g id="Group_12" data-name="Group 12" transform="translate(0 7.54)">
        <rect id="Rectangle_15" data-name="Rectangle 15" width="9.462" height="3.696" fill="#0082ff"/>
      </g>
      <g id="Group_13" data-name="Group 13" transform="translate(0 22.621)">
        <rect id="Rectangle_16" data-name="Rectangle 16" width="28.239" height="3.696" fill="#0082ff"/>
      </g>
      <g id="Group_14" data-name="Group 14" transform="translate(0 30.162)">
        <rect id="Rectangle_17" data-name="Rectangle 17" width="22.621" height="3.696" fill="#0082ff"/>
      </g>
      <g id="Group_15" data-name="Group 15" transform="translate(0 15.081)">
        <rect id="Rectangle_18" data-name="Rectangle 18" width="43.025" height="3.696" fill="#0082ff"/>
      </g>
    </g>
    <g id="Group_17" data-name="Group 17" transform="translate(167.352 93.998)">
      <path id="Path_38" data-name="Path 38" d="M50.78,56.289a1.345,1.345,0,0,1-1.183.591H40.283c-.887,0-1.183-.3-1.183-1.183V46.235c0-.887.3-1.035,1.035-1.035H49.6a1.345,1.345,0,0,1,1.183.591C50.78,49.192,50.78,52.74,50.78,56.289ZM42.5,48.453V53.48h5.027V48.453Z" transform="translate(-24.019 -45.052)" fill="#0082ff"/>
      <path id="Path_39" data-name="Path 39" d="M29.491,67.08A1.345,1.345,0,0,1,28.9,65.9V56.583c0-.887.3-1.183,1.183-1.183h9.462c.887,0,1.183.3,1.183,1.183V65.9a1.345,1.345,0,0,1-.591,1.183Zm2.809-3.4h5.027V58.8H32.3Z" transform="translate(-28.9 -40.171)" fill="#0082ff"/>
      <path id="Path_40" data-name="Path 40" d="M39.691,67.08A1.345,1.345,0,0,1,39.1,65.9V64.715a.784.784,0,0,1,.887-.887h4.14V61.61c0-.739.3-1.035,1.035-1.035H47.38v-4.14c0-.739.3-1.035,1.035-1.035H49.6a1.345,1.345,0,0,1,1.183.591V67.228C47.084,67.08,43.388,67.08,39.691,67.08Z" transform="translate(-24.019 -40.171)" fill="#0082ff"/>
      <path id="Path_41" data-name="Path 41" d="M28.9,51.014V46.135c0-.739.3-1.035,1.035-1.035h9.61c.739,0,1.035.3,1.035,1.035v9.61c0,.739-.3,1.035-1.035,1.035h-9.61c-.739,0-1.035-.3-1.035-1.035Zm3.4,2.513h5.027V48.5H32.3Z" transform="translate(-28.9 -45.1)" fill="#0082ff"/>
      <path id="Path_42" data-name="Path 42" d="M44.127,57.813V59.44a.784.784,0,0,1-.887.887H39.987a.784.784,0,0,1-.887-.887V56.187a.784.784,0,0,1,.887-.887H43.24a.784.784,0,0,1,.887.887Z" transform="translate(-24.019 -40.219)" fill="#0082ff"/>
    </g>
    <path id="Path_43" data-name="Path 43" d="M62.9,92.6l5.766,5.766L74.432,92.6l5.618,5.618L85.669,92.6l5.618,5.618L97.2,92.3" transform="translate(154.722 71.483)" fill="#0082ff"/>
    <g id="Group_19" data-name="Group 19" transform="translate(167.352 174.428)">
      <g id="Group_18" data-name="Group 18">
        <line id="Line_4" data-name="Line 4" x2="0.739" fill="none" stroke="#0082ff" stroke-miterlimit="10" stroke-width="1"/>
        <line id="Line_5" data-name="Line 5" x2="38.737" transform="translate(2.218)" fill="none" stroke="#0082ff" stroke-miterlimit="10" stroke-width="1" stroke-dasharray="1.026 1.026"/>
        <line id="Line_6" data-name="Line 6" x2="0.739" transform="translate(41.694)" fill="none" stroke="#0082ff" stroke-miterlimit="10" stroke-width="1"/>
      </g>
    </g>
  </g>
</svg>
