<svg xmlns="http://www.w3.org/2000/svg" xmlns:xlink="http://www.w3.org/1999/xlink" width="842.128" height="679.266" viewBox="0 0 842.128 679.266">
  <defs>
    <radialGradient id="radial-gradient" cx="0.094" cy="0.375" r="1.549" gradientTransform="translate(-0.406) scale(1.812 1)" gradientUnits="objectBoundingBox">
      <stop offset="0" stop-color="#c8d9fb"/>
      <stop offset="0.036" stop-color="#c0d5fa"/>
      <stop offset="0.26" stop-color="#92bef7"/>
      <stop offset="0.475" stop-color="#6facf5"/>
      <stop offset="0.675" stop-color="#559ff3"/>
      <stop offset="0.856" stop-color="#4597f2"/>
      <stop offset="1" stop-color="#4094f2"/>
    </radialGradient>
    <linearGradient id="linear-gradient" x1="0.915" y1="1.011" x2="0.05" y2="-0.294" gradientUnits="objectBoundingBox">
      <stop offset="0" stop-color="#c8d9fb"/>
      <stop offset="1" stop-color="#5681f1"/>
    </linearGradient>
  </defs>
  <g id="login1" transform="translate(-336.273 -36.836)">
    <path id="Path_1831" data-name="Path 1831" d="M1127.578,682.991h-701.7S304.437,561.552,391.787,455.976,315.372,254.14,422.1,132.633C528.819,11.194,941.268,30.5,878.692,301.527,787.967,694.737,1261.506,301.527,1127.578,682.991Z" transform="translate(-7.771 -7.931)" fill="#d3efff" opacity="0.726"/>
    <g id="Group_910" data-name="Group 910" transform="translate(864.518 232.64)" opacity="0.199">
      <path id="Path_1832" data-name="Path 1832" d="M1332.589,496c-17.079-25.584-48.805-37.465-68.989-60.754-30.444-35.777-45.5-106.183-100.715-108.344-81.139,21.871-31.052,135.75-1.147,184.015,51.438,77.359,101.863,32.6,163.764,60.281C1371.337,591.65,1346.427,513.278,1332.589,496Z" transform="translate(-1118.815 -326.9)" fill="#17a2f0"/>
    </g>
    <ellipse id="Ellipse_1" data-name="Ellipse 1" cx="167.612" cy="12.016" rx="167.612" ry="12.016" transform="translate(758.257 692.071)" fill="#c8d9fb" opacity="0.25"/>
    <ellipse id="Ellipse_2" data-name="Ellipse 2" cx="98.556" cy="12.016" rx="98.556" ry="12.016" transform="translate(547.443 692.071)" fill="#c8d9fb" opacity="0.25"/>
    <path id="Path_1833" data-name="Path 1833" d="M1326.426,390.063a10.463,10.463,0,1,1-10.463-10.463A10.429,10.429,0,0,1,1326.426,390.063Z" transform="translate(-314.962 -111.385)" fill="#c8d9fb"/>
    <path id="Path_1834" data-name="Path 1834" d="M513.426,561.363A10.463,10.463,0,1,1,502.963,550.9,10.429,10.429,0,0,1,513.426,561.363Z" transform="translate(-50.768 -167.051)" fill="#c8d9fb"/>
    <g id="Group_912" data-name="Group 912" transform="translate(989.414 216.703)">
      <path id="Path_1835" data-name="Path 1835" d="M1424.9,854.2h4.86l-.81,32.739h-4.05Z" transform="translate(-1343.176 -482.315)" fill="#5ca88d"/>
      <g id="Group_911" data-name="Group 911">
        <path id="Path_1836" data-name="Path 1836" d="M1431.123,658.3c1.823-1.62,51.776-47.118,45.9-104.226s-53.6-71.217-40.03-137.775c13.568-66.491,0-112.461-41.177-113-41.178-.608-60.078,39.422-44.755,110.706,15.324,71.217-50.29,99.1-47.118,151.276C1307.659,625.492,1355.182,724.25,1431.123,658.3Z" transform="translate(-1303.834 -303.29)" fill="#7ac094"/>
        <path id="Path_1837" data-name="Path 1837" d="M1397.8,312.208c.743,3.173,2.565,6.278,5.6,7.7,2.835,1.283,6.075,1.012,9.046.473,5.468-.945,11-3.038,16.673-2.3a25.354,25.354,0,0,1,8.1,2.9,45.487,45.487,0,0,1,7.9,4.928,42.893,42.893,0,0,1,11.678,13.433c3.24,6.008,4.32,12.623,4.523,19.374.2,7.83-.473,15.593.878,23.356.945,5.13,2.5,10.8,6.143,14.716a12.22,12.22,0,0,0,2.295,1.89c7.831-56.906-6.75-94.91-44.215-95.383-11.341-.135-20.926,2.768-28.622,8.573Z" transform="translate(-1334.369 -303.291)" fill="#f2faff" opacity="0.2"/>
        <path id="Path_1838" data-name="Path 1838" d="M1438.7,582.309c-5.738-10.531-5.806-23.626-2.633-34.967a85.41,85.41,0,0,1,7.223-17.416c1.215-2.227,2.7-4.388,3.781-6.683a5.668,5.668,0,0,0,0-4.793c-1.08-2.9-2.7-5.67-3.916-8.573s-2.43-5.805-3.443-8.775a79,79,0,0,1-3.51-18.969c-.473-6.413-.27-13.1,1.822-19.238,1.823-5.468,5.805-9.923,7.83-15.323a32.728,32.728,0,0,1-8.505-7.628,49.731,49.731,0,0,1-6.48-11.543c0,9.113,0,18.226-.067,27.339-.068,36.317-.27,72.634-.338,108.951q-.1,48.5-.068,97.07c.675-2.3,1.418-4.658,2.228-6.953,7.29-20.521,19.441-38.747,31.186-56.906C1453.216,598.307,1443.7,591.557,1438.7,582.309Z" transform="translate(-1344.964 -343.946)" fill="#202234" opacity="0.15"/>
        <path id="Path_1839" data-name="Path 1839" d="M1403.714,716.571a35.276,35.276,0,0,1-16.808-3.578A31.382,31.382,0,0,1,1374.08,700.3a28.719,28.719,0,0,1-3.578-10.193c-.675-3.983-1.417-7.7-3.983-10.936-4.522-5.6-12.354-6.345-18.564-9.181-5.873-2.633-10.328-7.7-13.771-12.961a61.238,61.238,0,0,1-7.628-17.349c-3.578-12.893-3.982-26.731-2.295-39.962,1.552-12.286,4.725-24.369,10.868-35.237,7.223-12.893,16.741-24.369,23.559-37.532a66.939,66.939,0,0,0,6.885-20.521,68.477,68.477,0,0,0-1.485-25.651c-2.16-9.248-5.6-18.159-9.113-27a158.047,158.047,0,0,1-7.966-25.179,242.194,242.194,0,0,0,4.253,26.056c15.324,71.216-50.29,99.1-47.117,151.276,3.105,52.653,39.76,134.6,99.568,110.639Z" transform="translate(-1303.9 -344.011)" fill="#202234" opacity="0.15"/>
        <path id="Path_1840" data-name="Path 1840" d="M1466.315,564.981a.577.577,0,0,0-.878,0l-52.18,52.181v-88.7l29.094-30.714a.621.621,0,1,0-.878-.878l-28.217,29.769V446.782l21.129-21.466a.621.621,0,0,0-.878-.878l-20.251,20.589V376.308a.608.608,0,0,0-1.215,0V472.1l-16.066-13.7a.622.622,0,0,0-.81.945l16.876,14.378V563.9l-31.862-31.862a.621.621,0,0,0-.878.878l32.74,32.739v52.99h0v83.165a.608.608,0,0,0,1.215,0V618.984l53.058-53.058A.653.653,0,0,0,1466.315,564.981Z" transform="translate(-1328.293 -326.821)" fill="#b8debf"/>
      </g>
    </g>
    <g id="Group_914" data-name="Group 914" transform="translate(395.92 452.497)">
      <path id="Path_1841" data-name="Path 1841" d="M474,877.8h2.025l-.338,13.365H474Z" transform="translate(-440.676 -725.779)" fill="#5ca88d"/>
      <g id="Group_913" data-name="Group 913" transform="translate(0)">
        <path id="Path_1842" data-name="Path 1842" d="M476.589,797.764c.743-.675,21.2-19.238,18.766-42.595s-21.871-29.094-16.336-56.3,0-45.97-16.808-46.172c-16.809-.27-24.5,16.133-18.293,45.227,6.278,29.094-20.521,40.5-19.239,61.833C426.163,784.331,445.6,824.7,476.589,797.764Z" transform="translate(-424.634 -652.628)" fill="#7ac094"/>
        <path id="Path_1843" data-name="Path 1843" d="M463,656.311a4.362,4.362,0,0,0,2.3,3.105,6.324,6.324,0,0,0,3.713.2c2.228-.4,4.523-1.215,6.818-.945a12.048,12.048,0,0,1,3.308,1.148,16.258,16.258,0,0,1,3.24,2.025,15.758,15.758,0,0,1,6.615,13.366c.068,3.173-.2,6.345.338,9.518a12.192,12.192,0,0,0,2.5,6.008,5.443,5.443,0,0,0,.945.81c3.173-23.221-2.768-38.747-18.091-38.95A18.606,18.606,0,0,0,463,656.109Z" transform="translate(-437.101 -652.596)" fill="#f2faff" opacity="0.2"/>
        <path id="Path_1844" data-name="Path 1844" d="M479.708,766.746c-2.363-4.32-2.363-9.653-1.08-14.311a32.8,32.8,0,0,1,2.97-7.088c.473-.945,1.08-1.755,1.553-2.7a2.216,2.216,0,0,0,0-1.958c-.472-1.215-1.08-2.363-1.62-3.51-.54-1.215-1.013-2.363-1.418-3.578a30.822,30.822,0,0,1-1.418-7.763,19.157,19.157,0,0,1,.743-7.83c.742-2.228,2.363-4.05,3.173-6.278a12.63,12.63,0,0,1-3.443-3.105,20.191,20.191,0,0,1-2.633-4.725v11.138c-.067,14.851-.067,29.7-.135,44.485v39.692c.27-.945.54-1.89.878-2.835,2.97-8.37,7.966-15.8,12.758-23.221A11.631,11.631,0,0,1,479.708,766.746Z" transform="translate(-441.456 -669.268)" fill="#202234" opacity="0.15"/>
        <path id="Path_1845" data-name="Path 1845" d="M465.448,821.624a15.2,15.2,0,0,1-6.885-1.418,13.438,13.438,0,0,1-5.265-5.2,12.9,12.9,0,0,1-1.485-4.185,8.71,8.71,0,0,0-1.62-4.455c-1.89-2.3-5.063-2.632-7.56-3.78a14.006,14.006,0,0,1-5.6-5.265,24.631,24.631,0,0,1-3.105-7.088,41.642,41.642,0,0,1-.945-16.336,38.411,38.411,0,0,1,4.455-14.378c2.97-5.265,6.818-9.991,9.653-15.323a28.539,28.539,0,0,0,2.835-8.371,27.341,27.341,0,0,0-.608-10.463,78.086,78.086,0,0,0-3.713-11,62.359,62.359,0,0,1-3.24-10.261,99.859,99.859,0,0,0,1.755,10.666c6.278,29.094-20.521,40.5-19.239,61.834,1.148,21.331,16.133,54.813,40.57,45.025Z" transform="translate(-424.699 -669.333)" fill="#202234" opacity="0.15"/>
        <path id="Path_1846" data-name="Path 1846" d="M490.983,759.627a.307.307,0,0,0-.338,0l-21.331,21.331v-36.25l11.881-12.556a.306.306,0,0,0,0-.338.3.3,0,0,0-.337,0l-11.543,12.151v-32.6l8.641-8.776a.239.239,0,0,0-.338-.337l-8.3,8.3V682.47a.27.27,0,0,0-.54,0v39.152l-6.548-5.6a.239.239,0,0,0-.338.337l6.885,5.873v36.857l-12.961-12.961a.239.239,0,0,0-.338.338l13.366,13.366V781.5h0v33.954a.27.27,0,0,0,.54,0V781.566L491.05,759.9A.167.167,0,0,0,490.983,759.627Z" transform="translate(-434.64 -662.217)" fill="#b8debf"/>
      </g>
    </g>
    <g id="Group_916" data-name="Group 916" transform="translate(452.602 366.699)">
      <path id="Path_1847" data-name="Path 1847" d="M581.5,858.1h2.9l-.4,19.779h-2.5Z" transform="translate(-532.292 -633.579)" fill="#5ca88d"/>
      <g id="Group_915" data-name="Group 915">
        <path id="Path_1848" data-name="Path 1848" d="M585.353,739.823c1.08-.945,31.254-28.419,27.744-62.914-3.578-34.494-32.334-43-24.167-83.165s0-67.841-24.841-68.246c-24.841-.337-36.249,23.829-27,66.829s-30.309,59.808-28.419,91.333C510.761,719.977,539.518,779.65,585.353,739.823Z" transform="translate(-508.603 -525.495)" fill="#7ac094"/>
        <path id="Path_1849" data-name="Path 1849" d="M565.167,530.932a6.657,6.657,0,0,0,3.375,4.658,9.406,9.406,0,0,0,5.468.27c3.308-.608,6.683-1.823,10.058-1.35a14.534,14.534,0,0,1,4.86,1.755,27,27,0,0,1,4.793,2.97,26.051,26.051,0,0,1,7.02,8.1,25.141,25.141,0,0,1,2.7,11.678c.135,4.725-.27,9.451.54,14.108.54,3.105,1.552,6.48,3.713,8.91a7.164,7.164,0,0,0,1.35,1.148c4.725-34.359-4.05-57.243-26.664-57.581-6.818-.067-12.623,1.688-17.281,5.13A.247.247,0,0,0,565.167,530.932Z" transform="translate(-526.962 -525.528)" fill="#f2faff" opacity="0.2"/>
        <path id="Path_1850" data-name="Path 1850" d="M589.9,693.953c-3.443-6.345-3.51-14.243-1.62-21.129a51.089,51.089,0,0,1,4.388-10.531c.743-1.35,1.62-2.633,2.3-3.983a3.364,3.364,0,0,0,0-2.9c-.675-1.755-1.62-3.443-2.362-5.2s-1.485-3.51-2.093-5.333A44.119,44.119,0,0,1,588.41,633.4a30.676,30.676,0,0,1,1.08-11.611c1.08-3.307,3.51-6.008,4.725-9.248a19.587,19.587,0,0,1-5.13-4.59A29.283,29.283,0,0,1,585.17,601v16.471c-.067,21.939-.135,43.81-.2,65.749-.068,19.509-.068,39.084-.068,58.593.405-1.418.81-2.768,1.35-4.185,4.388-12.353,11.746-23.356,18.834-34.359C598.6,703.606,592.866,699.556,589.9,693.953Z" transform="translate(-533.396 -550.031)" fill="#202234" opacity="0.15"/>
        <path id="Path_1851" data-name="Path 1851" d="M568.779,775.055a20.919,20.919,0,0,1-10.126-2.16,19.029,19.029,0,0,1-7.7-7.628,16.722,16.722,0,0,1-2.16-6.143c-.4-2.43-.81-4.658-2.43-6.615-2.768-3.375-7.426-3.848-11.206-5.535-3.51-1.62-6.21-4.658-8.3-7.831a37.134,37.134,0,0,1-4.59-10.463,63.012,63.012,0,0,1-1.418-24.1,58.657,58.657,0,0,1,6.548-21.264c4.388-7.763,10.126-14.716,14.243-22.681a40.516,40.516,0,0,0,4.185-12.353,41.086,41.086,0,0,0-.878-15.458,108.172,108.172,0,0,0-5.535-16.336,94.345,94.345,0,0,1-4.793-15.188,148.889,148.889,0,0,0,2.565,15.728c9.248,43-30.309,59.808-28.419,91.333,1.755,31.659,23.9,81.139,60.011,66.694Z" transform="translate(-508.635 -550.129)" fill="#202234" opacity="0.15"/>
        <path id="Path_1852" data-name="Path 1852" d="M606.5,683.451a.411.411,0,0,0-.54,0L574.44,714.976v-53.6l17.551-18.564a.382.382,0,0,0-.54-.54L574.44,660.23v-48.2L587.2,599.072a.382.382,0,0,0-.54-.54L574.44,610.952V569.505a.405.405,0,1,0-.81,0v57.851l-9.72-8.235a.385.385,0,0,0-.473.607l10.193,8.708v54.476l-19.239-19.239a.382.382,0,0,0-.54.54l19.779,19.779v32h0v50.223a.405.405,0,1,0,.81,0v-50.02L606.5,684.126A.6.6,0,0,0,606.5,683.451Z" transform="translate(-523.274 -539.665)" fill="#b8debf"/>
      </g>
    </g>
    <g id="Group_921" data-name="Group 921" transform="translate(336.273 515.102)">
      <g id="Group_917" data-name="Group 917" transform="translate(5.072 35.7)">
        <path id="Path_1853" data-name="Path 1853" d="M459.42,876.513s11.881-86.2-11.746-77.7S434.916,841.883,459.42,876.513Z" transform="translate(-373.275 -798.225)" fill="#394ca4"/>
        <path id="Path_1854" data-name="Path 1854" d="M431.55,883.113s-48.333-84.987-81.68-55.758C316.456,856.584,431.55,883.113,431.55,883.113Z" transform="translate(-343.786 -805.703)" fill="#100959"/>
        <path id="Path_1855" data-name="Path 1855" d="M355.208,828.285c.945,2.633,2.565,4.928,5.4,5.6,3.578.877,7.493-.2,11.071-.405a24.163,24.163,0,0,1,11.746,2.16,48.774,48.774,0,0,1,9.721,6.885c3.038,2.565,6.143,5.333,9.721,7.088,3.375,1.687,7.358,2.43,11.071,3.038h0c-16.673-20.521-40.3-41.312-59.336-26.394A17.772,17.772,0,0,0,355.208,828.285Z" transform="translate(-347.3 -805.689)" fill="#f2faff" opacity="0.5"/>
      </g>
      <g id="Group_920" data-name="Group 920">
        <g id="Group_918" data-name="Group 918">
          <path id="Path_1856" data-name="Path 1856" d="M361.065,905.3H778.373l-6.008-20.859-14.108-49.413a71.229,71.229,0,0,0-80.4-50.628L659.769,787.5a27.175,27.175,0,0,1-3.983.337,24.072,24.072,0,0,1-20.049-10.8c-30.984-46.51-101.121-40.772-124.139,10.193l-3.105,6.818a23.96,23.96,0,0,1-31.659,12.083L458.81,798.1a24.113,24.113,0,0,0-33.549,17.956l-2.7,15.593a23.966,23.966,0,0,1-4.253,10.126c-.405.54-.81,1.013-1.215,1.485a24.062,24.062,0,0,1-14.041,7.965,22.145,22.145,0,0,1-4.253.405,23.508,23.508,0,0,1-13.231-3.983,23.679,23.679,0,0,0-29.9,3.308l-12.083,12.083C327.988,878.633,338.991,905.3,361.065,905.3Z" transform="translate(-336.273 -745.339)" fill="#4094f2"/>
          <path id="Path_1857" data-name="Path 1857" d="M344.868,896.117c2.43-3.645,3.915-7.9,6.548-11.408,5.4-7.223,15.391-8.708,23.829-7.29,5.67.945,11.071,2.97,16.943,2.5a83.781,83.781,0,0,0,13.568-2.295c8.708-2.3,17.551-6.548,22.479-14.513,4.86-7.9,2.565-18.293,8.3-25.786,6.21-8.033,16.876-7.291,25.449-4.118,4.793,1.755,9.113,4.725,13.906,6.345a32.56,32.56,0,0,0,17.619.878,39.347,39.347,0,0,0,8.708-3.1,12.856,12.856,0,0,0,4.523-3.308,13.245,13.245,0,0,0,2.633-8.91,16.04,16.04,0,0,0-1.215-5.6,24.01,24.01,0,0,1-31.052,10.8l-18.023-8.033a24.112,24.112,0,0,0-33.549,17.956l-2.7,15.594a23.966,23.966,0,0,1-4.253,10.125c-.405.54-.81,1.013-1.215,1.485a24.06,24.06,0,0,1-14.041,7.965,22.144,22.144,0,0,1-4.253.405,23.505,23.505,0,0,1-13.231-3.983,23.679,23.679,0,0,0-29.9,3.308l-12.083,12.083a24.037,24.037,0,0,0-7.155,14.986A14.211,14.211,0,0,0,344.868,896.117Z" transform="translate(-336.411 -769.439)" fill="#f2faff" opacity="0.2"/>
          <path id="Path_1858" data-name="Path 1858" d="M531.617,913.712c10.868-21.4,27.677-38.815,43.945-56.3,2.025-2.16,4.05-4.32,6.008-6.548a42.152,42.152,0,0,0,5.6-6.953c.54-.945,1.688-3.038,1.013-4.185-.54-.877-1.958-.54-2.768-.27a12.814,12.814,0,0,0-5.063,3.645,44.435,44.435,0,0,1-5.6,5.67c-3.713,2.9-8.033,4.523-12.556,5.805-5.2,1.418-10.4,2.633-15.323,4.793a47.858,47.858,0,0,0-12.893,7.965,41.579,41.579,0,0,0-13.3,25.179c-.742,4.793.135,10.058-1.958,14.581-1.958,4.118-5.94,6.075-9.856,8.1a81.335,81.335,0,0,1-12.961,5.535c-3.105.945-7.02,1.823-10.125.405-5.738-2.633-2.43-11-.878-15.189a89.5,89.5,0,0,0,3.038-8.438c.81-3.105.27-7.628-3.105-8.91-4.725-1.823-9.315,2.092-10.868,6.21a21.126,21.126,0,0,0-.473,12.758c.81,3.105,2.9,7.965-.54,10.261-4.388,2.9-9.113-.54-12.083-3.713a55.975,55.975,0,0,1-7.9-11.881c-2.3-4.253-4.59-8.573-8.168-11.88-3.51-3.173-8.708-5.535-13.5-4.388-4.05.945-6.48,4.523-7.088,8.505a16.453,16.453,0,0,0,.338,6.548,12.806,12.806,0,0,0,1.62,3.51,6.206,6.206,0,0,1,.945,1.89c1.013,4.388-3.713,7.7-6.075,10.6-3.173,3.915-4.86,9.45-5.805,14.311-.27,1.417-.405,2.835-.54,4.32H520.006c1.148-1.823,2.3-3.713,3.375-5.6C526.351,924.782,528.849,919.18,531.617,913.712Z" transform="translate(-361.759 -775.828)" fill="#202234" opacity="0.15"/>
          <path id="Path_1859" data-name="Path 1859" d="M427.5,939.851H807.951l-6.008-20.859A85.09,85.09,0,0,0,730.727,898.4l-14.108,2.362-7.56,1.283a30.332,30.332,0,0,1-4.928.4,27.938,27.938,0,0,1-10.261-1.89,28.844,28.844,0,0,1-13.7-10.936,86.141,86.141,0,0,0-16.606-18.5,73.058,73.058,0,0,0-7.425-5.535,84.409,84.409,0,0,0-45.7-13.906,85.147,85.147,0,0,0-78.979,50.155l-3.713,8.1a28.79,28.79,0,0,1-38.072,14.446l-10.936-4.928L468.2,914.739a28.458,28.458,0,0,0-14.581-2.363,28.826,28.826,0,0,0-25.651,23.829Z" transform="translate(-365.918 -779.893)" fill="#f2faff" opacity="0.25"/>
          <path id="Path_1860" data-name="Path 1860" d="M504,864.825a7.425,7.425,0,1,0,7.425-7.426A7.4,7.4,0,0,0,504,864.825Z" transform="translate(-390.778 -781.754)" fill="#100959"/>
          <path id="Path_1861" data-name="Path 1861" d="M506.5,867.425A7.426,7.426,0,1,0,513.925,860,7.4,7.4,0,0,0,506.5,867.425Z" transform="translate(-391.59 -782.6)" fill="#202234" opacity="0.15"/>
          <path id="Path_1862" data-name="Path 1862" d="M663.3,948.725a7.425,7.425,0,1,0,7.426-7.425A7.4,7.4,0,0,0,663.3,948.725Z" transform="translate(-442.544 -809.019)" fill="#394ca4"/>
          <path id="Path_1863" data-name="Path 1863" d="M621.2,805.711A14.311,14.311,0,1,0,635.511,791.4,14.318,14.318,0,0,0,621.2,805.711Z" transform="translate(-428.863 -760.307)" fill="#202234" opacity="0.15"/>
          <path id="Path_1864" data-name="Path 1864" d="M623.8,798.211A14.311,14.311,0,1,0,638.111,783.9,14.319,14.319,0,0,0,623.8,798.211Z" transform="translate(-429.708 -757.87)" fill="#394ca4"/>
        </g>
        <g id="Group_919" data-name="Group 919" transform="translate(64.263 110.68)">
          <path id="Path_1865" data-name="Path 1865" d="M504.171,954.667s33.482-42.19,18.158-45.093C507.074,906.672,502.011,928.476,504.171,954.667Z" transform="translate(-454.942 -909.305)" fill="#100959"/>
          <path id="Path_1866" data-name="Path 1866" d="M505.773,928.741a4.565,4.565,0,0,0,3.173-2.9c1.35-2.835,1.215-6.143,2.768-8.911a7.694,7.694,0,0,1,3.443-3.105c1.418-.675,2.97-.945,4.32-1.755,1.282-.743,1.553-1.688.54-2.768-7.966.135-12.691,7.9-14.716,19.508A1,1,0,0,0,505.773,928.741Z" transform="translate(-455.463 -909.3)" fill="#f2faff" opacity="0.5"/>
          <path id="Path_1867" data-name="Path 1867" d="M480.7,955.046s-21.061-56.7-44.35-42.19C413.062,927.437,480.7,955.046,480.7,955.046Z" transform="translate(-431.472 -909.683)" fill="#394ca4"/>
          <path id="Path_1868" data-name="Path 1868" d="M440.1,912.412a3,3,0,0,0,1.215,1.215,8.059,8.059,0,0,0,3.105.2,30.388,30.388,0,0,1,6.548.2,19.473,19.473,0,0,1,6.413,3.105c3.443,2.43,5.738,6.278,9.316,8.573a18.1,18.1,0,0,0,2.3,1.147C461.094,915.585,450.833,906.539,440.1,912.412Z" transform="translate(-434.275 -909.711)" fill="#f2faff" opacity="0.2"/>
          <path id="Path_1869" data-name="Path 1869" d="M504.4,964.707s77.832-9.45,58.188-21.8S504.4,964.707,504.4,964.707Z" transform="translate(-455.171 -919.345)" fill="#394ca4"/>
          <path id="Path_1870" data-name="Path 1870" d="M542.25,947.434c2.3-.405,3.983-1.755,5.94-2.9a20.78,20.78,0,0,1,5.941-2.43c2.97-.608,6.008.135,8.978-.27,1.08-.135,2.3-.473,2.7-1.552-7.763-.473-16.741,2.9-24.909,7.29A4.822,4.822,0,0,0,542.25,947.434Z" transform="translate(-467.031 -919.353)" fill="#f2faff" opacity="0.2"/>
        </g>
      </g>
    </g>
    <g id="Group_926" data-name="Group 926" transform="translate(854.113 565.856)">
      <g id="Group_922" data-name="Group 922" transform="translate(237.605 24.347)">
        <path id="Path_1871" data-name="Path 1871" d="M1457.421,910.064s-8.1-58.863,8.033-53.058S1474.229,886.37,1457.421,910.064Z" transform="translate(-1455.387 -856.597)" fill="#394ca4"/>
        <path id="Path_1872" data-name="Path 1872" d="M1457.915,866.791a6.28,6.28,0,0,0,1.485-2.7,8.26,8.26,0,0,1,1.755-2.97,6.565,6.565,0,0,1,3.78-1.755c1.35-.2,2.835,0,4.185-.473.067,0,.067-.068.135-.068a15.057,15.057,0,0,0-3.443-1.823c-5.2-1.89-7.9,2.97-9.113,10.4A3.42,3.42,0,0,0,1457.915,866.791Z" transform="translate(-1455.814 -856.594)" fill="#f2faff" opacity="0.2"/>
        <path id="Path_1873" data-name="Path 1873" d="M1472.916,870.805a46.709,46.709,0,0,1-1.553,12.961,49.47,49.47,0,0,1-1.957,5.265,7.592,7.592,0,0,1-2.633,3.51c-2.7,1.755-5.873-.068-7.763-2.093a32.269,32.269,0,0,0-3.51-3.915,244.776,244.776,0,0,0,2.025,27.136c12.759-17.956,20.049-35.844,15.729-45.97A16.168,16.168,0,0,0,1472.916,870.805Z" transform="translate(-1455.424 -860.203)" fill="#202234" opacity="0.15"/>
        <path id="Path_1874" data-name="Path 1874" d="M1456.8,914.558s33.009-58.053,55.825-38.072C1535.375,896.466,1456.8,914.558,1456.8,914.558Z" transform="translate(-1455.847 -861.698)" fill="#100959"/>
        <path id="Path_1875" data-name="Path 1875" d="M1489.322,885.657a19.785,19.785,0,0,0,2.768.2h.2a7.167,7.167,0,0,1,.945-.2,7.115,7.115,0,0,0,2.43-1.553,31.114,31.114,0,0,1,4.186-3.713c3.645-2.16,8.1-2.5,12.218-3.308,1.823-.337,4.928-.472,5.67-2.5a2.479,2.479,0,0,0,.068-1.215c-9.383-3.375-19.711,3.308-28.621,12.286C1489.12,885.59,1489.187,885.657,1489.322,885.657Z" transform="translate(-1466.362 -861.757)" fill="#f2faff" opacity="0.2"/>
        <path id="Path_1876" data-name="Path 1876" d="M1514.753,897.188a18.765,18.765,0,0,1-10.125,3.24,27.912,27.912,0,0,0-5.806.27,8.011,8.011,0,0,0-4.522,2.9c-2.363,2.633-4.59,5-7.9,6.413-3.51,1.485-7.358,1.688-11.07,1.62-1.553-.068-2.97-.2-4.523-.405-1.147-.135-2.7-.338-3.712.27-1.418.743-1.35,3.105-1.148,4.455a8.877,8.877,0,0,0,1.012,2.633c15.8-4.253,52.046-15.458,52.72-28.487C1518.6,892.868,1517.453,895.365,1514.753,897.188Z" transform="translate(-1458.783 -867.482)" fill="#202234" opacity="0.15"/>
      </g>
      <g id="Group_925" data-name="Group 925">
        <g id="Group_923" data-name="Group 923">
          <path id="Path_1877" data-name="Path 1877" d="M1388.469,929.73H1103.4l4.118-14.243,9.586-33.752a48.648,48.648,0,0,1,54.948-34.562l12.354,2.16a18.862,18.862,0,0,0,2.7.2,16.423,16.423,0,0,0,13.7-7.358c21.2-31.794,69.056-27.811,84.785,6.953l2.093,4.658a16.394,16.394,0,0,0,21.669,8.236l12.286-5.535a16.4,16.4,0,0,1,19.644,4.86,15.53,15.53,0,0,1,3.24,7.358l1.823,10.665a16.916,16.916,0,0,0,2.9,6.953l.81,1.013a16.476,16.476,0,0,0,9.586,5.468,14.106,14.106,0,0,0,2.9.27,16.16,16.16,0,0,0,9.046-2.768,16.28,16.28,0,0,1,20.453,2.228l8.236,8.235C1411.082,911.5,1403.522,929.73,1388.469,929.73Z" transform="translate(-1103.4 -820.526)" fill="#4094f2"/>
          <path id="Path_1878" data-name="Path 1878" d="M1419.547,940.123c-1.755-5.4-8.438-10.531-14.311-9.248a1.306,1.306,0,0,1-1.553-.877c-1.35-3.713.27-9.586-3.713-11.881-3.037-1.755-7.493-.675-10.26,1.215-7.088,4.928-6.953,14.176-8.235,21.871a1.239,1.239,0,0,1-2.093.54,34.846,34.846,0,0,1-3.713-6.075,79.2,79.2,0,0,0-5.265-8.1c-1.215-1.62-3.105-4.32-5.333-4.658-2.835-.472-2.633,4.59-2.228,6.278.878,4.118,3.24,7.763,4.32,11.813a1.306,1.306,0,0,1-.877,1.553,5.97,5.97,0,0,1-4.793-1.283c-1.823-1.215-3.173-2.43-5.4-2.9-3.1-.675-8.1-.675-9.855-3.915a7.406,7.406,0,0,1-.405-3.847c.068-2.43.27-4.86.338-7.358a27.891,27.891,0,0,0-3.376-13.568c-3.712-6.818-9.585-12.691-15.728-17.281a57.622,57.622,0,0,0-20.386-10.058c-14.108-3.578-30.241-.338-39.219,11.813a41.366,41.366,0,0,0-7.223,18.159c-1.148,7.56-.27,15.391.675,22.951.54,4.725,1.35,9.451,2.363,14.108h155.259A11.219,11.219,0,0,0,1419.547,940.123Z" transform="translate(-1154.189 -840.167)" fill="#202234" opacity="0.15"/>
          <path id="Path_1879" data-name="Path 1879" d="M1310.406,830.922c3.915,2.3,8.641,2.7,12.96,3.848a25.022,25.022,0,0,1,10.126,5c4.522,3.78,7.087,9.18,10.125,14.176,3.646,5.94,8.573,11.746,15.459,13.838,7.56,2.3,14.041-3.105,21.331-4.185a24.951,24.951,0,0,1,16.876,3.038c5.131,3.1,8.843,8.1,11.678,13.3,2.7,5.13,5.4,10.193,10.868,12.758,7.088,3.308,14.985,2.43,21.938-.675a38.266,38.266,0,0,0,6.683-3.848,15.747,15.747,0,0,0-12.353,2.16,16.157,16.157,0,0,1-9.046,2.768,14.092,14.092,0,0,1-2.9-.27,16.477,16.477,0,0,1-9.586-5.468l-.81-1.013a16.539,16.539,0,0,1-2.9-6.953l-1.823-10.665a16.215,16.215,0,0,0-3.24-7.358,16.42,16.42,0,0,0-19.644-4.86l-12.286,5.535a16.416,16.416,0,0,1-21.669-8.235l-2.093-4.658a48.358,48.358,0,0,0-48.2-28.419C1303.993,824.779,1306.423,828.627,1310.406,830.922Z" transform="translate(-1167.905 -820.544)" fill="#f2faff" opacity="0.2"/>
          <path id="Path_1880" data-name="Path 1880" d="M1363.29,953.307H1103.4l4.118-14.243a57.963,57.963,0,0,1,48.67-14.041l9.585,1.62,5.2.877a20.266,20.266,0,0,0,10.4-1.012,19.381,19.381,0,0,0,9.316-7.493,56.9,56.9,0,0,1,11.341-12.623,44.8,44.8,0,0,1,5.063-3.78,57.576,57.576,0,0,1,31.254-9.518,55.712,55.712,0,0,1,18.834,2.835,57.151,57.151,0,0,1,35.1,31.457l2.5,5.535a19.646,19.646,0,0,0,25.989,9.855l7.493-3.375,7.223-3.24a19.2,19.2,0,0,1,9.99-1.62,19.739,19.739,0,0,1,17.551,16.269Z" transform="translate(-1103.4 -844.104)" fill="#f2faff" opacity="0.25"/>
          <path id="Path_1881" data-name="Path 1881" d="M1431.326,902.063a5.063,5.063,0,1,1-5.063-5.063A5.1,5.1,0,0,1,1431.326,902.063Z" transform="translate(-1206.673 -845.377)" fill="#394ca4"/>
          <path id="Path_1882" data-name="Path 1882" d="M1338.226,927.163a5.063,5.063,0,1,1-5.063-5.063A5.1,5.1,0,0,1,1338.226,927.163Z" transform="translate(-1176.419 -853.533)" fill="#100959"/>
          <path id="Path_1883" data-name="Path 1883" d="M1319.476,851.988a9.788,9.788,0,1,1-9.788-9.788A9.8,9.8,0,0,1,1319.476,851.988Z" transform="translate(-1167.255 -827.569)" fill="#202234" opacity="0.15"/>
          <path id="Path_1884" data-name="Path 1884" d="M1318.476,848.588a9.788,9.788,0,1,1-9.788-9.788A9.8,9.8,0,0,1,1318.476,848.588Z" transform="translate(-1166.93 -826.465)" fill="#100959"/>
        </g>
        <g id="Group_924" data-name="Group 924" transform="translate(182.534 75.554)">
          <path id="Path_1885" data-name="Path 1885" d="M1428.6,963.493s-22.884-28.824-12.421-30.782C1426.644,930.686,1430.087,945.6,1428.6,963.493Z" transform="translate(-1386.686 -932.476)" fill="#100959"/>
          <path id="Path_1886" data-name="Path 1886" d="M1415.1,936.535a12.267,12.267,0,0,1,3.1-.743,9.91,9.91,0,0,1,6.481,1.553,8.254,8.254,0,0,1,1.62,1.823c-2.025-4.793-5.332-7.426-10.126-6.548-2.16.405-2.9,2.025-2.7,4.32A4.09,4.09,0,0,0,1415.1,936.535Z" transform="translate(-1386.689 -932.452)" fill="#f2faff" opacity="0.2"/>
          <path id="Path_1887" data-name="Path 1887" d="M1427.468,963.75a8.927,8.927,0,0,1-2.768-1.147c3.78,5.805,7.56,10.53,7.56,10.53a83.087,83.087,0,0,0,.271-10.733A5.025,5.025,0,0,1,1427.468,963.75Z" transform="translate(-1390.344 -942.184)" fill="#202234" opacity="0.15"/>
          <path id="Path_1888" data-name="Path 1888" d="M1435.9,963.742s14.379-38.747,30.309-28.824S1435.9,963.742,1435.9,963.742Z" transform="translate(-1393.984 -932.725)" fill="#394ca4"/>
          <path id="Path_1889" data-name="Path 1889" d="M1451.4,945.313c1.215-1.08,1.89-2.5,3.173-3.51a18.22,18.22,0,0,1,4.522-2.43c1.553-.607,3.308-1.148,4.253-2.633a3.657,3.657,0,0,0,.337-3.24c-5.6.877-10.733,6.548-14.783,12.826A4.586,4.586,0,0,0,1451.4,945.313Z" transform="translate(-1398.208 -932.793)" fill="#f2faff" opacity="0.2"/>
          <path id="Path_1890" data-name="Path 1890" d="M1455.274,959.247c-2.025.338-4.86.338-6.548,1.62-.877.608-1.417,1.62-2.3,2.228a7.694,7.694,0,0,1-2.9,1.148,11.139,11.139,0,0,1-4.455.2c-2.025,4.185-3.172,7.291-3.172,7.291s15.593-6.346,25.516-13.636A39.3,39.3,0,0,1,1455.274,959.247Z" transform="translate(-1393.984 -940.787)" fill="#202234" opacity="0.15"/>
          <path id="Path_1891" data-name="Path 1891" d="M1415.721,970.334s-53.125-6.48-39.76-14.918C1389.4,946.977,1415.721,970.334,1415.721,970.334Z" transform="translate(-1373.805 -939.317)" fill="#394ca4"/>
          <path id="Path_1892" data-name="Path 1892" d="M1381.177,958.388c2.566.2,5-.742,7.493-1.012,3.443-.338,6.345.675,9.585,1.62a16.579,16.579,0,0,0,4.05.81c-8.168-4.725-17.956-8.505-24.706-4.59C1377.532,956.768,1379.422,958.254,1381.177,958.388Z" transform="translate(-1375.038 -939.32)" fill="#f2faff" opacity="0.2"/>
          <path id="Path_1893" data-name="Path 1893" d="M1407.126,972.893a28.139,28.139,0,0,1-4.793-.54c-1.62-.337-3.24-.878-4.928-1.215a16.207,16.207,0,0,0-3.105-.338,272.443,272.443,0,0,0,28.082,5.063s-2.5-2.16-6.278-4.928a2.655,2.655,0,0,1-.54.675c-.945.945-2.5,1.08-3.78,1.215A21.425,21.425,0,0,1,1407.126,972.893Z" transform="translate(-1380.465 -944.914)" fill="#202234" opacity="0.15"/>
        </g>
      </g>
    </g>
    <g id="Group_928" data-name="Group 928" transform="translate(574.174 94.257)">
      <g id="Group_927" data-name="Group 927" transform="translate(0 97.746)">
        <path id="Path_1894" data-name="Path 1894" d="M1205.26,356.5a4.84,4.84,0,0,0-4.86,4.86v84.717a4.86,4.86,0,0,0,9.721,0V361.36A4.84,4.84,0,0,0,1205.26,356.5Z" transform="translate(-854.983 -295.882)" fill="#383b4b"/>
        <path id="Path_1895" data-name="Path 1895" d="M693.56,266.7a4.84,4.84,0,0,0-4.86,4.86v20.589a4.86,4.86,0,1,0,9.721,0V271.628A4.9,4.9,0,0,0,693.56,266.7Z" transform="translate(-688.7 -266.7)" fill="#383b4b"/>
        <path id="Path_1896" data-name="Path 1896" d="M697.206,336.8a8.513,8.513,0,0,0-8.506,8.505v35.777a8.506,8.506,0,0,0,17.011,0V345.305A8.557,8.557,0,0,0,697.206,336.8Z" transform="translate(-688.7 -289.48)" fill="#383b4b"/>
        <path id="Path_1897" data-name="Path 1897" d="M697.206,413.3a8.513,8.513,0,0,0-8.506,8.506v35.777a8.506,8.506,0,0,0,17.011,0V421.805A8.557,8.557,0,0,0,697.206,413.3Z" transform="translate(-688.7 -314.339)" fill="#383b4b"/>
      </g>
      <path id="Path_1898" data-name="Path 1898" d="M1042.6,175.093V703.85H693.4V175.093A53.21,53.21,0,0,1,746.593,121.9H989.4A53.21,53.21,0,0,1,1042.6,175.093Z" transform="translate(-690.227 -121.9)" fill="#394ca4"/>
      <path id="Path_1899" data-name="Path 1899" d="M698.563,197.064c6.683-3.51,10.193-10.4,12.758-17.146,3.038-7.965,5.063-16.336,8.91-23.964a38.2,38.2,0,0,1,7.088-10.261,38.939,38.939,0,0,1,10.936-7.358c9.316-4.388,19.711-5.805,29.972-5.94,20.791-.27,41.177,4.388,61.766,6.143a484.528,484.528,0,0,0,48.468,1.688,337.49,337.49,0,0,0,54.678-5c15.121-2.768,30.309-6.75,44.282-13.231h-230.8A53.138,53.138,0,0,0,693.5,175.125v23.424A12.656,12.656,0,0,0,698.563,197.064Z" transform="translate(-690.26 -121.933)" fill="#f2faff" opacity="0.2"/>
      <path id="Path_1900" data-name="Path 1900" d="M1208.783,858.1v84.987H1204.8c.337-2.9.54-5.738.675-8.64.81-14.783-.135-29.7.135-44.485C1205.88,879.431,1206.42,868.5,1208.783,858.1Z" transform="translate(-856.413 -361.137)" fill="#202234" opacity="0.35"/>
      <path id="Path_1901" data-name="Path 1901" d="M1032.48,186.1V713.3H722.3V186.1a34.917,34.917,0,0,1,34.967-34.9H997.58A34.9,34.9,0,0,1,1032.48,186.1Z" transform="translate(-699.619 -131.421)" fill="url(#radial-gradient)"/>
      <path id="Path_1902" data-name="Path 1902" d="M1136.6,845v43.2q-25.719,25.213-51.235,50.7H1042.7Z" transform="translate(-803.736 -356.88)" fill="#f2faff" opacity="0.2"/>
    </g>
    <g id="Group_931" data-name="Group 931" transform="translate(1143.434 516.089)">
      <g id="Group_929" data-name="Group 929" transform="translate(12.961)">
        <path id="Path_1903" data-name="Path 1903" d="M1562.811,749.635h-10.193a1.418,1.418,0,1,1,0-2.835h10.193a1.418,1.418,0,1,1,0,2.835Z" transform="translate(-1551.2 -746.8)" fill="#4094f2"/>
      </g>
      <g id="Group_930" data-name="Group 930">
        <path id="Path_1904" data-name="Path 1904" d="M1537,749.635h-3.578a1.418,1.418,0,0,1,0-2.835H1537a1.384,1.384,0,0,1,1.418,1.418A1.426,1.426,0,0,1,1537,749.635Z" transform="translate(-1532 -746.8)" fill="#4094f2"/>
      </g>
    </g>
    <g id="Group_934" data-name="Group 934" transform="translate(980.817 375.073)">
      <g id="Group_932" data-name="Group 932" transform="translate(12.961)">
        <path id="Path_1905" data-name="Path 1905" d="M1321.911,540.735h-10.193a1.418,1.418,0,0,1,0-2.835h10.193a1.418,1.418,0,1,1,0,2.835Z" transform="translate(-1310.3 -537.9)" fill="#4094f2"/>
      </g>
      <g id="Group_933" data-name="Group 933">
        <path id="Path_1906" data-name="Path 1906" d="M1296.095,540.735h-3.578a1.418,1.418,0,0,1,0-2.835h3.578a1.418,1.418,0,0,1,0,2.835Z" transform="translate(-1291.1 -537.9)" fill="#4094f2"/>
      </g>
    </g>
    <g id="Group_937" data-name="Group 937" transform="translate(1099.962 415.981)">
      <g id="Group_935" data-name="Group 935">
        <path id="Path_1907" data-name="Path 1907" d="M1469.557,598.5h13.771a1.958,1.958,0,0,1,0,3.915h-13.771a1.958,1.958,0,1,1,0-3.915Z" transform="translate(-1467.6 -598.5)" fill="#c8d9fb"/>
      </g>
      <g id="Group_936" data-name="Group 936" transform="translate(26.326)">
        <path id="Path_1908" data-name="Path 1908" d="M1508.558,598.5h48.2a1.958,1.958,0,1,1,0,3.915h-48.2a1.958,1.958,0,1,1,0-3.915Z" transform="translate(-1506.6 -598.5)" fill="#c8d9fb"/>
      </g>
    </g>
    <g id="Group_940" data-name="Group 940" transform="translate(499.785 330.723)">
      <g id="Group_938" data-name="Group 938">
        <path id="Path_1909" data-name="Path 1909" d="M580.458,472.2h7.56a1.958,1.958,0,1,1,0,3.915h-7.56a1.959,1.959,0,0,1-1.958-1.958A2.052,2.052,0,0,1,580.458,472.2Z" transform="translate(-578.5 -472.2)" fill="#4094f2"/>
      </g>
      <g id="Group_939" data-name="Group 939" transform="translate(20.184)">
        <path id="Path_1910" data-name="Path 1910" d="M610.358,472.2h28.284a1.958,1.958,0,0,1,0,3.915H610.358a1.958,1.958,0,1,1,0-3.915Z" transform="translate(-608.4 -472.2)" fill="#4094f2"/>
      </g>
    </g>
    <g id="Group_942" data-name="Group 942" transform="translate(479.669 245.251)">
      <circle id="Ellipse_3" data-name="Ellipse 3" cx="19.306" cy="19.306" r="19.306" transform="matrix(0.189, -0.982, 0.982, 0.189, 0, 37.917)" fill="#eab213"/>
      <path id="Path_1911" data-name="Path 1911" d="M590.53,375.616a17.577,17.577,0,1,1-11.813-21.871A17.564,17.564,0,0,1,590.53,375.616Z" transform="translate(-551.108 -347.995)" fill="#eddaab"/>
      <path id="Path_1912" data-name="Path 1912" d="M566.3,359.521a17.666,17.666,0,0,1,4.05-3.375,13.706,13.706,0,0,1,5.2-1.283c2.633-.2,5.265.068,7.9.068a15.8,15.8,0,0,0-3.105-1.283,17.577,17.577,0,0,0-19.239,6.48A4.221,4.221,0,0,0,566.3,359.521Z" transform="translate(-552.73 -347.965)" fill="#f2faff" opacity="0.49"/>
      <path id="Path_1913" data-name="Path 1913" d="M589.326,366.72c-1.148.81-.742,3.24-.675,4.455.135,1.553.473,3.105.473,4.725,0,3.983-.81,8.843-4.32,11.273-1.148.743-2.43,1.08-3.578,1.755-1.012.54-1.958,1.283-3.038,1.755a8.39,8.39,0,0,1-6.75.135c-2.16-.878-5.535-3.51-8.438-3.848a17.86,17.86,0,0,0,7.83,4.928,17.6,17.6,0,0,0,20.454-25.314A1.739,1.739,0,0,0,589.326,366.72Z" transform="translate(-553.347 -352.329)" fill="#202234" opacity="0.15"/>
      <g id="Group_941" data-name="Group 941" transform="translate(14.243 11.286)">
        <path id="Path_1914" data-name="Path 1914" d="M582.153,381.2a7.14,7.14,0,0,1-4.455.608l-.743,2.5-2.7-.81.742-2.43a16.1,16.1,0,0,1-3.038-1.552,8.673,8.673,0,0,1-2.16-1.89l2.43-2.835a10.075,10.075,0,0,0,2.16,1.89,11.82,11.82,0,0,0,2.633,1.283c1.688.54,2.7.337,2.97-.54a1.089,1.089,0,0,0-.4-1.215,19.959,19.959,0,0,0-2.16-1.418c-1.148-.608-2.025-1.215-2.768-1.688a4.715,4.715,0,0,1-1.62-2.025,3.863,3.863,0,0,1-.067-2.9,4.728,4.728,0,0,1,2.43-2.9,6.8,6.8,0,0,1,4.59-.473l.743-2.5,2.7.81-.743,2.43a15.6,15.6,0,0,1,2.363,1.215,8.29,8.29,0,0,1,1.823,1.485l-2.363,2.9a10.242,10.242,0,0,0-4.05-2.565,3.978,3.978,0,0,0-2.093-.2,1.252,1.252,0,0,0-.945.878.977.977,0,0,0,.473,1.147,13.934,13.934,0,0,0,2.16,1.35,22.236,22.236,0,0,1,2.768,1.755,5.265,5.265,0,0,1,1.62,2.025,3.863,3.863,0,0,1,.068,2.9A4.993,4.993,0,0,1,582.153,381.2Z" transform="translate(-569.8 -362.3)" fill="#eab213"/>
      </g>
    </g>
    <path id="Path_1915" data-name="Path 1915" d="M1528.624,301.285a10.889,10.889,0,1,1-11.543-10.193A10.839,10.839,0,0,1,1528.624,301.285Z" transform="translate(-380.397 -82.618)" fill="#c8d9fb" opacity="0.25"/>
    <path id="Path_1916" data-name="Path 1916" d="M649.393,684.465a12.276,12.276,0,1,1-13.028-11.476A12.3,12.3,0,0,1,649.393,684.465Z" transform="translate(-93.782 -206.718)" fill="#c8d9fb" opacity="0.25"/>
    <path id="Path_1917" data-name="Path 1917" d="M1269.879,585.788a14.477,14.477,0,1,1-15.391-13.5A14.537,14.537,0,0,1,1269.879,585.788Z" transform="translate(-293.989 -173.993)" fill="#c8d9fb" opacity="0.25"/>
    <path id="Path_1918" data-name="Path 1918" d="M1515.679,517.185a14.477,14.477,0,1,1-15.391-13.5A14.539,14.539,0,0,1,1515.679,517.185Z" transform="translate(-373.865 -151.697)" fill="#c8d9fb" opacity="0.25"/>
    <g id="Group_943" data-name="Group 943" transform="translate(867.006 78.212)">
      <path id="Path_1919" data-name="Path 1919" d="M1181.566,123.694a73.038,73.038,0,0,0-57.851-25.516c-1.62.068-1.62,2.565,0,2.5a70.71,70.71,0,0,1,56.1,24.774c1.013,1.283,2.768-.54,1.755-1.755Z" transform="translate(-1122.5 -98.13)" fill="#5681f1"/>
    </g>
    <path id="Path_1920" data-name="Path 1920" d="M984.485,151.2H958.5Q840.432,269.365,722.3,387.463V412.71Q852.92,281.482,984.485,151.2Z" transform="translate(-125.444 -37.164)" fill="#f2faff" opacity="0.2"/>
    <path id="Path_1921" data-name="Path 1921" d="M1032.48,239.8V186.2a34.914,34.914,0,0,0-34.09-34.9,7.368,7.368,0,0,1-.945,9.856q-138.113,136.7-275.146,274.4V550.383Q877.221,394.955,1032.48,239.8Z" transform="translate(-125.444 -37.196)" fill="#f2faff" opacity="0.2"/>
    <g id="Group_946" data-name="Group 946" transform="translate(539.073 36.836)">
      <path id="Path_1922" data-name="Path 1922" d="M694.618,40.1,661.2,37.4s-24.5,1.62-24.5,23.356c0,15.458,19.441,11.948,24.5,45.633,0,0,46.173-16.471,77.022,0C751.862,91.943,728.708,45.028,694.618,40.1Z" transform="translate(-636.7 -37.019)" fill="#5681f1"/>
      <path id="Path_1923" data-name="Path 1923" d="M714.019,40.848,700.248,39.7c7.56,8.3,13.028,18.429,14.513,29.634.81,5.805.878,11.948-1.35,17.416-2.16,5.265-6.075,9.113-10.6,12.421-1.958,1.418-4.32,2.5-6.413,3.713,16.2-3.443,41.785-6.143,61.226,4.253C771.262,92.69,748.108,45.775,714.019,40.848Z" transform="translate(-656.1 -37.767)" fill="#7359af" opacity="0.35"/>
      <path id="Path_1924" data-name="Path 1924" d="M772.252,149.8H757.874s-15.593.743-22.074,12.016c0,0,54.408,171.46,52.315,279.4-2.16,107.938,43.2,71.217,86.338,116.579,43.2,45.3-32.4,105.779,10.8,133.793,43.2,28.082,107.939-176.995,32.4-353.99C842.051,160.6,772.252,149.8,772.252,149.8Z" transform="translate(-668.904 -73.545)" fill="#202234" opacity="0.15"/>
      <g id="Group_945" data-name="Group 945" transform="translate(24.504)">
        <path id="Path_1925" data-name="Path 1925" d="M673,37.149c48.13,8.1,67.774,44.552,73.579,76.482,7.223,40.03,0,231.268,23.626,307.817,9.991,32.4,41.92,44.485,70.947,56.636,39.625,16.471,73.917,32.807,40.3,100.041-58.391,116.512,34.562,125.625,34.562,125.625L1132.7,691.059s-47.32-103.821,0-149.453c47.32-45.5-58.256-74.727-96.463-114.756-38.14-40.1-3.645-185.7-.135-293.237,3.645-107.4-94.64-96.463-94.64-96.463H673Z" transform="translate(-673 -36.836)" fill="url(#linear-gradient)"/>
        <path id="Path_1926" data-name="Path 1926" d="M1127.278,426.849c-38.139-40.1-3.645-185.7-.067-293.237,3.645-107.4-94.64-96.463-94.64-96.463H956.494c13.3,5,26.327,10.936,39.49,16.336,22.006,9.046,45.025,16,65.614,28.082,17.011,9.923,32.334,25.989,34.089,46.51a39.553,39.553,0,0,1-6.48,25.651c-4.185,6.21-9.72,11.138-15.053,16.268-5.333,5.063-10.6,10.6-13.028,17.753-2.9,8.708-1.012,18.159,2.093,26.529,6.413,17.146,19.644,30.782,25.516,48.2,13.3,39.355-19.171,75.267-17.349,114.217,1.08,23.221,13.366,43.337,24.842,62.778,5.67,9.586,11.138,19.306,15.121,29.769a56.566,56.566,0,0,1,4.05,15.863c.473,6.21-.2,12.421-.607,18.631-.473,6.75-.675,13.568.81,20.184a39.811,39.811,0,0,0,6.953,14.446c5.94,8.1,14.041,14.311,21.129,21.264,6.075,6.008,10.733,12.893,15.121,20.184a199.146,199.146,0,0,1,12.893,25.382c5.94,14.378,10.463,30.512,2.228,44.89-6.548,11.543-18.361,18.969-30.377,23.829-14.378,5.873-30.039,8.708-45.43,10.126a249.133,249.133,0,0,1-43.742.27c-15.391-1.283-30.444-4.793-44.08-12.286a90.891,90.891,0,0,1-34.089-33.752,135.549,135.549,0,0,1-14.378-36.047c-34.495,93.628,45.093,101.458,45.093,101.458l216.822-12.623s-47.32-103.821,0-149.453C1271.062,496.175,1165.486,466.946,1127.278,426.849Z" transform="translate(-764.041 -36.836)" fill="#202234" opacity="0.15"/>
        <g id="Group_944" data-name="Group 944" transform="translate(84.717 27.99)" opacity="0.5">
          <path id="Path_1927" data-name="Path 1927" d="M805.318,78.3H1029.7a6.818,6.818,0,1,1,0,13.636H805.318a6.8,6.8,0,0,1-6.818-6.818A6.931,6.931,0,0,1,805.318,78.3Z" transform="translate(-798.5 -78.3)" fill="#c8d9fb"/>
          <path id="Path_1928" data-name="Path 1928" d="M1015.943,314.6h78.507a6.345,6.345,0,0,1,0,12.691h-78.709a6.335,6.335,0,0,1-6.345-6.683A6.5,6.5,0,0,1,1015.943,314.6Z" transform="translate(-867.03 -155.089)" fill="#c8d9fb"/>
          <path id="Path_1929" data-name="Path 1929" d="M1015.943,367.9h78.507a6.345,6.345,0,0,1,0,12.691h-78.709a6.335,6.335,0,0,1-6.345-6.683A6.5,6.5,0,0,1,1015.943,367.9Z" transform="translate(-867.03 -172.409)" fill="#c8d9fb"/>
          <path id="Path_1930" data-name="Path 1930" d="M860.343,367.9H938.85a6.345,6.345,0,0,1,0,12.691h-78.71a6.334,6.334,0,0,1-6.345-6.683A6.5,6.5,0,0,1,860.343,367.9Z" transform="translate(-816.466 -172.409)" fill="#c8d9fb"/>
          <path id="Path_1931" data-name="Path 1931" d="M829.115,429.4H1046.14a6.615,6.615,0,0,1,0,13.231H829.115a6.615,6.615,0,1,1,0-13.231Z" transform="translate(-806.299 -192.394)" fill="#c8d9fb"/>
          <path id="Path_1932" data-name="Path 1932" d="M838.113,508.6h211.22a6.413,6.413,0,1,1,0,12.826H838.113a6.453,6.453,0,0,1-6.413-6.413A6.367,6.367,0,0,1,838.113,508.6Z" transform="translate(-809.289 -218.131)" fill="#c8d9fb"/>
          <path id="Path_1933" data-name="Path 1933" d="M921.273,644.9h193.466a5.873,5.873,0,0,1,0,11.746H921.273a5.873,5.873,0,1,1,0-11.746Z" transform="translate(-836.488 -262.424)" fill="#c8d9fb"/>
          <path id="Path_1934" data-name="Path 1934" d="M1054,580.6h73.377a5.984,5.984,0,0,1,6.075,5.738,5.864,5.864,0,0,1-5.872,6.008h-73.512a5.877,5.877,0,0,1-5.873-5.873A5.777,5.777,0,0,1,1054,580.6Z" transform="translate(-879.642 -241.528)" fill="#c8d9fb"/>
          <path id="Path_1935" data-name="Path 1935" d="M876.475,580.6h85.46a5.873,5.873,0,0,1,0,11.746H876.272a5.865,5.865,0,0,1-5.873-6.008A6.03,6.03,0,0,1,876.475,580.6Z" transform="translate(-821.864 -241.528)" fill="#c8d9fb"/>
          <path id="Path_1936" data-name="Path 1936" d="M1010.738,699.6h189.483a5.738,5.738,0,1,1,0,11.476H1010.738a5.738,5.738,0,1,1,0-11.476Z" transform="translate(-865.605 -280.199)" fill="#c8d9fb"/>
          <path id="Path_1937" data-name="Path 1937" d="M1012.838,857.2h189.483a5.738,5.738,0,0,1,0,11.476H1012.838a5.738,5.738,0,1,1,0-11.476Z" transform="translate(-866.287 -331.413)" fill="#c8d9fb"/>
          <path id="Path_1938" data-name="Path 1938" d="M1020.337,801.8H1209.82a5.738,5.738,0,1,1,0,11.476H1020.337a5.738,5.738,0,1,1,0-11.476Z" transform="translate(-868.724 -313.41)" fill="#c8d9fb"/>
          <path id="Path_1939" data-name="Path 1939" d="M1042.338,750.9h189.483a5.738,5.738,0,1,1,0,11.476H1042.338a5.738,5.738,0,1,1,0-11.476Z" transform="translate(-875.873 -296.87)" fill="#c8d9fb"/>
          <path id="Path_1940" data-name="Path 1940" d="M1008.938,932.7h189.483a5.738,5.738,0,1,1,0,11.476H1008.938a5.738,5.738,0,0,1,0-11.476Z" transform="translate(-865.02 -355.947)" fill="#c8d9fb"/>
          <path id="Path_1941" data-name="Path 1941" d="M855.943,213.122H847.1V176.4h8.843Z" transform="translate(-814.293 -110.179)" fill="#c8d9fb"/>
          <path id="Path_1942" data-name="Path 1942" d="M899.947,213.122h-8.775l-13.028-22.816v22.816H869.3V176.4h8.843L891.1,199.216V176.4h8.843Z" transform="translate(-821.507 -110.179)" fill="#c8d9fb"/>
          <path id="Path_1943" data-name="Path 1943" d="M935.878,203.132l7.291-26.731h9.856l-12.353,36.722h-9.653L918.8,176.4h9.788Z" transform="translate(-837.593 -110.179)" fill="#c8d9fb"/>
          <path id="Path_1944" data-name="Path 1944" d="M1003.532,195.276a22.4,22.4,0,0,1-1.958,9.518,14.85,14.85,0,0,1-5.67,6.345,15.673,15.673,0,0,1-8.37,2.228,16.191,16.191,0,0,1-8.3-2.16,14.7,14.7,0,0,1-5.67-6.143,21.143,21.143,0,0,1-2.16-9.181v-2.093a22.4,22.4,0,0,1,1.958-9.518,14.846,14.846,0,0,1,5.67-6.345,15.911,15.911,0,0,1,8.438-2.228,15.6,15.6,0,0,1,8.3,2.228,14.85,14.85,0,0,1,5.671,6.345,20.855,20.855,0,0,1,2.025,9.383v1.62Zm-8.978-1.485q0-5.468-1.823-8.3a5.852,5.852,0,0,0-5.2-2.835c-4.455,0-6.75,3.308-7.021,9.991v2.7q0,5.366,1.823,8.3a6.266,6.266,0,0,0,10.531.068c1.215-1.89,1.823-4.658,1.823-8.168v-1.755Z" transform="translate(-854.686 -109.951)" fill="#c8d9fb"/>
          <path id="Path_1945" data-name="Path 1945" d="M1035.443,213.122H1026.6V176.4h8.843Z" transform="translate(-872.624 -110.179)" fill="#c8d9fb"/>
          <path id="Path_1946" data-name="Path 1946" d="M1077.949,200.409a13.277,13.277,0,0,1-2.092,6.75,12.552,12.552,0,0,1-5.333,4.523,18.035,18.035,0,0,1-7.831,1.62c-4.793,0-8.64-1.553-11.408-4.725s-4.185-7.56-4.185-13.3v-1.823a21.873,21.873,0,0,1,1.891-9.451,14.481,14.481,0,0,1,5.4-6.278,14.967,14.967,0,0,1,8.168-2.228c4.455,0,8.033,1.148,10.733,3.51a13.869,13.869,0,0,1,4.591,9.721h-8.843c-.068-2.228-.608-3.848-1.688-4.793a7.2,7.2,0,0,0-4.86-1.485,5.288,5.288,0,0,0-4.86,2.5q-1.519,2.43-1.62,7.9v2.565c0,3.915.473,6.683,1.485,8.37s2.7,2.5,5.063,2.5a6.863,6.863,0,0,0,4.658-1.418c1.08-.945,1.62-2.5,1.687-4.59h9.045Z" transform="translate(-879.285 -109.886)" fill="#c8d9fb"/>
          <path id="Path_1947" data-name="Path 1947" d="M1121.749,197.529h-13.906V206.3h16.4v6.818H1099V176.4h25.314v6.818h-16.471v7.763h13.906Z" transform="translate(-896.151 -110.179)" fill="#c8d9fb"/>
        </g>
        <path id="Path_1948" data-name="Path 1948" d="M1326.237,911.5H1094.9s9.113,71.014-61.9,76.482h262.32C1295.252,988.049,1333.527,964.356,1326.237,911.5Z" transform="translate(-789.986 -321.069)" fill="#5681f1"/>
        <path id="Path_1949" data-name="Path 1949" d="M1326.269,911.5h-76.414c8.235,2.768,16.4,5.873,24.369,9.383,8.573,3.713,26.664,10.126,21.2,22.749-2.228,5.063-7.493,7.7-12.489,9.113-5.4,1.553-11,1.958-16.606,2.228-6.48.337-12.961.337-19.306,1.35-6.615,1.012-14.783,2.97-18.9,8.775-2.16,3.038-3.78,6.548-6.75,8.978a22.574,22.574,0,0,1-10.463,4.388,77.791,77.791,0,0,1-24.706.27c-8.641-1.215-17.078-3.645-25.652-5.265a66.021,66.021,0,0,0-13.635-1.62,67.271,67.271,0,0,0-13.7,2.092c-4.523,1.08-8.978,2.228-13.434,3.645a87.11,87.11,0,0,1-12.961,3.375c-6.75,1.08-13.838.945-19.913-2.363a23.764,23.764,0,0,1-9.248-9.383c-9.316,9.653-23.356,17.146-44.552,18.766h262.32C1295.285,988.049,1333.56,964.356,1326.269,911.5Z" transform="translate(-790.019 -321.069)" fill="#202234" opacity="0.15"/>
      </g>
    </g>
    <path id="Path_1950" data-name="Path 1950" d="M1204.554,214a21.78,21.78,0,1,0-16.741,25.854A21.754,21.754,0,0,0,1204.554,214Z" transform="translate(-268.154 -51.969)" fill="#202234" opacity="0.15"/>
    <g id="Group_948" data-name="Group 948" transform="translate(903.923 141.884)">
      <path id="Path_1951" data-name="Path 1951" d="M1220.264,209.7a21.779,21.779,0,1,1-25.854-16.741A21.805,21.805,0,0,1,1220.264,209.7Z" transform="translate(-1177.189 -192.454)" fill="#eab213"/>
      <path id="Path_1952" data-name="Path 1952" d="M1219.27,211.011a19.872,19.872,0,1,1-23.559-15.323A19.872,19.872,0,0,1,1219.27,211.011Z" transform="translate(-1178.085 -193.362)" fill="#eddaab"/>
      <path id="Path_1953" data-name="Path 1953" d="M1185.025,209.071a17.992,17.992,0,0,1,2.228-5.535,15.885,15.885,0,0,1,4.455-4.05c2.5-1.62,5.265-2.768,7.9-4.185a18.485,18.485,0,0,0-3.78.405,19.869,19.869,0,0,0-15.526,16.876A5,5,0,0,0,1185.025,209.071Z" transform="translate(-1178.199 -193.379)" fill="#f2faff" opacity="0.49"/>
      <path id="Path_1954" data-name="Path 1954" d="M1215.221,201.15c-.675,1.418,1.013,3.645,1.755,4.725,1.012,1.485,2.16,2.835,3.037,4.388,2.228,3.915,4.051,9.181,1.823,13.5a35.766,35.766,0,0,1-2.633,3.645c-.742,1.08-1.282,2.3-2.025,3.375a9.532,9.532,0,0,1-6.615,3.78c-2.633.338-7.426-.473-10.463.81a20.2,20.2,0,0,0,10.463.608,19.85,19.85,0,0,0,6.548-36.182A2.79,2.79,0,0,0,1215.221,201.15Z" transform="translate(-1184.634 -194.842)" fill="#202234" opacity="0.05"/>
      <g id="Group_947" data-name="Group 947" transform="translate(13.503 8.401)">
        <path id="Path_1955" data-name="Path 1955" d="M1213.533,223.6a7.621,7.621,0,0,1-4.05,2.97l.608,2.9-3.105.675-.607-2.768a18.665,18.665,0,0,1-3.847.135,13.061,13.061,0,0,1-3.173-.675l.877-4.185a11.017,11.017,0,0,0,3.105.675,10.793,10.793,0,0,0,3.307-.2c1.958-.4,2.835-1.148,2.633-2.093a1.3,1.3,0,0,0-1.08-1.013,14.646,14.646,0,0,0-2.9-.2,28.081,28.081,0,0,1-3.645-.2,5.679,5.679,0,0,1-2.7-1.148,4.548,4.548,0,0,1-1.62-2.835,5.15,5.15,0,0,1,.81-4.185,8.2,8.2,0,0,1,4.253-2.97l-.608-2.9,3.105-.675.608,2.835a14.676,14.676,0,0,1,2.97-.067,10.715,10.715,0,0,1,2.633.473l-.742,4.185a11.267,11.267,0,0,0-5.333-.338,4.3,4.3,0,0,0-2.16.945,1.542,1.542,0,0,0-.473,1.35,1.317,1.317,0,0,0,1.08.945,14.319,14.319,0,0,0,2.835.2,26.669,26.669,0,0,1,3.645.2,6.331,6.331,0,0,1,2.7,1.08,4.566,4.566,0,0,1,1.62,2.768A5.226,5.226,0,0,1,1213.533,223.6Z" transform="translate(-1197.192 -204.9)" fill="#eab213"/>
      </g>
    </g>
    <g id="Group_951" data-name="Group 951" transform="translate(922.851 448.695)">
      <path id="Path_1956" data-name="Path 1956" d="M1249.424,667.914c-2.228-10.733-9.856-21.534-22.276-20.926-12.421.337-25.111,17.956-21.2,35.844,3.983,17.956,19.846,22.681,30.174,15.121C1246.86,690.393,1251.382,678.715,1249.424,667.914Z" transform="translate(-1205.229 -646.964)" fill="#202234" opacity="0.15"/>
      <g id="Group_950" data-name="Group 950" transform="translate(15.304 5.603)">
        <path id="Path_1957" data-name="Path 1957" d="M1272.048,676.215c1.958,10.8-2.565,22.479-13.231,30.039-10.328,7.56-26.192,2.767-30.174-15.121s8.776-35.507,21.2-35.845C1262.192,654.681,1269.82,665.481,1272.048,676.215Z" transform="translate(-1227.9 -655.264)" fill="#eab213"/>
        <path id="Path_1958" data-name="Path 1958" d="M1271.008,677.749c1.755,10.126-2.5,20.994-12.353,27.676-9.585,6.615-23.761,1.958-27.271-14.108-3.51-16,7.628-31.862,18.968-32.537C1261.693,658.038,1269.051,667.691,1271.008,677.749Z" transform="translate(-1228.819 -656.393)" fill="#eddaab"/>
        <g id="Group_949" data-name="Group 949" transform="translate(13.96 10.488)">
          <path id="Path_1959" data-name="Path 1959" d="M1265.47,692.469a9.857,9.857,0,0,1-3.78,4.118c.338,1.08.743,2.16,1.147,3.24-1.012.472-2.025,1.013-3.037,1.485-.4-1.08-.742-2.16-1.148-3.24a17.347,17.347,0,0,1-3.915.945,9.016,9.016,0,0,1-3.375-.2c.068-1.89.2-3.713.4-5.6a8.572,8.572,0,0,0,3.241.405,9.459,9.459,0,0,0,3.375-.743c2.025-.81,2.835-1.755,2.565-2.9a1.223,1.223,0,0,0-1.148-1.013,15.33,15.33,0,0,0-2.97.068,24.673,24.673,0,0,1-3.713.135,5.19,5.19,0,0,1-2.835-1.147,5.558,5.558,0,0,1-1.62-3.578,8.294,8.294,0,0,1,1.215-5.6,8.813,8.813,0,0,1,4.793-3.78,32.952,32.952,0,0,1,0-3.645c1.08-.2,2.16-.4,3.308-.607v3.51a10.9,10.9,0,0,1,2.97.068,9.512,9.512,0,0,1,2.565.743c-.472,1.62-.945,3.173-1.283,4.793a8.815,8.815,0,0,0-5.4-.338,4.343,4.343,0,0,0-2.3,1.215,2.056,2.056,0,0,0-.54,1.688,1.1,1.1,0,0,0,1.013,1.08,12.376,12.376,0,0,0,2.9.067,21.661,21.661,0,0,1,3.713.067,6.223,6.223,0,0,1,2.768,1.148,4.775,4.775,0,0,1,1.688,3.038A7.363,7.363,0,0,1,1265.47,692.469Z" transform="translate(-1248.58 -670.8)" fill="#eab213"/>
        </g>
      </g>
    </g>
    <g id="Group_954" data-name="Group 954" transform="translate(769.024 576.436)">
      <path id="Path_1960" data-name="Path 1960" d="M1010.8,856.046c.878-7.9-2.025-17.079-10.733-19.441-8.64-2.5-21.331,6.818-22.614,20.049-1.215,13.3,8.708,20.116,17.483,17.214C1003.98,870.964,1009.718,863.944,1010.8,856.046Z" transform="translate(-977.35 -836.199)" fill="#202234" opacity="0.15"/>
      <g id="Group_953" data-name="Group 953" transform="translate(2.565 7.965)">
        <path id="Path_1961" data-name="Path 1961" d="M1014.53,867.846c-1.08,7.9-6.818,14.918-15.8,17.821-8.843,2.9-18.7-3.915-17.484-17.214,1.283-13.231,13.973-22.546,22.614-20.049C1012.5,850.767,1015.408,859.948,1014.53,867.846Z" transform="translate(-981.149 -847.999)" fill="#eab213"/>
        <path id="Path_1962" data-name="Path 1962" d="M1013.822,868.565c-1.013,7.425-6.413,13.973-14.716,16.4-8.1,2.43-16.876-3.915-15.661-15.8,1.147-11.88,12.353-20.319,20.318-18.226C1011.8,852.837,1014.7,861.139,1013.822,868.565Z" transform="translate(-981.858 -848.853)" fill="#eddaab"/>
        <g id="Group_952" data-name="Group 952" transform="translate(10.565 7.561)">
          <path id="Path_1963" data-name="Path 1963" d="M1007.938,876.211a7.369,7.369,0,0,1-3.51,1.958c0,.81,0,1.688.067,2.5-.81.135-1.62.2-2.43.338-.067-.81-.067-1.62-.067-2.5a10.177,10.177,0,0,1-2.9-.2,6.527,6.527,0,0,1-2.3-.878c.473-1.282,1.013-2.565,1.553-3.78a5.8,5.8,0,0,0,2.16,1.013,10.488,10.488,0,0,0,2.5.27q2.329-.2,2.43-1.417a.953.953,0,0,0-.54-1.013,9.012,9.012,0,0,0-2.093-.608,15.864,15.864,0,0,1-2.633-.742,3.436,3.436,0,0,1-1.687-1.418,4.141,4.141,0,0,1-.338-2.835,5.935,5.935,0,0,1,2.093-3.578,6.562,6.562,0,0,1,4.118-1.552c.27-.878.54-1.688.81-2.565.81.067,1.62.2,2.43.338-.27.81-.54,1.62-.743,2.43a10.857,10.857,0,0,1,2.093.675,9.675,9.675,0,0,1,1.62,1.08c-.675,1.012-1.35,2.025-1.958,3.037a6.59,6.59,0,0,0-3.645-1.485,2.851,2.851,0,0,0-1.823.337,1.53,1.53,0,0,0-.742,1.08.906.906,0,0,0,.472,1.013,9.065,9.065,0,0,0,1.958.675,22.269,22.269,0,0,1,2.565.878,4.127,4.127,0,0,1,1.62,1.417,3.561,3.561,0,0,1,.472,2.5A5.969,5.969,0,0,1,1007.938,876.211Z" transform="translate(-996.8 -859.2)" fill="#eab213"/>
        </g>
      </g>
    </g>
    <path id="Path_1964" data-name="Path 1964" d="M842.583,332.4s15.8,4.793,13.906,14.851-11,14.378-3.848,20.656c7.223,6.21,59.943,45.093,51.3,92.548-2.7,14.918-16.808,11.543-20.116,25.449-3.375,13.906,55.15,197.111-31.187,274.875,0,0-27.812-344.4-28.757-350.142C822.939,404.832,842.583,332.4,842.583,332.4Z" transform="translate(-158.444 -96.047)" fill="#202234" opacity="0.15"/>
    <g id="Group_969" data-name="Group 969" transform="translate(565.716 221.822)">
      <path id="Path_1965" data-name="Path 1965" d="M853.43,392.627c9.45,1.688,33.752,36.452,38.275,60.888,0,0,15.863,2.9,14.716,11-1.148,8.168,1.688,33.077-23.761,20.116C857.21,471.741,829.669,388.441,853.43,392.627Z" transform="translate(-730.823 -337.391)" fill="#5681f1"/>
      <g id="Group_959" data-name="Group 959" transform="translate(0 195.576)">
        <g id="Group_956" data-name="Group 956" transform="translate(0 227.555)">
          <g id="Group_955" data-name="Group 955" transform="translate(9.332)">
            <path id="Path_1966" data-name="Path 1966" d="M696.914,960.516s13.5-10.4,12.353-12.758c-1.08-2.363-5.468-10.126-7.155-10.058S690.1,955.791,690.3,958.9C690.569,962.069,693.2,963.149,696.914,960.516Z" transform="translate(-690.092 -937.699)" fill="#d7a28e"/>
            <path id="Path_1967" data-name="Path 1967" d="M695.494,960.593c2.633-.878,5.2-1.823,7.763-2.9,1.215-.473,2.5-1.013,3.713-1.417.472-.135,1.012-.338,1.485-.473-2.835,3.848-11.611,10.6-11.611,10.6-3.713,2.633-6.278,1.485-6.548-1.62a6.1,6.1,0,0,1,.81-2.633C692.591,961.605,694.076,961.065,695.494,960.593Z" transform="translate(-690.089 -943.581)" fill="#fff" opacity="0.2"/>
            <path id="Path_1968" data-name="Path 1968" d="M702.689,955.426c.877.472,1.89.878,2.768,1.282-4.523,5.94-8.641,7.358-8.641,7.358-3.848,2.768-6.615,1.553-6.818-1.687-.135-1.89,2.97-9.923,6.48-14.379C697.356,950.3,700.664,954.413,702.689,955.426Z" transform="translate(-689.994 -941.046)" fill="#f2faff"/>
          </g>
          <path id="Path_1969" data-name="Path 1969" d="M709,999.789l1.147,1.282s-.81,2.025-2.025,2.363c-1.215.27-8.235-2.3-18.969-11.206S674.84,977.512,676.6,975.757C678.418,973.935,700.694,1000.6,709,999.789Z" transform="translate(-676.17 -950.038)" fill="#0f1019"/>
          <path id="Path_1970" data-name="Path 1970" d="M676.9,969.958c10.733,16.2,35.372,29.769,33.617,24.571a18.567,18.567,0,0,0-2.768-4.388c-4.793-6.143-13.5-14.986-11.408-18.158,2.7-4.118,1.08-6.278.54-6.48-.135-.068-.54-.2-1.148-.405-1.62-.608-4.523-1.822-5.2-3.983-.877-2.9-1.08-3.24-2.633-3.038C683.313,958.617,681.693,960.844,676.9,969.958Z" transform="translate(-676.407 -944.306)" fill="#202234"/>
          <path id="Path_1971" data-name="Path 1971" d="M702.974,968.5a10.992,10.992,0,0,0-1.08,3.578c-.473,3.038-2.97,2.97-2.43,9.451s10.6,11.273,13.771,12.421c1.823.675,2.025.135,1.823-.4-4.793-6.143-13.5-14.986-11.408-18.158,2.7-4.118,1.08-6.278.54-6.48Z" transform="translate(-683.715 -947.708)" fill="#0f1019"/>
        </g>
        <g id="Group_958" data-name="Group 958" transform="translate(117.484 247.409)">
          <g id="Group_957" data-name="Group 957" transform="translate(2.127)">
            <path id="Path_1972" data-name="Path 1972" d="M863.108,988.773s4.658-16.4,2.363-17.619-10.4-4.928-11.746-3.848c-1.283,1.08,1.08,21.669,3.173,24.1C858.991,993.768,861.758,993.093,863.108,988.773Z" transform="translate(-853.361 -967.112)" fill="#d7a28e"/>
            <path id="Path_1973" data-name="Path 1973" d="M859.865,987.911c1.62-2.228,3.105-4.59,4.523-6.953a35.654,35.654,0,0,1,2.16-3.375c.27-.405.607-.877.878-1.282,0,4.725-3.038,15.458-3.038,15.458-1.418,4.32-4.185,5-6.21,2.565a6.1,6.1,0,0,1-.878-2.565C858.11,990.476,858.92,989.193,859.865,987.911Z" transform="translate(-854.641 -970.098)" fill="#fff" opacity="0.2"/>
            <path id="Path_1974" data-name="Path 1974" d="M862.881,982.927c1.012-.135,2.025-.4,3.037-.607-.135,7.493-2.565,11.07-2.565,11.07-1.485,4.523-4.388,5.2-6.48,2.7-1.215-1.418-3.51-9.721-3.375-15.391C855.59,981.983,860.653,983.265,862.881,982.927Z" transform="translate(-853.404 -971.528)" fill="#f2faff"/>
          </g>
          <path id="Path_1975" data-name="Path 1975" d="M892.061,1016.3l1.688.338s.54,2.16-.2,3.1c-.81.945-8.033,3.038-21.939,2.228s-20.251-3.307-19.914-5.805S885.851,1021.9,892.061,1016.3Z" transform="translate(-850.688 -982.895)" fill="#0f1019"/>
          <path id="Path_1976" data-name="Path 1976" d="M851.216,1008.314c18.294,6.615,46.1,2.9,41.65-.2a18.6,18.6,0,0,0-4.86-1.89c-7.493-2.093-19.779-3.983-19.981-7.831-.27-4.86-2.835-5.67-3.442-5.535a6.376,6.376,0,0,1-1.148.338c-1.688.473-4.725,1.215-6.548-.135-2.43-1.755-2.835-1.958-3.915-.877C849.663,995.354,849.663,998.189,851.216,1008.314Z" transform="translate(-850.21 -975.043)" fill="#202234"/>
          <path id="Path_1977" data-name="Path 1977" d="M869.8,993.8a13.549,13.549,0,0,0,1.215,3.51c1.418,2.7-.608,4.118,3.645,9.045,4.253,4.86,15.256,2.768,18.428,1.823,1.89-.54,1.688-1.08,1.215-1.417-7.493-2.093-19.779-3.983-19.981-7.83-.27-4.86-2.835-5.67-3.443-5.535C870.813,993.528,870.34,993.663,869.8,993.8Z" transform="translate(-856.576 -975.648)" fill="#0f1019"/>
        </g>
        <path id="Path_1978" data-name="Path 1978" d="M779.3,600.7h74.119S870.9,643.97,869.89,731.522s-27.272,123.06-27.272,123.06H828.173L816.359,717.077Z" transform="translate(-709.683 -600.633)" fill="#202234"/>
        <path id="Path_1979" data-name="Path 1979" d="M832.763,853.367c-2.025-4.118-2.16-9.046-2.093-13.568a151.21,151.21,0,0,1,1.08-15.593c.81-6.683,2.025-13.3,2.768-20.049a91,91,0,0,0-.067-19.644c-.675-6.48-1.89-12.893-2.97-19.374-1.013-6.21-2.093-12.556-1.958-18.9.135-11.813,4.455-22.884,7.493-34.157a71.685,71.685,0,0,0,2.835-17.281c.2-6.953-.135-13.973-.27-20.926-.2-6.885,3.578-15.053-.4-20.656-9.518-13.366,20.656-22.681,20.386-26.934-.2-3.983-21.331,5.94-20.116,2.025a9.38,9.38,0,0,1,2.5-4.253,10.766,10.766,0,0,1,5.6-2.43c2.3-.473,4.793-.675,6.953-1.62a21.878,21.878,0,0,0,4.05-2.633,146.327,146.327,0,0,0-5.063-16.673H779.3l37.06,116.376,11.813,137.505h5.2Z" transform="translate(-709.683 -600.633)" fill="#202234" opacity="0.35"/>
        <path id="Path_1980" data-name="Path 1980" d="M900.75,786.49c-.54,4.86-.81,9.72-1.215,14.581a140.145,140.145,0,0,1-1.823,14.041,135.135,135.135,0,0,0-2.363,13.7c-.405,4.928.338,10.733,2.97,15.188,4.86-19.171,8.911-44.89,9.248-78.1a566.225,566.225,0,0,0-2.3-59.133c-1.283-.27-2.633.27-4.05,2.025-1.62,2.025-1.89,4.793-1.89,7.223a51.046,51.046,0,0,0,1.215,9.585c.675,3.105,1.418,6.143,2.093,9.181a45.076,45.076,0,0,1,1.013,8.573c.338,9.45.743,19.036-.54,28.419C902.506,776.7,901.291,781.563,900.75,786.49Z" transform="translate(-747.362 -635.079)" fill="#f2faff" opacity="0.2"/>
        <path id="Path_1981" data-name="Path 1981" d="M794.183,600.668s21.6,110.166-8.235,152.424c-29.837,42.19-72.094,88.565-72.094,88.565L701.5,831.328,742.677,724.2s-36.047-80.33-11.341-123.6h62.846Z" transform="translate(-684.401 -600.6)" fill="#383b4b"/>
        <path id="Path_1982" data-name="Path 1982" d="M705.313,834.533c1.485-4.253,3.105-8.438,4.455-12.758,1.552-5,2.768-9.99,4.725-14.85,3.645-9.046,8.573-17.551,13.636-25.854,9.316-15.458,20.521-31.929,19.1-50.83-.675-9.045-4.523-17.551-6.48-26.394a40.266,40.266,0,0,1-1.08-13.028c.338-3.173,1.08-6.75,3.375-9.113,3.983-4.118,10.733-3.983,16-4.253a44.119,44.119,0,0,0,8.978-1.08,12,12,0,0,0,3.848-1.62,19.538,19.538,0,0,0,3.645-3.443c2.43-2.633,4.59-5.535,7.358-7.9a24.527,24.527,0,0,1,10.733-5.2,20.384,20.384,0,0,1,7.56-.27,474.34,474.34,0,0,0-6.885-57.243H731.437c-24.706,43.27,11.341,123.6,11.341,123.6L701.6,831.428Z" transform="translate(-684.434 -600.633)" fill="#202234" opacity="0.15"/>
        <path id="Path_1983" data-name="Path 1983" d="M810.8,810.348c-3.645,2.3-6.008,6.683-8.033,10.328-2.768,4.928-5.67,9.788-8.573,14.581q-9.113,15.189-18.5,30.31c11.341-13.906,23.694-29.567,34.36-44.688a60.507,60.507,0,0,0,6.075-11.138A6.289,6.289,0,0,0,810.8,810.348Z" transform="translate(-708.513 -668.455)" fill="#f2faff" opacity="0.2"/>
      </g>
      <path id="Path_1984" data-name="Path 1984" d="M800,385.184c-17.956-.608-60.956,6.885-66.964,50.29-5.94,43.4.067,101.728.067,101.728s20.926,30.039,59.336,19.576c22.276-6.075,39.827-22.816,47.185-22.276,4.185.337,7.223-53.193,6.008-66.086C841.718,427.712,834.833,386.264,800,385.184Z" transform="translate(-693.797 -335.011)" fill="#f2faff"/>
      <g id="Group_961" data-name="Group 961" transform="translate(78.595)">
        <path id="Path_1985" data-name="Path 1985" d="M792.6,335.26c0-1.688,1.417-3.51,2.9-5a21.78,21.78,0,0,0,3.915-4.793,35.388,35.388,0,0,0,1.485-4.523,9.414,9.414,0,0,1,2.633-4.253,5.186,5.186,0,0,1,2.093-1.08,4.333,4.333,0,0,1,2.633.067c.81.27,1.62.878,2.7.473.877-.337,1.552-1.35,2.3-2.16a8.672,8.672,0,0,1,4.32-3.038,3.262,3.262,0,0,1,3.645,1.823,20.047,20.047,0,0,0,1.012,2.093c1.148,1.89,3.375,2.16,5.333,2.7a7.049,7.049,0,0,1,5.265,4.388c.675,2.093.2,4.388,1.282,6.345.81,1.35,2.16,2.16,3.308,3.375,1.485,1.62,2.43,4.185,1.688,5.873-.81,1.89-3.51,2.228-4.185,4.253-.54,1.553.337,3.578.675,5.468.54,2.7-.27,5.2-2.3,6.548.2-.2.338-.4.54-.607-3.375,2.7-8.1,4.253-13.5,4.725a25.211,25.211,0,0,1-8.371-.608c-4.05-1.08-7.358-3.443-10.935-4.793-2.7-1.013-6.008-1.755-7.088-3.78-1.35-2.565,1.755-5.67,1.148-8.371C794.558,338.433,792.6,337.218,792.6,335.26Z" transform="translate(-792.6 -310.874)" fill="#202234"/>
        <path id="Path_1986" data-name="Path 1986" d="M813.588,369,811.9,388.846s6.346,9.046,12.353,2.093l-.4-13.3Z" transform="translate(-798.872 -329.763)" fill="#d7a28e"/>
        <path id="Path_1987" data-name="Path 1987" d="M820.467,392.254c1.282-2.3,1.755-5.738-.338-7.7-.878-.81-1.957-1.283-2.768-2.093a4.971,4.971,0,0,1-1.08-3.983c.2-2.228,1.148-4.455.945-6.683l8.168,6.818.4,13.3c-2.363,2.7-4.793,2.97-6.818,2.3A11.453,11.453,0,0,0,820.467,392.254Z" transform="translate(-800.284 -330.672)" fill="#33133f" opacity="0.15"/>
        <path id="Path_1988" data-name="Path 1988" d="M836.335,336.439s1.688,31.862-11,33.077C812.709,370.731,806.9,357.5,806.9,357.5s-2.3,1.485-2.9-.81-3.443-6.413-.675-7.965c2.768-1.62,3.713.945,3.713.945l-1.687-7.223S835.863,326.043,836.335,336.439Z" transform="translate(-795.698 -318.06)" fill="#d7a28e"/>
        <path id="Path_1989" data-name="Path 1989" d="M806.518,358.465s-1.688-.878-2.3.473c-.675,1.283.878,6.278,2.835,5.6a4.058,4.058,0,0,1-2.3-4.118C805.033,357.385,806.113,359.478,806.518,358.465Z" transform="translate(-796.325 -326.248)" fill="#33133f" opacity="0.05"/>
        <path id="Path_1990" data-name="Path 1990" d="M804.534,342c.81,1.35,10.4-7.425,15.728-4.658s11.678,1.755,13.636-.945c1.89-2.633,11.543-7.493,2.9-10.126C828.16,323.7,796.163,328.158,804.534,342Z" transform="translate(-796.029 -315.652)" fill="#202234"/>
        <g id="Group_960" data-name="Group 960" transform="translate(8.496 23.172)">
          <path id="Path_1991" data-name="Path 1991" d="M819.494,364.595c-.135.878.81,1.755,2.16,2.025,1.35.2,2.565-.337,2.7-1.215s-.81-1.755-2.16-2.025C820.844,363.177,819.629,363.717,819.494,364.595Z" transform="translate(-809.832 -351.094)" fill="#33133f" opacity="0.05"/>
          <path id="Path_1992" data-name="Path 1992" d="M841.994,364.782c-.135.878.81,1.755,2.16,2.025,1.35.2,2.565-.338,2.7-1.215s-.81-1.755-2.16-2.025S842.129,363.837,841.994,364.782Z" transform="translate(-817.143 -351.146)" fill="#33133f" opacity="0.05"/>
          <path id="Path_1993" data-name="Path 1993" d="M840.8,351.829a.371.371,0,0,0,.338-.2c.068-.135,1.485-2.5,5.063-.945a.364.364,0,1,0,.27-.675c-4.185-1.89-6.008,1.215-6.008,1.215a.365.365,0,0,0,.135.54A.248.248,0,0,0,840.8,351.829Z" transform="translate(-816.628 -346.564)" fill="#202234"/>
          <path id="Path_1994" data-name="Path 1994" d="M827.3,351.7h.135a.349.349,0,0,0,.2-.473s-1.35-3.308-6.278-2.228a.385.385,0,0,0,.2.743c4.253-.945,5.4,1.688,5.468,1.823C826.964,351.628,827.1,351.7,827.3,351.7Z" transform="translate(-810.349 -346.363)" fill="#202234"/>
          <path id="Path_1995" data-name="Path 1995" d="M835.914,363.818a.856.856,0,0,0,.405-.068,1.919,1.919,0,0,0,1.148-1.148c.068-.135,0-.2-.067-.338a8.2,8.2,0,0,1-1.013-4.86.373.373,0,1,0-.742-.068,8.638,8.638,0,0,0,1.013,5.2,1.191,1.191,0,0,1-.607.54,1.145,1.145,0,0,1-.945-.27.385.385,0,0,0-.473.608A2.573,2.573,0,0,0,835.914,363.818Z" transform="translate(-814.709 -349.035)" fill="#202234"/>
          <path id="Path_1996" data-name="Path 1996" d="M807.423,345.2s-.4,12.826,7.7,20.049c0,0,.878-4.658,10.26-3.308s7.965,4.253,7.965,4.253l3.038-4.32,3.173-.472s-4.59,11.071-12.353,12.691-19.171-2.835-19.239-12.826c0,0,.54-6.615-1.215-10.4S804.116,345.47,807.423,345.2Z" transform="translate(-805.187 -345.2)" fill="#202234"/>
          <path id="Path_1997" data-name="Path 1997" d="M835.681,372.57a11.514,11.514,0,0,1-9.046-.27C825.555,374.258,831.226,379.455,835.681,372.57Z" transform="translate(-812.113 -354.006)" fill="#fcfaf7"/>
          <path id="Path_1998" data-name="Path 1998" d="M842.7,356.593c0,1.148.675,2.093,1.417,2.093.81,0,1.418-.945,1.418-2.093s-.675-2.093-1.418-2.093S842.7,355.445,842.7,356.593Z" transform="translate(-817.377 -348.222)" fill="#202234"/>
          <path id="Path_1999" data-name="Path 1999" d="M823.4,356.593c0,1.148.675,2.093,1.417,2.093.81,0,1.418-.945,1.418-2.093s-.675-2.093-1.418-2.093S823.4,355.445,823.4,356.593Z" transform="translate(-811.105 -348.222)" fill="#202234"/>
        </g>
      </g>
      <path id="Path_2000" data-name="Path 2000" d="M809.695,403.856,812.8,399.2l3.983.068s-6.345-9.788-5.8-13.366l-3.645,2.768S805.645,390.288,809.695,403.856Z" transform="translate(-718.679 -335.254)" fill="#5681f1"/>
      <path id="Path_2001" data-name="Path 2001" d="M825.5,399.436l2.768.135,3.443,4.185s3.51-9.046-3.24-15.256l.27,8.776Z" transform="translate(-724.697 -336.099)" fill="#5681f1"/>
      <g id="Group_962" data-name="Group 962" transform="translate(95.808 62.594)">
        <path id="Path_2002" data-name="Path 2002" d="M818.573,405.018l4.05-1.418c.675.4,1.35.743,2.025,1.148-.2,1.08-.405,2.093-.608,3.173,13.3,32.334,15.931,60.213,25.381,92.345-2.3,11.746-3.848,23.424-7.02,35.034a170.7,170.7,0,0,1-14.311-32.807c2.362-30.984-2.3-63.318-7.7-93.763-.742-.608-1.553-1.215-2.3-1.823A11.04,11.04,0,0,1,818.573,405.018Z" transform="translate(-818.1 -403.6)" fill="#e05778"/>
      </g>
      <g id="Group_964" data-name="Group 964" transform="translate(105.11 127.084)">
        <g id="Group_963" data-name="Group 963">
          <path id="Path_2003" data-name="Path 2003" d="M858.895,518.215h-1.013c-1.012-.2-2.093-.405-3.038-.675a44.422,44.422,0,0,1-4.455-1.418s-14.986,2.835-16.943,2.5c-1.823-1.148-1.553-9.586-1.553-9.586,1.215-1.418,16.538-2.363,19.509-3.173,2.9-.81,7.156-8.505,8.775-6.345a31.581,31.581,0,0,1-2.3,5.873s15.256-3.038,15.931.405c.27,1.552-7.628,1.822-10.6,2.5h-.067s1.215,1.553.81,2.768a1.5,1.5,0,0,1-.54.81,2.994,2.994,0,0,1,.405,1.283c-.068.607-.473,1.417-.742,1.485a1.489,1.489,0,0,1,.135,1.283C862.878,516.528,859.772,518.148,858.895,518.215Z" transform="translate(-831.879 -499.136)" fill="#d7a28e"/>
          <path id="Path_2004" data-name="Path 2004" d="M885.793,513.24v1.013a2.7,2.7,0,0,1-.675,1.553,6.811,6.811,0,0,0-.877,1.08,5.113,5.113,0,0,0-.068,1.755,5.927,5.927,0,0,1-.067,1.89,12.352,12.352,0,0,1-.54,1.688,4.016,4.016,0,0,1-.945,1.418c-.472.473-1.08.742-1.552,1.148l-.068.067c1.013-.067,4.86-2.025,5.2-2.835a1.814,1.814,0,0,0-.135-1.553c.338-.067.81-1.08.877-1.822a2.872,2.872,0,0,0-.473-1.553,2.1,2.1,0,0,0,.675-1.013c.472-1.485-.945-3.375-.945-3.375h-.405Z" transform="translate(-847.841 -503.544)" fill="#fff" opacity="0.2"/>
        </g>
      </g>
      <path id="Path_2005" data-name="Path 2005" d="M756.79,400.736c-3.1-15.526-74.659,40.7-60.483,92.143,9.383,34.224,105.981-8.1,105.981-8.1l-.338-12.623L733.1,473.64S763,431.788,756.79,400.736Z" transform="translate(-682.11 -339.222)" fill="#5681f1"/>
      <g id="Group_968" data-name="Group 968" transform="translate(137.996 97.689)">
        <g id="Group_965" data-name="Group 965">
          <path id="Path_2006" data-name="Path 2006" d="M887.687,456.609l17.686-1.013c2.093-.135,3.578,1.62,3.443,3.848l-3.578,44.417a4.735,4.735,0,0,1-3.915,4.253l-6.615.945a3.842,3.842,0,0,1-.877.068h-.2l-1.485.2a.248.248,0,0,0-.2.067,4.128,4.128,0,0,1-.877.2l-6.818.945a3.14,3.14,0,0,1-3.645-3.375l2.835-46.038A4.9,4.9,0,0,1,887.687,456.609Z" transform="translate(-880.597 -455.589)" fill="#383b4b"/>
          <path id="Path_2007" data-name="Path 2007" d="M888.4,458.911l17.484-1.013a2.2,2.2,0,0,1,2.227,2.565l-3.51,44.282a3.309,3.309,0,0,1-2.565,2.835l-16.876,2.3a2.012,2.012,0,0,1-2.363-2.228l2.835-45.7A3.189,3.189,0,0,1,888.4,458.911Z" transform="translate(-881.311 -456.339)" fill="#0f1019" opacity="0.1"/>
          <path id="Path_2008" data-name="Path 2008" d="M905.6,467.079c-3.24,4.185-6.683,8.371-10.328,12.623-3.578,4.253-7.291,8.573-11.07,13.1l1.958-30.984a3.052,3.052,0,0,1,2.767-2.9l17.416-1.012a2.2,2.2,0,0,1,2.228,2.565l-.27,3.038C907.489,464.649,906.544,465.864,905.6,467.079Z" transform="translate(-881.768 -456.339)" fill="#f2faff" opacity="0.2"/>
          <path id="Path_2009" data-name="Path 2009" d="M921.572,466.4a.319.319,0,0,1,.338.337l-.135,1.552a.438.438,0,0,1-.338.405.319.319,0,0,1-.338-.338l.135-1.553A.378.378,0,0,1,921.572,466.4Z" transform="translate(-893.759 -459.102)" fill="#383b4b"/>
          <path id="Path_2010" data-name="Path 2010" d="M920.61,471.8a.551.551,0,0,1,.54.607l-.2,2.7a.723.723,0,0,1-.608.675.551.551,0,0,1-.54-.608l.2-2.7A.623.623,0,0,1,920.61,471.8Z" transform="translate(-893.337 -460.857)" fill="#383b4b"/>
          <path id="Path_2011" data-name="Path 2011" d="M920.11,477.5a.551.551,0,0,1,.54.607l-.2,2.7a.723.723,0,0,1-.608.675c-.337,0-.54-.2-.54-.607l.2-2.7A.718.718,0,0,1,920.11,477.5Z" transform="translate(-893.174 -462.71)" fill="#383b4b"/>
          <path id="Path_2012" data-name="Path 2012" d="M913.66,461.1a1.605,1.605,0,0,1,1.553,1.823l-.54,7.155a2.017,2.017,0,0,1-1.823,1.823,1.493,1.493,0,0,1-1.552-1.688l.473-7.29A2.02,2.02,0,0,1,913.66,461.1Z" transform="translate(-890.572 -457.38)" fill="#202234"/>
          <path id="Path_2013" data-name="Path 2013" d="M883.945,473.7a.389.389,0,0,1,.4.405l-.472,7.83a.461.461,0,0,1-.472.472A.358.358,0,0,1,883,482l.472-7.83A.462.462,0,0,1,883.945,473.7Z" transform="translate(-881.378 -461.475)" fill="#202234"/>
        </g>
        <g id="Group_967" data-name="Group 967" transform="translate(0.774 14.011)">
          <path id="Path_2014" data-name="Path 2014" d="M882.794,496.3c1.485-1.62,10.463,2.565,10.463,2.565s-13.163-8.91-11.341-10.6,13.433,5.805,13.433,5.805-14.108-10.193-13.366-12.758,15.728,8.978,15.728,8.978-11.206-12.016-9.518-13.771,12.961,10.463,15.863,12.421c1.89,1.283,3.915.675,3.24-1.553-.675-2.3,1.418-6.48,3.173-6.278s.2,7.9,2.228,9.99c2.025,2.025,3.78,5,3.578,6.548.743,3.78-5.873,10.8-5.873,10.8a19.8,19.8,0,0,1-8.64-1.283C897.443,505.206,881.242,497.916,882.794,496.3Z" transform="translate(-881.744 -476.345)" fill="#d7a28e"/>
          <g id="Group_966" data-name="Group 966" transform="translate(0.571 0.196)" opacity="0.2">
            <path id="Path_2015" data-name="Path 2015" d="M924.149,483.677c.472.338.4,1.35.4,1.755,0,0-.742.405-.878-.068S923.676,483.34,924.149,483.677Z" transform="translate(-895.924 -478.909)" fill="#fff"/>
            <path id="Path_2016" data-name="Path 2016" d="M891.43,476.679c.473-.27,1.958.81,2.025,1.013a8.5,8.5,0,0,1-1.35,1.08C891.768,478.907,890.958,477.017,891.43,476.679Z" transform="translate(-885.415 -476.636)" fill="#fff"/>
            <path id="Path_2017" data-name="Path 2017" d="M882.664,484.038c.4-.4,2.092.27,2.227.405a11.623,11.623,0,0,1-1.012,1.418C883.609,486,882.259,484.444,882.664,484.038Z" transform="translate(-882.589 -479)" fill="#fff"/>
            <path id="Path_2018" data-name="Path 2018" d="M882.665,494.615c.4-.473,2.092.135,2.228.337a16.382,16.382,0,0,1-.945,1.485C883.678,496.573,882.26,495.021,882.665,494.615Z" transform="translate(-882.59 -482.422)" fill="#fff"/>
            <path id="Path_2019" data-name="Path 2019" d="M883.873,506.116c.27-.4,1.755,0,1.89.135a12.273,12.273,0,0,1-.675,1.282C884.818,507.668,883.535,506.521,883.873,506.116Z" transform="translate(-882.988 -486.159)" fill="#fff"/>
          </g>
        </g>
      </g>
    </g>
    <g id="Group_970" data-name="Group 970" transform="translate(750.642 334.782)">
      <path id="Path_2020" data-name="Path 2020" d="M950.376,488.381a22.828,22.828,0,0,1,5.4,13.231,1.193,1.193,0,1,0,2.363-.338,24.743,24.743,0,0,0-5.873-14.378c-.945-1.148-2.835.27-1.89,1.485Z" transform="translate(-950.118 -480.897)" fill="#4094f2"/>
      <path id="Path_2021" data-name="Path 2021" d="M956.576,480.094a35.375,35.375,0,0,1,7.628,20.791c.067,1.553,2.43,1.215,2.363-.27a38.194,38.194,0,0,0-8.1-21.939,1.182,1.182,0,0,0-1.89,1.417Z" transform="translate(-952.133 -478.212)" fill="#4094f2"/>
    </g>
  </g>
</svg>
