<svg id="Group_3556" data-name="Group 3556" xmlns="http://www.w3.org/2000/svg" xmlns:xlink="http://www.w3.org/1999/xlink" width="477.216" height="509.683" viewBox="0 0 477.216 509.683">
  <defs>
    <clipPath id="clip-path">
      <rect id="Rectangle_3159" data-name="Rectangle 3159" width="477.216" height="509.683" fill="none"/>
    </clipPath>
  </defs>
  <g id="Group_3555" data-name="Group 3555" clip-path="url(#clip-path)">
    <path id="Path_13946" data-name="Path 13946" d="M374.749,125.767c-.26.38-5.41-2.4-13.532-7.2s-19.2-11.636-31.326-19.342-23-14.853-30.784-20.156-12.461-8.771-12.2-9.151,5.411,2.4,13.53,7.209,19.2,11.627,31.334,19.343,23,14.849,30.782,20.151,12.461,8.769,12.2,9.149" fill="#1281bf"/>
    <path id="Path_13947" data-name="Path 13947" d="M129.116,306.162l.12,73.446L57.845,409.566l-.12-73.448Z" fill="#17a1ee"/>
    <path id="Path_13948" data-name="Path 13948" d="M57.845,409.566,11.263,381.6l-.12-73.447,46.582,27.963Z" fill="#1281bf"/>
    <path id="Path_13949" data-name="Path 13949" d="M57.725,336.118,11.143,308.155,82.532,278.2l46.584,27.965Z" fill="#26b2ff"/>
    <path id="Path_13950" data-name="Path 13950" d="M470.167,336.383l.12,73.446L398.9,439.787l-.12-73.448Z" fill="#17a1ee"/>
    <path id="Path_13951" data-name="Path 13951" d="M398.895,439.787l-46.582-27.964-.12-73.447,46.582,27.963Z" fill="#1281bf"/>
    <path id="Path_13952" data-name="Path 13952" d="M398.776,366.339l-46.582-27.963,71.389-29.958,46.584,27.965Z" fill="#26b2ff"/>
    <path id="Path_13953" data-name="Path 13953" d="M309.795,233.491l.12,73.446L238.524,336.9l-.12-73.448Z" fill="#17a1ee"/>
    <path id="Path_13954" data-name="Path 13954" d="M238.524,336.9l-46.582-27.964-.12-73.447L238.4,263.447Z" fill="#1281bf"/>
    <path id="Path_13955" data-name="Path 13955" d="M238.4,263.448l-46.582-27.964,71.389-29.958L309.8,233.492Z" fill="#26b2ff"/>
    <path id="Path_13956" data-name="Path 13956" d="M176.056,407.625a35.425,35.425,0,0,1,4.819-2.323c3.183-1.423,7.881-3.465,13.935-6.066,12.1-5.193,29.563-12.584,51-21.585l.531-.22.445.278,45.147,27.815.537.329-.009.67c-.268,22.346-.566,46.87-.876,72.522v.007l-.014,1.047-1.021.42c-24.733,10.2-48.394,19.964-70.044,28.894l-.652.27-.534-.336c-16.558-10.421-31.707-19.938-44.9-28.233l-.447-.283.011-.542c.431-22.3.839-40.452,1.2-53.038.177-6.292.342-11.193.49-14.523a31.367,31.367,0,0,1,.39-5.1,28.964,28.964,0,0,1,.256,5.029c.058,3.309.09,8.186.1,14.459.019,12.542-.061,30.657-.228,52.926-.141-.264-.281-.529-.434-.824,13.276,8.179,28.524,17.56,45.195,27.827l-1.187-.066,69.986-29.067c-.34.482-.683.966-1.034,1.467v-.005c.38-25.66.743-50.193,1.072-72.545l.528,1L245.45,379.6l.976.055c-21.509,8.758-39.069,15.852-51.27,20.71-6.1,2.42-10.86,4.289-14.1,5.523a34.32,34.32,0,0,1-5,1.737" fill="#1281bf"/>
    <path id="Path_13957" data-name="Path 13957" d="M220.137,508.193c-.4.045-.665-7.093-.775-18.67s-.066-27.589.159-45.3c.042-2.883.083-5.723.12-8.418l.563,1.062c-12.691-7.958-23.836-15.112-31.756-20.356s-12.612-8.575-12.4-8.889,5.315,2.445,13.541,7.254,19.588,11.664,32.335,19.542l.57.354-.006.71c-.029,2.7-.064,5.533-.1,8.416-.224,17.7-.592,33.758-1,45.394s-.862,18.854-1.257,18.9" fill="#1281bf"/>
    <path id="Path_13958" data-name="Path 13958" d="M221.061,435.646c-.222-.72,15.282-7.8,34.625-15.792s35.214-13.9,35.439-13.178-15.274,7.789-34.629,15.793-35.206,13.9-35.435,13.177" fill="#1281bf"/>
    <path id="Path_13959" data-name="Path 13959" d="M302.564,27.965l.12,73.446-71.391,29.958-.12-73.448Z" fill="#17a1ee"/>
    <path id="Path_13960" data-name="Path 13960" d="M231.292,131.369,184.71,103.405l-.12-73.447,46.582,27.963Z" fill="#1281bf"/>
    <path id="Path_13961" data-name="Path 13961" d="M231.173,57.921,184.591,29.958,255.98,0l46.584,27.965Z" fill="#26b2ff"/>
    <path id="Path_13962" data-name="Path 13962" d="M212.433,84.985c.11.361-5.129,2.842-13.679,6.56s-20.417,8.675-33.577,13.985-25.113,9.974-33.808,13.218-14.125,5.068-14.235,4.706,5.127-2.843,13.68-6.56,20.42-8.676,33.583-13.986,25.114-9.972,33.807-13.216,14.125-5.068,14.229-4.707" fill="#1281bf"/>
    <path id="Path_13963" data-name="Path 13963" d="M214.693,288.105c.108.363-4.522,2.6-12.1,5.922s-18.087,7.731-29.748,12.439-22.271,8.825-29.983,11.673-12.541,4.427-12.652,4.066,4.521-2.6,12.094-5.923,18.095-7.731,29.756-12.441,22.267-8.823,29.983-11.669,12.538-4.43,12.647-4.067" fill="#1281bf"/>
    <path id="Path_13964" data-name="Path 13964" d="M377.2,396c.108.361-4.707,2.673-12.576,6.113s-18.8,8.021-30.911,12.91-23.134,9.175-31.146,12.143-13.021,4.621-13.132,4.259,4.7-2.671,12.574-6.113,18.8-8.02,30.92-12.912,23.131-9.172,31.143-12.14,13.019-4.623,13.128-4.26" fill="#1281bf"/>
    <path id="Path_13965" data-name="Path 13965" d="M249.819,238.441c-.4.043-.67-6.378-.79-16.8s-.084-24.834.131-40.775.572-30.4.975-40.878.844-16.981,1.242-17.027.67,6.377.788,16.8.087,24.837-.129,40.785-.572,30.391-.972,40.87-.848,16.983-1.245,17.028" fill="#1281bf"/>
    <path id="Path_13966" data-name="Path 13966" d="M66.426,308.942c-.4.047-.67-6.175-.8-16.263s-.092-24.052.112-39.49.558-29.443.955-39.593.841-16.448,1.238-16.494.67,6.176.794,16.264.095,24.053-.115,39.5-.556,29.435-.952,39.579-.84,16.455-1.237,16.5" fill="#1281bf"/>
    <path id="Path_13967" data-name="Path 13967" d="M413.867,335.5c-.4.045-.676-5.842-.806-15.4s-.112-22.78.083-37.408.536-27.89.926-37.5.828-15.587,1.226-15.631.677,5.844.807,15.4.113,22.783-.085,37.413-.537,27.884-.925,37.5-.829,15.586-1.226,15.631" fill="#1281bf"/>
    <path id="Path_13968" data-name="Path 13968" d="M177.408,411.609c-.252.335-5-2.428-12.483-7.175s-17.685-11.461-28.846-19.03-21.169-14.561-28.321-19.741-11.443-8.551-11.194-8.883,5,2.428,12.483,7.175,17.686,11.461,28.849,19.031,21.159,14.557,28.314,19.738,11.448,8.551,11.2,8.885" fill="#1281bf"/>
    <path id="Path_13969" data-name="Path 13969" d="M356.563,336.541c-.243.342-5.058-2.19-12.659-6.562s-17.98-10.579-29.337-17.588-21.548-13.5-28.831-18.319-11.675-7.967-11.436-8.311,5.065,2.189,12.66,6.562,17.98,10.58,29.34,17.592,21.542,13.5,28.83,18.315,11.673,7.969,11.433,8.311" fill="#1281bf"/>
    <path id="Path_13970" data-name="Path 13970" d="M276.749,286.067a3.241,3.241,0,0,1-3.421,2.426,2.416,2.416,0,0,1-2.111-2.686,2.383,2.383,0,0,1,.088-.419,3.243,3.243,0,0,1,3.415-2.425,2.417,2.417,0,0,1,2.029,3.1" fill="#1281bf"/>
    <path id="Path_13971" data-name="Path 13971" d="M252.541,238.779a3.244,3.244,0,0,1-3.415,2.427A2.42,2.42,0,0,1,247.1,238.1a3.242,3.242,0,0,1,3.416-2.425,2.416,2.416,0,0,1,2.118,2.681,2.338,2.338,0,0,1-.088.423" fill="#1281bf"/>
    <path id="Path_13972" data-name="Path 13972" d="M217.417,288.445A3.242,3.242,0,0,1,214,290.869a2.417,2.417,0,0,1-2.112-2.687,2.376,2.376,0,0,1,.087-.417,3.239,3.239,0,0,1,3.414-2.425,2.419,2.419,0,0,1,2.032,3.105" fill="#1281bf"/>
    <path id="Path_13973" data-name="Path 13973" d="M100.719,357.3a3.242,3.242,0,0,1-3.415,2.426,2.418,2.418,0,0,1-2.029-3.1,3.242,3.242,0,0,1,3.414-2.426,2.419,2.419,0,0,1,2.118,2.685,2.393,2.393,0,0,1-.088.42" fill="#1281bf"/>
    <path id="Path_13974" data-name="Path 13974" d="M69.149,309.282a3.24,3.24,0,0,1-3.415,2.426,2.418,2.418,0,0,1-2.029-3.105,3.24,3.24,0,0,1,3.414-2.426,2.419,2.419,0,0,1,2.03,3.105" fill="#1281bf"/>
    <path id="Path_13975" data-name="Path 13975" d="M416.589,335.836a3.24,3.24,0,0,1-3.415,2.426,2.416,2.416,0,0,1-2.119-2.682,2.369,2.369,0,0,1,.088-.424,3.248,3.248,0,0,1,3.416-2.425,2.419,2.419,0,0,1,2.03,3.105" fill="#1281bf"/>
    <path id="Path_13976" data-name="Path 13976" d="M214.932,86.237a3.244,3.244,0,0,1-3.416,2.427,2.417,2.417,0,0,1-2.118-2.682,2.36,2.36,0,0,1,.09-.423,3.238,3.238,0,0,1,3.413-2.426,2.417,2.417,0,0,1,2.119,2.681,2.522,2.522,0,0,1-.088.423" fill="#1281bf"/>
    <path id="Path_13977" data-name="Path 13977" d="M379.92,396.335a3.242,3.242,0,0,1-3.415,2.426,2.416,2.416,0,0,1-2.119-2.682,2.369,2.369,0,0,1,.088-.424,3.242,3.242,0,0,1,3.416-2.425,2.419,2.419,0,0,1,2.03,3.1" fill="#1281bf"/>
    <path id="Path_13978" data-name="Path 13978" d="M2.083,104.435A35.354,35.354,0,0,1,6.9,102.114c3.183-1.423,7.888-3.471,13.935-6.067,12.091-5.188,29.56-12.585,51-21.584l.531-.222.449.278,45.153,27.81.537.331-.009.67c-.27,22.343-.567,46.87-.875,72.521v.007l-.015,1.048-1.019.419L46.541,206.218l-.655.269-.536-.336C28.782,195.74,13.634,186.218.441,177.922L0,177.643l.009-.545c.43-22.3.836-40.453,1.2-53.037.174-6.292.338-11.193.485-14.524a31.247,31.247,0,0,1,.391-5.1,29.323,29.323,0,0,1,.254,5.034c.06,3.3.093,8.182.1,14.452.019,12.544-.059,30.659-.226,52.929-.141-.266-.281-.53-.436-.825l45.2,27.826-1.189-.066,69.986-29.07c-.34.484-.682.968-1.031,1.469v-.007c.379-25.658.742-50.191,1.071-72.543.184.348.367.694.528,1L71.476,76.41l.975.055C50.942,85.225,33.382,92.317,21.18,97.174c-6.1,2.423-10.857,4.29-14.1,5.523a34.132,34.132,0,0,1-5,1.738" fill="#1281bf"/>
    <path id="Path_13979" data-name="Path 13979" d="M46.164,205c-.4.045-.665-7.093-.777-18.67s-.066-27.59.162-45.3c.042-2.883.081-5.724.12-8.418.191.362.378.713.563,1.063-12.691-7.959-23.836-15.118-31.756-20.357s-12.613-8.574-12.4-8.888,5.315,2.445,13.541,7.254S35.2,123.353,47.95,131.23l.571.353-.008.71c-.029,2.694-.064,5.534-.1,8.416-.222,17.713-.587,33.759-1,45.4s-.861,18.855-1.256,18.9" fill="#1281bf"/>
    <path id="Path_13980" data-name="Path 13980" d="M47.087,132.456c-.224-.723,15.282-7.8,34.625-15.792s35.214-13.9,35.439-13.179-15.274,7.791-34.629,15.792-35.206,13.9-35.435,13.179" fill="#1281bf"/>
    <path id="Path_13981" data-name="Path 13981" d="M360.806,131.638a35.6,35.6,0,0,1,4.819-2.323c3.183-1.423,7.881-3.465,13.933-6.066,12.093-5.187,29.56-12.585,51-21.583l.531-.222.447.277c13.249,8.162,28.535,17.578,45.147,27.816l.537.329-.007.672c-.272,22.343-.569,46.869-.878,72.519v.007l-.014,1.048-1.019.419-70.043,28.893-.653.27-.536-.336c-16.562-10.415-31.71-19.937-44.9-28.233l-.447-.28.009-.545c.43-22.3.836-40.452,1.2-53.036.18-6.292.343-11.193.493-14.523a30.812,30.812,0,0,1,.389-5.1,29.374,29.374,0,0,1,.256,5.03c.057,3.307.09,8.185.1,14.456.017,12.543-.061,30.659-.227,52.929l-.436-.826c13.276,8.179,28.524,17.562,45.2,27.828l-1.189-.068,69.986-29.068c-.338.484-.681.97-1.033,1.469v-.005c.381-25.66.744-50.194,1.076-72.545.183.348.365.694.528,1-16.512-10.39-31.7-19.942-44.864-28.226l.972.058c-21.507,8.755-39.069,15.849-51.269,20.706-6.1,2.423-10.856,4.288-14.1,5.524a34.534,34.534,0,0,1-5,1.737" fill="#1281bf"/>
    <path id="Path_13982" data-name="Path 13982" d="M404.884,232.208c-.4.045-.667-7.093-.777-18.67s-.066-27.59.157-45.3c.042-2.886.081-5.726.12-8.422.192.364.378.713.561,1.063-12.691-7.959-23.835-15.118-31.756-20.357s-12.6-8.573-12.388-8.887,5.315,2.445,13.541,7.254,19.582,11.664,32.329,19.541l.572.351-.009.71c-.029,2.7-.064,5.534-.1,8.419-.223,17.712-.588,33.759-1,45.4s-.86,18.854-1.258,18.9" fill="#1281bf"/>
    <path id="Path_13983" data-name="Path 13983" d="M405.809,159.658c-.224-.721,15.282-7.8,34.624-15.79s35.215-13.9,35.44-13.179S460.6,138.48,441.246,146.48s-35.208,13.9-35.437,13.178" fill="#1281bf"/>
  </g>
</svg>
