<svg id="Group_929" data-name="Group 929" xmlns="http://www.w3.org/2000/svg" width="116.868" height="116.373" viewBox="0 0 116.868 116.373">
  <path id="Path_9146" data-name="Path 9146" d="M1587.049,1280.361c5.535,0,11.072-.1,16.6.021,13.588.306,24.51,6.05,32.933,16.6a40.191,40.191,0,0,1,8.417,19.348,44.2,44.2,0,0,1,.485,6.4c.048,10.533.032,21.067.018,31.6a42.109,42.109,0,0,1-34.254,41.6,39.926,39.926,0,0,1-7.8.736c-11.109,0-22.219.08-33.326-.028a41.956,41.956,0,0,1-40.374-32.6,42.774,42.774,0,0,1-1.071-9.555c-.007-10.633-.056-21.266.011-31.9a41.314,41.314,0,0,1,12.737-30.293,40.515,40.515,0,0,1,22.692-11.361,52.721,52.721,0,0,1,7.224-.551c5.236-.08,10.474-.025,15.711-.025Zm-19.721,38.646v39.523h39.512v-39.523Zm50.733,47.149c-.249-.233-.393-.361-.529-.5-1.964-1.962-3.911-3.941-5.9-5.872a3.541,3.541,0,0,0-1.5-.874,2.5,2.5,0,0,0-2.185,4.256c2.01,2.027,4.035,4.04,6.053,6.06.133.134.256.278.444.483-.261.014-.432.031-.6.032-1.784,0-3.569-.01-5.353.006a2.384,2.384,0,0,0-2.469,1.667,2.5,2.5,0,0,0,2.47,3.417c4.759.013,9.517,0,14.276,0,.114,0,.227-.016.393-.029v-.615q0-3.153,0-6.305c0-2.578.007-5.155,0-7.733a2.366,2.366,0,0,0-1.675-2.459,2.5,2.5,0,0,0-3.409,2.486C1618.044,1362.123,1618.062,1364.065,1618.062,1366.156Zm-61.944.011c0-.329,0-.506,0-.682,0-1.765.011-3.53,0-5.294a2.4,2.4,0,0,0-1.646-2.487,2.5,2.5,0,0,0-3.438,2.5q-.016,7.079,0,14.158a4.43,4.43,0,0,0,.044.451c.123.01.2.023.279.023q6.96,0,13.92-.006a3.865,3.865,0,0,0,.821-.118c1.245-.275,2.54-2.155,2.094-3.288a2.518,2.518,0,0,0-2.534-1.677c-1.745-.011-3.49,0-5.235,0-.2,0-.4-.017-.6-.026l-.064-.16a5.767,5.767,0,0,0,.51-.408c1.952-1.946,3.918-3.878,5.834-5.859a3.465,3.465,0,0,0,.858-1.509,2.494,2.494,0,0,0-4.237-2.179c-2.016,1.994-4.014,4.006-6.02,6.01C1556.545,1365.765,1556.387,1365.909,1556.118,1366.167Zm-.521-55.157.264-.186a2.373,2.373,0,0,0,.315.573c1.8,1.819,3.662,3.579,5.4,5.456a3.283,3.283,0,0,0,3.026,1.085,1.923,1.923,0,0,0,1.406-.783,2.45,2.45,0,0,0-.326-3.336c-1.994-2.017-4.007-4.015-6.011-6.023-.131-.131-.25-.273-.469-.515.572,0,1,0,1.433,0,1.745-.013,3.492.018,5.234-.056a1.881,1.881,0,0,0,1.887-2.435,2.355,2.355,0,0,0-2.5-2.073c-4.622-.012-9.243-.005-13.865,0a2.314,2.314,0,0,0-.344.052c-.008.169-.019.306-.019.443q0,6.813.007,13.627a3.623,3.623,0,0,0,.172,1.108,2.061,2.061,0,0,0,2.838,1.363,2.35,2.35,0,0,0,1.547-2.429c.019-1.745.006-3.491.007-5.236Zm59.916-3.729c-.262.274-.407.432-.559.584q-3.155,3.156-6.308,6.313a4.164,4.164,0,0,0-.581.673,2.337,2.337,0,0,0-.1,2.484,2.143,2.143,0,0,0,2.054,1.141c.692.02.88-.455,1.238-.815q3.208-3.229,6.434-6.439c.089-.089.2-.158.371-.3v.685c0,1.745-.009,3.491,0,5.236a2.378,2.378,0,0,0,1.814,2.535,2.478,2.478,0,0,0,3.27-2.543q.014-6.842,0-13.684c0-.132-.022-.265-.035-.42-.151-.009-.266-.021-.382-.021q-6.9,0-13.8,0a5.028,5.028,0,0,0-.884.1,1.273,1.273,0,0,0-1.077,1.118c-.4,2.04.656,3.341,2.722,3.351,1.686.008,3.372,0,5.057,0Z" transform="translate(-1528.651 -1280.32)" fill="#17a2f0"/>
  <path id="Path_9147" data-name="Path 9147" d="M1853.249,1604.995h39.512v39.523h-39.512Z" transform="translate(-1814.572 -1566.308)" fill="#091827"/>
  <path id="Path_9148" data-name="Path 9148" d="M2188.865,1937.063c0-2.091-.018-4.033.005-5.975a2.5,2.5,0,0,1,3.409-2.486,2.366,2.366,0,0,1,1.675,2.459c.01,2.578,0,5.155,0,7.733v6.921c-.167.013-.28.029-.393.029-4.759,0-9.517.01-14.276,0a2.5,2.5,0,0,1-2.471-3.417,2.384,2.384,0,0,1,2.469-1.667c1.784-.016,3.569,0,5.353-.006.17,0,.341-.018.6-.032-.188-.205-.31-.349-.444-.483-2.018-2.02-4.043-4.033-6.053-6.06a2.5,2.5,0,0,1,2.185-4.256,3.54,3.54,0,0,1,1.5.874c1.994,1.931,3.94,3.911,5.9,5.872C2188.472,1936.7,2188.616,1936.83,2188.865,1937.063Z" transform="translate(-2099.454 -1851.227)" fill="#fff"/>
  <path id="Path_9149" data-name="Path 9149" d="M1721.508,1937.047c.27-.257.427-.4.578-.552,2.006-2,4-4.016,6.02-6.01a2.494,2.494,0,0,1,4.237,2.179,3.463,3.463,0,0,1-.858,1.509c-1.916,1.981-3.882,3.913-5.834,5.859a5.79,5.79,0,0,1-.511.408l.064.161c.2.009.4.026.6.026,1.745,0,3.49-.007,5.235,0a2.517,2.517,0,0,1,2.534,1.677c.446,1.132-.849,3.012-2.094,3.288a3.87,3.87,0,0,1-.82.118q-6.96.012-13.92.006c-.078,0-.156-.012-.279-.023a4.462,4.462,0,0,1-.044-.451q0-7.079,0-14.158a2.5,2.5,0,0,1,3.439-2.5,2.4,2.4,0,0,1,1.645,2.487c.016,1.765,0,3.529,0,5.294C1721.508,1936.542,1721.508,1936.718,1721.508,1937.047Z" transform="translate(-1694.041 -1851.201)" fill="#fff"/>
  <path id="Path_9150" data-name="Path 9150" d="M1721,1476.512q0,.315,0,.63c0,1.745.013,3.491-.006,5.236a2.35,2.35,0,0,1-1.547,2.43,2.061,2.061,0,0,1-2.838-1.363,3.621,3.621,0,0,1-.172-1.108q-.017-6.813-.007-13.627c0-.137.012-.274.019-.443a2.336,2.336,0,0,1,.345-.052c4.621,0,9.243-.009,13.865,0a2.355,2.355,0,0,1,2.5,2.073,1.881,1.881,0,0,1-1.887,2.435c-1.743.074-3.49.043-5.234.056-.431,0-.861,0-1.433,0,.22.242.339.384.47.515,2,2.007,4.017,4.005,6.011,6.022a2.45,2.45,0,0,1,.326,3.336,1.923,1.923,0,0,1-1.406.783,3.283,3.283,0,0,1-3.027-1.085c-1.736-1.877-3.6-3.637-5.4-5.456a2.375,2.375,0,0,1-.315-.573Z" transform="translate(-1694.051 -1445.823)" fill="#fff"/>
  <path id="Path_9151" data-name="Path 9151" d="M2193.881,1472.8h-.762c-1.686,0-3.372.006-5.057,0-2.066-.01-3.119-1.311-2.722-3.351a1.274,1.274,0,0,1,1.077-1.118,5.035,5.035,0,0,1,.884-.1q6.9-.009,13.8,0c.115,0,.231.012.382.021.014.155.035.287.035.42q0,6.842,0,13.684a2.479,2.479,0,0,1-3.27,2.543,2.378,2.378,0,0,1-1.814-2.535c-.014-1.745,0-3.491,0-5.236v-.685c-.176.139-.283.209-.371.3q-3.22,3.216-6.434,6.439c-.358.36-.545.835-1.238.815a2.143,2.143,0,0,1-2.054-1.141,2.337,2.337,0,0,1,.1-2.484,4.193,4.193,0,0,1,.581-.673q3.151-3.16,6.308-6.313C2193.474,1473.227,2193.62,1473.069,2193.881,1472.8Z" transform="translate(-2107.02 -1445.835)" fill="#fff"/>
</svg>
