<svg xmlns="http://www.w3.org/2000/svg" width="68.58" height="83.116" viewBox="0 0 68.58 83.116">
  <g id="Group_1141" data-name="Group 1141" transform="translate(0 0)">
    <path id="Path_2442" data-name="Path 2442" d="M812.327,4089.333c.225,1.053.431,2.025.643,3,.321,1.475.649,2.948.971,4.423a1.561,1.561,0,0,1-.719,1.831,1.526,1.526,0,0,1-1.955-.237c-1.821-1.6-3.633-3.218-5.448-4.828-1.405-1.248-2.817-2.488-4.212-3.747a1.6,1.6,0,0,0-1.165-.452q-12.371.022-24.742,0a6.287,6.287,0,0,1-6.329-6.422q.007-17.98-.007-35.963a6.331,6.331,0,0,1,5.012-6.308,8.6,8.6,0,0,1,1.629-.155q18.885-.013,37.769,0a6.3,6.3,0,0,1,6.551,5.458,4.92,4.92,0,0,1,.055.871q0,18.119,0,36.236a6.277,6.277,0,0,1-6.293,6.3C813.54,4089.335,812.994,4089.333,812.327,4089.333Zm-31.989-10.376h28.413a1.154,1.154,0,0,0,.433-.019c.12-.052.275-.191.284-.3a5.31,5.31,0,0,0-1.773-4.77,11.967,11.967,0,0,0-4.564-2.383,19.163,19.163,0,0,1-3.028-1.068c-1.528-.742-1.764-1.8-.855-3.214.226-.352.507-.67.727-1.028a15.578,15.578,0,0,0,1.232-2.116,10.237,10.237,0,0,0-.066-8.93,7.074,7.074,0,0,0-11.417-1.621,8.92,8.92,0,0,0-2.143,6.479,10.975,10.975,0,0,0,2.62,6.86c1.357,1.609,1.113,2.755-.794,3.66a20.505,20.505,0,0,1-3.025,1.085,11.2,11.2,0,0,0-4.32,2.261A5.391,5.391,0,0,0,780.338,4078.957Z" transform="translate(-769.365 -4040.467)" fill="#17a2f0"/>
    <path id="Path_2443" data-name="Path 2443" d="M996.438,4157.29v.69c0,4,.009,7.991-.012,11.987,0,.508.144.639.643.639q15.71-.023,31.419,0c.474,0,.624-.121.624-.609q-.018-23.485,0-46.967c0-.487-.152-.625-.625-.62-2.153.02-4.306-.006-6.459.017-.474.005-.629-.127-.626-.615q.031-4.488,0-8.978c0-.45.125-.6.585-.583,1.767.051,3.542-.018,5.3.111a8.5,8.5,0,0,1,7.453,6.882,11.559,11.559,0,0,1,.149,1.9q.012,28.763.022,57.529a8.684,8.684,0,0,1-7.154,8.667,10.4,10.4,0,0,1-1.631.146q-13.356.012-26.712,0a8.592,8.592,0,0,1-8.546-6.569,9.5,9.5,0,0,1-.272-2.214c-.02-6.953-.007-13.9-.024-20.856,0-.5.151-.613.621-.6,1.532.027,3.065.009,4.6.012C995.992,4157.262,996.188,4157.277,996.438,4157.29Zm16.316,26.024v0c.565,0,1.13,0,1.7,0a2.446,2.446,0,0,0,2.586-2.456c.046-1.2.048-2.408,0-3.607a2.435,2.435,0,0,0-2.6-2.441c-1.166,0-2.333-.008-3.5,0a2.425,2.425,0,0,0-2.44,2.372q-.052,1.885,0,3.772a2.419,2.419,0,0,0,2.4,2.354C1011.514,4183.323,1012.134,4183.313,1012.754,4183.313Z" transform="translate(-966.337 -4104.383)" fill="#17a2f0"/>
  </g>
</svg>
