<svg id="Group_924" data-name="Group 924" xmlns="http://www.w3.org/2000/svg" width="133.466" height="133.383" viewBox="0 0 133.466 133.383">
  <path id="Path_9132" data-name="Path 9132" d="M-1310.328,1492.159c0,2.593,0,5.047,0,7.5s-.043,4.911.017,7.365a2.817,2.817,0,0,1-1.7,2.819q-12.153,6.487-24.27,13.04c-1.324.712-2.655,1.413-3.972,2.139a2.428,2.428,0,0,1-2.5-.018q-14.167-7.65-28.35-15.271a2.578,2.578,0,0,1-1.506-2.5c.026-4.725.011-9.45.011-14.176v-.848c-.238.1-.423.172-.6.264q-1.347.718-2.69,1.446a2.341,2.341,0,0,1-2.38-.008q-14.262-7.693-28.532-15.371a2.453,2.453,0,0,1-1.391-2.36q.017-17.476,0-34.953a2.535,2.535,0,0,1,1.455-2.461q14.214-7.635,28.409-15.307a2.417,2.417,0,0,1,2.5-.008c1.026.572,2.071,1.112,3.189,1.71.014-.315.034-.556.034-.8,0-4.748.016-9.5-.009-14.245a2.574,2.574,0,0,1,1.493-2.51q14.186-7.615,28.349-15.272a2.5,2.5,0,0,1,2.565,0q14.234,7.673,28.479,15.323a2.448,2.448,0,0,1,1.4,2.356c-.015,4.772-.006,9.543-.006,14.315v.831a19.183,19.183,0,0,0,2.17-1.175c1.538-1.106,2.908-.913,4.544-.016,8.965,4.916,17.981,9.74,27.005,14.547a3.139,3.139,0,0,1,1.887,3.13q-.068,17.129-.009,34.257a2.82,2.82,0,0,1-1.638,2.783q-14.042,7.517-28.05,15.1a2.709,2.709,0,0,1-2.938-.017C-1308.282,1493.2-1309.258,1492.731-1310.328,1492.159Zm-22.239-47.563v.887c0,4.146.013,8.293-.015,12.439a1.118,1.118,0,0,0,.688,1.17c6.713,3.587,13.408,7.209,20.118,10.8a2.518,2.518,0,0,1,1.456,2.462c-.029,2.594-.009,5.189-.009,7.783v.837l19.8-10.832-5.277-2.855,2.109-3.916c3.025,1.635,6.006,3.219,8.951,4.868a2.515,2.515,0,0,1,.963,1.206c.449,1.1-.082,2.128-1.355,2.824q-12.33,6.746-24.667,13.481a.852.852,0,0,0-.539.846.776.776,0,0,0,.519.78c1.148.6,2.294,1.206,3.419,1.849a.982.982,0,0,0,1.083-.01q12.763-6.892,25.54-13.759a.93.93,0,0,0,.607-.936q-.03-14.628-.016-29.257c0-.191-.028-.382-.047-.609-.151.068-.236.1-.316.142q-11.824,6.368-23.654,12.727a.769.769,0,0,0-.45.814c.013,2.038.007,4.077.007,6.115,0,1.013,0,2.026,0,3.065h-4.449v-.793c0-2.757-.014-5.513.013-8.27a.973.973,0,0,0-.592-1.017q-8.57-4.58-17.117-9.2Zm-71.113.029a1.819,1.819,0,0,0-.039.184q-.006,14.94.007,29.879a.919.919,0,0,0,.43.655q12.876,6.973,25.766,13.921a.869.869,0,0,0,.952-.023q1.7-.943,3.424-1.838a.826.826,0,0,0,.563-.827.85.85,0,0,0-.556-.836q-8.137-4.431-16.261-8.884-4.293-2.348-8.584-4.7a2.211,2.211,0,0,1-1.3-2.057,2.182,2.182,0,0,1,1.281-1.994c.45-.237.9-.482,1.344-.723l7.432-4,2.1,3.911-5.275,2.851,19.792,10.823v-.784c0-2.571.032-5.143-.015-7.713a2.691,2.691,0,0,1,1.6-2.661c6.692-3.576,13.363-7.19,20.051-10.774a.981.981,0,0,0,.615-1.008c-.023-4.215-.013-8.431-.013-12.647v-.754c-.189.09-.29.132-.386.184q-11.824,6.367-23.653,12.723a.768.768,0,0,0-.427.829q.011,4.2,0,8.408v.74h-4.448c0-2.99-.027-5.93.02-8.869a1.265,1.265,0,0,0-.8-1.317q-9.4-5.017-18.768-10.082Zm59.993-8.231v-.8c0-2.663-.029-5.327.02-7.989a1.367,1.367,0,0,0-.838-1.436q-10.985-5.87-21.941-11.794c-.54-.291-1.086-.571-1.658-.871a2.5,2.5,0,0,0-.042.283c0,4.447-.009,8.893.015,13.34a.931.931,0,0,0,.417.667c1.471.827,2.974,1.6,4.449,2.42a.908.908,0,0,0,1.009.006c2.678-1.465,5.371-2.9,8.061-4.348.173-.093.357-.167.557-.261l2.086,3.881-6.49,3.51c.278.155.477.269.68.378,3.32,1.788,6.633,3.588,9.963,5.354a2.573,2.573,0,0,1,1.5,2.509c-.025,4.748-.011,9.5-.009,14.243,0,.238.02.476.035.8,1.05-.565,2.024-1.045,2.953-1.6a2.565,2.565,0,0,1,2.875,0c.453.277.931.514,1.4.765.518.277,1.038.549,1.63.862v-.887c0-4.771.007-9.542-.005-14.312a2.38,2.38,0,0,1,1.371-2.3c.882-.46,1.755-.936,2.63-1.408l8.153-4.4-6.505-3.518,2.105-3.9c.255.134.457.238.657.346,2.648,1.425,5.3,2.842,7.938,4.286a.907.907,0,0,0,1.009,0q2.18-1.22,4.4-2.37a.824.824,0,0,0,.5-.866c-.014-4.307-.008-8.615-.011-12.923a4.935,4.935,0,0,0-.056-.52c-.127.053-.193.073-.253.105q-11.852,6.383-23.71,12.756a.769.769,0,0,0-.446.816c.012,2.107.006,4.215.006,6.323v2.862Zm-12.276,53.677-2.132,3.9-10.017-5.468c-.02.191-.034.26-.034.328,0,5.651,0,11.3-.015,16.955,0,.445.218.588.539.76q11.091,5.968,22.176,11.949c.56.3,1.123.6,1.717.915a2.8,2.8,0,0,0,.04-.292q0-14.87.017-29.74c0-.451-.227-.59-.544-.761q-11.673-6.279-23.341-12.564c-.173-.093-.358-.165-.59-.271,0,2.464-.012,4.849.021,7.234a.959.959,0,0,0,.468.643c1.508.857,3.037,1.678,4.559,2.51Zm41.187-14.315c-.26.132-.4.2-.543.277q-11.638,6.264-23.283,12.515a1.081,1.081,0,0,0-.648,1.121q.024,14.484.012,28.968v.75c.179-.078.282-.115.378-.166q11.822-6.361,23.65-12.713a.775.775,0,0,0,.44-.823q-.012-8.3-.007-16.6c0-.167-.03-.335-.052-.572l-10,5.463-2.12-3.89c.226-.13.364-.212.5-.289q5.568-3.049,11.131-6.107c.224-.123.51-.4.513-.614C-1314.763,1480.671-1314.776,1478.266-1314.776,1475.756Z" transform="translate(1408.187 -1391.979)" fill="#f7faff"/>
  <path id="Path_9139" data-name="Path 9139" d="M2801.485,7207.77l26.39-14.829,26.93,14.013-26.93,14.852Z" transform="translate(-2796.564 -7158.686)" fill="#17a2f0"/>
  <path id="Path_9140" data-name="Path 9140" d="M2801.485,7207.844l26.39-14.688,26.93,13.872-26.93,14.852Z" transform="translate(-2761.412 -7190.267)" fill="#17a2f0"/>
  <path id="Path_9141" data-name="Path 9141" d="M2801.485,7207.844l26.39-14.688,26.93,13.872-26.93,14.852Z" transform="translate(-2725.31 -7158.9)" fill="#17a2f0"/>
  <path id="Path_9142" data-name="Path 9142" d="M2801.485,7207.844l26.39-14.688,26.93,13.872-26.93,14.852Z" transform="translate(-2761.412 -7127.533)" fill="#17a2f0"/>
</svg>
