<svg xmlns="http://www.w3.org/2000/svg" xmlns:xlink="http://www.w3.org/1999/xlink" width="634.653" height="454.947" viewBox="0 0 634.653 454.947">
  <defs>
    <clipPath id="clip-path">
      <rect id="Rectangle_119" data-name="Rectangle 119" width="424.621" height="85.08" fill="none"/>
    </clipPath>
    <clipPath id="clip-path-2">
      <path id="Path_9080" data-name="Path 9080" d="M-1090.211,795.862a97.149,97.149,0,0,0-97.142-96.335,96.859,96.859,0,0,0-36.368,7.063,117.4,117.4,0,0,0-105.532-65.923,117.429,117.429,0,0,0-114.6,91.9,101.039,101.039,0,0,0-94.474,100.815A101.053,101.053,0,0,0-1437.27,934.436h321.552a71.633,71.633,0,0,0,71.633-71.629A71.647,71.647,0,0,0-1090.211,795.862Z" transform="translate(1538.323 -640.667)" fill="none"/>
    </clipPath>
  </defs>
  <g id="Group_3554" data-name="Group 3554" transform="translate(-1050.979 -839.059)">
    <g id="Group_901" data-name="Group 901" transform="translate(1148.5 843.67)">
      <path id="Path_9083" data-name="Path 9083" d="M-996.976,917.19a46.085,46.085,0,0,0-46.078-45.7,45.962,45.962,0,0,0-17.252,3.351,55.683,55.683,0,0,0-50.056-31.272,55.7,55.7,0,0,0-54.359,43.594,47.931,47.931,0,0,0-44.814,47.823,47.934,47.934,0,0,0,47.935,47.933h152.522A33.98,33.98,0,0,0-975.1,948.947,33.986,33.986,0,0,0-996.976,917.19Z" transform="translate(1512.229 -621.543)" fill="#091827" opacity="0.104" style="isolation: isolate"/>
      <path id="Path_9084" data-name="Path 9084" d="M-1138.728,779a23.9,23.9,0,0,0-23.9-23.7,23.83,23.83,0,0,0-8.947,1.736,28.886,28.886,0,0,0-25.963-16.218,28.89,28.89,0,0,0-28.195,22.61,24.86,24.86,0,0,0-23.244,24.8,24.863,24.863,0,0,0,24.863,24.861H-1145a17.623,17.623,0,0,0,17.623-17.623A17.629,17.629,0,0,0-1138.728,779Z" transform="translate(1507.92 -632.768)" fill="#e0e0e0"/>
      <path id="Path_9086" data-name="Path 9086" d="M-1336.767,902.063a31.578,31.578,0,0,0-31.575-31.311,31.488,31.488,0,0,0-11.82,2.3,38.16,38.16,0,0,0-34.3-21.426,38.167,38.167,0,0,0-37.246,29.87,32.842,32.842,0,0,0-30.707,32.768,32.845,32.845,0,0,0,32.845,32.845h104.514a23.284,23.284,0,0,0,23.283-23.283A23.287,23.287,0,0,0-1336.767,902.063Z" transform="translate(1482.416 -620.663)" fill="#091827" opacity="0.104" style="isolation: isolate"/>
      <g id="Group_900" data-name="Group 900" transform="translate(23.092)">
        <g id="Group_896" data-name="Group 896">
          <path id="Path_9087" data-name="Path 9087" d="M-1460.787,750.849a.83.83,0,0,1-.569-.243.65.65,0,0,1-.176-.26.7.7,0,0,1-.064-.308.774.774,0,0,1,.064-.324.649.649,0,0,1,.176-.26.854.854,0,0,1,.875-.179,1.02,1.02,0,0,1,.26.179.79.79,0,0,1,.245.583.739.739,0,0,1-.064.308.718.718,0,0,1-.18.26A.82.82,0,0,1-1460.787,750.849Z" transform="translate(1461.598 -631.85)" fill="#e0e0e0"/>
          <path id="Path_9088" data-name="Path 9088" d="M-1461.6,784.894a.813.813,0,0,1,.811-.811h0a.8.8,0,0,1,.811.8v.013h0a.8.8,0,0,1-.8.811h-.013A.812.812,0,0,1-1461.6,784.894Zm0-8.934a.813.813,0,0,1,.811-.811h0a.8.8,0,0,1,.811.8v.013h0a.815.815,0,0,1-.811.811h0A.824.824,0,0,1-1461.6,775.96Zm0-8.934a.813.813,0,0,1,.811-.811h0a.8.8,0,0,1,.811.8v.013h0a.815.815,0,0,1-.811.811h0A.823.823,0,0,1-1461.6,767.026Zm0-8.934a.813.813,0,0,1,.811-.811h0a.8.8,0,0,1,.811.8v.013h0a.814.814,0,0,1-.811.811h0a.822.822,0,0,1-.811-.812Z" transform="translate(1461.598 -630.97)" fill="#e0e0e0"/>
          <path id="Path_9089" data-name="Path 9089" d="M-1460.787,791.119a.709.709,0,0,1-.31-.064.586.586,0,0,1-.26-.179.553.553,0,0,1-.176-.26.658.658,0,0,1-.064-.308.7.7,0,0,1,.064-.308.553.553,0,0,1,.176-.26.777.777,0,0,1,.26-.179.81.81,0,0,1,.616,0,.724.724,0,0,1,.26.179.6.6,0,0,1,.18.26.741.741,0,0,1,.064.308.757.757,0,0,1-.245.568.557.557,0,0,1-.26.179A.66.66,0,0,1-1460.787,791.119Z" transform="translate(1461.598 -627.45)" fill="#e0e0e0"/>
          <path id="Path_9090" data-name="Path 9090" d="M-1313.939,790.308a.809.809,0,0,1,.794-.811h0a.829.829,0,0,1,.826.811h0a.818.818,0,0,1-.824.811h0a.8.8,0,0,1-.794-.8Zm-9.908,0a.813.813,0,0,1,.811-.811h0a.81.81,0,0,1,.8.811h0a.8.8,0,0,1-.789.811h-.008a.8.8,0,0,1-.812-.794v-.017Zm-9.906,0a.813.813,0,0,1,.811-.811h0a.825.825,0,0,1,.811.811h0a.815.815,0,0,1-.811.811h0a.8.8,0,0,1-.811-.8Zm-9.923,0a.823.823,0,0,1,.811-.811h0a.815.815,0,0,1,.811.811h0a.8.8,0,0,1-.8.811h-.013a.813.813,0,0,1-.811-.811Zm-9.908,0a.825.825,0,0,1,.811-.811h0a.813.813,0,0,1,.811.811h0a.8.8,0,0,1-.793.811h-.018a.815.815,0,0,1-.811-.811Zm-9.907,0a.815.815,0,0,1,.811-.811h0a.813.813,0,0,1,.811.811h0a.8.8,0,0,1-.8.811h-.016a.8.8,0,0,1-.811-.8v-.013Zm-9.906,0a.813.813,0,0,1,.811-.811h0a.815.815,0,0,1,.811.811h0a.8.8,0,0,1-.8.811h-.013a.8.8,0,0,1-.811-.793v-.018Zm-9.908,0a.813.813,0,0,1,.811-.811h0a.824.824,0,0,1,.811.811h0a.812.812,0,0,1-.811.811h0a.8.8,0,0,1-.811-.8v-.016Zm-9.907,0a.815.815,0,0,1,.811-.811h0a.824.824,0,0,1,.811.811h0a.812.812,0,0,1-.811.811h0a.8.8,0,0,1-.811-.8v-.013Zm-9.906,0a.813.813,0,0,1,.811-.811h0a.825.825,0,0,1,.811.811h0a.815.815,0,0,1-.811.811h0a.8.8,0,0,1-.811-.793v-.018Zm-9.923,0a.823.823,0,0,1,.811-.811h0a.825.825,0,0,1,.825.811h0a.815.815,0,0,1-.82.811h-.005a.812.812,0,0,1-.81-.811Zm-9.89,0a.813.813,0,0,1,.811-.811h0a.809.809,0,0,1,.793.811h0a.8.8,0,0,1-.786.811h-.007a.8.8,0,0,1-.811-.8v-.016Zm-9.923,0a.824.824,0,0,1,.811-.811h0a.815.815,0,0,1,.811.811h0a.8.8,0,0,1-.8.811h-.013a.812.812,0,0,1-.811-.811Zm-9.908,0a.825.825,0,0,1,.811-.811h0a.813.813,0,0,1,.811.811h0a.8.8,0,0,1-.793.811h-.018a.815.815,0,0,1-.811-.811Zm-9.907,0a.825.825,0,0,1,.811-.811h0a.813.813,0,0,1,.811.811h0a.8.8,0,0,1-.8.811h-.016a.815.815,0,0,1-.811-.811Z" transform="translate(1462.574 -627.45)" fill="#e0e0e0"/>
          <path id="Path_9091" data-name="Path 9091" d="M-1317.863,791.119a.651.651,0,0,1-.306-.064.7.7,0,0,1-.276-.179.734.734,0,0,1-.164-.26.673.673,0,0,1-.064-.308.733.733,0,0,1,.064-.308.732.732,0,0,1,.164-.26.71.71,0,0,1,.276-.179.807.807,0,0,1,.615,0,.582.582,0,0,1,.261.179.986.986,0,0,1,.176.26,1.018,1.018,0,0,1,.064.308.829.829,0,0,1-.242.568.583.583,0,0,1-.261.179A.7.7,0,0,1-1317.863,791.119Z" transform="translate(1477.213 -627.45)" fill="#e0e0e0"/>
          <path id="Path_9092" data-name="Path 9092" d="M-1318.674,789.221a.8.8,0,0,1,.8-.811h.013a.813.813,0,0,1,.811.811h0a.824.824,0,0,1-.811.811h0A.815.815,0,0,1-1318.674,789.221Zm0-9.664a.8.8,0,0,1,.8-.811h.013a.813.813,0,0,1,.811.811h0a.812.812,0,0,1-.811.811h0a.8.8,0,0,1-.811-.8Zm0-9.664a.815.815,0,0,1,.811-.811h0a.824.824,0,0,1,.811.811h0a.813.813,0,0,1-.811.811h0a.8.8,0,0,1-.811-.8v-.012Zm0-9.651a.8.8,0,0,1,.8-.811h.013a.813.813,0,0,1,.811.811h0a.812.812,0,0,1-.811.811h0a.8.8,0,0,1-.811-.8v-.013Zm0-9.664a.815.815,0,0,1,.811-.811h0a.824.824,0,0,1,.811.811h0a.813.813,0,0,1-.811.811h0a.8.8,0,0,1-.811-.8v-.013Zm0-9.651a.8.8,0,0,1,.8-.811h.013a.813.813,0,0,1,.811.811h0a.824.824,0,0,1-.811.811h0a.815.815,0,0,1-.811-.8Zm0-9.664a.815.815,0,0,1,.811-.811h0a.824.824,0,0,1,.811.811h0a.813.813,0,0,1-.811.811h0a.8.8,0,0,1-.811-.8v-.013Zm0-9.651a.8.8,0,0,1,.8-.811h.013a.813.813,0,0,1,.811.811h0a.824.824,0,0,1-.811.811h0a.815.815,0,0,1-.811-.8Zm0-9.664a.8.8,0,0,1,.8-.811h.013a.813.813,0,0,1,.811.811h0a.813.813,0,0,1-.811.811h0a.8.8,0,0,1-.811-.8v-.013Z" transform="translate(1477.213 -636.011)" fill="#e0e0e0"/>
          <path id="Path_9093" data-name="Path 9093" d="M-1317.863,704.075a.936.936,0,0,1-.306-.064,1.459,1.459,0,0,1-.276-.179.918.918,0,0,1-.164-.26.733.733,0,0,1-.064-.308.809.809,0,0,1,.064-.324.917.917,0,0,1,.164-.26,1.456,1.456,0,0,1,.276-.179.808.808,0,0,1,.615,0,1.078,1.078,0,0,1,.261.179.9.9,0,0,1,.242.583.828.828,0,0,1-.242.568A.826.826,0,0,1-1317.863,704.075Z" transform="translate(1477.213 -636.961)" fill="#e0e0e0"/>
          <path id="Path_9094" data-name="Path 9094" d="M-1096.347,703.269a.818.818,0,0,1,.809-.826h0a.827.827,0,0,1,.811.826h0a.823.823,0,0,1-.811.811h0A.815.815,0,0,1-1096.347,703.269Zm-9.71,0a.815.815,0,0,1,.8-.826h.007a.818.818,0,0,1,.811.824v0h0a.815.815,0,0,1-.811.811h0a.812.812,0,0,1-.812-.811Zm-9.713,0a.827.827,0,0,1,.811-.826h0a.817.817,0,0,1,.811.822v0h0a.813.813,0,0,1-.811.811h0A.823.823,0,0,1-1115.77,703.269Zm-9.7,0a.818.818,0,0,1,.809-.826h0a.813.813,0,0,1,.794.826h0a.809.809,0,0,1-.794.811h0a.815.815,0,0,1-.814-.811Zm-9.71,0a.817.817,0,0,1,.806-.826h0a.828.828,0,0,1,.811.826h0a.825.825,0,0,1-.811.811h0a.812.812,0,0,1-.812-.811Zm-9.713,0a.815.815,0,0,1,.8-.826h.007a.817.817,0,0,1,.811.822v0h0a.813.813,0,0,1-.811.811h0A.812.812,0,0,1-1144.89,703.269Zm-9.714,0a.828.828,0,0,1,.811-.826h0a.815.815,0,0,1,.811.82v.007h0a.811.811,0,0,1-.811.811h0A.825.825,0,0,1-1154.6,703.269Zm-9.695,0a.816.816,0,0,1,.806-.826h0a.828.828,0,0,1,.811.826h0a.825.825,0,0,1-.811.811h0a.813.813,0,0,1-.806-.811Zm-9.713,0a.815.815,0,0,1,.8-.826h.007a.828.828,0,0,1,.811.826h0a.825.825,0,0,1-.811.811h0a.813.813,0,0,1-.81-.811Zm-9.714,0a.828.828,0,0,1,.811-.826h0a.815.815,0,0,1,.811.82v.007h0a.812.812,0,0,1-.811.811h0A.825.825,0,0,1-1183.725,703.269Zm-9.712,0a.832.832,0,0,1,.829-.826h0a.813.813,0,0,1,.793.826h0a.809.809,0,0,1-.793.811h0a.829.829,0,0,1-.828-.811Zm-9.7,0a.815.815,0,0,1,.8-.826h.007a.828.828,0,0,1,.811.826h0a.825.825,0,0,1-.811.811h0a.813.813,0,0,1-.81-.811Zm-9.714,0a.817.817,0,0,1,.806-.826h0a.815.815,0,0,1,.811.82v.007h0a.812.812,0,0,1-.811.811h0a.813.813,0,0,1-.81-.811Zm-9.712,0a.828.828,0,0,1,.811-.826h0a.817.817,0,0,1,.811.822v0h0a.814.814,0,0,1-.811.811h0a.826.826,0,0,1-.809-.811Zm-9.71,0a.827.827,0,0,1,.811-.826h0a.833.833,0,0,1,.826.826h0a.828.828,0,0,1-.826.811h0a.823.823,0,0,1-.81-.811Zm-9.7,0a.817.817,0,0,1,.806-.826h0a.827.827,0,0,1,.811.826h0a.823.823,0,0,1-.811.811h0a.813.813,0,0,1-.81-.811Zm-9.713,0a.819.819,0,0,1,.809-.826h0a.827.827,0,0,1,.811.826h0a.823.823,0,0,1-.811.811h0a.814.814,0,0,1-.81-.811Zm-9.71,0a.827.827,0,0,1,.811-.826h0a.818.818,0,0,1,.811.824v0h0a.815.815,0,0,1-.811.811h0a.822.822,0,0,1-.81-.811Zm-9.7,0a.816.816,0,0,1,.806-.826h0a.815.815,0,0,1,.8.826h0a.81.81,0,0,1-.8.811h0a.813.813,0,0,1-.81-.811Zm-9.713,0a.818.818,0,0,1,.809-.826h0a.827.827,0,0,1,.811.826h0a.824.824,0,0,1-.811.811h0a.814.814,0,0,1-.81-.811Zm-9.713,0a.818.818,0,0,1,.809-.826h0a.817.817,0,0,1,.811.822v0h0a.813.813,0,0,1-.811.811h0a.815.815,0,0,1-.809-.811Zm-9.71,0a.827.827,0,0,1,.811-.826h0a.818.818,0,0,1,.811.824v0h0a.815.815,0,0,1-.811.811h0a.822.822,0,0,1-.81-.811Zm-9.7,0a.816.816,0,0,1,.806-.826h0a.827.827,0,0,1,.811.826h0a.823.823,0,0,1-.811.811h0a.813.813,0,0,1-.81-.811Z" transform="translate(1478.169 -636.961)" fill="#e0e0e0"/>
          <path id="Path_9095" data-name="Path 9095" d="M-1107.816,704.075a.833.833,0,0,1-.582-.243.832.832,0,0,1-.228-.568.874.874,0,0,1,.228-.583,1.43,1.43,0,0,1,.257-.179.849.849,0,0,1,.893.179,1.087,1.087,0,0,1,.177.275.884.884,0,0,1,.049.308.807.807,0,0,1-.222.568A.831.831,0,0,1-1107.816,704.075Z" transform="translate(1500.161 -636.961)" fill="#e0e0e0"/>
          <path id="Path_9096" data-name="Path 9096" d="M-1108.642,699.422a.811.811,0,0,1,.811-.794h0a.813.813,0,0,1,.826.794h0a.815.815,0,0,1-.82.811h-.007A.815.815,0,0,1-1108.642,699.422Zm0-9.355a.825.825,0,0,1,.811-.811h0a.827.827,0,0,1,.826.811h0a.83.83,0,0,1-.826.826h0a.83.83,0,0,1-.811-.823Zm0-9.355a.825.825,0,0,1,.811-.811h0a.827.827,0,0,1,.826.811h0a.815.815,0,0,1-.82.811h-.007a.815.815,0,0,1-.811-.811Zm0-9.355a.825.825,0,0,1,.811-.811h0a.827.827,0,0,1,.826.811h0a.815.815,0,0,1-.82.811h-.007a.815.815,0,0,1-.811-.811Zm0-9.355a.825.825,0,0,1,.811-.811h0A.827.827,0,0,1-1107,662h0a.815.815,0,0,1-.82.811h-.007a.815.815,0,0,1-.811-.811Zm0-9.355a.825.825,0,0,1,.811-.811h0a.827.827,0,0,1,.826.811h0a.815.815,0,0,1-.82.811h-.007a.815.815,0,0,1-.811-.811Z" transform="translate(1500.159 -642.49)" fill="#e0e0e0"/>
          <path id="Path_9097" data-name="Path 9097" d="M-1107.816,645.021a.789.789,0,0,1-.582-.243.809.809,0,0,1-.228-.568.9.9,0,0,1,.05-.308,1.052,1.052,0,0,1,.179-.26.832.832,0,0,1,1.151,0,.807.807,0,0,1,.222.568.88.88,0,0,1-.049.308.986.986,0,0,1-.176.26.7.7,0,0,1-.26.179A.71.71,0,0,1-1107.816,645.021Z" transform="translate(1500.161 -643.41)" fill="#e0e0e0"/>
        </g>
        <g id="Group_897" data-name="Group 897" transform="translate(56.409 162.056)">
          <path id="Path_9098" data-name="Path 9098" d="M-1409.918,920.069a.825.825,0,0,1-.586-.222.787.787,0,0,1-.176-.276.919.919,0,0,1-.064-.308.828.828,0,0,1,.242-.568.856.856,0,0,1,.887-.179.911.911,0,0,1,.26.179.81.81,0,0,1,.229.568,1,1,0,0,1-.049.308,1.188,1.188,0,0,1-.18.276.862.862,0,0,1-.26.162A.692.692,0,0,1-1409.918,920.069Z" transform="translate(1410.745 -775.417)" fill="#e0e0e0"/>
          <path id="Path_9099" data-name="Path 9099" d="M-1410.73,958.072a.8.8,0,0,1,.793-.811h.018a.8.8,0,0,1,.794.807v0h0a.811.811,0,0,1-.794.811h0A.812.812,0,0,1-1410.73,958.072Zm0-9.956a.813.813,0,0,1,.811-.811h0a.811.811,0,0,1,.794.811h0a.8.8,0,0,1-.791.811h0a.8.8,0,0,1-.811-.793v-.018Zm0-9.939a.813.813,0,0,1,.811-.811h0a.811.811,0,0,1,.794.811h0a.811.811,0,0,1-.794.811h0a.812.812,0,0,1-.811-.813v0Zm0-9.939a.8.8,0,0,1,.793-.811h.018a.8.8,0,0,1,.794.808v0h0a.811.811,0,0,1-.794.811h0a.812.812,0,0,1-.811-.813v0Z" transform="translate(1410.747 -774.437)" fill="#e0e0e0"/>
          <path id="Path_9100" data-name="Path 9100" d="M-1409.918,964.9a.774.774,0,0,1-.586-.243.7.7,0,0,1-.176-.26.919.919,0,0,1-.064-.308,1.012,1.012,0,0,1,.064-.308.706.706,0,0,1,.176-.26.824.824,0,0,1,.887-.179.656.656,0,0,1,.26.179,1.09,1.09,0,0,1,.18.26,1.077,1.077,0,0,1,.049.308,1,1,0,0,1-.049.308,1.069,1.069,0,0,1-.18.26.656.656,0,0,1-.26.179A.707.707,0,0,1-1409.918,964.9Z" transform="translate(1410.745 -770.52)" fill="#e0e0e0"/>
          <path id="Path_9101" data-name="Path 9101" d="M-1318.819,964.09a.813.813,0,0,1,.811-.811h0a.8.8,0,0,1,.811.8v.016h0a.8.8,0,0,1-.8.811h-.016A.812.812,0,0,1-1318.819,964.09Zm-9.275,0a.8.8,0,0,1,.8-.811h.016a.815.815,0,0,1,.811.811h0a.815.815,0,0,1-.811.811h0a.8.8,0,0,1-.811-.8Zm-9.292,0a.815.815,0,0,1,.811-.811h0a.8.8,0,0,1,.811.793v.018h0a.8.8,0,0,1-.793.811h-.018a.815.815,0,0,1-.811-.811Zm-9.272,0a.8.8,0,0,1,.793-.811h.018a.815.815,0,0,1,.811.811h0a.815.815,0,0,1-.811.811h0a.8.8,0,0,1-.811-.793v-.018Zm-9.292,0a.8.8,0,0,1,.8-.811h.013a.813.813,0,0,1,.811.811h0a.812.812,0,0,1-.811.811h0a.8.8,0,0,1-.811-.8v-.013Zm-9.289,0a.815.815,0,0,1,.82-.811h.005a.8.8,0,0,1,.8.8v.008h0a.8.8,0,0,1-.789.811h-.008a.815.815,0,0,1-.826-.8v-.007Zm-9.274,0a.8.8,0,0,1,.8-.811h.016a.815.815,0,0,1,.811.811h0a.815.815,0,0,1-.811.811h0a.8.8,0,0,1-.811-.8v-.016Zm-9.292,0a.815.815,0,0,1,.811-.811h0a.8.8,0,0,1,.811.793v.018h0a.8.8,0,0,1-.793.811h-.018a.815.815,0,0,1-.812-.811Zm-9.272,0a.8.8,0,0,1,.793-.811h.018a.815.815,0,0,1,.811.811h0a.815.815,0,0,1-.811.811h0a.8.8,0,0,1-.812-.792v-.019Zm-9.292,0a.815.815,0,0,1,.811-.811h0a.8.8,0,0,1,.811.793v.018h0a.8.8,0,0,1-.793.811h-.018a.815.815,0,0,1-.812-.811Z" transform="translate(1411.66 -770.52)" fill="#e0e0e0"/>
          <path id="Path_9102" data-name="Path 9102" d="M-1317.863,964.9a.649.649,0,0,1-.306-.064.711.711,0,0,1-.276-.179.733.733,0,0,1-.164-.26.673.673,0,0,1-.064-.308.809.809,0,0,1,.229-.568.7.7,0,0,1,.276-.179.807.807,0,0,1,.615,0,.583.583,0,0,1,.261.179.828.828,0,0,1,.242.568.7.7,0,0,1-.064.308.745.745,0,0,1-.176.26.584.584,0,0,1-.261.179A.693.693,0,0,1-1317.863,964.9Z" transform="translate(1420.804 -770.52)" fill="#e0e0e0"/>
          <path id="Path_9103" data-name="Path 9103" d="M-1318.674,967.67a.8.8,0,0,1,.8-.811h.013a.813.813,0,0,1,.811.811h0a.824.824,0,0,1-.811.811h0A.815.815,0,0,1-1318.674,967.67Zm0-9.436a.818.818,0,0,1,.809-.826h0a.827.827,0,0,1,.811.826h0a.824.824,0,0,1-.811.811h0A.815.815,0,0,1-1318.674,958.234Zm0-9.453a.815.815,0,0,1,.811-.811h0a.824.824,0,0,1,.811.811h0a.812.812,0,0,1-.811.811h0a.8.8,0,0,1-.811-.8Zm0-9.436a.815.815,0,0,1,.811-.811h0a.824.824,0,0,1,.811.811h0a.812.812,0,0,1-.811.811h0a.8.8,0,0,1-.811-.8Zm0-9.436a.8.8,0,0,1,.8-.811h.013a.813.813,0,0,1,.811.811h0a.824.824,0,0,1-.811.811h0a.815.815,0,0,1-.811-.811Zm0-9.436a.8.8,0,0,1,.8-.811h.013a.813.813,0,0,1,.811.811h0a.824.824,0,0,1-.811.811h0a.815.815,0,0,1-.811-.811Zm0-9.436a.8.8,0,0,1,.8-.811h.013a.813.813,0,0,1,.811.811h0a.824.824,0,0,1-.811.811h0a.815.815,0,0,1-.811-.811Zm0-9.453a.815.815,0,0,1,.811-.811h0a.824.824,0,0,1,.811.811h0a.812.812,0,0,1-.811.811h0a.8.8,0,0,1-.811-.8v-.013Zm0-9.436a.8.8,0,0,1,.8-.811h.013a.813.813,0,0,1,.811.811h0a.812.812,0,0,1-.811.811h0a.8.8,0,0,1-.811-.8v-.013Zm0-9.436a.8.8,0,0,1,.8-.811h.013a.813.813,0,0,1,.811.811h0a.824.824,0,0,1-.811.811h0a.815.815,0,0,1-.811-.811Zm0-9.436a.8.8,0,0,1,.8-.811h.013a.813.813,0,0,1,.811.811h0a.824.824,0,0,1-.811.811h0a.815.815,0,0,1-.811-.811Zm0-9.453a.815.815,0,0,1,.811-.811h0a.824.824,0,0,1,.811.811h0a.812.812,0,0,1-.811.811h0a.8.8,0,0,1-.811-.8v-.013Zm0-9.436a.8.8,0,0,1,.8-.811h.013a.813.813,0,0,1,.811.811h0a.812.812,0,0,1-.811.811h0a.8.8,0,0,1-.811-.8v-.013Zm0-9.436a.8.8,0,0,1,.8-.811h.013a.813.813,0,0,1,.811.811h0a.812.812,0,0,1-.811.811h0a.8.8,0,0,1-.811-.8v-.013Z" transform="translate(1420.804 -783.537)" fill="#e0e0e0"/>
          <path id="Path_9104" data-name="Path 9104" d="M-1317.863,837.25a.933.933,0,0,1-.306-.064.943.943,0,0,1-.276-.179.917.917,0,0,1-.164-.26.733.733,0,0,1-.064-.308.851.851,0,0,1,.229-.583.922.922,0,0,1,.276-.162.807.807,0,0,1,.615,0,.715.715,0,0,1,.261.162.905.905,0,0,1,.242.583.7.7,0,0,1-.064.308.9.9,0,0,1-.176.26,1.079,1.079,0,0,1-.261.179A1.022,1.022,0,0,1-1317.863,837.25Z" transform="translate(1420.804 -784.466)" fill="#e0e0e0"/>
          <path id="Path_9105" data-name="Path 9105" d="M-1192.147,836.439a.813.813,0,0,1,.811-.811h0a.8.8,0,0,1,.811.8v.013h0a.815.815,0,0,1-.811.811h0A.824.824,0,0,1-1192.147,836.439Zm-9.811,0a.815.815,0,0,1,.811-.811h0a.818.818,0,0,1,.829.806v0h0a.829.829,0,0,1-.829.811h0A.825.825,0,0,1-1201.959,836.439Zm-9.809,0a.815.815,0,0,1,.811-.811h0a.8.8,0,0,1,.811.793v.018h0a.812.812,0,0,1-.811.811h0a.825.825,0,0,1-.812-.811Zm-9.794,0a.8.8,0,0,1,.789-.811h.008a.8.8,0,0,1,.811.8v.016h0a.813.813,0,0,1-.811.811h0A.81.81,0,0,1-1221.561,836.439Zm-9.809,0a.8.8,0,0,1,.8-.811h.016a.813.813,0,0,1,.811.811h0a.824.824,0,0,1-.811.811h0a.812.812,0,0,1-.812-.811Zm-9.808,0a.8.8,0,0,1,.793-.811h.018a.815.815,0,0,1,.811.811h0a.825.825,0,0,1-.811.811h0A.813.813,0,0,1-1241.178,836.439Zm-9.809,0a.8.8,0,0,1,.8-.811h.016a.815.815,0,0,1,.811.811h0a.825.825,0,0,1-.811.811h0a.812.812,0,0,1-.812-.811Zm-9.811,0a.815.815,0,0,1,.811-.811h0a.8.8,0,0,1,.811.8v.016h0a.813.813,0,0,1-.811.811h0a.825.825,0,0,1-.812-.811Zm-9.809,0a.8.8,0,0,1,.8-.811h.016a.8.8,0,0,1,.811.793v.018h0a.812.812,0,0,1-.811.811h0a.812.812,0,0,1-.812-.811Zm-9.809,0a.815.815,0,0,1,.811-.811h0a.8.8,0,0,1,.811.793v.018h0a.812.812,0,0,1-.811.811h0a.825.825,0,0,1-.812-.811Zm-9.808,0a.813.813,0,0,1,.811-.811h0a.8.8,0,0,1,.811.8v.016h0a.813.813,0,0,1-.811.811h0a.822.822,0,0,1-.812-.811Zm-9.794,0a.8.8,0,0,1,.793-.811h.018a.815.815,0,0,1,.811.811h0a.825.825,0,0,1-.811.811h0a.812.812,0,0,1-.812-.811Zm-9.809,0a.8.8,0,0,1,.8-.811h.015a.815.815,0,0,1,.811.811h0a.825.825,0,0,1-.811.811h0a.812.812,0,0,1-.812-.811Z" transform="translate(1421.77 -784.466)" fill="#e0e0e0"/>
          <path id="Path_9106" data-name="Path 9106" d="M-1194.084,837.251a.833.833,0,0,1-.569-.243.9.9,0,0,1-.176-.259,1.013,1.013,0,0,1-.064-.308.926.926,0,0,1,.064-.308.789.789,0,0,1,.176-.276.715.715,0,0,1,.26-.162.691.691,0,0,1,.615,0,.921.921,0,0,1,.276.162.794.794,0,0,1,.164.276.658.658,0,0,1,.064.308.8.8,0,0,1-.229.568A.9.9,0,0,1-1194.084,837.251Z" transform="translate(1434.327 -784.467)" fill="#e0e0e0"/>
          <path id="Path_9107" data-name="Path 9107" d="M-1194.9,830.241a.813.813,0,0,1,.811-.811h0a.8.8,0,0,1,.811.8v.013h0a.815.815,0,0,1-.811.811h0A.823.823,0,0,1-1194.9,830.241Zm0-10.231a.813.813,0,0,1,.811-.811h0a.8.8,0,0,1,.811.8v.013h0a.8.8,0,0,1-.807.794h0a.809.809,0,0,1-.811-.8Zm0-10.247a.824.824,0,0,1,.811-.811h0a.815.815,0,0,1,.811.811h0a.8.8,0,0,1-.8.811h-.013a.812.812,0,0,1-.811-.812Zm0-10.231a.824.824,0,0,1,.811-.811h0a.815.815,0,0,1,.811.811h0a.8.8,0,0,1-.8.811h-.013a.811.811,0,0,1-.811-.812Z" transform="translate(1434.327 -788.498)" fill="#e0e0e0"/>
          <path id="Path_9108" data-name="Path 9108" d="M-1194.084,791.118a.817.817,0,0,1-.569-.222.951.951,0,0,1-.176-.275.925.925,0,0,1-.064-.308,1.011,1.011,0,0,1,.064-.308.706.706,0,0,1,.176-.26.777.777,0,0,1,.26-.179.81.81,0,0,1,.615,0,.811.811,0,0,1,.276.179.729.729,0,0,1,.164.26.706.706,0,0,1,.064.308.874.874,0,0,1-.229.583A.874.874,0,0,1-1194.084,791.118Z" transform="translate(1434.327 -789.505)" fill="#e0e0e0"/>
        </g>
        <g id="Group_898" data-name="Group 898" transform="translate(158.538 341.313)">
          <path id="Path_9109" data-name="Path 9109" d="M-1107.816,952.724a.832.832,0,0,1-.582-.243.809.809,0,0,1-.228-.568.874.874,0,0,1,.228-.583.848.848,0,0,1,.887-.162.915.915,0,0,1,.26.162,1.115,1.115,0,0,1,.176.276.889.889,0,0,1,.049.308.808.808,0,0,1-.222.568A.828.828,0,0,1-1107.816,952.724Z" transform="translate(1341.622 -951.107)" fill="#e0e0e0"/>
          <path id="Path_9110" data-name="Path 9110" d="M-1108.642,1007.045a.815.815,0,0,1,.811-.811h0a.816.816,0,0,1,.826.8v.007h0a.815.815,0,0,1-.82.811h-.007A.815.815,0,0,1-1108.642,1007.045Zm0-9.339a.815.815,0,0,1,.811-.811h0a.816.816,0,0,1,.826.8v.007h0a.827.827,0,0,1-.826.811h0a.825.825,0,0,1-.811-.812Zm0-9.355a.825.825,0,0,1,.811-.811h0a.827.827,0,0,1,.826.811h0a.83.83,0,0,1-.826.826h0a.828.828,0,0,1-.811-.828Zm0-9.339a.825.825,0,0,1,.811-.811h0a.827.827,0,0,1,.826.811h0a.815.815,0,0,1-.82.811h-.007a.815.815,0,0,1-.811-.812Zm0-9.339a.815.815,0,0,1,.811-.811h0a.816.816,0,0,1,.826.8v.007h0a.815.815,0,0,1-.82.811h-.007a.815.815,0,0,1-.811-.813Zm0-9.339a.815.815,0,0,1,.811-.811h0a.816.816,0,0,1,.826.8v.007h0a.827.827,0,0,1-.826.811h0a.825.825,0,0,1-.811-.813Z" transform="translate(1341.62 -950.188)" fill="#e0e0e0"/>
          <path id="Path_9111" data-name="Path 9111" d="M-1107.816,1011.674a.789.789,0,0,1-.582-.243.809.809,0,0,1-.228-.568.908.908,0,0,1,.05-.308,1.054,1.054,0,0,1,.179-.26.832.832,0,0,1,1.151,0,.807.807,0,0,1,.222.568.968.968,0,0,1-.049.308.986.986,0,0,1-.176.26.7.7,0,0,1-.26.179A.7.7,0,0,1-1107.816,1011.674Z" transform="translate(1341.622 -944.666)" fill="#e0e0e0"/>
          <path id="Path_9112" data-name="Path 9112" d="M-1096.347,1010.864a.8.8,0,0,1,.8-.811h.013a.813.813,0,0,1,.811.811h0a.812.812,0,0,1-.811.811h0a.805.805,0,0,1-.811-.8Zm-9.71,0a.8.8,0,0,1,.793-.811h.018a.815.815,0,0,1,.811.811h0a.815.815,0,0,1-.811.811h0a.8.8,0,0,1-.816-.788v-.023Zm-9.713,0a.8.8,0,0,1,.793-.811h.018a.8.8,0,0,1,.811.8v.016h0a.8.8,0,0,1-.8.811h-.016a.8.8,0,0,1-.811-.793Zm-9.714,0a.815.815,0,0,1,.811-.811h0a.8.8,0,0,1,.811.793v.018h0a.8.8,0,0,1-.793.811h-.018A.815.815,0,0,1-1125.483,1010.864Zm-9.694,0a.8.8,0,0,1,.8-.811h.016a.815.815,0,0,1,.811.811h0a.815.815,0,0,1-.811.811h0a.8.8,0,0,1-.812-.794v-.017Zm-9.713,0a.8.8,0,0,1,.793-.811h.018a.815.815,0,0,1,.811.811h0a.815.815,0,0,1-.811.811h0a.8.8,0,0,1-.807-.8v-.014Zm-9.714,0a.815.815,0,0,1,.811-.811h0a.8.8,0,0,1,.811.793v.018h0a.8.8,0,0,1-.793.811h-.018A.815.815,0,0,1-1154.6,1010.864Zm-9.713,0a.817.817,0,0,1,.824-.811h0a.815.815,0,0,1,.811.811h0a.815.815,0,0,1-.811.811h0a.818.818,0,0,1-.828-.806Zm-9.695,0a.8.8,0,0,1,.793-.811h.018a.815.815,0,0,1,.811.811h0a.815.815,0,0,1-.811.811h0a.8.8,0,0,1-.81-.794v-.017Zm-9.714,0a.8.8,0,0,1,.8-.811h.016a.8.8,0,0,1,.811.793v.018h0a.8.8,0,0,1-.793.811h-.018a.8.8,0,0,1-.81-.8v-.014Zm-9.713,0a.815.815,0,0,1,.811-.811h0a.8.8,0,0,1,.811.8v.016h0a.8.8,0,0,1-.8.811h-.016a.814.814,0,0,1-.81-.811Zm-9.71,0a.813.813,0,0,1,.811-.811h0a.818.818,0,0,1,.826.809v0h0a.818.818,0,0,1-.824.811h0a.812.812,0,0,1-.81-.811Zm-9.7,0a.8.8,0,0,1,.8-.811h.015a.813.813,0,0,1,.811.811h0a.813.813,0,0,1-.811.811h0a.8.8,0,0,1-.811-.8Zm-9.713,0a.815.815,0,0,1,.811-.811h0a.813.813,0,0,1,.811.811h0a.813.813,0,0,1-.811.811h0a.814.814,0,0,1-.81-.811Zm-9.71,0a.813.813,0,0,1,.811-.811h0a.8.8,0,0,1,.811.8v.013h0a.8.8,0,0,1-.8.811h-.013a.812.812,0,0,1-.81-.811Zm-9.7,0a.8.8,0,0,1,.8-.811h.016a.813.813,0,0,1,.811.811h0a.813.813,0,0,1-.811.811h0a.8.8,0,0,1-.811-.8Zm-9.713,0a.8.8,0,0,1,.8-.811h.013a.813.813,0,0,1,.811.811h0a.813.813,0,0,1-.811.811h0a.8.8,0,0,1-.81-.8v-.012Zm-9.71,0a.8.8,0,0,1,.8-.811h.016a.8.8,0,0,1,.811.8v.013h0a.8.8,0,0,1-.8.811h-.013a.8.8,0,0,1-.811-.8Zm-9.7,0a.8.8,0,0,1,.789-.811h.008a.8.8,0,0,1,.811.8v.013h0a.8.8,0,0,1-.8.811h-.013a.8.8,0,0,1-.8-.8v-.008Zm-9.713,0a.8.8,0,0,1,.8-.811h.013a.813.813,0,0,1,.811.811h0a.813.813,0,0,1-.811.811h0a.8.8,0,0,1-.811-.8v-.013Zm-9.713,0a.8.8,0,0,1,.8-.811h.013a.813.813,0,0,1,.811.811h0a.813.813,0,0,1-.811.811h0a.8.8,0,0,1-.81-.8v-.012Zm-9.71,0a.813.813,0,0,1,.811-.811h0a.8.8,0,0,1,.811.8v.013h0a.8.8,0,0,1-.8.811h-.013a.812.812,0,0,1-.81-.811Zm-9.713,0a.813.813,0,0,1,.811-.811h0a.815.815,0,0,1,.825.805v.005h0a.815.815,0,0,1-.82.811h-.005a.812.812,0,0,1-.81-.811Z" transform="translate(1319.629 -944.667)" fill="#e0e0e0"/>
          <path id="Path_9113" data-name="Path 9113" d="M-1317.863,1011.675a.65.65,0,0,1-.306-.064.7.7,0,0,1-.276-.179.733.733,0,0,1-.164-.26.733.733,0,0,1-.064-.308.733.733,0,0,1,.064-.308.733.733,0,0,1,.164-.26.711.711,0,0,1,.276-.179.808.808,0,0,1,.615,0,.582.582,0,0,1,.261.179.986.986,0,0,1,.176.26,1.019,1.019,0,0,1,.064.308,1.019,1.019,0,0,1-.064.308.986.986,0,0,1-.176.26.583.583,0,0,1-.261.179A.7.7,0,0,1-1317.863,1011.675Z" transform="translate(1318.674 -944.667)" fill="#e0e0e0"/>
          <path id="Path_9114" data-name="Path 9114" d="M-1318.674,1004.58a.8.8,0,0,1,.8-.811h.013a.813.813,0,0,1,.811.811h0a.812.812,0,0,1-.811.811h0a.8.8,0,0,1-.811-.8Zm0-10.377a.8.8,0,0,1,.8-.811h.013a.813.813,0,0,1,.811.811h0a.812.812,0,0,1-.811.811h0a.8.8,0,0,1-.811-.8V994.2Zm0-10.377a.8.8,0,0,1,.8-.811h.013a.813.813,0,0,1,.811.811h0a.813.813,0,0,1-.811.811h0a.8.8,0,0,1-.811-.8v-.013Zm0-10.377a.8.8,0,0,1,.8-.811h.013a.813.813,0,0,1,.811.811h0a.813.813,0,0,1-.811.811h0a.8.8,0,0,1-.811-.8v-.013Z" transform="translate(1318.674 -948.755)" fill="#e0e0e0"/>
          <path id="Path_9115" data-name="Path 9115" d="M-1317.863,964.9a.649.649,0,0,1-.306-.064.711.711,0,0,1-.276-.179.733.733,0,0,1-.164-.26.673.673,0,0,1-.064-.308.809.809,0,0,1,.229-.568.711.711,0,0,1,.276-.179.807.807,0,0,1,.615,0,.583.583,0,0,1,.261.179.828.828,0,0,1,.242.568.7.7,0,0,1-.064.308.745.745,0,0,1-.176.26.584.584,0,0,1-.261.179A.693.693,0,0,1-1317.863,964.9Z" transform="translate(1318.674 -949.777)" fill="#e0e0e0"/>
        </g>
        <g id="Group_899" data-name="Group 899" transform="translate(158.538 162.05)">
          <path id="Path_9116" data-name="Path 9116" d="M-1317.863,791.118a.651.651,0,0,1-.306-.064.7.7,0,0,1-.276-.179.732.732,0,0,1-.164-.26.673.673,0,0,1-.064-.308.733.733,0,0,1,.064-.308.732.732,0,0,1,.164-.26.71.71,0,0,1,.276-.179.807.807,0,0,1,.615,0,.583.583,0,0,1,.261.179.986.986,0,0,1,.176.26,1.019,1.019,0,0,1,.064.308.829.829,0,0,1-.242.568.582.582,0,0,1-.261.179A.7.7,0,0,1-1317.863,791.118Z" transform="translate(1318.674 -789.5)" fill="#e0e0e0"/>
          <path id="Path_9117" data-name="Path 9117" d="M-1318.674,830.241a.818.818,0,0,1,.809-.826h0a.827.827,0,0,1,.811.826h0a.824.824,0,0,1-.811.811h0A.815.815,0,0,1-1318.674,830.241Zm0-10.231a.8.8,0,0,1,.8-.811h.013a.813.813,0,0,1,.811.811h0a.824.824,0,0,1-.811.811h0a.815.815,0,0,1-.811-.812Zm0-10.247a.815.815,0,0,1,.811-.811h0a.824.824,0,0,1,.811.811h0a.812.812,0,0,1-.811.811h0a.8.8,0,0,1-.811-.8v-.014Zm0-10.231a.815.815,0,0,1,.811-.811h0a.824.824,0,0,1,.811.811h0a.812.812,0,0,1-.811.811h0a.8.8,0,0,1-.811-.8v-.014Z" transform="translate(1318.674 -788.493)" fill="#e0e0e0"/>
          <path id="Path_9118" data-name="Path 9118" d="M-1317.863,837.25a.933.933,0,0,1-.306-.064.943.943,0,0,1-.276-.179.917.917,0,0,1-.164-.26.733.733,0,0,1-.064-.308.851.851,0,0,1,.229-.583.922.922,0,0,1,.276-.162.807.807,0,0,1,.615,0,.715.715,0,0,1,.261.162.9.9,0,0,1,.242.583.7.7,0,0,1-.064.308.9.9,0,0,1-.176.26,1.079,1.079,0,0,1-.261.179A1.022,1.022,0,0,1-1317.863,837.25Z" transform="translate(1318.674 -784.46)" fill="#e0e0e0"/>
        </g>
      </g>
    </g>
    <ellipse id="_Path_" data-name=" Path " cx="314.372" cy="18.359" rx="314.372" ry="18.359" transform="translate(1050.979 1257.288)" fill="#f5f5f5"/>
    <g id="Group_896-2" data-name="Group 896" transform="translate(1155.357 1190.568)">
      <g id="Group_895" data-name="Group 895" clip-path="url(#clip-path)">
        <g id="Repeat_Grid_1" data-name="Repeat Grid 1" transform="translate(-0.004 -0.004)">
          <g id="Group_926-3" data-name="Group 926-3" transform="translate(312.809)">
            <g id="Group_909-3" data-name="Group 909-3" transform="translate(0)">
              <g id="Group_902-3" data-name="Group 902-3" transform="translate(4.552)">
                <path id="Path_9119-3" data-name="Path 9119-3" d="M-1190.12,1017.538l3.181-55.52a6.3,6.3,0,0,1,6.212-5.879h90.093a5.487,5.487,0,0,1,5.551,5.421c0,.153,0,.306-.013.458l-3.179,55.52a6.3,6.3,0,0,1-6.212,5.879h-90.091a5.487,5.487,0,0,1-5.555-5.419C-1190.135,1017.846-1190.131,1017.691-1190.12,1017.538Z" transform="translate(1190.133 -956.139)" fill="#091827"/>
              </g>
              <g id="Group_903-3" data-name="Group 903-3">
                <path id="Path_9120-3" data-name="Path 9120-3" d="M-1194.224,1017.538l3.181-55.52a6.3,6.3,0,0,1,6.212-5.879h93.708a5.489,5.489,0,0,1,5.552,5.424c0,.152,0,.3-.013.455l-3.179,55.52a6.3,6.3,0,0,1-6.212,5.879h-93.708a5.486,5.486,0,0,1-5.554-5.42Q-1194.24,1017.768-1194.224,1017.538Z" transform="translate(1194.237 -956.139)" fill="#17a2f0"/>
                <path id="Path_9121-3" data-name="Path 9121-3" d="M-1194.224,1017.538l3.181-55.52a6.3,6.3,0,0,1,6.212-5.879h93.708a5.489,5.489,0,0,1,5.552,5.424c0,.152,0,.3-.013.455l-3.179,55.52a6.3,6.3,0,0,1-6.212,5.879h-93.708a5.486,5.486,0,0,1-5.554-5.42Q-1194.24,1017.768-1194.224,1017.538Z" transform="translate(1194.237 -956.139)" fill="#17a2f0" opacity="0.3" style="isolation: isolate"/>
              </g>
              <g id="Group_906-3" data-name="Group 906-3" transform="translate(38.476 72.599)">
                <g id="Group_904-3" data-name="Group 904-3">
                  <rect id="Rectangle_126-3" data-name="Rectangle 126-3" width="45.635" height="12.485" rx="3.623" fill="#091827"/>
                </g>
                <g id="Group_905-3" data-name="Group 905-3" opacity="0.6">
                  <rect id="Rectangle_127-3" data-name="Rectangle 127-3" width="45.635" height="12.485" rx="3.623" fill="#091827"/>
                </g>
              </g>
              <g id="Group_907-3" data-name="Group 907-3" transform="translate(24.555 72.599)">
                <rect id="Rectangle_128-3" data-name="Rectangle 128-3" width="49.251" height="12.485" rx="3.623" fill="#17a2f0"/>
                <rect id="Rectangle_129-3" data-name="Rectangle 129-3" width="49.251" height="12.485" rx="3.623" fill="#17a2f0" opacity="0.3" style="isolation: isolate"/>
              </g>
              <path id="Path_9122-3" data-name="Path 9122-3" d="M-1093.872,1020.282h-96.016a2.42,2.42,0,0,1-2.446-2.394c0-.067,0-.132.006-.2l3.23-56.391a2.781,2.781,0,0,1,2.74-2.591h96.016a2.421,2.421,0,0,1,2.446,2.4c0,.064,0,.13-.006.194l-3.23,56.391A2.777,2.777,0,0,1-1093.872,1020.282Z" transform="translate(1194.445 -955.858)" fill="#fff" opacity="0.9" style="isolation: isolate"/>
              <g id="Group_908-3" data-name="Group 908-3" transform="translate(13.141 2.852)">
                <path id="Path_9123-3" data-name="Path 9123-3" d="M-1163.3,1020.282h-19.094l17.467-61.572h19.095Z" transform="translate(1182.391 -958.71)" fill="#407bff" opacity="0.1" style="isolation: isolate"/>
                <path id="Path_9124-3" data-name="Path 9124-3" d="M-1149.768,1020.282h-13.34l17.467-61.572h13.335Z" transform="translate(1184.498 -958.71)" fill="#407bff" opacity="0.1" style="isolation: isolate"/>
                <path id="Path_9125-3" data-name="Path 9125-3" d="M-1123.548,1020.282h-13.34l17.467-61.572h13.34Z" transform="translate(1187.362 -958.71)" fill="#407bff" opacity="0.1" style="isolation: isolate"/>
              </g>
            </g>
          </g>
          <g id="Group_926-3-2" data-name="Group 926-3" transform="translate(157.198)">
            <g id="Group_909-3-2" data-name="Group 909-3">
              <g id="Group_902-3-2" data-name="Group 902-3" transform="translate(4.552)">
                <path id="Path_9119-3-2" data-name="Path 9119-3" d="M-1190.12,1017.538l3.181-55.52a6.3,6.3,0,0,1,6.212-5.879h90.093a5.487,5.487,0,0,1,5.551,5.421c0,.153,0,.306-.013.458l-3.179,55.52a6.3,6.3,0,0,1-6.212,5.879h-90.091a5.487,5.487,0,0,1-5.555-5.419C-1190.135,1017.846-1190.131,1017.691-1190.12,1017.538Z" transform="translate(1190.133 -956.139)" fill="#091827"/>
              </g>
              <g id="Group_903-3-2" data-name="Group 903-3">
                <path id="Path_9120-3-2" data-name="Path 9120-3" d="M-1194.224,1017.538l3.181-55.52a6.3,6.3,0,0,1,6.212-5.879h93.708a5.489,5.489,0,0,1,5.552,5.424c0,.152,0,.3-.013.455l-3.179,55.52a6.3,6.3,0,0,1-6.212,5.879h-93.708a5.486,5.486,0,0,1-5.554-5.42Q-1194.24,1017.768-1194.224,1017.538Z" transform="translate(1194.237 -956.139)" fill="#17a2f0"/>
                <path id="Path_9121-3-2" data-name="Path 9121-3" d="M-1194.224,1017.538l3.181-55.52a6.3,6.3,0,0,1,6.212-5.879h93.708a5.489,5.489,0,0,1,5.552,5.424c0,.152,0,.3-.013.455l-3.179,55.52a6.3,6.3,0,0,1-6.212,5.879h-93.708a5.486,5.486,0,0,1-5.554-5.42Q-1194.24,1017.768-1194.224,1017.538Z" transform="translate(1194.237 -956.139)" fill="#17a2f0" opacity="0.3" style="isolation: isolate"/>
              </g>
              <g id="Group_906-3-2" data-name="Group 906-3" transform="translate(38.476 72.599)">
                <g id="Group_904-3-2" data-name="Group 904-3">
                  <rect id="Rectangle_126-3-2" data-name="Rectangle 126-3" width="45.635" height="12.485" rx="3.623" fill="#091827"/>
                </g>
                <g id="Group_905-3-2" data-name="Group 905-3" opacity="0.6">
                  <rect id="Rectangle_127-3-2" data-name="Rectangle 127-3" width="45.635" height="12.485" rx="3.623" fill="#091827"/>
                </g>
              </g>
              <g id="Group_907-3-2" data-name="Group 907-3" transform="translate(24.555 72.599)">
                <rect id="Rectangle_128-3-2" data-name="Rectangle 128-3" width="49.251" height="12.485" rx="3.623" fill="#17a2f0"/>
                <rect id="Rectangle_129-3-2" data-name="Rectangle 129-3" width="49.251" height="12.485" rx="3.623" fill="#17a2f0" opacity="0.3" style="isolation: isolate"/>
              </g>
              <path id="Path_9122-3-2" data-name="Path 9122-3" d="M-1093.872,1020.282h-96.016a2.42,2.42,0,0,1-2.446-2.394c0-.067,0-.132.006-.2l3.23-56.391a2.781,2.781,0,0,1,2.74-2.591h96.016a2.421,2.421,0,0,1,2.446,2.4c0,.064,0,.13-.006.194l-3.23,56.391A2.777,2.777,0,0,1-1093.872,1020.282Z" transform="translate(1194.445 -955.858)" fill="#fff" opacity="0.9" style="isolation: isolate"/>
              <g id="Group_908-3-2" data-name="Group 908-3" transform="translate(13.141 2.852)">
                <path id="Path_9123-3-2" data-name="Path 9123-3" d="M-1163.3,1020.282h-19.094l17.467-61.572h19.095Z" transform="translate(1182.391 -958.71)" fill="#407bff" opacity="0.1" style="isolation: isolate"/>
                <path id="Path_9124-3-2" data-name="Path 9124-3" d="M-1149.768,1020.282h-13.34l17.467-61.572h13.335Z" transform="translate(1184.498 -958.71)" fill="#407bff" opacity="0.1" style="isolation: isolate"/>
                <path id="Path_9125-3-2" data-name="Path 9125-3" d="M-1123.548,1020.282h-13.34l17.467-61.572h13.34Z" transform="translate(1187.362 -958.71)" fill="#407bff" opacity="0.1" style="isolation: isolate"/>
              </g>
            </g>
          </g>
          <g id="Group_926-3-3" data-name="Group 926-3" transform="translate(1.586)">
            <g id="Group_909-3-3" data-name="Group 909-3">
              <g id="Group_902-3-3" data-name="Group 902-3" transform="translate(4.552)">
                <path id="Path_9119-3-3" data-name="Path 9119-3" d="M-1190.12,1017.538l3.181-55.52a6.3,6.3,0,0,1,6.212-5.879h90.093a5.487,5.487,0,0,1,5.551,5.421c0,.153,0,.306-.013.458l-3.179,55.52a6.3,6.3,0,0,1-6.212,5.879h-90.091a5.487,5.487,0,0,1-5.555-5.419C-1190.135,1017.846-1190.131,1017.691-1190.12,1017.538Z" transform="translate(1190.133 -956.139)" fill="#091827"/>
              </g>
              <g id="Group_903-3-3" data-name="Group 903-3">
                <path id="Path_9120-3-3" data-name="Path 9120-3" d="M-1194.224,1017.538l3.181-55.52a6.3,6.3,0,0,1,6.212-5.879h93.708a5.489,5.489,0,0,1,5.552,5.424c0,.152,0,.3-.013.455l-3.179,55.52a6.3,6.3,0,0,1-6.212,5.879h-93.708a5.486,5.486,0,0,1-5.554-5.42Q-1194.24,1017.768-1194.224,1017.538Z" transform="translate(1194.237 -956.139)" fill="#17a2f0"/>
                <path id="Path_9121-3-3" data-name="Path 9121-3" d="M-1194.224,1017.538l3.181-55.52a6.3,6.3,0,0,1,6.212-5.879h93.708a5.489,5.489,0,0,1,5.552,5.424c0,.152,0,.3-.013.455l-3.179,55.52a6.3,6.3,0,0,1-6.212,5.879h-93.708a5.486,5.486,0,0,1-5.554-5.42Q-1194.24,1017.768-1194.224,1017.538Z" transform="translate(1194.237 -956.139)" fill="#17a2f0" opacity="0.3" style="isolation: isolate"/>
              </g>
              <g id="Group_906-3-3" data-name="Group 906-3" transform="translate(38.476 72.599)">
                <g id="Group_904-3-3" data-name="Group 904-3">
                  <rect id="Rectangle_126-3-3" data-name="Rectangle 126-3" width="45.635" height="12.485" rx="3.623" fill="#091827"/>
                </g>
                <g id="Group_905-3-3" data-name="Group 905-3" opacity="0.6">
                  <rect id="Rectangle_127-3-3" data-name="Rectangle 127-3" width="45.635" height="12.485" rx="3.623" fill="#091827"/>
                </g>
              </g>
              <g id="Group_907-3-3" data-name="Group 907-3" transform="translate(24.555 72.599)">
                <rect id="Rectangle_128-3-3" data-name="Rectangle 128-3" width="49.251" height="12.485" rx="3.623" fill="#17a2f0"/>
                <rect id="Rectangle_129-3-3" data-name="Rectangle 129-3" width="49.251" height="12.485" rx="3.623" fill="#17a2f0" opacity="0.3" style="isolation: isolate"/>
              </g>
              <path id="Path_9122-3-3" data-name="Path 9122-3" d="M-1093.872,1020.282h-96.016a2.42,2.42,0,0,1-2.446-2.394c0-.067,0-.132.006-.2l3.23-56.391a2.781,2.781,0,0,1,2.74-2.591h96.016a2.421,2.421,0,0,1,2.446,2.4c0,.064,0,.13-.006.194l-3.23,56.391A2.777,2.777,0,0,1-1093.872,1020.282Z" transform="translate(1194.445 -955.858)" fill="#fff" opacity="0.9" style="isolation: isolate"/>
              <g id="Group_908-3-3" data-name="Group 908-3" transform="translate(13.141 2.852)">
                <path id="Path_9123-3-3" data-name="Path 9123-3" d="M-1163.3,1020.282h-19.094l17.467-61.572h19.095Z" transform="translate(1182.391 -958.71)" fill="#407bff" opacity="0.1" style="isolation: isolate"/>
                <path id="Path_9124-3-3" data-name="Path 9124-3" d="M-1149.768,1020.282h-13.34l17.467-61.572h13.335Z" transform="translate(1184.498 -958.71)" fill="#407bff" opacity="0.1" style="isolation: isolate"/>
                <path id="Path_9125-3-3" data-name="Path 9125-3" d="M-1123.548,1020.282h-13.34l17.467-61.572h13.34Z" transform="translate(1187.362 -958.71)" fill="#407bff" opacity="0.1" style="isolation: isolate"/>
              </g>
            </g>
          </g>
        </g>
      </g>
    </g>
    <g id="Group_931" data-name="Group 931" transform="translate(1208.364 1143.501)">
      <g id="Group_927" data-name="Group 927" transform="translate(0 22.506)">
        <path id="Path_9140" data-name="Path 9140" d="M-1427.637,946.337a.95.95,0,0,1-.308-.064,1.6,1.6,0,0,1-.275-.179.889.889,0,0,1-.162-.26.737.737,0,0,1-.064-.308.822.822,0,0,1,.222-.583.856.856,0,0,1,.893-.179.757.757,0,0,1,.257.179.66.66,0,0,1,.179.26.709.709,0,0,1,.064.324.737.737,0,0,1-.064.308.64.64,0,0,1-.179.26,1.059,1.059,0,0,1-.257.179A1.06,1.06,0,0,1-1427.637,946.337Z" transform="translate(1428.448 -932.83)" fill="#407bff"/>
        <path id="Path_9141" data-name="Path 9141" d="M-1428.448,940.162a.813.813,0,0,1,.811-.811h0a.813.813,0,0,1,.811.811h0a.8.8,0,0,1-.793.811h-.018a.8.8,0,0,1-.811-.8Z" transform="translate(1428.448 -933.415)" fill="#407bff"/>
        <path id="Path_9142" data-name="Path 9142" d="M-1427.637,935.622a.831.831,0,0,1-.583-.243.7.7,0,0,1-.162-.26.659.659,0,0,1-.064-.308.807.807,0,0,1,.222-.568.825.825,0,0,1,.893-.179.757.757,0,0,1,.257.179.559.559,0,0,1,.179.26.677.677,0,0,1,.064.308.646.646,0,0,1-.064.308.558.558,0,0,1-.179.26.573.573,0,0,1-.257.179A.723.723,0,0,1-1427.637,935.622Z" transform="translate(1428.448 -934)" fill="#407bff"/>
        <path id="Path_9143" data-name="Path 9143" d="M-1279.418,934.811a.811.811,0,0,1,.794-.811h0a.813.813,0,0,1,.811.811h0a.8.8,0,0,1-.793.811h-.018a.8.8,0,0,1-.794-.807Zm-6.518,0a.825.825,0,0,1,.811-.811h0a.813.813,0,0,1,.811.811h0a.8.8,0,0,1-.793.811h-.018A.815.815,0,0,1-1285.936,934.811Zm-6.5,0a.813.813,0,0,1,.811-.811h0a.825.825,0,0,1,.811.811h0a.815.815,0,0,1-.811.811h0a.8.8,0,0,1-.811-.793Zm-6.5,0a.813.813,0,0,1,.811-.811h0a.809.809,0,0,1,.793.811h0a.8.8,0,0,1-.786.811h-.007a.8.8,0,0,1-.811-.8Zm-6.52,0a.825.825,0,0,1,.811-.811h0a.813.813,0,0,1,.811.811h0a.8.8,0,0,1-.793.811h-.018a.815.815,0,0,1-.811-.811Zm-6.5,0a.813.813,0,0,1,.811-.811h0a.825.825,0,0,1,.811.811h0a.815.815,0,0,1-.811.811h0a.8.8,0,0,1-.811-.793v-.018Zm-6.5,0a.813.813,0,0,1,.811-.811h0a.825.825,0,0,1,.811.811h0a.815.815,0,0,1-.811.811h0a.8.8,0,0,1-.811-.8v-.016Zm-6.52,0a.825.825,0,0,1,.811-.811h0a.813.813,0,0,1,.811.811h0a.8.8,0,0,1-.793.811h-.018a.814.814,0,0,1-.81-.811Zm-6.5,0a.813.813,0,0,1,.811-.811h0a.825.825,0,0,1,.811.811h0a.815.815,0,0,1-.811.811h0a.8.8,0,0,1-.81-.794v-.017Zm-6.5,0a.813.813,0,0,1,.811-.811h0a.825.825,0,0,1,.811.811h0a.815.815,0,0,1-.811.811h0a.8.8,0,0,1-.811-.8v-.016Zm-6.52,0a.825.825,0,0,1,.811-.811h0a.812.812,0,0,1,.811.811h0a.8.8,0,0,1-.793.811h-.018a.814.814,0,0,1-.81-.811Zm-6.5,0a.813.813,0,0,1,.811-.811h0a.825.825,0,0,1,.811.811h0a.815.815,0,0,1-.811.811h0a.8.8,0,0,1-.81-.794v-.017Zm-6.52,0a.829.829,0,0,1,.829-.811h0a.825.825,0,0,1,.811.811h0a.815.815,0,0,1-.811.811h0a.818.818,0,0,1-.824-.811h0Zm-6.5,0a.825.825,0,0,1,.811-.811h0a.812.812,0,0,1,.811.811h0a.8.8,0,0,1-.793.811h-.018a.814.814,0,0,1-.81-.811Zm-6.5,0a.813.813,0,0,1,.811-.811h0a.813.813,0,0,1,.811.811h0a.8.8,0,0,1-.8.811h-.016a.8.8,0,0,1-.81-.794v-.017Zm-6.52,0a.825.825,0,0,1,.811-.811h0a.829.829,0,0,1,.829.811h0a.817.817,0,0,1-.824.811h0a.814.814,0,0,1-.808-.811Zm-6.5,0a.813.813,0,0,1,.811-.811h0a.812.812,0,0,1,.811.811h0a.8.8,0,0,1-.793.811h-.018a.8.8,0,0,1-.81-.8v-.014Zm-6.5,0a.813.813,0,0,1,.811-.811h0a.825.825,0,0,1,.811.811h0a.814.814,0,0,1-.811.811h0a.8.8,0,0,1-.81-.794v-.017Zm-6.52,0a.825.825,0,0,1,.811-.811h0a.813.813,0,0,1,.811.811h0a.8.8,0,0,1-.8.811h-.016a.813.813,0,0,1-.809-.811Zm-6.5,0a.825.825,0,0,1,.811-.811h0a.812.812,0,0,1,.811.811h0a.8.8,0,0,1-.793.811h-.018a.814.814,0,0,1-.81-.811Zm-6.5,0a.813.813,0,0,1,.811-.811h0a.824.824,0,0,1,.811.811h0a.813.813,0,0,1-.811.811h0a.8.8,0,0,1-.811-.8v-.016Zm-6.5,0a.809.809,0,0,1,.794-.811h0a.814.814,0,0,1,.811.811h0a.8.8,0,0,1-.8.811h-.013a.8.8,0,0,1-.793-.8v-.007Zm-6.52,0a.825.825,0,0,1,.811-.811h0a.813.813,0,0,1,.811.811h0a.8.8,0,0,1-.8.811h-.016a.815.815,0,0,1-.81-.811Z" transform="translate(1429.088 -934)" fill="#407bff"/>
        <path id="Path_9144" data-name="Path 9144" d="M-1286.844,935.622a.664.664,0,0,1-.31-.064.713.713,0,0,1-.26-.162.7.7,0,0,1-.176-.275.659.659,0,0,1-.064-.308.7.7,0,0,1,.064-.308.65.65,0,0,1,.176-.26.777.777,0,0,1,.26-.179.811.811,0,0,1,.616,0,.727.727,0,0,1,.26.179.756.756,0,0,1,.245.568.675.675,0,0,1-.065.308.747.747,0,0,1-.18.275.692.692,0,0,1-.26.162A.65.65,0,0,1-1286.844,935.622Z" transform="translate(1443.83 -933.999)" fill="#407bff"/>
      </g>
      <g id="Group_928" data-name="Group 928" transform="translate(156.175)">
        <path id="Path_9145" data-name="Path 9145" d="M-1286.844,935.623a.664.664,0,0,1-.31-.064.713.713,0,0,1-.26-.162.7.7,0,0,1-.176-.275.659.659,0,0,1-.064-.308.7.7,0,0,1,.064-.308.65.65,0,0,1,.176-.26.78.78,0,0,1,.26-.179.811.811,0,0,1,.616,0,.727.727,0,0,1,.26.179.756.756,0,0,1,.245.568.676.676,0,0,1-.065.308.748.748,0,0,1-.18.275.691.691,0,0,1-.26.162A.651.651,0,0,1-1286.844,935.623Z" transform="translate(1287.655 -911.494)" fill="#407bff"/>
        <path id="Path_9146" data-name="Path 9146" d="M-1287.655,930.848a.813.813,0,0,1,.811-.811h0a.8.8,0,0,1,.811.8v.013h0a.8.8,0,0,1-.8.811h-.013A.812.812,0,0,1-1287.655,930.848Zm0-5.626a.813.813,0,0,1,.811-.811h0a.8.8,0,0,1,.811.8v.013h0a.8.8,0,0,1-.8.811h-.013A.812.812,0,0,1-1287.655,925.222Zm0-5.626a.813.813,0,0,1,.811-.811h0a.8.8,0,0,1,.811.8v.013h0a.8.8,0,0,1-.8.811h-.013a.812.812,0,0,1-.811-.811Z" transform="translate(1287.655 -913.157)" fill="#407bff"/>
        <path id="Path_9147" data-name="Path 9147" d="M-1286.844,915.334a.762.762,0,0,1-.569-.243.56.56,0,0,1-.176-.26.7.7,0,0,1-.064-.308.66.66,0,0,1,.064-.308.6.6,0,0,1,.176-.275.713.713,0,0,1,.26-.162.745.745,0,0,1,.616,0,.705.705,0,0,1,.26.162.757.757,0,0,1,.18.275.692.692,0,0,1,.065.308.723.723,0,0,1-.065.308.6.6,0,0,1-.18.26A.756.756,0,0,1-1286.844,915.334Z" transform="translate(1287.655 -913.711)" fill="#407bff"/>
      </g>
      <g id="Group_929" data-name="Group 929" transform="translate(156.175 22.511)">
        <path id="Path_9148" data-name="Path 9148" d="M-1286.844,935.622a.664.664,0,0,1-.31-.064.713.713,0,0,1-.26-.162.7.7,0,0,1-.176-.275.659.659,0,0,1-.064-.308.7.7,0,0,1,.064-.308.65.65,0,0,1,.176-.26.777.777,0,0,1,.26-.179.811.811,0,0,1,.616,0,.727.727,0,0,1,.26.179.756.756,0,0,1,.245.568.675.675,0,0,1-.065.308.747.747,0,0,1-.18.275.692.692,0,0,1-.26.162A.65.65,0,0,1-1286.844,935.622Z" transform="translate(1287.655 -934.005)" fill="#407bff"/>
        <path id="Path_9149" data-name="Path 9149" d="M-1287.655,940.162a.824.824,0,0,1,.811-.811h0a.815.815,0,0,1,.811.811h0a.8.8,0,0,1-.8.811h-.013A.812.812,0,0,1-1287.655,940.162Z" transform="translate(1287.655 -933.421)" fill="#407bff"/>
        <path id="Path_9150" data-name="Path 9150" d="M-1286.844,946.336a.83.83,0,0,1-.569-.243.649.649,0,0,1-.176-.26.724.724,0,0,1-.064-.324.7.7,0,0,1,.064-.308.651.651,0,0,1,.176-.26.829.829,0,0,1,1.135,0,.7.7,0,0,1,.18.26.723.723,0,0,1,.065.308.759.759,0,0,1-.065.324.7.7,0,0,1-.18.26A.817.817,0,0,1-1286.844,946.336Z" transform="translate(1287.655 -932.835)" fill="#407bff"/>
      </g>
      <g id="Group_930" data-name="Group 930" transform="translate(156.176 22.506)">
        <path id="Path_9151" data-name="Path 9151" d="M-1146.054,946.336a.822.822,0,0,1-.568-.243.906.906,0,0,1-.243-.583.835.835,0,0,1,.243-.568.829.829,0,0,1,1.137,0,.673.673,0,0,1,.176.26.689.689,0,0,1,.066.308.83.83,0,0,1-.242.583A.825.825,0,0,1-1146.054,946.336Z" transform="translate(1303.036 -932.829)" fill="#407bff"/>
        <path id="Path_9152" data-name="Path 9152" d="M-1146.865,940.162a.825.825,0,0,1,.811-.811h0a.813.813,0,0,1,.811.811h0a.8.8,0,0,1-.8.811h-.016A.815.815,0,0,1-1146.865,940.162Z" transform="translate(1303.036 -933.415)" fill="#407bff"/>
        <path id="Path_9153" data-name="Path 9153" d="M-1146.054,935.62a.807.807,0,0,1-.568-.222.906.906,0,0,1-.243-.583.835.835,0,0,1,.243-.568.814.814,0,0,1,1.137,0,.769.769,0,0,1,.242.568.83.83,0,0,1-.242.583A.808.808,0,0,1-1146.054,935.62Z" transform="translate(1303.036 -933.998)" fill="#407bff"/>
        <path id="Path_9154" data-name="Path 9154" d="M-1138.626,934.811a.8.8,0,0,1,.8-.811h.016a.813.813,0,0,1,.811.811h0a.811.811,0,0,1-.811.811h0a.8.8,0,0,1-.811-.8Zm-6.517,0a.815.815,0,0,1,.82-.811h.007a.815.815,0,0,1,.811.811h0a.815.815,0,0,1-.811.811h0a.815.815,0,0,1-.826-.8Zm-6.5,0a.815.815,0,0,1,.811-.811h0a.8.8,0,0,1,.811.8v.016h0a.8.8,0,0,1-.8.811h-.016a.814.814,0,0,1-.81-.811Zm-6.5,0a.8.8,0,0,1,.8-.811h.016a.813.813,0,0,1,.811.811h0a.811.811,0,0,1-.811.811h0a.8.8,0,0,1-.811-.8Zm-6.517,0a.813.813,0,0,1,.811-.811h0a.818.818,0,0,1,.826.809v0h0a.818.818,0,0,1-.824.811h0A.812.812,0,0,1-1164.665,934.811Zm-6.5,0a.813.813,0,0,1,.811-.811h0a.8.8,0,0,1,.811.8v.016h0a.8.8,0,0,1-.8.811h-.016a.813.813,0,0,1-.81-.811Zm-6.5,0a.8.8,0,0,1,.8-.811h.013a.813.813,0,0,1,.811.811h0a.812.812,0,0,1-.811.811h0a.8.8,0,0,1-.811-.8Zm-6.517,0a.813.813,0,0,1,.811-.811h0a.817.817,0,0,1,.825.808v0h0a.816.816,0,0,1-.822.811h0a.812.812,0,0,1-.81-.811Zm-6.5,0a.813.813,0,0,1,.811-.811h0a.8.8,0,0,1,.811.8v.013h0a.8.8,0,0,1-.8.811h-.013A.812.812,0,0,1-1190.688,934.811Zm-6.5,0a.8.8,0,0,1,.8-.811h.013a.813.813,0,0,1,.811.811h0a.812.812,0,0,1-.811.811h0a.8.8,0,0,1-.811-.8Zm-6.517,0a.813.813,0,0,1,.811-.811h0a.8.8,0,0,1,.811.8v.016h0a.8.8,0,0,1-.8.811h-.016a.812.812,0,0,1-.81-.811Zm-6.5,0a.813.813,0,0,1,.811-.811h0a.8.8,0,0,1,.811.8v.013h0a.8.8,0,0,1-.8.811h-.013A.812.812,0,0,1-1210.209,934.811Zm-6.5,0a.805.805,0,0,1,.8-.811h.013a.813.813,0,0,1,.811.811h0a.812.812,0,0,1-.811.811h0a.8.8,0,0,1-.811-.8Zm-6.517,0a.813.813,0,0,1,.811-.811h0a.8.8,0,0,1,.811.8v.016h0a.8.8,0,0,1-.8.811h-.016a.812.812,0,0,1-.81-.811Zm-6.5,0a.813.813,0,0,1,.811-.811h0a.8.8,0,0,1,.811.8v.013h0a.8.8,0,0,1-.8.811h-.013a.811.811,0,0,1-.805-.811Zm-6.5,0a.805.805,0,0,1,.8-.811h.013a.813.813,0,0,1,.811.811h0a.812.812,0,0,1-.811.811h0a.8.8,0,0,1-.811-.8Zm-6.517,0a.814.814,0,0,1,.811-.811h0a.815.815,0,0,1,.825.805v.006h0a.815.815,0,0,1-.82.811h-.005a.812.812,0,0,1-.81-.811Zm-6.5,0a.813.813,0,0,1,.811-.811h0a.8.8,0,0,1,.811.8v.013h0a.8.8,0,0,1-.8.811h-.013a.812.812,0,0,1-.806-.811Zm-6.5,0a.805.805,0,0,1,.8-.811h.013a.813.813,0,0,1,.811.811h0a.812.812,0,0,1-.811.811h0a.8.8,0,0,1-.81-.8v-.012Zm-6.517,0a.814.814,0,0,1,.811-.811h0a.815.815,0,0,1,.825.805v.006h0a.815.815,0,0,1-.82.811h-.005a.812.812,0,0,1-.81-.811Zm-6.5,0a.8.8,0,0,1,.8-.811h.015a.8.8,0,0,1,.811.8v.013h0a.8.8,0,0,1-.8.811h-.013a.8.8,0,0,1-.807-.8v-.012Zm-6.5,0a.8.8,0,0,1,.8-.811h.013a.813.813,0,0,1,.811.811h0a.811.811,0,0,1-.811.811h0a.8.8,0,0,1-.81-.8v-.012Zm-6.517,0a.814.814,0,0,1,.811-.811h0a.815.815,0,0,1,.825.805v.006h0a.815.815,0,0,1-.82.811h-.005a.812.812,0,0,1-.81-.811Z" transform="translate(1288.294 -934)" fill="#407bff"/>
        <path id="Path_9155" data-name="Path 9155" d="M-1286.844,935.622a.664.664,0,0,1-.31-.064.713.713,0,0,1-.26-.162.7.7,0,0,1-.176-.275.659.659,0,0,1-.064-.308.7.7,0,0,1,.064-.308.65.65,0,0,1,.176-.26.777.777,0,0,1,.26-.179.811.811,0,0,1,.616,0,.727.727,0,0,1,.26.179.756.756,0,0,1,.245.568.675.675,0,0,1-.065.308.747.747,0,0,1-.18.275.692.692,0,0,1-.26.162A.65.65,0,0,1-1286.844,935.622Z" transform="translate(1287.654 -933.999)" fill="#407bff"/>
      </g>
    </g>
    <g id="Group_955" data-name="Group 955" transform="translate(1084.911 839.059)">
      <g id="Group_936" data-name="Group 936">
        <g id="Group_932" data-name="Group 932" transform="translate(79.674 1.567)" opacity="0.531">
          <path id="Path_9156" data-name="Path 9156" d="M-1019.8,795.862a97.153,97.153,0,0,0-97.143-96.335h-40.126a117.347,117.347,0,0,0-101.772-58.86h-78.1v29.776a117.352,117.352,0,0,0-36.494,62.126,101.042,101.042,0,0,0-94.476,100.815,101.053,101.053,0,0,0,101.053,101.053h321.551A71.633,71.633,0,0,0-973.678,862.8h0A71.646,71.646,0,0,0-1019.8,795.862Z" transform="translate(1467.915 -640.667)" fill="#a4ce4c"/>
          <path id="Path_9157" data-name="Path 9157" d="M-1019.8,795.862a97.153,97.153,0,0,0-97.143-96.335h-40.126a117.347,117.347,0,0,0-101.772-58.86h-78.1v29.776a117.352,117.352,0,0,0-36.494,62.126,101.042,101.042,0,0,0-94.476,100.815,101.053,101.053,0,0,0,101.053,101.053h321.551A71.633,71.633,0,0,0-973.678,862.8h0A71.646,71.646,0,0,0-1019.8,795.862Z" transform="translate(1467.915 -640.667)" fill="#17a2f0" opacity="0.7" style="isolation: isolate"/>
        </g>
        <path id="Path_9158" data-name="Path 9158" d="M-1090.211,795.862a97.149,97.149,0,0,0-97.142-96.335,96.859,96.859,0,0,0-36.368,7.063,117.4,117.4,0,0,0-105.532-65.923,117.429,117.429,0,0,0-114.6,91.9,101.039,101.039,0,0,0-94.474,100.815A101.053,101.053,0,0,0-1437.27,934.436h321.552a71.633,71.633,0,0,0,71.633-71.629A71.647,71.647,0,0,0-1090.211,795.862Z" transform="translate(1539.897 -639.1)" fill="#17a2f0"/>
        <g id="Group_934" data-name="Group 934" transform="translate(1.574 1.567)">
          <g id="Group_898-2" data-name="Group 898">
            <g id="Group_897-2" data-name="Group 897" clip-path="url(#clip-path-2)">
              <g id="Group_933" data-name="Group 933" transform="translate(78.1)">
                <path id="Path_9159" data-name="Path 9159" d="M-1019.8,795.862a97.152,97.152,0,0,0-97.143-96.335,96.859,96.859,0,0,0-36.368,7.063,117.4,117.4,0,0,0-105.531-65.923,117.429,117.429,0,0,0-114.594,91.9,101.039,101.039,0,0,0-94.476,100.815,101.053,101.053,0,0,0,101.053,101.053h321.551a71.633,71.633,0,0,0,71.633-71.633h0A71.646,71.646,0,0,0-1019.8,795.862Z" transform="translate(1467.915 -640.667)" opacity="0.1" style="isolation: isolate"/>
              </g>
            </g>
          </g>
        </g>
        <g id="Group_935" data-name="Group 935">
          <path id="Path_9161" data-name="Path 9161" d="M-1115.563,936.173h-321.552a102.742,102.742,0,0,1-102.627-102.628A102.792,102.792,0,0,1-1444.97,731.24a119.478,119.478,0,0,1,40.923-65.4,119.189,119.189,0,0,1,74.952-26.588,118.248,118.248,0,0,1,106.3,65.5,98.167,98.167,0,0,1,35.6-6.641,99.008,99.008,0,0,1,98.7,96.829,73.633,73.633,0,0,1,46.145,68.023A73.291,73.291,0,0,1-1115.563,936.173ZM-1329.094,642.4c-53.87,0-101.417,38.131-113.062,90.667a1.576,1.576,0,0,1-1.436,1.23,99.627,99.627,0,0,0-93,99.244,99.592,99.592,0,0,0,99.479,99.479h321.552a70.138,70.138,0,0,0,70.059-70.06,70.464,70.464,0,0,0-45.111-65.47,1.57,1.57,0,0,1-1.014-1.458,95.85,95.85,0,0,0-95.57-94.774,95.072,95.072,0,0,0-35.778,6.947,1.576,1.576,0,0,1-2-.769A115.141,115.141,0,0,0-1329.1,642.4Z" transform="translate(1539.742 -639.254)" fill="#17a2f0"/>
          <path id="Path_9162" data-name="Path 9162" d="M-1115.563,936.173h-321.552a102.742,102.742,0,0,1-102.627-102.628A102.792,102.792,0,0,1-1444.97,731.24a119.478,119.478,0,0,1,40.923-65.4,119.189,119.189,0,0,1,74.952-26.588,118.248,118.248,0,0,1,106.3,65.5,98.167,98.167,0,0,1,35.6-6.641,99.008,99.008,0,0,1,98.7,96.829,73.633,73.633,0,0,1,46.145,68.023A73.291,73.291,0,0,1-1115.563,936.173ZM-1329.094,642.4c-53.87,0-101.417,38.131-113.062,90.667a1.576,1.576,0,0,1-1.436,1.23,99.627,99.627,0,0,0-93,99.244,99.592,99.592,0,0,0,99.479,99.479h321.552a70.138,70.138,0,0,0,70.059-70.06,70.464,70.464,0,0,0-45.111-65.47,1.57,1.57,0,0,1-1.014-1.458,95.85,95.85,0,0,0-95.57-94.774,95.072,95.072,0,0,0-35.778,6.947,1.576,1.576,0,0,1-2-.769A115.141,115.141,0,0,0-1329.1,642.4Z" transform="translate(1539.742 -639.254)" fill="#17a2f0" opacity="0.7" style="isolation: isolate"/>
        </g>
      </g>
      <g id="Group_942" data-name="Group 942" transform="translate(109.43 152.042)">
        <path id="Rectangle_138" data-name="Rectangle 138" d="M-1358.7,918.046h-28.1V776.321h28.1a4.93,4.93,0,0,1,4.931,4.931V913.115a4.93,4.93,0,0,1-4.931,4.931Z" transform="translate(1447.022 -776.321)" fill="#e0e0e0"/>
        <rect id="Rectangle_139" data-name="Rectangle 139" width="70.005" height="141.725" rx="4.445" transform="translate(0 0)" fill="#fff"/>
        <rect id="Rectangle_140" data-name="Rectangle 140" width="70.005" height="1.316" transform="translate(0 112.327)" fill="#e0e0e0"/>
        <rect id="Rectangle_141" data-name="Rectangle 141" width="70.005" height="1.316" transform="translate(0 84.245)" fill="#e0e0e0"/>
        <rect id="Rectangle_142" data-name="Rectangle 142" width="70.005" height="1.316" transform="translate(0 56.164)" fill="#e0e0e0"/>
        <rect id="Rectangle_143" data-name="Rectangle 143" width="70.005" height="1.316" transform="translate(0 28.082)" fill="#e0e0e0"/>
        <g id="Group_937" data-name="Group 937" transform="translate(8.813 5.076)">
          <path id="Path_9163" data-name="Path 9163" d="M-1407.053,793.427h-23.416a2.675,2.675,0,0,0-2.676,2.673v0h0a2.676,2.676,0,0,0,2.676,2.673h23.416a2.674,2.674,0,0,0,2.676-2.673h0a2.673,2.673,0,0,0-2.671-2.675Z" transform="translate(1433.145 -779.528)" fill="#aedef9" opacity="0.7" style="isolation: isolate"/>
          <path id="Path_9164" data-name="Path 9164" d="M-1407.053,787.161h-23.416a2.676,2.676,0,0,0-2.676,2.675h0a2.676,2.676,0,0,0,2.676,2.676h23.416a2.674,2.674,0,0,0,2.676-2.673v0h0a2.674,2.674,0,0,0-2.673-2.675Z" transform="translate(1433.145 -780.213)" fill="#aedef9" opacity="0.7" style="isolation: isolate"/>
          <path id="Path_9165" data-name="Path 9165" d="M-1407.053,780.9h-23.416a2.675,2.675,0,0,0-2.676,2.673h0a2.674,2.674,0,0,0,2.673,2.676h23.418a2.673,2.673,0,0,0,2.676-2.671v0h0a2.673,2.673,0,0,0-2.673-2.673Z" transform="translate(1433.145 -780.897)" fill="#aedef9" opacity="0.7" style="isolation: isolate"/>
          <rect id="Rectangle_144" data-name="Rectangle 144" width="9.777" height="5.35" transform="translate(31.224 13.897)" fill="#ebebeb"/>
          <rect id="Rectangle_145" data-name="Rectangle 145" width="9.777" height="5.35" transform="translate(31.224 6.948)" fill="#17a2f0"/>
          <rect id="Rectangle_146" data-name="Rectangle 146" width="9.777" height="5.35" transform="translate(31.224 0)" fill="#ebebeb"/>
          <rect id="Rectangle_147" data-name="Rectangle 147" width="9.777" height="5.35" transform="translate(42.601 13.897)" fill="#ebebeb"/>
          <rect id="Rectangle_148" data-name="Rectangle 148" width="9.777" height="5.35" transform="translate(42.601 6.948)" fill="#ebebeb"/>
          <rect id="Rectangle_149" data-name="Rectangle 149" width="9.777" height="5.35" transform="translate(42.601 0)" fill="#17a2f0"/>
        </g>
        <g id="Group_938" data-name="Group 938" transform="translate(8.813 33.157)">
          <path id="Path_9166" data-name="Path 9166" d="M-1407.053,818.74h-23.416a2.676,2.676,0,0,0-2.676,2.676h0a2.676,2.676,0,0,0,2.676,2.676h23.416a2.674,2.674,0,0,0,2.676-2.673v0h0a2.674,2.674,0,0,0-2.673-2.676Z" transform="translate(1433.145 -804.843)" fill="#ebebeb"/>
          <path id="Path_9167" data-name="Path 9167" d="M-1407.053,812.477h-23.416a2.675,2.675,0,0,0-2.676,2.673h0a2.676,2.676,0,0,0,2.676,2.675h23.416a2.674,2.674,0,0,0,2.676-2.673v0h0a2.673,2.673,0,0,0-2.673-2.673Z" transform="translate(1433.145 -805.528)" fill="#c6e8fb" opacity="0.7" style="isolation: isolate"/>
          <path id="Path_9168" data-name="Path 9168" d="M-1407.053,806.212h-23.416a2.676,2.676,0,0,0-2.676,2.676h0a2.676,2.676,0,0,0,2.676,2.675h23.416a2.674,2.674,0,0,0,2.676-2.673v0h0a2.674,2.674,0,0,0-2.673-2.676Z" transform="translate(1433.145 -806.212)" fill="#c6e8fb" opacity="0.7" style="isolation: isolate"/>
          <rect id="Rectangle_150" data-name="Rectangle 150" width="9.777" height="5.35" transform="translate(31.224 13.897)" fill="#ebebeb"/>
          <rect id="Rectangle_151" data-name="Rectangle 151" width="9.777" height="5.35" transform="translate(31.224 6.948)" fill="#ebebeb"/>
          <rect id="Rectangle_152" data-name="Rectangle 152" width="9.777" height="5.35" transform="translate(31.224 0)" fill="#17a2f0"/>
          <rect id="Rectangle_153" data-name="Rectangle 153" width="9.777" height="5.35" transform="translate(42.601 13.897)" fill="#ebebeb"/>
          <rect id="Rectangle_154" data-name="Rectangle 154" width="9.777" height="5.35" transform="translate(42.601 6.948)" fill="#ebebeb"/>
          <rect id="Rectangle_155" data-name="Rectangle 155" width="9.777" height="5.35" transform="translate(42.601 0)" fill="#ebebeb"/>
        </g>
        <g id="Group_939" data-name="Group 939" transform="translate(8.813 61.24)">
          <path id="Path_9169" data-name="Path 9169" d="M-1407.053,844.058h-23.416a2.675,2.675,0,0,0-2.676,2.673h0a2.676,2.676,0,0,0,2.676,2.675h23.416a2.674,2.674,0,0,0,2.676-2.673v0h0a2.673,2.673,0,0,0-2.673-2.673Z" transform="translate(1433.145 -830.16)" fill="#c6e8fb" opacity="0.7" style="isolation: isolate"/>
          <path id="Path_9170" data-name="Path 9170" d="M-1407.053,837.793h-23.416a2.676,2.676,0,0,0-2.676,2.675h0a2.676,2.676,0,0,0,2.676,2.676h23.416a2.674,2.674,0,0,0,2.676-2.673v0h0a2.674,2.674,0,0,0-2.673-2.675Z" transform="translate(1433.145 -830.845)" fill="#c6e8fb" opacity="0.7" style="isolation: isolate"/>
          <path id="Path_9171" data-name="Path 9171" d="M-1407.053,831.529h-23.416a2.675,2.675,0,0,0-2.676,2.673h0a2.676,2.676,0,0,0,2.676,2.676h23.416a2.674,2.674,0,0,0,2.676-2.673v0h0a2.673,2.673,0,0,0-2.673-2.673Z" transform="translate(1433.145 -831.529)" fill="#c6e8fb" opacity="0.7" style="isolation: isolate"/>
          <rect id="Rectangle_156" data-name="Rectangle 156" width="9.777" height="5.35" transform="translate(31.224 13.897)" fill="#ebebeb"/>
          <rect id="Rectangle_157" data-name="Rectangle 157" width="9.777" height="5.35" transform="translate(31.224 6.948)" fill="#17a2f0"/>
          <rect id="Rectangle_158" data-name="Rectangle 158" width="9.777" height="5.35" transform="translate(31.224 0)" fill="#ebebeb"/>
          <rect id="Rectangle_159" data-name="Rectangle 159" width="9.777" height="5.35" transform="translate(42.601 13.897)" fill="#ebebeb"/>
          <rect id="Rectangle_160" data-name="Rectangle 160" width="9.777" height="5.35" transform="translate(42.601 6.948)" fill="#ebebeb"/>
          <rect id="Rectangle_161" data-name="Rectangle 161" width="9.777" height="5.35" transform="translate(42.601 0)" fill="#17a2f0"/>
        </g>
        <g id="Group_940" data-name="Group 940" transform="translate(8.813 89.32)">
          <path id="Path_9172" data-name="Path 9172" d="M-1407.053,869.372h-23.416a2.676,2.676,0,0,0-2.676,2.675h0a2.674,2.674,0,0,0,2.676,2.673h23.416a2.673,2.673,0,0,0,2.676-2.671v0h0a2.674,2.674,0,0,0-2.673-2.675Z" transform="translate(1433.145 -855.475)" fill="#d7effc" opacity="0.7" style="isolation: isolate"/>
          <rect id="Rectangle_162" data-name="Rectangle 162" width="28.766" height="5.35" rx="1.65" transform="translate(0.001 6.948)" fill="#d7effc" opacity="0.7" style="isolation: isolate"/>
          <path id="Path_9173" data-name="Path 9173" d="M-1407.053,856.844h-23.416a2.676,2.676,0,0,0-2.676,2.675h0a2.676,2.676,0,0,0,2.676,2.676h23.416a2.674,2.674,0,0,0,2.676-2.673v0h0a2.674,2.674,0,0,0-2.673-2.675Z" transform="translate(1433.145 -856.844)" fill="#d7effc" opacity="0.7" style="isolation: isolate"/>
          <rect id="Rectangle_163" data-name="Rectangle 163" width="9.777" height="5.35" transform="translate(31.224 13.897)" fill="#ebebeb"/>
          <rect id="Rectangle_164" data-name="Rectangle 164" width="9.777" height="5.35" transform="translate(31.224 6.948)" fill="#17a2f0"/>
          <rect id="Rectangle_165" data-name="Rectangle 165" width="9.777" height="5.35" transform="translate(31.224 0)" fill="#ebebeb"/>
          <rect id="Rectangle_166" data-name="Rectangle 166" width="9.777" height="5.35" transform="translate(42.601 13.897)" fill="#17a2f0"/>
          <rect id="Rectangle_167" data-name="Rectangle 167" width="9.777" height="5.35" transform="translate(42.601 6.948)" fill="#ebebeb"/>
          <rect id="Rectangle_168" data-name="Rectangle 168" width="9.777" height="5.35" transform="translate(42.601 0)" fill="#17a2f0"/>
        </g>
        <g id="Group_941" data-name="Group 941" transform="translate(8.813 117.402)">
          <path id="Path_9174" data-name="Path 9174" d="M-1407.053,894.689h-23.416a2.675,2.675,0,0,0-2.676,2.673h0a2.676,2.676,0,0,0,2.676,2.676h23.416a2.674,2.674,0,0,0,2.676-2.673v0h0a2.673,2.673,0,0,0-2.673-2.673Z" transform="translate(1433.145 -880.791)" fill="#e3f4fd" opacity="0.7" style="isolation: isolate"/>
          <path id="Path_9175" data-name="Path 9175" d="M-1407.053,888.424h-23.416a2.676,2.676,0,0,0-2.676,2.676h0a2.676,2.676,0,0,0,2.676,2.675h23.416a2.674,2.674,0,0,0,2.676-2.673v0h0a2.674,2.674,0,0,0-2.673-2.676Z" transform="translate(1433.145 -881.476)" fill="#e3f4fd" opacity="0.7" style="isolation: isolate"/>
          <path id="Path_9176" data-name="Path 9176" d="M-1407.053,882.16h-23.416a2.675,2.675,0,0,0-2.676,2.673h0a2.676,2.676,0,0,0,2.676,2.675h23.416a2.674,2.674,0,0,0,2.676-2.673v0h0a2.673,2.673,0,0,0-2.673-2.673Z" transform="translate(1433.145 -882.16)" fill="#e3f4fd" opacity="0.7" style="isolation: isolate"/>
          <rect id="Rectangle_169" data-name="Rectangle 169" width="9.777" height="5.35" transform="translate(31.224 13.897)" fill="#17a2f0"/>
          <rect id="Rectangle_170" data-name="Rectangle 170" width="9.777" height="5.35" transform="translate(31.224 6.948)" fill="#ebebeb"/>
          <rect id="Rectangle_171" data-name="Rectangle 171" width="9.777" height="5.35" transform="translate(31.224 0)" fill="#ebebeb"/>
          <rect id="Rectangle_172" data-name="Rectangle 172" width="9.777" height="5.35" transform="translate(42.601 13.897)" fill="#ebebeb"/>
          <rect id="Rectangle_173" data-name="Rectangle 173" width="9.777" height="5.35" transform="translate(42.601 6.948)" fill="#ebebeb"/>
          <rect id="Rectangle_174" data-name="Rectangle 174" width="9.777" height="5.35" transform="translate(42.601 0)" fill="#17a2f0"/>
        </g>
      </g>
      <g id="Group_948" data-name="Group 948" transform="translate(181.863 85.124)">
        <path id="Rectangle_175" data-name="Rectangle 175" d="M-1254.494,924.636h-41.365V715.994h41.365a7.259,7.259,0,0,1,7.259,7.259h0V917.378a7.259,7.259,0,0,1-7.259,7.259Z" transform="translate(1384.524 -715.994)" fill="#e0e0e0"/>
        <rect id="Rectangle_176" data-name="Rectangle 176" width="103.058" height="208.642" rx="6.544" transform="translate(0 0)" fill="#fff"/>
        <rect id="Rectangle_177" data-name="Rectangle 177" width="103.058" height="1.938" transform="translate(0 165.364)" fill="#e0e0e0"/>
        <rect id="Rectangle_178" data-name="Rectangle 178" width="103.058" height="1.938" transform="translate(0 124.023)" fill="#e0e0e0"/>
        <rect id="Rectangle_179" data-name="Rectangle 179" width="103.058" height="1.938" transform="translate(0 82.683)" fill="#e0e0e0"/>
        <rect id="Rectangle_180" data-name="Rectangle 180" width="103.058" height="1.938" transform="translate(0 41.341)" fill="#e0e0e0"/>
        <g id="Group_943" data-name="Group 943" transform="translate(12.975 7.472)">
          <path id="Path_9177" data-name="Path 9177" d="M-1325.682,741.174h-34.474a3.937,3.937,0,0,0-3.938,3.938h0a3.939,3.939,0,0,0,3.938,3.937h34.474a3.937,3.937,0,0,0,3.937-3.937h0a3.937,3.937,0,0,0-3.936-3.938Z" transform="translate(1364.094 -720.715)" fill="#aedef9" opacity="0.7" style="isolation: isolate"/>
          <path id="Path_9178" data-name="Path 9178" d="M-1325.682,731.952h-34.474a3.937,3.937,0,0,0-3.938,3.938h0a3.939,3.939,0,0,0,3.938,3.937h34.474a3.937,3.937,0,0,0,3.937-3.937h0a3.937,3.937,0,0,0-3.936-3.938Z" transform="translate(1364.094 -721.722)" fill="#aedef9" opacity="0.7" style="isolation: isolate"/>
          <path id="Path_9179" data-name="Path 9179" d="M-1325.682,722.73h-34.474a3.937,3.937,0,0,0-3.938,3.938h0a3.939,3.939,0,0,0,3.938,3.937h34.474a3.937,3.937,0,0,0,3.937-3.937h0a3.937,3.937,0,0,0-3.936-3.938Z" transform="translate(1364.094 -722.73)" fill="#aedef9" opacity="0.7" style="isolation: isolate"/>
          <rect id="Rectangle_181" data-name="Rectangle 181" width="14.394" height="7.876" transform="translate(45.967 20.459)" fill="#ebebeb"/>
          <rect id="Rectangle_182" data-name="Rectangle 182" width="14.394" height="7.876" transform="translate(45.967 10.23)" fill="#17a2f0"/>
          <rect id="Rectangle_183" data-name="Rectangle 183" width="14.394" height="7.876" transform="translate(45.967 0)" fill="#ebebeb"/>
          <rect id="Rectangle_184" data-name="Rectangle 184" width="14.394" height="7.876" transform="translate(62.715 20.459)" fill="#ebebeb"/>
          <rect id="Rectangle_185" data-name="Rectangle 185" width="14.394" height="7.876" transform="translate(62.715 10.23)" fill="#ebebeb"/>
          <rect id="Rectangle_186" data-name="Rectangle 186" width="14.394" height="7.876" transform="translate(62.715 0)" fill="#17a2f0"/>
        </g>
        <g id="Group_944" data-name="Group 944" transform="translate(12.975 48.813)">
          <path id="Path_9180" data-name="Path 9180" d="M-1325.682,778.443h-34.474a3.937,3.937,0,0,0-3.938,3.938h0a3.939,3.939,0,0,0,3.938,3.937h34.474a3.937,3.937,0,0,0,3.937-3.937h0a3.937,3.937,0,0,0-3.936-3.938Z" transform="translate(1364.094 -757.984)" fill="#8cd0f7" opacity="0.7" style="isolation: isolate"/>
          <path id="Path_9181" data-name="Path 9181" d="M-1325.682,769.221h-34.474a3.94,3.94,0,0,0-3.938,3.938h0a3.939,3.939,0,0,0,3.938,3.937h34.474a3.937,3.937,0,0,0,3.937-3.937h0A3.938,3.938,0,0,0-1325.682,769.221Z" transform="translate(1364.094 -758.992)" fill="#8cd0f7" opacity="0.7" style="isolation: isolate"/>
          <path id="Path_9182" data-name="Path 9182" d="M-1325.682,760h-34.474a3.94,3.94,0,0,0-3.938,3.938h0a3.939,3.939,0,0,0,3.938,3.937h34.474a3.937,3.937,0,0,0,3.937-3.937h0A3.939,3.939,0,0,0-1325.682,760Z" transform="translate(1364.094 -759.999)" fill="#8cd0f7" opacity="0.7" style="isolation: isolate"/>
          <rect id="Rectangle_187" data-name="Rectangle 187" width="14.394" height="7.876" transform="translate(45.967 20.459)" fill="#ebebeb"/>
          <rect id="Rectangle_188" data-name="Rectangle 188" width="14.394" height="7.876" transform="translate(45.967 10.23)" fill="#ebebeb"/>
          <rect id="Rectangle_189" data-name="Rectangle 189" width="14.394" height="7.876" transform="translate(45.967 0)" fill="#17a2f0"/>
          <rect id="Rectangle_190" data-name="Rectangle 190" width="14.394" height="7.876" transform="translate(62.715 20.459)" fill="#17a2f0"/>
          <rect id="Rectangle_191" data-name="Rectangle 191" width="14.394" height="7.876" transform="translate(62.715 10.23)" fill="#ebebeb"/>
          <rect id="Rectangle_192" data-name="Rectangle 192" width="14.394" height="7.876" transform="translate(62.715 0)" fill="#17a2f0"/>
        </g>
        <g id="Group_945" data-name="Group 945" transform="translate(12.975 90.153)">
          <path id="Path_9183" data-name="Path 9183" d="M-1325.682,815.712h-34.474a3.94,3.94,0,0,0-3.938,3.938h0a3.94,3.94,0,0,0,3.938,3.938h34.474a3.938,3.938,0,0,0,3.937-3.938h0A3.939,3.939,0,0,0-1325.682,815.712Z" transform="translate(1364.094 -795.253)" fill="#5cbdf4" opacity="0.7" style="isolation: isolate"/>
          <path id="Path_9184" data-name="Path 9184" d="M-1325.682,806.49h-34.474a3.94,3.94,0,0,0-3.938,3.938h0a3.939,3.939,0,0,0,3.938,3.939h34.474a3.938,3.938,0,0,0,3.937-3.939h0A3.939,3.939,0,0,0-1325.682,806.49Z" transform="translate(1364.094 -796.26)" fill="#5cbdf4" opacity="0.7" style="isolation: isolate"/>
          <path id="Path_9185" data-name="Path 9185" d="M-1325.682,797.268h-34.474a3.94,3.94,0,0,0-3.938,3.938h0a3.939,3.939,0,0,0,3.938,3.938h34.474a3.938,3.938,0,0,0,3.937-3.938h0A3.939,3.939,0,0,0-1325.682,797.268Z" transform="translate(1364.094 -797.268)" fill="#5cbdf4" opacity="0.7" style="isolation: isolate"/>
          <rect id="Rectangle_193" data-name="Rectangle 193" width="14.394" height="7.876" transform="translate(45.967 20.459)" fill="#17a2f0"/>
          <rect id="Rectangle_194" data-name="Rectangle 194" width="14.394" height="7.876" transform="translate(45.967 10.23)" fill="#ebebeb"/>
          <rect id="Rectangle_195" data-name="Rectangle 195" width="14.394" height="7.876" transform="translate(45.967 0.001)" fill="#ebebeb"/>
          <rect id="Rectangle_196" data-name="Rectangle 196" width="14.394" height="7.876" transform="translate(62.715 20.459)" fill="#ebebeb"/>
          <rect id="Rectangle_197" data-name="Rectangle 197" width="14.394" height="7.876" transform="translate(62.715 10.23)" fill="#ebebeb"/>
          <rect id="Rectangle_198" data-name="Rectangle 198" width="14.394" height="7.876" transform="translate(62.715 0.001)" fill="#17a2f0"/>
        </g>
        <g id="Group_946" data-name="Group 946" transform="translate(12.975 131.495)">
          <path id="Path_9186" data-name="Path 9186" d="M-1325.682,852.981h-34.474a3.94,3.94,0,0,0-3.938,3.938h0a3.939,3.939,0,0,0,3.938,3.938h34.474a3.938,3.938,0,0,0,3.937-3.938h0A3.939,3.939,0,0,0-1325.682,852.981Z" transform="translate(1364.094 -832.523)" fill="#5cbdf4" opacity="0.7" style="isolation: isolate"/>
          <path id="Path_9187" data-name="Path 9187" d="M-1325.682,843.76h-34.474a3.939,3.939,0,0,0-3.938,3.937h0a3.94,3.94,0,0,0,3.938,3.938h34.474a3.938,3.938,0,0,0,3.937-3.938h0a3.937,3.937,0,0,0-3.937-3.937Z" transform="translate(1364.094 -833.531)" fill="#ebebeb"/>
          <path id="Path_9188" data-name="Path 9188" d="M-1325.682,834.539h-34.474a3.939,3.939,0,0,0-3.938,3.937h0a3.94,3.94,0,0,0,3.938,3.938h34.474a3.938,3.938,0,0,0,3.937-3.938h0a3.937,3.937,0,0,0-3.937-3.937Z" transform="translate(1364.094 -834.538)" fill="#5cbdf4" opacity="0.7" style="isolation: isolate"/>
          <rect id="Rectangle_199" data-name="Rectangle 199" width="14.394" height="7.876" transform="translate(45.967 20.458)" fill="#ebebeb"/>
          <rect id="Rectangle_200" data-name="Rectangle 200" width="14.394" height="7.876" transform="translate(45.967 10.23)" fill="#5cbdf4"/>
          <rect id="Rectangle_201" data-name="Rectangle 201" width="14.394" height="7.876" transform="translate(45.967)" fill="#ebebeb"/>
          <rect id="Rectangle_202" data-name="Rectangle 202" width="14.394" height="7.876" transform="translate(62.715 20.458)" fill="#5cbdf4"/>
          <rect id="Rectangle_203" data-name="Rectangle 203" width="14.394" height="7.876" transform="translate(62.715 10.23)" fill="#5cbdf4"/>
          <rect id="Rectangle_204" data-name="Rectangle 204" width="14.394" height="7.876" transform="translate(62.715)" fill="#ebebeb"/>
        </g>
        <g id="Group_947" data-name="Group 947" transform="translate(12.975 172.837)">
          <path id="Path_9189" data-name="Path 9189" d="M-1325.682,890.252h-34.474a3.939,3.939,0,0,0-3.938,3.937h0a3.938,3.938,0,0,0,3.938,3.939h34.474a3.937,3.937,0,0,0,3.937-3.939h0a3.937,3.937,0,0,0-3.937-3.937Z" transform="translate(1364.094 -869.793)" fill="#5cbdf4" opacity="0.7" style="isolation: isolate"/>
          <path id="Path_9190" data-name="Path 9190" d="M-1325.682,881.03h-34.474a3.939,3.939,0,0,0-3.938,3.937h0a3.937,3.937,0,0,0,3.937,3.939h34.476a3.937,3.937,0,0,0,3.937-3.937v0h0a3.937,3.937,0,0,0-3.937-3.937Z" transform="translate(1364.094 -870.8)" fill="#5cbdf4" opacity="0.7" style="isolation: isolate"/>
          <path id="Path_9191" data-name="Path 9191" d="M-1325.682,871.808h-34.474a3.939,3.939,0,0,0-3.938,3.937h0a3.937,3.937,0,0,0,3.938,3.938h34.474a3.937,3.937,0,0,0,3.937-3.937h0a3.937,3.937,0,0,0-3.937-3.937Z" transform="translate(1364.094 -871.808)" fill="#5cbdf4" opacity="0.7" style="isolation: isolate"/>
          <rect id="Rectangle_205" data-name="Rectangle 205" width="14.394" height="7.876" transform="translate(45.967 20.458)" fill="#ebebeb"/>
          <rect id="Rectangle_206" data-name="Rectangle 206" width="14.394" height="7.876" transform="translate(45.967 10.23)" fill="#ebebeb"/>
          <rect id="Rectangle_207" data-name="Rectangle 207" width="14.394" height="7.876" transform="translate(45.967 0)" fill="#ebebeb"/>
          <rect id="Rectangle_208" data-name="Rectangle 208" width="14.394" height="7.876" transform="translate(62.715 20.458)" fill="#ebebeb"/>
          <rect id="Rectangle_209" data-name="Rectangle 209" width="14.394" height="7.876" transform="translate(62.715 10.23)" fill="#ebebeb"/>
          <rect id="Rectangle_210" data-name="Rectangle 210" width="14.394" height="7.876" transform="translate(62.715 0)" fill="#5cbdf4"/>
        </g>
      </g>
      <path id="Rectangle_211" data-name="Rectangle 211" d="M-1174.627,921.96H-1210.6V740.487h35.977a6.313,6.313,0,0,1,6.314,6.314V915.647A6.313,6.313,0,0,1-1174.627,921.96Z" transform="translate(1575.701 -628.194)" fill="#e0e0e0"/>
      <rect id="Rectangle_212" data-name="Rectangle 212" width="89.636" height="181.469" rx="5.692" transform="translate(287.978 112.297)" fill="#fff"/>
      <rect id="Rectangle_213" data-name="Rectangle 213" width="89.636" height="1.685" transform="translate(287.978 256.124)" fill="#e0e0e0"/>
      <rect id="Rectangle_214" data-name="Rectangle 214" width="89.636" height="1.685" transform="translate(287.978 220.167)" fill="#e0e0e0"/>
      <rect id="Rectangle_215" data-name="Rectangle 215" width="89.636" height="1.685" transform="translate(287.978 184.211)" fill="#e0e0e0"/>
      <rect id="Rectangle_216" data-name="Rectangle 216" width="89.636" height="1.685" transform="translate(287.978 148.254)" fill="#e0e0e0"/>
      <path id="Path_9192" data-name="Path 9192" d="M-1236.546,762.392h-29.983a3.424,3.424,0,0,0-3.427,3.422v0h0a3.424,3.424,0,0,0,3.424,3.424h29.985a3.424,3.424,0,0,0,3.427-3.422v0h0a3.424,3.424,0,0,0-3.424-3.424Z" transform="translate(1569.217 -625.801)" fill="#17a2f0" opacity="0.7" style="isolation: isolate"/>
      <path id="Path_9193" data-name="Path 9193" d="M-1236.546,754.37h-29.983a3.426,3.426,0,0,0-3.427,3.426h0a3.425,3.425,0,0,0,3.427,3.424h29.983a3.426,3.426,0,0,0,3.427-3.424h0A3.427,3.427,0,0,0-1236.546,754.37Z" transform="translate(1569.217 -626.678)" fill="#17a2f0" opacity="0.7" style="isolation: isolate"/>
      <path id="Path_9194" data-name="Path 9194" d="M-1236.546,746.35h-29.983a3.426,3.426,0,0,0-3.427,3.427h0a3.425,3.425,0,0,0,3.427,3.424h29.983a3.425,3.425,0,0,0,3.427-3.424h0A3.427,3.427,0,0,0-1236.546,746.35Z" transform="translate(1569.217 -627.554)" fill="#17a2f0" opacity="0.7" style="isolation: isolate"/>
      <rect id="Rectangle_217" data-name="Rectangle 217" width="12.519" height="6.85" transform="translate(339.243 262.624)" fill="#ebebeb"/>
      <rect id="Rectangle_218" data-name="Rectangle 218" width="12.519" height="6.85" transform="translate(339.243 271.521)" fill="#17a2f0"/>
      <rect id="Rectangle_219" data-name="Rectangle 219" width="12.519" height="6.85" transform="translate(339.243 280.417)" fill="#ebebeb"/>
      <rect id="Rectangle_220" data-name="Rectangle 220" width="12.519" height="6.85" transform="translate(353.809 262.624)" fill="#ebebeb"/>
      <rect id="Rectangle_221" data-name="Rectangle 221" width="12.519" height="6.85" transform="translate(353.809 271.521)" fill="#ebebeb"/>
      <rect id="Rectangle_222" data-name="Rectangle 222" width="12.519" height="6.85" transform="translate(353.809 280.417)" fill="#17a2f0"/>
      <path id="Path_9195" data-name="Path 9195" d="M-1236.546,794.807h-29.983a3.427,3.427,0,0,0-3.427,3.424h0a3.426,3.426,0,0,0,3.427,3.426h29.983a3.427,3.427,0,0,0,3.427-3.426h0A3.427,3.427,0,0,0-1236.546,794.807Z" transform="translate(1569.217 -622.26)" fill="#ebebeb"/>
      <path id="Path_9196" data-name="Path 9196" d="M-1236.546,786.786h-29.983a3.427,3.427,0,0,0-3.427,3.424h0a3.424,3.424,0,0,0,3.424,3.424h29.985a3.424,3.424,0,0,0,3.427-3.422v0h0A3.427,3.427,0,0,0-1236.546,786.786Z" transform="translate(1569.217 -623.136)" fill="#17a2f0" opacity="0.7" style="isolation: isolate"/>
      <path id="Path_9197" data-name="Path 9197" d="M-1236.546,778.766h-29.983a3.424,3.424,0,0,0-3.427,3.422v0h0a3.424,3.424,0,0,0,3.424,3.424h29.985a3.424,3.424,0,0,0,3.427-3.422v0h0a3.424,3.424,0,0,0-3.424-3.424Z" transform="translate(1569.217 -624.012)" fill="#17a2f0" opacity="0.7" style="isolation: isolate"/>
      <rect id="Rectangle_223" data-name="Rectangle 223" width="12.519" height="6.85" transform="translate(339.243 226.667)" fill="#ebebeb"/>
      <rect id="Rectangle_224" data-name="Rectangle 224" width="12.519" height="6.85" transform="translate(339.243 235.564)" fill="#ebebeb"/>
      <rect id="Rectangle_225" data-name="Rectangle 225" width="12.519" height="6.85" transform="translate(339.243 244.461)" fill="#17a2f0"/>
      <rect id="Rectangle_226" data-name="Rectangle 226" width="12.519" height="6.85" transform="translate(353.809 226.667)" fill="#17a2f0"/>
      <rect id="Rectangle_227" data-name="Rectangle 227" width="12.519" height="6.85" transform="translate(353.809 235.564)" fill="#ebebeb"/>
      <rect id="Rectangle_228" data-name="Rectangle 228" width="12.519" height="6.85" transform="translate(353.809 244.461)" fill="#17a2f0"/>
      <path id="Path_9198" data-name="Path 9198" d="M-1236.546,827.223h-29.983a3.424,3.424,0,0,0-3.427,3.422v0h0a3.425,3.425,0,0,0,3.427,3.424h29.983a3.425,3.425,0,0,0,3.427-3.424h0a3.424,3.424,0,0,0-3.424-3.424Z" transform="translate(1569.217 -618.718)" fill="#17a2f0" opacity="0.7" style="isolation: isolate"/>
      <path id="Path_9199" data-name="Path 9199" d="M-1236.546,819.2h-29.983a3.426,3.426,0,0,0-3.427,3.426h0a3.425,3.425,0,0,0,3.427,3.424h29.983a3.426,3.426,0,0,0,3.427-3.424h0A3.427,3.427,0,0,0-1236.546,819.2Z" transform="translate(1569.217 -619.595)" fill="#17a2f0" opacity="0.7" style="isolation: isolate"/>
      <path id="Path_9200" data-name="Path 9200" d="M-1236.546,811.181h-29.983a3.427,3.427,0,0,0-3.427,3.424h0a3.427,3.427,0,0,0,3.427,3.427h29.983a3.427,3.427,0,0,0,3.427-3.427h0A3.427,3.427,0,0,0-1236.546,811.181Z" transform="translate(1569.217 -620.471)" fill="#17a2f0" opacity="0.7" style="isolation: isolate"/>
      <rect id="Rectangle_229" data-name="Rectangle 229" width="12.519" height="6.85" transform="translate(339.243 190.71)" fill="#17a2f0"/>
      <rect id="Rectangle_230" data-name="Rectangle 230" width="12.519" height="6.85" transform="translate(339.243 199.607)" fill="#ebebeb"/>
      <rect id="Rectangle_231" data-name="Rectangle 231" width="12.519" height="6.85" transform="translate(339.243 208.505)" fill="#ebebeb"/>
      <rect id="Rectangle_232" data-name="Rectangle 232" width="12.519" height="6.85" transform="translate(353.809 190.71)" fill="#ebebeb"/>
      <rect id="Rectangle_233" data-name="Rectangle 233" width="12.519" height="6.85" transform="translate(353.809 199.607)" fill="#ebebeb"/>
      <rect id="Rectangle_234" data-name="Rectangle 234" width="12.519" height="6.85" transform="translate(353.809 208.505)" fill="#17a2f0"/>
      <path id="Path_9201" data-name="Path 9201" d="M-1236.546,859.641h-29.983a3.427,3.427,0,0,0-3.427,3.424h0a3.426,3.426,0,0,0,3.427,3.426h29.983a3.427,3.427,0,0,0,3.427-3.426h0A3.427,3.427,0,0,0-1236.546,859.641Z" transform="translate(1569.217 -615.177)" fill="#17a2f0" opacity="0.7" style="isolation: isolate"/>
      <path id="Path_9202" data-name="Path 9202" d="M-1236.546,851.617h-29.983a3.427,3.427,0,0,0-3.427,3.424h0a3.424,3.424,0,0,0,3.424,3.424h29.985a3.424,3.424,0,0,0,3.427-3.422v0h0A3.427,3.427,0,0,0-1236.546,851.617Z" transform="translate(1569.217 -616.053)" fill="#17a2f0" opacity="0.7" style="isolation: isolate"/>
      <path id="Path_9203" data-name="Path 9203" d="M-1236.546,843.6h-29.983a3.424,3.424,0,0,0-3.427,3.422v0h0a3.425,3.425,0,0,0,3.427,3.424h29.983a3.425,3.425,0,0,0,3.427-3.424h0a3.424,3.424,0,0,0-3.424-3.424Z" transform="translate(1569.217 -616.93)" fill="#17a2f0" opacity="0.7" style="isolation: isolate"/>
      <rect id="Rectangle_235" data-name="Rectangle 235" width="12.519" height="6.85" transform="translate(339.243 154.753)" fill="#ebebeb"/>
      <rect id="Rectangle_236" data-name="Rectangle 236" width="12.519" height="6.85" transform="translate(339.243 163.65)" fill="#17a2f0"/>
      <rect id="Rectangle_237" data-name="Rectangle 237" width="12.519" height="6.85" transform="translate(339.243 172.547)" fill="#ebebeb"/>
      <rect id="Rectangle_238" data-name="Rectangle 238" width="12.519" height="6.85" transform="translate(353.809 154.753)" fill="#17a2f0"/>
      <rect id="Rectangle_239" data-name="Rectangle 239" width="12.519" height="6.85" transform="translate(353.809 163.65)" fill="#ebebeb"/>
      <rect id="Rectangle_240" data-name="Rectangle 240" width="12.519" height="6.85" transform="translate(353.809 172.547)" fill="#ebebeb"/>
      <path id="Path_9204" data-name="Path 9204" d="M-1236.546,892.052h-29.983a3.426,3.426,0,0,0-3.427,3.426h0a3.426,3.426,0,0,0,3.427,3.424h29.983a3.426,3.426,0,0,0,3.427-3.424h0A3.427,3.427,0,0,0-1236.546,892.052Z" transform="translate(1569.217 -611.636)" fill="#17a2f0" opacity="0.7" style="isolation: isolate"/>
      <path id="Path_9205" data-name="Path 9205" d="M-1236.546,884.032h-29.983a3.426,3.426,0,0,0-3.427,3.426h0a3.425,3.425,0,0,0,3.427,3.424h29.983a3.425,3.425,0,0,0,3.427-3.424h0A3.427,3.427,0,0,0-1236.546,884.032Z" transform="translate(1569.217 -612.512)" fill="#17a2f0" opacity="0.7" style="isolation: isolate"/>
      <rect id="Rectangle_241" data-name="Rectangle 241" width="36.834" height="6.85" rx="2.112" transform="translate(299.264 262.623)" fill="#17a2f0" opacity="0.7" style="isolation: isolate"/>
      <rect id="Rectangle_242" data-name="Rectangle 242" width="12.519" height="6.85" transform="translate(339.243 118.796)" fill="#17a2f0"/>
      <rect id="Rectangle_243" data-name="Rectangle 243" width="12.519" height="6.85" transform="translate(339.243 127.694)" fill="#ebebeb"/>
      <rect id="Rectangle_244" data-name="Rectangle 244" width="12.519" height="6.85" transform="translate(339.243 136.591)" fill="#ebebeb"/>
      <rect id="Rectangle_245" data-name="Rectangle 245" width="12.519" height="6.85" transform="translate(353.809 118.796)" fill="#ebebeb"/>
      <rect id="Rectangle_246" data-name="Rectangle 246" width="12.519" height="6.85" transform="translate(353.809 127.694)" fill="#ebebeb"/>
      <rect id="Rectangle_247" data-name="Rectangle 247" width="12.519" height="6.85" transform="translate(353.809 136.591)" fill="#17a2f0"/>
    </g>
  </g>
</svg>
