<svg id="Group_3548" data-name="Group 3548" xmlns="http://www.w3.org/2000/svg" xmlns:xlink="http://www.w3.org/1999/xlink" width="584.539" height="565.858" viewBox="0 0 584.539 565.858">
  <defs>
    <clipPath id="clip-path">
      <rect id="Rectangle_3158" data-name="Rectangle 3158" width="584.539" height="565.858" fill="none"/>
    </clipPath>
    <clipPath id="clip-path-2">
      <rect id="Rectangle_3157" data-name="Rectangle 3157" width="584.54" height="565.858" fill="none"/>
    </clipPath>
    <clipPath id="clip-path-3">
      <rect id="Rectangle_3135" data-name="Rectangle 3135" width="13.102" height="16.376" fill="none"/>
    </clipPath>
    <clipPath id="clip-path-4">
      <rect id="Rectangle_3136" data-name="Rectangle 3136" width="47.826" height="38.147" fill="none"/>
    </clipPath>
    <clipPath id="clip-path-5">
      <rect id="Rectangle_3139" data-name="Rectangle 3139" width="19.05" height="15.036" fill="none"/>
    </clipPath>
    <clipPath id="clip-path-6">
      <rect id="Rectangle_3140" data-name="Rectangle 3140" width="15.826" height="9.071" fill="none"/>
    </clipPath>
    <clipPath id="clip-path-7">
      <rect id="Rectangle_3141" data-name="Rectangle 3141" width="7.81" height="3.876" fill="none"/>
    </clipPath>
    <clipPath id="clip-path-8">
      <rect id="Rectangle_3142" data-name="Rectangle 3142" width="3.438" height="7.651" fill="none"/>
    </clipPath>
    <clipPath id="clip-path-9">
      <rect id="Rectangle_3144" data-name="Rectangle 3144" width="40.696" height="22.581" fill="none"/>
    </clipPath>
    <clipPath id="clip-path-10">
      <rect id="Rectangle_3145" data-name="Rectangle 3145" width="20.075" height="9.826" fill="none"/>
    </clipPath>
    <clipPath id="clip-path-11">
      <rect id="Rectangle_3146" data-name="Rectangle 3146" width="8.589" height="19.675" fill="none"/>
    </clipPath>
    <clipPath id="clip-path-12">
      <rect id="Rectangle_3149" data-name="Rectangle 3149" width="25.676" height="20.266" fill="none"/>
    </clipPath>
    <clipPath id="clip-path-13">
      <rect id="Rectangle_3150" data-name="Rectangle 3150" width="21.32" height="11.83" fill="none"/>
    </clipPath>
    <clipPath id="clip-path-14">
      <rect id="Rectangle_3151" data-name="Rectangle 3151" width="10.518" height="5.148" fill="none"/>
    </clipPath>
    <clipPath id="clip-path-15">
      <rect id="Rectangle_3152" data-name="Rectangle 3152" width="4.5" height="10.308" fill="none"/>
    </clipPath>
    <clipPath id="clip-path-16">
      <rect id="Rectangle_3153" data-name="Rectangle 3153" width="34.081" height="21.347" fill="none"/>
    </clipPath>
    <clipPath id="clip-path-17">
      <rect id="Rectangle_3154" data-name="Rectangle 3154" width="40.635" height="42.055" fill="none"/>
    </clipPath>
    <clipPath id="clip-path-18">
      <rect id="Rectangle_3155" data-name="Rectangle 3155" width="80.856" height="168.58" fill="none"/>
    </clipPath>
    <clipPath id="clip-path-19">
      <rect id="Rectangle_3156" data-name="Rectangle 3156" width="130.569" height="17.664" fill="none"/>
    </clipPath>
  </defs>
  <g id="Group_3547" data-name="Group 3547" clip-path="url(#clip-path)">
    <g id="Group_3546" data-name="Group 3546">
      <g id="Group_3545" data-name="Group 3545" clip-path="url(#clip-path-2)">
        <path id="Path_13735" data-name="Path 13735" d="M200.182,12.167,62.441,191.09,432.866,99.006,226.548,5.533a21.838,21.838,0,0,0-26.366,6.634" transform="translate(27.906 1.602)" fill="#ebebeb"/>
        <path id="Path_13736" data-name="Path 13736" d="M61.1,192.6,200.176,11.942a22.5,22.5,0,0,1,27.286-6.863L435.781,99.46ZM218.091,4.57a20.979,20.979,0,0,0-16.7,8.3h0L64.981,190.062,431.149,99.037,226.831,6.469a21.146,21.146,0,0,0-8.741-1.9" transform="translate(27.307 1.36)" fill="#e0e0e0"/>
        <path id="Path_13737" data-name="Path 13737" d="M472.936,289.54,131.29,374.468a15.49,15.49,0,0,1-18.769-11.295L62.441,161.715l371.71-92.4,50.079,201.46a15.487,15.487,0,0,1-11.295,18.768" transform="translate(27.906 30.977)" fill="#f0f0f0"/>
        <path id="Path_13738" data-name="Path 13738" d="M410.48,111.222,281.7,242.794,87.012,198.984,64.741,95.745a20.83,20.83,0,0,1,15.268-24.91L361.579.841a20.829,20.829,0,0,1,25.239,15.188Z" transform="translate(28.692 0.099)" fill="#fff"/>
        <path id="Path_13739" data-name="Path 13739" d="M249.536,162.425,96.621,322.235a17.041,17.041,0,0,0,20.65,12.425L456.29,250.342a17.043,17.043,0,0,0,12.425-20.65l-.317-1.272L268.44,157.913a17.918,17.918,0,0,0-18.9,4.511" transform="translate(43.182 70.118)" fill="#e0e0e0"/>
        <rect id="Rectangle_3132" data-name="Rectangle 3132" width="113.518" height="11.596" transform="matrix(0.97, -0.241, 0.241, 0.97, 133.703, 113.598)" fill="#e0e0e0"/>
        <rect id="Rectangle_3133" data-name="Rectangle 3133" width="251.856" height="13.091" transform="translate(140.791 142.098) rotate(-13.967)" fill="#e0e0e0"/>
        <rect id="Rectangle_3134" data-name="Rectangle 3134" width="251.856" height="13.091" transform="translate(148.515 173.152) rotate(-13.967)" fill="#e0e0e0"/>
        <path id="Path_13740" data-name="Path 13740" d="M349.452,108.685l-7.653,7.657L136.622,169.984l-26.81-6.274L108.8,160.8l243.618-60.591,1.048,4.211Z" transform="translate(48.624 44.787)" fill="#e0e0e0"/>
        <path id="Path_13741" data-name="Path 13741" d="M276.127,148.523l-92.435,22.99-28.257-6.462,138.143-34.359Z" transform="translate(69.467 58.409)" fill="#e0e0e0"/>
        <path id="Path_13742" data-name="Path 13742" d="M244.522,164.745a2.8,2.8,0,0,1-.353.428l-1.092,1.2-4.258,4.561-15.764,16.677c-13.339,14.057-31.776,33.464-52.295,54.753s-39.294,40.389-53.012,54.077c-6.857,6.847-12.432,12.361-16.313,16.142-1.919,1.861-3.421,3.318-4.478,4.345l-1.179,1.116a2.842,2.842,0,0,1-.421.36,2.9,2.9,0,0,1,.365-.418c.281-.294.651-.682,1.123-1.172,1.033-1.052,2.5-2.544,4.373-4.451,3.843-3.886,9.346-9.453,16.132-16.318,13.614-13.786,32.321-32.935,52.84-54.232l52.459-54.589,15.946-16.5c1.871-1.909,3.335-3.4,4.367-4.458l1.15-1.145a2.843,2.843,0,0,1,.411-.372" transform="translate(42.616 73.627)" fill="#fafafa"/>
        <path id="Path_13743" data-name="Path 13743" d="M412.313,226.978c-.072.207-42.714-14.592-95.229-33.053-52.535-18.466-95.048-33.6-94.976-33.806s42.7,14.591,95.239,33.056c52.516,18.46,95.038,33.6,94.966,33.8" transform="translate(99.264 71.559)" fill="#fafafa"/>
        <path id="Path_13744" data-name="Path 13744" d="M345.568,72.559a1.906,1.906,0,0,1-.279.36l-.878,1c-.822.913-1.972,2.188-3.434,3.808L328.208,91.606c-10.832,11.669-25.914,27.682-42.809,45.138s-32.423,33.055-43.745,44.25c-5.656,5.542-10.247,10.039-13.468,13.2-1.574,1.511-2.813,2.7-3.7,3.548-.4.375-.723.674-.977.909a2.031,2.031,0,0,1-.352.291,1.964,1.964,0,0,1,.3-.349l.92-.965,3.6-3.653c3.177-3.2,7.708-7.758,13.289-13.374,11.218-11.3,26.671-26.946,43.57-44.4s32.035-33.4,42.971-44.97c5.439-5.753,9.854-10.424,12.953-13.7l3.542-3.707c.385-.392.695-.7.936-.951a1.9,1.9,0,0,1,.339-.305" transform="translate(99.733 32.428)" fill="#fafafa"/>
        <path id="Path_13745" data-name="Path 13745" d="M259.232,178.856a2.54,2.54,0,0,1-.515-.091l-1.492-.344-5.718-1.4c-4.957-1.244-12.147-2.982-21.043-5.076-17.787-4.212-42.448-9.635-69.708-15.54s-51.921-11.418-69.681-15.771c-8.883-2.165-16.054-3.986-20.988-5.323l-5.681-1.544-1.473-.421a2.409,2.409,0,0,1-.493-.171,2.684,2.684,0,0,1,.515.091l1.492.346,5.717,1.4c4.957,1.244,12.145,2.982,21.041,5.076,17.787,4.212,42.451,9.635,69.72,15.541s51.91,11.416,69.669,15.77c8.883,2.163,16.054,3.986,20.989,5.323,2.429.66,4.335,1.178,5.682,1.545l1.471.421a2.478,2.478,0,0,1,.495.169" transform="translate(27.906 59.517)" fill="#fafafa"/>
        <path id="Path_13746" data-name="Path 13746" d="M410.578,111.32s-.145-.467-.388-1.39q-.365-1.415-1.059-4.1c-.92-3.629-2.267-8.945-4-15.786-3.445-13.736-8.421-33.577-14.57-58.092q-1.15-4.6-2.354-9.415-.6-2.409-1.217-4.867c-.2-.822-.4-1.648-.664-2.444a16.363,16.363,0,0,0-.877-2.379A20.546,20.546,0,0,0,363.653.893c-1.822.317-3.674.825-5.537,1.282L346.762,5.006l-23.7,5.909L217.513,37.186,111.926,63.4q-12.171,3.017-23.715,5.877L82.488,70.7a31.731,31.731,0,0,0-5.494,1.67,19.169,19.169,0,0,0-4.789,2.9,19.694,19.694,0,0,0-3.771,4.021,20.9,20.9,0,0,0-2.545,4.789,21.361,21.361,0,0,0-1.172,5.2c-.424,3.542.553,6.95,1.247,10.33q2.17,10.123,4.16,19.406c5.28,24.718,9.55,44.721,12.506,58.57,1.458,6.9,2.59,12.27,3.361,15.932q.56,2.715.854,4.148c.188.935.265,1.418.265,1.418s-.13-.472-.343-1.4q-.321-1.426-.932-4.131c-.8-3.655-1.987-9.01-3.507-15.9-3.014-13.834-7.369-33.819-12.752-58.513q-2.012-9.267-4.209-19.393c-.7-3.338-1.713-6.863-1.282-10.522a21.892,21.892,0,0,1,1.2-5.367,21.476,21.476,0,0,1,2.613-4.947,20.346,20.346,0,0,1,3.886-4.158,19.823,19.823,0,0,1,4.946-3.008,32.447,32.447,0,0,1,5.6-1.713l5.72-1.428,23.7-5.909L217.321,36.414,322.883,10.2l23.709-5.877,11.36-2.813c1.868-.454,3.694-.956,5.6-1.283A21.1,21.1,0,0,1,386.008,12.6a17.048,17.048,0,0,1,.9,2.451c.268.829.467,1.654.666,2.474q.61,2.461,1.205,4.869,1.189,4.818,2.328,9.422c6.045,24.541,10.939,44.4,14.326,58.153,1.671,6.857,2.971,12.186,3.856,15.822.43,1.8.757,3.173.984,4.119.217.93.308,1.411.308,1.411" transform="translate(28.595 0)" fill="#e0e0e0"/>
        <line id="Line_28" data-name="Line 28" x2="584.54" transform="translate(0 565.033)" fill="#263238"/>
        <path id="Path_13747" data-name="Path 13747" d="M584.54,390.631c0,.22-130.865.4-292.256.4-161.449,0-292.285-.178-292.285-.4s130.836-.4,292.285-.4c161.391,0,292.256.178,292.256.4" transform="translate(0 174.402)" fill="#263238"/>
        <path id="Path_13748" data-name="Path 13748" d="M210.687,26.15l-14.3,10.894.7,20.807-13.1-10.4-7.232,6.194L149.255,19.7Z" transform="translate(66.705 8.806)" fill="#17a0ed"/>
        <path id="Path_13749" data-name="Path 13749" d="M180.282,34.75c.022.637,6.074,16.376,6.074,16.376l-13.1-10.4Z" transform="translate(77.43 15.53)" fill="#17a0ed"/>
        <g id="Group_3496" data-name="Group 3496" transform="translate(250.684 50.28)" opacity="0.3">
          <g id="Group_3495" data-name="Group 3495">
            <g id="Group_3494" data-name="Group 3494" clip-path="url(#clip-path-3)">
              <path id="Path_13750" data-name="Path 13750" d="M180.282,34.75c.022.637,6.074,16.376,6.074,16.376l-13.1-10.4Z" transform="translate(-173.254 -34.75)"/>
            </g>
          </g>
        </g>
        <path id="Path_13751" data-name="Path 13751" d="M149.255,19.7l41.752,21.772,6.074,16.376-.7-20.808Z" transform="translate(66.705 8.806)" fill="#17a0ed"/>
        <g id="Group_3499" data-name="Group 3499" transform="translate(215.96 28.51)" opacity="0.1">
          <g id="Group_3498" data-name="Group 3498">
            <g id="Group_3497" data-name="Group 3497" clip-path="url(#clip-path-4)">
              <path id="Path_13752" data-name="Path 13752" d="M149.255,19.7l41.752,21.772,6.074,16.376-.7-20.808Z" transform="translate(-149.255 -19.704)"/>
            </g>
          </g>
        </g>
        <path id="Path_13753" data-name="Path 13753" d="M231.544,214.306c-.052.213-1.755-.019-3.8-.519s-3.665-1.079-3.613-1.294,1.754.02,3.8.521,3.665,1.079,3.613,1.292" transform="translate(100.166 94.932)" fill="#263238"/>
        <path id="Path_13754" data-name="Path 13754" d="M238.8,216.094c-.052.213-1.085.145-2.306-.155s-2.17-.713-2.118-.926,1.085-.145,2.308.153,2.169.715,2.117.927" transform="translate(104.747 96.038)" fill="#263238"/>
        <path id="Path_13755" data-name="Path 13755" d="M205.976,44.752c-.065.213-1.741-.114-3.781-.586s-3.688-.919-3.652-1.139,1.762-.117,3.831.365,3.665,1.153,3.6,1.36" transform="translate(88.732 19.182)" fill="#263238"/>
        <path id="Path_13756" data-name="Path 13756" d="M215.464,49.407c-.113.192-1.665-.519-3.538-1.456s-3.37-1.757-3.284-1.962,1.741.3,3.64,1.252,3.293,1.981,3.182,2.166" transform="translate(93.244 20.534)" fill="#263238"/>
        <path id="Path_13757" data-name="Path 13757" d="M223.536,56.249c-.158.158-1.482-.922-3.069-2.288s-2.846-2.523-2.713-2.7,1.622.709,3.232,2.1,2.7,2.738,2.549,2.889" transform="translate(97.314 22.899)" fill="#263238"/>
        <path id="Path_13758" data-name="Path 13758" d="M229.449,65.021c-.2.107-1.162-1.3-2.315-3.043s-2.059-3.189-1.884-3.326,1.378,1.111,2.548,2.889,1.84,3.379,1.651,3.48" transform="translate(100.658 26.208)" fill="#263238"/>
        <path id="Path_13759" data-name="Path 13759" d="M232.437,75.184c-.22.042-.712-1.59-1.283-3.6s-1-3.659-.8-3.739.984,1.473,1.561,3.523.731,3.778.518,3.817" transform="translate(102.927 30.319)" fill="#263238"/>
        <path id="Path_13760" data-name="Path 13760" d="M232.373,85.774c-.221-.025-.207-1.731-.161-3.818s.122-3.794.344-3.808.5,1.7.451,3.827-.421,3.824-.635,3.8" transform="translate(103.767 34.925)" fill="#263238"/>
        <path id="Path_13761" data-name="Path 13761" d="M229.594,95.779c-.2-.1.37-1.7,1.074-3.667s1.3-3.564,1.515-3.507-.042,1.771-.767,3.776-1.628,3.491-1.822,3.4" transform="translate(102.591 39.599)" fill="#263238"/>
        <path id="Path_13762" data-name="Path 13762" d="M223.483,103.874c-.153-.165.978-1.438,2.347-3.011s2.479-2.862,2.664-2.735-.657,1.651-2.065,3.258-2.8,2.646-2.946,2.487" transform="translate(99.872 43.852)" fill="#263238"/>
        <path id="Path_13763" data-name="Path 13763" d="M214.655,108.884c-.085-.208,1.424-1,3.271-1.969s3.361-1.754,3.486-1.567-1.226,1.285-3.115,2.272-3.565,1.464-3.642,1.265" transform="translate(95.932 47.069)" fill="#263238"/>
        <path id="Path_13764" data-name="Path 13764" d="M204.391,110.3c0-.224,1.69-.415,3.759-.668s3.762-.459,3.813-.24-1.6.776-3.717,1.029-3.855.1-3.855-.12" transform="translate(91.346 48.847)" fill="#263238"/>
        <path id="Path_13765" data-name="Path 13765" d="M194.1,108.056c.091-.2,1.706.331,3.7.932s3.633,1.061,3.594,1.283-1.777.1-3.826-.522-3.561-1.5-3.47-1.693" transform="translate(86.744 48.273)" fill="#263238"/>
        <path id="Path_13766" data-name="Path 13766" d="M186.812,100.8c.216-.067.878,1.479,2.071,3.157,1.173,1.691,2.325,2.943,2.167,3.112-.135.156-1.579-.872-2.82-2.658-1.262-1.781-1.628-3.562-1.418-3.611" transform="translate(83.465 45.049)" fill="#263238"/>
        <path id="Path_13767" data-name="Path 13767" d="M193.082,92.632c.062.233-1.574.731-3.216,1.916-1.661,1.166-2.532,2.626-2.739,2.516-.2-.059.434-1.859,2.275-3.162,1.819-1.3,3.658-1.466,3.681-1.27" transform="translate(83.615 41.368)" fill="#263238"/>
        <path id="Path_13768" data-name="Path 13768" d="M202,97.922c-.2.113-1.126-1.315-2.629-2.7-1.479-1.385-3.041-2.079-2.953-2.3.046-.2,1.855.2,3.5,1.715,1.619,1.5,2.276,3.2,2.086,3.28" transform="translate(87.781 41.51)" fill="#263238"/>
        <path id="Path_13769" data-name="Path 13769" d="M200.63,108.877c-.211-.093.326-1.7.7-3.729s.486-3.719.713-3.727c.21-.017.479,1.745.067,3.876s-1.3,3.672-1.485,3.58" transform="translate(89.644 45.327)" fill="#263238"/>
        <path id="Path_13770" data-name="Path 13770" d="M193.77,115.968c-.127-.185,1.185-1.273,2.764-2.629s2.827-2.5,3-2.356-.848,1.57-2.479,2.959-3.164,2.2-3.282,2.026" transform="translate(86.595 49.595)" fill="#263238"/>
        <path id="Path_13771" data-name="Path 13771" d="M184.415,120.276c-.087-.2,1.391-1.075,3.3-1.952s3.539-1.428,3.639-1.231-1.38,1.069-3.3,1.952-3.552,1.432-3.639,1.231" transform="translate(82.417 52.313)" fill="#263238"/>
        <path id="Path_13772" data-name="Path 13772" d="M175.018,125.232c-.123-.182,1.257-1.217,3.082-2.309,1.838-1.066,3.481-1.626,3.565-1.448.107.218-1.366,1.091-3.175,2.141-1.794,1.075-3.35,1.8-3.473,1.616" transform="translate(78.215 54.274)" fill="#263238"/>
        <path id="Path_13773" data-name="Path 13773" d="M167.053,132.6c-.162-.143.842-1.554,2.358-3.043s2.946-2.47,3.085-2.3-1.036,1.4-2.528,2.872-2.749,2.623-2.916,2.476" transform="translate(74.651 56.861)" fill="#263238"/>
        <path id="Path_13774" data-name="Path 13774" d="M161.019,141.573c-.192-.1.449-1.709,1.563-3.517s2.257-3.111,2.432-2.984-.66,1.615-1.755,3.4-2.043,3.2-2.24,3.1" transform="translate(71.947 60.362)" fill="#263238"/>
        <path id="Path_13775" data-name="Path 13775" d="M157.186,151.606c-.21-.052.035-1.767.695-3.787s1.467-3.551,1.667-3.47-.265,1.725-.91,3.716-1.236,3.594-1.451,3.541" transform="translate(70.216 64.511)" fill="#263238"/>
        <path id="Path_13776" data-name="Path 13776" d="M155.885,162.146c-.216,0-.407-1.72-.259-3.839s.564-3.8.778-3.766.156,1.735.016,3.821-.313,3.782-.535,3.784" transform="translate(69.529 69.067)" fill="#263238"/>
        <path id="Path_13777" data-name="Path 13777" d="M157.673,172.542c-.211.061-.75-1.574-1.2-3.652-.5-2.071-.527-3.805-.313-3.831s.6,1.638,1.091,3.674c.446,2.043.634,3.749.422,3.81" transform="translate(69.733 73.767)" fill="#263238"/>
        <path id="Path_13778" data-name="Path 13778" d="M162.3,182.046c-.187.11-1.215-1.283-2.16-3.186s-1.437-3.565-1.236-3.646,1.013,1.419,1.948,3.292,1.641,3.428,1.448,3.541" transform="translate(70.998 78.305)" fill="#263238"/>
        <path id="Path_13779" data-name="Path 13779" d="M169.091,190.16c-.156.152-1.485-.959-2.858-2.58s-2.254-3.112-2.079-3.241,1.33,1.131,2.685,2.727,2.409,2.939,2.251,3.094" transform="translate(73.353 82.38)" fill="#263238"/>
        <path id="Path_13780" data-name="Path 13780" d="M177.583,196.459c-.114.184-1.668-.582-3.383-1.838s-2.918-2.5-2.778-2.664,1.555.789,3.247,2.021,3.033,2.292,2.914,2.48" transform="translate(76.607 85.781)" fill="#263238"/>
        <path id="Path_13781" data-name="Path 13781" d="M187.361,200.5c-.065.207-1.762-.145-3.733-.942s-3.441-1.715-3.345-1.909,1.7.391,3.642,1.171,3.5,1.467,3.436,1.68" transform="translate(80.569 88.314)" fill="#263238"/>
        <path id="Path_13782" data-name="Path 13782" d="M190.558,201.075c-.039.216-.132.381-.205.366s-.1-.2-.064-.415.13-.381.205-.366.1.2.064.415" transform="translate(85.035 89.678)" fill="#263238"/>
        <rect id="Rectangle_3137" data-name="Rectangle 3137" width="10.358" height="16.649" transform="translate(245.437 257.531) rotate(-71.815)" fill="#17a0ed"/>
        <g id="Group_3502" data-name="Group 3502" transform="translate(245.438 247.691)" opacity="0.3">
          <g id="Group_3501" data-name="Group 3501">
            <g id="Group_3500" data-name="Group 3500" clip-path="url(#clip-path-5)">
              <rect id="Rectangle_3138" data-name="Rectangle 3138" width="10.358" height="16.649" transform="translate(-0.001 9.84) rotate(-71.815)"/>
            </g>
          </g>
        </g>
        <path id="Path_13783" data-name="Path 13783" d="M187.683,176.382c.072.2-3.995,1.871-9.172,3.769l-.273.1-.178-.234c-.085-.11-.175-.227-.265-.347-3.449-4.553-6.106-8.352-5.931-8.485s3.114,3.451,6.565,8.006l.262.347-.45-.133c5.183-1.882,9.367-3.225,9.443-3.024" transform="translate(76.805 76.504)" fill="#17a0ed"/>
        <g id="Group_3505" data-name="Group 3505" transform="translate(248.662 247.686)" opacity="0.1">
          <g id="Group_3504" data-name="Group 3504">
            <g id="Group_3503" data-name="Group 3503" clip-path="url(#clip-path-6)">
              <path id="Path_13784" data-name="Path 13784" d="M187.683,176.382c.072.2-3.995,1.871-9.172,3.769l-.273.1-.178-.234c-.085-.11-.175-.227-.265-.347-3.449-4.553-6.106-8.352-5.931-8.485s3.114,3.451,6.565,8.006l.262.347-.45-.133c5.183-1.882,9.367-3.225,9.443-3.024" transform="translate(-171.856 -171.182)"/>
            </g>
          </g>
        </g>
        <path id="Path_13785" data-name="Path 13785" d="M177.431,175.363c.1.2-1.573,1.21-3.726,2.262s-3.98,1.745-4.076,1.547,1.571-1.21,3.727-2.262,3.978-1.744,4.075-1.547" transform="translate(75.809 78.358)" fill="#17a0ed"/>
        <g id="Group_3508" data-name="Group 3508" transform="translate(245.433 253.688)" opacity="0.1">
          <g id="Group_3507" data-name="Group 3507">
            <g id="Group_3506" data-name="Group 3506" clip-path="url(#clip-path-7)">
              <path id="Path_13786" data-name="Path 13786" d="M177.431,175.363c.1.2-1.573,1.21-3.726,2.262s-3.98,1.745-4.076,1.547,1.571-1.21,3.727-2.262,3.978-1.744,4.075-1.547" transform="translate(-169.625 -175.33)"/>
            </g>
          </g>
        </g>
        <path id="Path_13787" data-name="Path 13787" d="M181.809,184c-.2.087-1.092-1.561-2.027-3.665-.961-2.157-1.595-4-1.3-3.982.218.014,1.108,1.554,2.027,3.665s1.5,3.894,1.3,3.982" transform="translate(79.734 78.817)" fill="#17a0ed"/>
        <g id="Group_3511" data-name="Group 3511" transform="translate(258.145 255.174)" opacity="0.1">
          <g id="Group_3510" data-name="Group 3510">
            <g id="Group_3509" data-name="Group 3509" clip-path="url(#clip-path-8)">
              <path id="Path_13788" data-name="Path 13788" d="M181.809,184c-.2.087-1.092-1.561-2.027-3.665-.961-2.157-1.595-4-1.3-3.982.218.014,1.108,1.554,2.027,3.665s1.5,3.894,1.3,3.982" transform="translate(-178.41 -176.357)"/>
            </g>
          </g>
        </g>
        <rect id="Rectangle_3143" data-name="Rectangle 3143" width="26.646" height="42.832" transform="matrix(0.312, -0.95, 0.95, 0.312, 279.997, 303.402)" fill="#17a0ed"/>
        <path id="Path_13789" data-name="Path 13789" d="M239.954,205.559a9.814,9.814,0,0,1-1.814.823l-5.066,1.981c-4.294,1.644-10.264,3.871-16.928,6.307l-.276.1-.177-.234-.677-.893c-4.439-5.859-8.421-11.189-11.273-15.071-1.341-1.854-2.463-3.4-3.342-4.621a10.583,10.583,0,0,1-1.14-1.761,10.634,10.634,0,0,1,1.386,1.574l3.545,4.47c2.966,3.8,7.019,9.071,11.458,14.929.231.305.462.611.676.894l-.451-.133c6.666-2.428,12.666-4.571,17.011-6.08l5.15-1.746a9.842,9.842,0,0,1,1.919-.54" transform="translate(89.052 85.893)" fill="#17a0ed"/>
        <g id="Group_3514" data-name="Group 3514" transform="translate(288.31 278.085)" opacity="0.2">
          <g id="Group_3513" data-name="Group 3513">
            <g id="Group_3512" data-name="Group 3512" clip-path="url(#clip-path-9)">
              <path id="Path_13790" data-name="Path 13790" d="M239.954,205.559a9.814,9.814,0,0,1-1.814.823l-5.066,1.981c-4.294,1.644-10.264,3.871-16.928,6.307l-.276.1-.177-.234-.677-.893c-4.439-5.859-8.421-11.189-11.273-15.071-1.341-1.854-2.463-3.4-3.342-4.621a10.583,10.583,0,0,1-1.14-1.761,10.634,10.634,0,0,1,1.386,1.574l3.545,4.47c2.966,3.8,7.019,9.071,11.458,14.929.231.305.462.611.676.894l-.451-.133c6.666-2.428,12.666-4.571,17.011-6.08l5.15-1.746a9.842,9.842,0,0,1,1.919-.54" transform="translate(-199.258 -192.191)"/>
            </g>
          </g>
        </g>
        <path id="Path_13791" data-name="Path 13791" d="M213.585,202.92c.1.2-4.319,2.551-9.861,5.257s-10.115,4.74-10.211,4.542,4.318-2.549,9.862-5.257,10.113-4.739,10.209-4.542" transform="translate(86.484 90.683)" fill="#17a0ed"/>
        <g id="Group_3517" data-name="Group 3517" transform="translate(279.996 293.588)" opacity="0.2">
          <g id="Group_3516" data-name="Group 3516">
            <g id="Group_3515" data-name="Group 3515" clip-path="url(#clip-path-10)">
              <path id="Path_13792" data-name="Path 13792" d="M213.585,202.92c.1.2-4.319,2.551-9.861,5.257s-10.115,4.74-10.211,4.542,4.318-2.549,9.862-5.257,10.113-4.739,10.209-4.542" transform="translate(-193.512 -202.906)"/>
            </g>
          </g>
        </g>
        <path id="Path_13793" data-name="Path 13793" d="M224.8,225.171c-.2.088-2.28-4.245-4.643-9.677s-4.116-9.907-3.915-9.994,2.28,4.244,4.645,9.677,4.115,9.907,3.914,9.994" transform="translate(96.634 91.841)" fill="#17a0ed"/>
        <g id="Group_3520" data-name="Group 3520" transform="translate(312.858 297.339)" opacity="0.2">
          <g id="Group_3519" data-name="Group 3519">
            <g id="Group_3518" data-name="Group 3518" clip-path="url(#clip-path-11)">
              <path id="Path_13794" data-name="Path 13794" d="M224.8,225.171c-.2.088-2.28-4.245-4.643-9.677s-4.116-9.907-3.915-9.994,2.28,4.244,4.645,9.677,4.115,9.907,3.914,9.994" transform="translate(-216.224 -205.498)"/>
            </g>
          </g>
        </g>
        <path id="Path_13795" data-name="Path 13795" d="M203.935,200.036a6.357,6.357,0,1,1,1.359-8.887,6.356,6.356,0,0,1-1.359,8.887" transform="translate(86.619 84.269)" fill="#263238"/>
        <path id="Path_13796" data-name="Path 13796" d="M203.241,192.242a29.374,29.374,0,0,1-4.267,2.642l-1.022.567-.182.1-.1-.179a20.4,20.4,0,0,1-1.744-3.436,20.419,20.419,0,0,1,2.107,3.227l-.284-.078,1.014-.576a29.357,29.357,0,0,1,4.478-2.267" transform="translate(87.559 85.779)" fill="#fff"/>
        <rect id="Rectangle_3147" data-name="Rectangle 3147" width="13.96" height="22.44" transform="translate(277.194 263.581) rotate(-71.815)" fill="#17a0ed"/>
        <g id="Group_3523" data-name="Group 3523" transform="translate(277.195 250.318)" opacity="0.2">
          <g id="Group_3522" data-name="Group 3522">
            <g id="Group_3521" data-name="Group 3521" clip-path="url(#clip-path-12)">
              <rect id="Rectangle_3148" data-name="Rectangle 3148" width="13.96" height="22.44" transform="translate(0 13.262) rotate(-71.815)"/>
            </g>
          </g>
        </g>
        <path id="Path_13797" data-name="Path 13797" d="M215.906,180a5.16,5.16,0,0,1-.951.431c-.7.273-1.589.622-2.654,1.037-2.25.861-5.378,2.029-8.868,3.3l-.145.054-.093-.123-.354-.469c-2.327-3.069-4.413-5.861-5.906-7.894-.7-.972-1.291-1.784-1.751-2.422a5.549,5.549,0,0,1-.6-.922,5.466,5.466,0,0,1,.726.825l1.856,2.341c1.554,1.988,3.678,4.752,6,7.821.122.161.242.321.354.469l-.237-.069c3.493-1.272,6.637-2.395,8.913-3.185l2.7-.916a5.167,5.167,0,0,1,1.006-.282" transform="translate(86.964 77.317)" fill="#17a0ed"/>
        <g id="Group_3526" data-name="Group 3526" transform="translate(281.55 250.317)" opacity="0.2">
          <g id="Group_3525" data-name="Group 3525">
            <g id="Group_3524" data-name="Group 3524" clip-path="url(#clip-path-13)">
              <path id="Path_13798" data-name="Path 13798" d="M215.906,180a5.16,5.16,0,0,1-.951.431c-.7.273-1.589.622-2.654,1.037-2.25.861-5.378,2.029-8.868,3.3l-.145.054-.093-.123-.354-.469c-2.327-3.069-4.413-5.861-5.906-7.894-.7-.972-1.291-1.784-1.751-2.422a5.549,5.549,0,0,1-.6-.922,5.466,5.466,0,0,1,.726.825l1.856,2.341c1.554,1.988,3.678,4.752,6,7.821.122.161.242.321.354.469l-.237-.069c3.493-1.272,6.637-2.395,8.913-3.185l2.7-.916a5.167,5.167,0,0,1,1.006-.282" transform="translate(-194.586 -173)" fill="#17a0ed"/>
            </g>
          </g>
        </g>
        <path id="Path_13799" data-name="Path 13799" d="M202.091,178.621a41.065,41.065,0,0,1-5.166,2.753,41.2,41.2,0,0,1-5.351,2.38A41.464,41.464,0,0,1,196.742,181a41.364,41.364,0,0,1,5.349-2.38" transform="translate(85.618 79.826)" fill="#17a0ed"/>
        <g id="Group_3529" data-name="Group 3529" transform="translate(277.193 258.44)" opacity="0.2">
          <g id="Group_3528" data-name="Group 3528">
            <g id="Group_3527" data-name="Group 3527" clip-path="url(#clip-path-14)">
              <path id="Path_13800" data-name="Path 13800" d="M202.091,178.621a41.065,41.065,0,0,1-5.166,2.753,41.2,41.2,0,0,1-5.351,2.38A41.464,41.464,0,0,1,196.742,181a41.364,41.364,0,0,1,5.349-2.38" transform="translate(-191.575 -178.614)" fill="#17a0ed"/>
            </g>
          </g>
        </g>
        <path id="Path_13801" data-name="Path 13801" d="M207.966,190.279a37.921,37.921,0,0,1-2.432-5.07,38.058,38.058,0,0,1-2.052-5.236,38.131,38.131,0,0,1,2.434,5.07,38.149,38.149,0,0,1,2.05,5.236" transform="translate(90.936 80.432)" fill="#17a0ed"/>
        <g id="Group_3532" data-name="Group 3532" transform="translate(294.41 260.405)" opacity="0.2">
          <g id="Group_3531" data-name="Group 3531">
            <g id="Group_3530" data-name="Group 3530" clip-path="url(#clip-path-15)">
              <path id="Path_13802" data-name="Path 13802" d="M207.966,190.279a37.921,37.921,0,0,1-2.432-5.07,38.058,38.058,0,0,1-2.052-5.236,38.131,38.131,0,0,1,2.434,5.07,38.149,38.149,0,0,1,2.05,5.236" transform="translate(-203.474 -179.972)" fill="#17a0ed"/>
            </g>
          </g>
        </g>
        <path id="Path_13803" data-name="Path 13803" d="M109.362,74.7A30.219,30.219,0,1,1,87.5,37.979,30.219,30.219,0,0,1,109.362,74.7" transform="translate(22.277 16.555)" fill="#263238"/>
        <path id="Path_13804" data-name="Path 13804" d="M87.059,46.616c.527.205-2.911,10.321-7.679,22.591l-2.034,5.163-.365.923-.912-.352c-9.8-3.782-16.952-6.89-16.784-7.342s7.605,1.9,17.482,5.477l-1.276.572q.959-2.509,1.982-5.181c4.768-12.27,9.059-22.054,9.586-21.85" transform="translate(26.495 20.832)" fill="#fff"/>
        <path id="Path_13805" data-name="Path 13805" d="M349.616,359.39c5.286-2.727,11.51-3.082,17.379-2.113,3.153.522,6.44,1.466,8.585,3.833s2.552,6.536.088,8.572c-1.466,1.211-3.51,1.395-5.411,1.373-4.6-.054-9.693-.862-13.362,1.9-2.094,1.577-3.488,4.2-5.992,4.974-2.45.758-5.213-.687-6.513-2.9a10.121,10.121,0,0,1-.737-7.465,11.4,11.4,0,0,1,5.963-8.178" transform="translate(153.417 159.455)" fill="#17a0ed"/>
        <g id="Group_3535" data-name="Group 3535" transform="translate(496.694 516.242)" opacity="0.2">
          <g id="Group_3534" data-name="Group 3534">
            <g id="Group_3533" data-name="Group 3533" clip-path="url(#clip-path-16)">
              <path id="Path_13806" data-name="Path 13806" d="M349.616,359.39c5.286-2.727,11.51-3.082,17.379-2.113,3.153.522,6.44,1.466,8.585,3.833s2.552,6.536.088,8.572c-1.466,1.211-3.51,1.395-5.411,1.373-4.6-.054-9.693-.862-13.362,1.9-2.094,1.577-3.488,4.2-5.992,4.974-2.45.758-5.213-.687-6.513-2.9a10.121,10.121,0,0,1-.737-7.465,11.4,11.4,0,0,1,5.963-8.178" transform="translate(-343.277 -356.787)" fill="#fff"/>
            </g>
          </g>
        </g>
        <path id="Path_13807" data-name="Path 13807" d="M340.231,357.237c3.232,4.617,9.515,3.088,12.428.271s4.144-6.9,5.264-10.8c2.561-8.9,5.142-18.234,3.238-27.295a15.156,15.156,0,0,0-3.486-7.421,7.926,7.926,0,0,0-7.508-2.5c-3.167.838-5.135,3.94-6.558,6.892a65.041,65.041,0,0,0-6.43,27.921c-.016,4.5.514,9.215,3.052,12.928" transform="translate(150.691 138.228)" fill="#17a0ed"/>
        <path id="Path_13808" data-name="Path 13808" d="M344.651,359.273c3.509-4.166,4.176-10.24,2.613-15.459s-5.089-9.657-9.155-13.28a49.292,49.292,0,0,0-16.395-9.674,17.485,17.485,0,0,0-7.374-1.253,7.74,7.74,0,0,0-6.188,3.745c-1.725,3.29-.071,7.282,1.719,10.538a124.811,124.811,0,0,0,10.768,16.4c3.228,4.161,6.925,8.266,11.844,10.147s10.029,1.658,12.636-1.752" transform="translate(137.394 142.816)" fill="#17a0ed"/>
        <g id="Group_3538" data-name="Group 3538" transform="translate(444.82 462.375)" opacity="0.1">
          <g id="Group_3537" data-name="Group 3537">
            <g id="Group_3536" data-name="Group 3536" clip-path="url(#clip-path-17)">
              <path id="Path_13809" data-name="Path 13809" d="M344.651,359.273c3.509-4.166,4.176-10.24,2.613-15.459s-5.089-9.657-9.155-13.28a49.292,49.292,0,0,0-16.395-9.674,17.485,17.485,0,0,0-7.374-1.253,7.74,7.74,0,0,0-6.188,3.745c-1.725,3.29-.071,7.282,1.719,10.538a124.811,124.811,0,0,0,10.768,16.4c3.228,4.161,6.925,8.266,11.844,10.147s10.029,1.658,12.636-1.752" transform="translate(-307.426 -319.558)"/>
            </g>
          </g>
        </g>
        <path id="Path_13810" data-name="Path 13810" d="M339.155,403.67a10,10,0,0,0,.292-2.1c.149-1.526.336-3.444.557-5.724a83.209,83.209,0,0,1,1.288-8.4,64.832,64.832,0,0,1,3.053-9.911,36.537,36.537,0,0,1,5.06-8.967,18.919,18.919,0,0,1,6.4-5.32,17.945,17.945,0,0,1,5.388-1.677,10.124,10.124,0,0,0,2.089-.3,9.892,9.892,0,0,0-2.126-.033,16.33,16.33,0,0,0-5.618,1.463,18.856,18.856,0,0,0-6.75,5.365,35.661,35.661,0,0,0-5.245,9.147,60.678,60.678,0,0,0-3.031,10.073,70.849,70.849,0,0,0-1.116,8.5c-.182,2.431-.25,4.4-.284,5.76a9.841,9.841,0,0,0,.043,2.118" transform="translate(151.548 161.435)" fill="#263238"/>
        <path id="Path_13811" data-name="Path 13811" d="M339.549,416.742a4.163,4.163,0,0,0,.056-.974c0-.731,0-1.652-.007-2.784-.007-2.415-.006-5.911.123-10.227.214-8.634.958-20.552,2.393-33.651s3.363-24.89,5.111-33.346c.412-2.12.829-4.028,1.22-5.7.373-1.674.693-3.117,1-4.286.263-1.1.479-1.994.65-2.7a4.208,4.208,0,0,0,.171-.961,4.045,4.045,0,0,0-.339.913l-.809,2.667c-.357,1.158-.725,2.591-1.145,4.258-.437,1.663-.9,3.567-1.349,5.682a315.936,315.936,0,0,0-5.372,33.379c-1.438,13.128-2.086,25.079-2.144,33.735-.051,4.328.042,7.831.152,10.247.069,1.132.126,2.052.169,2.782a4.1,4.1,0,0,0,.119.967" transform="translate(151.548 143.958)" fill="#263238"/>
        <path id="Path_13812" data-name="Path 13812" d="M348.974,391.512a18.7,18.7,0,0,0-.02-2.907c-.107-1.869-.365-4.569-.891-7.878A103.786,103.786,0,0,0,345.5,369.25a101.7,101.7,0,0,0-4.8-13.582,72.367,72.367,0,0,0-14.1-21.947,35.748,35.748,0,0,0-3.315-3.082c-.509-.43-.959-.859-1.417-1.2l-1.286-.886a18.544,18.544,0,0,0-2.448-1.567c-.139.188,3.468,2.311,8.023,7.158a76.2,76.2,0,0,1,13.743,21.867,108.112,108.112,0,0,1,4.827,13.456,116.58,116.58,0,0,1,2.726,11.364c.6,3.274.949,5.948,1.159,7.8a18.7,18.7,0,0,0,.356,2.881" transform="translate(142.181 146.135)" fill="#263238"/>
        <path id="Path_13813" data-name="Path 13813" d="M187.36,260.457h60.572l24-67.03h-3.363l-23.789,63.758-57.418.326Z" transform="translate(83.735 86.446)" fill="#455a64"/>
        <path id="Path_13814" data-name="Path 13814" d="M168.853,246.08,171.1,456.009h6.158l-2.5-211.482Z" transform="translate(75.463 109.284)" fill="#263238"/>
        <path id="Path_13815" data-name="Path 13815" d="M258.5,244.19c-.831,4.008,5.555,212.458,5.555,212.458h5.817L265.164,244.19Z" transform="translate(115.494 109.133)" fill="#263238"/>
        <path id="Path_13816" data-name="Path 13816" d="M386.991,239.753h-257.6v10.612h21.257l-13.828,207.1,6.05.328,13.847-207.43H365.315l10.11,207.518h6.065L371.38,250.364h15.611Z" transform="translate(57.829 107.15)" fill="#263238"/>
        <path id="Path_13817" data-name="Path 13817" d="M216.247,390.245l.061-15.918-29.815-.3-.334,23.287,1.846.137c8.223.54,41.846,2.169,47.362.559,6.154-1.8-19.12-7.761-19.12-7.761" transform="translate(83.197 167.158)" fill="#17a0ed"/>
        <path id="Path_13818" data-name="Path 13818" d="M196.959,392.706a10.338,10.338,0,0,0-3.74-6.4,10.045,10.045,0,0,0-6.947-2.238l-.091,8.333Z" transform="translate(83.208 171.638)" fill="#f5f5f5"/>
        <path id="Path_13819" data-name="Path 13819" d="M228.591,387.554s8.852,2.652,7.729,4.1-35.162,1.082-50.163-.394l.055-.666,39.7.767s.94-3.756,2.677-3.811" transform="translate(83.197 173.205)" fill="#f5f5f5"/>
        <path id="Path_13820" data-name="Path 13820" d="M185.872,389.646a2.686,2.686,0,0,0,.512.061c.441.032.925.067,1.47.1l5.417.292c4.574.214,10.9.427,17.887.508s13.319.014,17.9-.094l5.42-.166c.547-.028,1.032-.049,1.474-.071a2.874,2.874,0,0,0,.512-.049,2.675,2.675,0,0,0-.515-.023l-1.474,0-5.422.051c-4.578.043-10.9.068-17.89-.012s-13.306-.253-17.881-.4l-5.42-.178-1.474-.036a2.708,2.708,0,0,0-.515.012" transform="translate(83.069 174.134)" fill="#263238"/>
        <path id="Path_13821" data-name="Path 13821" d="M213.64,391.941a7.88,7.88,0,0,1,2.91-4.63,4.815,4.815,0,0,0-2.91,4.63" transform="translate(95.458 173.092)" fill="#263238"/>
        <path id="Path_13822" data-name="Path 13822" d="M207.583,388.12c.084.055.509-.453.952-1.133s.734-1.278.65-1.331-.509.453-.952,1.134-.734,1.275-.65,1.33" transform="translate(92.766 172.355)" fill="#263238"/>
        <path id="Path_13823" data-name="Path 13823" d="M205.922,386.971c.067.075.54-.234,1.059-.69s.886-.886.819-.961-.54.233-1.058.69-.887.886-.82.961" transform="translate(92.027 172.201)" fill="#263238"/>
        <path id="Path_13824" data-name="Path 13824" d="M204.886,384.548a6.773,6.773,0,0,0,3.115.068,6.827,6.827,0,0,0-3.115-.068" transform="translate(91.567 171.795)" fill="#263238"/>
        <path id="Path_13825" data-name="Path 13825" d="M204.539,383.135a4.379,4.379,0,0,0,3.525.3,134.486,134.486,0,0,1-3.525-.3" transform="translate(91.412 171.217)" fill="#263238"/>
        <path id="Path_13826" data-name="Path 13826" d="M208.3,386.383a5.5,5.5,0,0,0,1.916.009,11.224,11.224,0,0,0,2.044-.428,5.646,5.646,0,0,0,1.173-.467,1.045,1.045,0,0,0,.48-.59.755.755,0,0,0-.282-.77,3.515,3.515,0,0,0-4.357.981,3.427,3.427,0,0,0-.638,1.272,1.062,1.062,0,0,0-.055.517,5.4,5.4,0,0,1,.89-1.625,3.455,3.455,0,0,1,1.648-1.045,2.969,2.969,0,0,1,2.282.179c.3.229.179.586-.161.783a5.648,5.648,0,0,1-1.082.449,13.212,13.212,0,0,1-1.978.492c-1.15.191-1.881.185-1.881.245" transform="translate(93.092 171.502)" fill="#263238"/>
        <path id="Path_13827" data-name="Path 13827" d="M209.4,386.789a1.9,1.9,0,0,0,.234-1.328,3.137,3.137,0,0,0-.508-1.4,1.92,1.92,0,0,0-1.584-.994.761.761,0,0,0-.6.878,2.077,2.077,0,0,0,.315.859,5.817,5.817,0,0,0,.893,1.169,2.755,2.755,0,0,0,1.088.787c.033-.046-.378-.347-.9-.959a6.733,6.733,0,0,1-.79-1.159c-.259-.408-.43-1.137.051-1.218.48-.041.965.441,1.253.826a3.16,3.16,0,0,1,.53,1.252,7.044,7.044,0,0,1,.017,1.292" transform="translate(92.482 171.196)" fill="#263238"/>
        <path id="Path_13828" data-name="Path 13828" d="M186.354,384.065c.006.068.855-.072,2.2.1a9.343,9.343,0,0,1,7.741,6.309c.441,1.283.476,2.143.544,2.134a1.731,1.731,0,0,0,.007-.6,7.887,7.887,0,0,0-.308-1.612,9.061,9.061,0,0,0-7.957-6.485,7.9,7.9,0,0,0-1.641.025,1.726,1.726,0,0,0-.587.129" transform="translate(83.285 171.563)" fill="#263238"/>
        <path id="Path_13829" data-name="Path 13829" d="M188.7,375.457a104.247,104.247,0,0,0-.288,12.251,104.285,104.285,0,0,0,.288-12.251" transform="translate(84.165 167.798)" fill="#263238"/>
        <path id="Path_13830" data-name="Path 13830" d="M196.245,388.061a24.485,24.485,0,0,0,8.712.177c-.009-.1-1.956-.007-4.357-.059s-4.342-.221-4.355-.117" transform="translate(87.705 173.417)" fill="#263238"/>
        <path id="Path_13831" data-name="Path 13831" d="M192.211,388.005c-.074.072.155.414.349.864s.3.845.4.841.159-.47-.069-.987-.615-.789-.68-.718" transform="translate(85.896 173.402)" fill="#263238"/>
        <path id="Path_13832" data-name="Path 13832" d="M190.71,386.1c-.072.069.117.382.422.7s.611.517.682.447-.117-.382-.423-.7-.609-.517-.681-.447" transform="translate(85.225 172.547)" fill="#263238"/>
        <path id="Path_13833" data-name="Path 13833" d="M188.537,385.253c.02.1.415.1.852.26s.749.4.828.328-.165-.48-.708-.668-1-.013-.972.08" transform="translate(84.26 172.103)" fill="#263238"/>
        <path id="Path_13834" data-name="Path 13834" d="M186.993,384.8c-.038.093.133.247.379.346s.476.1.514.012-.133-.247-.379-.347-.476-.1-.514-.01" transform="translate(83.568 171.943)" fill="#263238"/>
        <path id="Path_13835" data-name="Path 13835" d="M257.959,378.616l-6.494-14.533-27.3,11.991,9.275,21.361,1.741-.635c7.716-2.889,39.032-15.239,43.4-18.976,4.869-4.171-20.62.793-20.62.793" transform="translate(100.184 162.715)" fill="#17a0ed"/>
        <path id="Path_13836" data-name="Path 13836" d="M241.458,385.407a10.341,10.341,0,0,0-6.039-4.29,10.049,10.049,0,0,0-7.253.817l3.345,7.633Z" transform="translate(101.971 170.18)" fill="#f5f5f5"/>
        <path id="Path_13837" data-name="Path 13837" d="M267.794,372.857s9.159-1.226,8.734.558-31.6,15.455-45.883,20.281l-.223-.629,36.5-15.635s-.689-3.811.871-4.575" transform="translate(102.98 166.453)" fill="#f5f5f5"/>
        <path id="Path_13838" data-name="Path 13838" d="M230.12,393.081a2.768,2.768,0,0,0,.492-.155c.415-.153.87-.321,1.383-.509l5.057-1.963c4.258-1.687,10.11-4.1,16.512-6.9s12.145-5.468,16.274-7.45l4.873-2.382,1.314-.671a2.735,2.735,0,0,0,.447-.256,2.854,2.854,0,0,0-.479.191l-1.343.609-4.921,2.277c-4.156,1.923-9.91,4.548-16.31,7.35s-12.232,5.244-16.463,6.992l-5.014,2.068-1.359.573a2.709,2.709,0,0,0-.464.223" transform="translate(102.845 166.61)" fill="#263238"/>
        <path id="Path_13839" data-name="Path 13839" d="M255.933,377.861a7.885,7.885,0,0,1,.747-5.417,4.816,4.816,0,0,0-.747,5.417" transform="translate(114.148 166.45)" fill="#263238"/>
        <path id="Path_13840" data-name="Path 13840" d="M248.984,376.7a6.088,6.088,0,0,0,.446-2.905,6.087,6.087,0,0,0-.446,2.905" transform="translate(111.247 167.056)" fill="#263238"/>
        <path id="Path_13841" data-name="Path 13841" d="M247.091,376.37c.091.042.4-.436.682-1.063s.441-1.173.352-1.214-.4.435-.682,1.063-.443,1.172-.352,1.214" transform="translate(110.418 167.188)" fill="#263238"/>
        <path id="Path_13842" data-name="Path 13842" d="M245.337,374.691a3.514,3.514,0,0,0,1.5-.443c.791-.337,1.4-.684,1.363-.776a3.489,3.489,0,0,0-1.5.443c-.791.337-1.4.683-1.363.776" transform="translate(109.644 166.902)" fill="#263238"/>
        <path id="Path_13843" data-name="Path 13843" d="M244.453,373.565a4.378,4.378,0,0,0,3.338-1.173,137.418,137.418,0,0,1-3.338,1.173" transform="translate(109.25 166.422)" fill="#263238"/>
        <path id="Path_13844" data-name="Path 13844" d="M248.883,375.189a5.536,5.536,0,0,0,1.749-.78,11.278,11.278,0,0,0,1.689-1.231,5.557,5.557,0,0,0,.875-.91,1.031,1.031,0,0,0,.2-.735.753.753,0,0,0-.573-.585,3.512,3.512,0,0,0-3.567,2.685,3.419,3.419,0,0,0-.059,1.422c.061.331.142.5.162.493a5.443,5.443,0,0,1,.143-1.848,3.454,3.454,0,0,1,1.072-1.631,2.965,2.965,0,0,1,2.153-.774c.369.084.405.459.175.78a5.727,5.727,0,0,1-.8.854,13.105,13.105,0,0,1-1.6,1.262c-.969.648-1.638.943-1.613,1" transform="translate(111.23 165.78)" fill="#263238"/>
        <path id="Path_13845" data-name="Path 13845" d="M250.318,374.659a1.89,1.89,0,0,0-.331-1.307,3.14,3.14,0,0,0-1.042-1.072,1.924,1.924,0,0,0-1.853-.255.763.763,0,0,0-.185,1.048,2.1,2.1,0,0,0,.642.654,5.833,5.833,0,0,0,1.294.7,2.776,2.776,0,0,0,1.315.271c.013-.056-.488-.162-1.214-.5a6.641,6.641,0,0,1-1.2-.731c-.4-.265-.861-.859-.456-1.132a1.714,1.714,0,0,1,1.483.237,3.155,3.155,0,0,1,1,.923,6.9,6.9,0,0,1,.548,1.171" transform="translate(110.289 166.197)" fill="#263238"/>
        <path id="Path_13846" data-name="Path 13846" d="M228.241,381.97c.033.059.75-.417,2.047-.813a9.341,9.341,0,0,1,9.652,2.565c.929.987,1.315,1.757,1.373,1.722a1.727,1.727,0,0,0-.242-.551,7.845,7.845,0,0,0-.942-1.343,9.067,9.067,0,0,0-9.922-2.636,7.765,7.765,0,0,0-1.485.7,1.713,1.713,0,0,0-.483.359" transform="translate(102.005 170.006)" fill="#263238"/>
        <path id="Path_13847" data-name="Path 13847" d="M226.756,372.773a104.019,104.019,0,0,0,4.778,11.284,104.032,104.032,0,0,0-4.778-11.284" transform="translate(101.339 166.599)" fill="#263238"/>
        <path id="Path_13848" data-name="Path 13848" d="M238.92,382.158a24.434,24.434,0,0,0,8.013-3.423c-.051-.091-1.787.8-3.995,1.739s-4.05,1.584-4.018,1.684" transform="translate(106.777 169.261)" fill="#263238"/>
        <path id="Path_13849" data-name="Path 13849" d="M235.22,382.725c-.038.1.311.314.673.644s.621.648.712.6-.049-.493-.47-.87-.884-.466-.914-.375" transform="translate(105.123 171.032)" fill="#263238"/>
        <path id="Path_13850" data-name="Path 13850" d="M233.066,381.606c-.038.093.263.3.671.462s.77.22.806.127-.263-.3-.671-.463-.77-.218-.806-.126" transform="translate(104.16 170.527)" fill="#263238"/>
        <path id="Path_13851" data-name="Path 13851" d="M230.725,381.822c.059.084.421-.078.884-.113s.846.052.89-.041-.349-.37-.922-.32-.917.4-.852.473" transform="translate(103.112 170.429)" fill="#263238"/>
        <path id="Path_13852" data-name="Path 13852" d="M229.139,381.985c0,.1.223.171.488.159s.476-.1.472-.2-.221-.171-.488-.159-.476.1-.472.2" transform="translate(102.406 170.625)" fill="#263238"/>
        <path id="Path_13853" data-name="Path 13853" d="M67.18,352.693,45.651,191.8a6.792,6.792,0,0,1,7.3-7.667l51.889,4.383a9.829,9.829,0,0,1,8.968,8.981l12.636,152.327Z" transform="translate(20.375 82.283)" fill="#17a0ed"/>
        <g id="Group_3541" data-name="Group 3541" transform="translate(65.966 266.396)" opacity="0.2">
          <g id="Group_3540" data-name="Group 3540">
            <g id="Group_3539" data-name="Group 3539" clip-path="url(#clip-path-18)">
              <path id="Path_13854" data-name="Path 13854" d="M67.18,352.693,45.651,191.8a6.792,6.792,0,0,1,7.3-7.667l51.889,4.383a9.829,9.829,0,0,1,8.968,8.981l12.636,152.327Z" transform="translate(-45.591 -184.113)"/>
            </g>
          </g>
        </g>
        <path id="Path_13855" data-name="Path 13855" d="M96.2,153.447c-.434-6.125-2.043-12.1-2.933-18.176s-1.023-12.483,1.376-18.136c2.713-6.391,8.488-11.176,14.958-13.689s13.6-2.937,20.514-2.341a9.7,9.7,0,0,1,3.63.826,3.6,3.6,0,0,1,2.078,2.905,2.252,2.252,0,0,1-2.312,2.343,36.315,36.315,0,0,1,7.773,1.665,4.484,4.484,0,0,1,2.515,1.814,3.431,3.431,0,0,1-.347,3.412,10.091,10.091,0,0,1-2.607,2.455,2.4,2.4,0,0,1,2.814,1.9,4.614,4.614,0,0,1-.993,3.571c-.742,1.035-1.7,1.9-2.466,2.917-3.13,4.161-2.516,9.937-1.755,15.088" transform="translate(41.42 45.079)" fill="#263238"/>
        <path id="Path_13856" data-name="Path 13856" d="M95.709,185.169l29.241-.528c.391-3.386.958-16.544.958-16.544s12.224-1.136,13.119-13.231.512-40.019.512-40.019a42.147,42.147,0,0,0-42.6,2.706l-1.88,1.27Z" transform="translate(42.485 49.306)" fill="#b78876"/>
        <path id="Path_13857" data-name="Path 13857" d="M123.144,128.879a1.761,1.761,0,1,1,2.49.032,1.762,1.762,0,0,1-2.49-.032" transform="translate(54.812 56.262)" fill="#263238"/>
        <path id="Path_13858" data-name="Path 13858" d="M127.025,126.516c-.2.2-1.336-.79-3-.9-1.665-.135-2.93.676-3.1.451-.084-.1.127-.467.68-.836a4.117,4.117,0,0,1,4.87.359c.493.447.648.841.551.927" transform="translate(54.035 55.685)" fill="#263238"/>
        <path id="Path_13859" data-name="Path 13859" d="M112.656,126.209a1.761,1.761,0,1,1-2.454.427,1.761,1.761,0,0,1,2.454-.427" transform="translate(49.108 56.262)" fill="#263238"/>
        <path id="Path_13860" data-name="Path 13860" d="M114.448,126.759c-.2.2-1.336-.79-3-.9-1.665-.136-2.93.676-3.1.45-.085-.1.127-.467.68-.836a4.117,4.117,0,0,1,4.87.359c.493.447.648.841.551.927" transform="translate(48.414 55.794)" fill="#263238"/>
        <path id="Path_13861" data-name="Path 13861" d="M116.629,140.452a8.088,8.088,0,0,1,2.732-.405c.438-.02.787-.1.833-.33a2.39,2.39,0,0,0-.236-1.269c-.36-1.129-.726-2.272-1.11-3.468-1.522-4.938-2.554-9-2.3-9.081s1.689,3.862,3.212,8.8c.357,1.205.7,2.356,1.037,3.491a2.782,2.782,0,0,1,.127,1.827,1.145,1.145,0,0,1-.794.65,2.774,2.774,0,0,1-.751.051,8.052,8.052,0,0,1-2.748-.266" transform="translate(52.07 56.266)" fill="#263238"/>
        <path id="Path_13862" data-name="Path 13862" d="M112.856,137.063c-1.674-1.142,4.626,2.836,8.029,2.879a4.617,4.617,0,0,1-5.55,1.5c-3.541-1.55-2.479-4.378-2.479-4.378" transform="translate(50.313 61.164)" fill="#fff"/>
        <path id="Path_13863" data-name="Path 13863" d="M121.191,151.819a28.2,28.2,0,0,1-15.5-5.458s3.193,8.941,15.339,8.6Z" transform="translate(47.233 65.411)" fill="#a36957"/>
        <path id="Path_13864" data-name="Path 13864" d="M95.68,130.07l.632,15.7s5.5-1.674,5.874-1.835-.1-19.227-.1-19.227-.771-7.19,3.92-8.9c4.928-1.793,7.078,1.787,14.064,2.963,23.052,3.884,21.462-3.189,21.462-3.189s2.91-3.105-3.011-6.527c-6.115-3.532-20.727-4.568-28.834-1.778-15.955,5.492-16.871,10.939-16.871,15.758,0,6.74,2.868,7.031,2.868,7.031" transform="translate(41.479 47.232)" fill="#263238"/>
        <path id="Path_13865" data-name="Path 13865" d="M99.205,123.646c-.262-.1-8.98-1.233-8.156,9.062s10.947,6.058,10.942,5.762-2.785-14.824-2.785-14.824" transform="translate(40.667 55.222)" fill="#b78876"/>
        <path id="Path_13866" data-name="Path 13866" d="M97.735,134.011c-.048-.029-.169.14-.462.3a1.806,1.806,0,0,1-1.338.135c-1.118-.313-2.173-1.966-2.37-3.817a5.936,5.936,0,0,1,.3-2.609A2.081,2.081,0,0,1,95.1,126.54a.916.916,0,0,1,1.1.408c.161.276.113.488.168.5.03.023.207-.19.091-.609a1.149,1.149,0,0,0-.457-.612,1.365,1.365,0,0,0-1.013-.184,2.535,2.535,0,0,0-1.746,1.746,6.123,6.123,0,0,0-.392,2.918c.233,2.069,1.45,3.925,2.972,4.237a1.922,1.922,0,0,0,1.619-.4c.3-.279.334-.514.3-.53" transform="translate(41.479 56.319)" fill="#a36957"/>
        <path id="Path_13867" data-name="Path 13867" d="M176.09,219.588s14.406-.69,17.408.619c5.016,2.188,19.912,25.55,19.162,25.554-2.249.012-6.893-.02-6.893-.02l-23.185-8.778-5.449,1.38Z" transform="translate(78.698 98.057)" fill="#b78876"/>
        <path id="Path_13868" data-name="Path 13868" d="M225.772,265.874s43.335,149.967,43.4,149.2-38.8,18.709-38.8,18.709L204.117,325.345Z" transform="translate(91.224 118.824)" fill="#263238"/>
        <path id="Path_13869" data-name="Path 13869" d="M222.313,390.425l41.014-20.014-1.781-5.477-41.331,20.037Z" transform="translate(98.418 163.096)" fill="#455a64"/>
        <path id="Path_13870" data-name="Path 13870" d="M218.376,345.783c-.21.064-.67-.87-1.026-2.082s-.475-2.247-.263-2.308.67.871,1.026,2.084.473,2.244.263,2.306" transform="translate(96.973 152.573)" fill="#455a64"/>
        <path id="Path_13871" data-name="Path 13871" d="M220.24,351.828c-.21.067-.683-.861-1.056-2.069s-.5-2.24-.3-2.3.683.862,1.055,2.069.506,2.238.3,2.3" transform="translate(97.781 155.282)" fill="#455a64"/>
        <path id="Path_13872" data-name="Path 13872" d="M222.192,357.846c-.21.068-.7-.851-1.085-2.055s-.54-2.233-.33-2.3.695.852,1.085,2.055.537,2.23.33,2.3" transform="translate(98.626 157.98)" fill="#455a64"/>
        <path id="Path_13873" data-name="Path 13873" d="M224.226,363.838c-.207.071-.706-.841-1.114-2.039s-.569-2.225-.36-2.3.706.844,1.113,2.04.569,2.224.362,2.295" transform="translate(99.511 160.667)" fill="#455a64"/>
        <path id="Path_13874" data-name="Path 13874" d="M226.346,369.8c-.207.075-.718-.832-1.143-2.023s-.6-2.218-.394-2.29.719.832,1.143,2.023.6,2.217.394,2.29" transform="translate(100.433 163.341)" fill="#455a64"/>
        <path id="Path_13875" data-name="Path 13875" d="M228.55,375.737c-.205.077-.729-.822-1.171-2.008s-.632-2.209-.427-2.285.731.823,1.172,2.008.631,2.208.425,2.285" transform="translate(101.392 166.003)" fill="#455a64"/>
        <path id="Path_13876" data-name="Path 13876" d="M231.1,390.135a7.787,7.787,0,0,1-.867-1.57c-.506-1.035-1.2-2.549-2-4.451-1.609-3.792-3.593-9.129-5.585-15.083s-3.669-11.386-4.863-15.321c-.544-1.846-1-3.408-1.377-4.672a7.834,7.834,0,0,1-.405-1.746,7.779,7.779,0,0,1,.7,1.651c.4,1.078.952,2.649,1.618,4.6,1.357,4.072,3.125,9.375,5.08,15.24,1.991,5.945,3.885,11.293,5.355,15.128.7,1.791,1.283,3.308,1.759,4.535a7.744,7.744,0,0,1,.583,1.694" transform="translate(96.532 155.211)" fill="#455a64"/>
        <path id="Path_13877" data-name="Path 13877" d="M79.5,262.454c.365-7.949-4.153,43.59,35.461,44.959,39.656,1.37,120.56.763,120.56.763l-9.479,130.7h47.525l9.93-138.987s5.06-40.279-22.5-45.423c-17.252-3.219-124.51-4.254-124.51-4.254Z" transform="translate(35.529 111.823)" fill="#263238"/>
        <path id="Path_13878" data-name="Path 13878" d="M180.026,383.2h50.046v-7.784l-50.046.062Z" transform="translate(80.457 167.779)" fill="#455a64"/>
        <path id="Path_13879" data-name="Path 13879" d="M125.911,286.622a2.641,2.641,0,0,1,.509-.053l1.5-.085,5.789-.258,21.479-.818c18.279-.628,43.7-1.5,72.478-2.49l.46-.014-.056.457c-.654,5.33-1.2,10.95-1.665,16.676-.628,8.165-1.243,16.136-1.836,23.835-.624,7.7-1.46,15.109-2.181,22.165-1.48,14.1-2.814,26.81-3.936,37.5-1.146,10.638-2.075,19.261-2.722,25.27-.336,2.949-.6,5.254-.78,6.867-.094.752-.168,1.344-.223,1.783a3.665,3.665,0,0,1-.1.606,3.27,3.27,0,0,1,.022-.613c.036-.441.082-1.036.145-1.793.148-1.616.36-3.927.631-6.882.587-6.015,1.431-14.647,2.47-25.3,1.074-10.69,2.35-23.4,3.766-37.511.7-7.062,1.522-14.463,2.134-22.155.587-7.7,1.2-15.672,1.82-23.837.464-5.731,1.014-11.363,1.676-16.708l.4.441L155.2,285.93l-21.487.58-5.793.119-1.5.013a2.642,2.642,0,0,1-.511-.02" transform="translate(56.272 126.434)" fill="#455a64"/>
        <path id="Path_13880" data-name="Path 13880" d="M130.491,281.7c.006.22-1.016.421-2.28.453s-2.293-.124-2.3-.344,1.016-.421,2.28-.451,2.293.124,2.3.343" transform="translate(56.272 125.741)" fill="#455a64"/>
        <path id="Path_13881" data-name="Path 13881" d="M136.821,281.55c.006.22-1.017.422-2.282.451s-2.293-.124-2.3-.344,1.016-.421,2.28-.45,2.293.123,2.3.343" transform="translate(59.1 125.675)" fill="#455a64"/>
        <path id="Path_13882" data-name="Path 13882" d="M143.149,281.4c.006.22-1.016.421-2.28.451s-2.293-.124-2.3-.344,1.016-.421,2.28-.45,2.293.123,2.3.343" transform="translate(61.929 125.608)" fill="#455a64"/>
        <path id="Path_13883" data-name="Path 13883" d="M149.48,281.252c0,.22-1.016.421-2.28.451s-2.293-.124-2.3-.344,1.016-.421,2.28-.451,2.293.124,2.3.344" transform="translate(64.758 125.541)" fill="#455a64"/>
        <path id="Path_13884" data-name="Path 13884" d="M155.808,281.1c.006.22-1.016.422-2.28.451s-2.293-.124-2.3-.344,1.016-.421,2.28-.45,2.293.124,2.3.343" transform="translate(67.587 125.475)" fill="#455a64"/>
        <path id="Path_13885" data-name="Path 13885" d="M162.138,280.954c0,.22-1.016.421-2.28.451s-2.293-.124-2.3-.344,1.016-.421,2.28-.45,2.293.123,2.3.343" transform="translate(70.416 125.408)" fill="#455a64"/>
        <path id="Path_13886" data-name="Path 13886" d="M168.469,280.806c.006.22-1.016.421-2.28.451s-2.293-.124-2.3-.344,1.016-.421,2.28-.45,2.293.123,2.3.343" transform="translate(73.245 125.342)" fill="#455a64"/>
        <path id="Path_13887" data-name="Path 13887" d="M174.8,280.657c.006.22-1.016.421-2.28.451s-2.293-.124-2.3-.344,1.016-.421,2.28-.451,2.295.124,2.3.344" transform="translate(76.073 125.275)" fill="#455a64"/>
        <path id="Path_13888" data-name="Path 13888" d="M181.128,280.508c.006.22-1.016.421-2.28.451s-2.293-.124-2.3-.344,1.016-.421,2.28-.45,2.293.123,2.3.343" transform="translate(78.902 125.209)" fill="#455a64"/>
        <path id="Path_13889" data-name="Path 13889" d="M187.457,280.359c.006.22-1.016.421-2.28.451s-2.293-.124-2.3-.344,1.016-.421,2.28-.451,2.293.124,2.3.344" transform="translate(81.731 125.142)" fill="#455a64"/>
        <path id="Path_13890" data-name="Path 13890" d="M193.786,280.211c.006.22-1.016.421-2.28.451s-2.293-.124-2.3-.344,1.016-.421,2.28-.45,2.293.123,2.3.343" transform="translate(84.56 125.076)" fill="#455a64"/>
        <path id="Path_13891" data-name="Path 13891" d="M200.117,280.062c.006.22-1.016.423-2.28.451s-2.293-.124-2.3-.343,1.016-.422,2.28-.451,2.293.123,2.3.343" transform="translate(87.389 125.01)" fill="#455a64"/>
        <path id="Path_13892" data-name="Path 13892" d="M198.762,287.1c-.218-.022-.3-1.059-.172-2.318s.4-2.262.619-2.241.3,1.059.172,2.319-.4,2.262-.619,2.24" transform="translate(88.727 126.272)" fill="#455a64"/>
        <path id="Path_13893" data-name="Path 13893" d="M198.144,293.4c-.218-.022-.3-1.059-.172-2.318s.4-2.261.619-2.24.3,1.058.172,2.318-.4,2.262-.619,2.24" transform="translate(88.451 129.089)" fill="#455a64"/>
        <path id="Path_13894" data-name="Path 13894" d="M197.526,299.7c-.218-.022-.3-1.059-.172-2.318s.4-2.262.619-2.24.3,1.058.172,2.318-.4,2.261-.619,2.24" transform="translate(88.175 131.905)" fill="#455a64"/>
        <path id="Path_13895" data-name="Path 13895" d="M196.908,306c-.219-.022-.3-1.059-.172-2.318s.4-2.262.619-2.24.3,1.058.172,2.318-.4,2.261-.619,2.24" transform="translate(87.899 134.721)" fill="#455a64"/>
        <path id="Path_13896" data-name="Path 13896" d="M196.289,312.3c-.218-.022-.3-1.059-.172-2.318s.4-2.262.619-2.241.3,1.059.172,2.319-.4,2.262-.619,2.24" transform="translate(87.622 137.537)" fill="#455a64"/>
        <path id="Path_13897" data-name="Path 13897" d="M195.671,318.6c-.219-.022-.3-1.059-.172-2.318s.4-2.261.619-2.24.3,1.058.172,2.318-.4,2.262-.619,2.24" transform="translate(87.346 140.353)" fill="#455a64"/>
        <path id="Path_13898" data-name="Path 13898" d="M195.053,324.907c-.218-.022-.3-1.059-.172-2.318s.4-2.262.619-2.24.3,1.058.172,2.318-.4,2.262-.619,2.24" transform="translate(87.07 143.17)" fill="#455a64"/>
        <path id="Path_13899" data-name="Path 13899" d="M194.435,331.208c-.218-.022-.3-1.059-.172-2.318s.4-2.261.619-2.241.3,1.059.172,2.319-.4,2.261-.619,2.24" transform="translate(86.793 145.985)" fill="#455a64"/>
        <path id="Path_13900" data-name="Path 13900" d="M193.816,337.509c-.218-.022-.3-1.059-.172-2.318s.4-2.262.619-2.241.3,1.059.172,2.319-.4,2.261-.619,2.24" transform="translate(86.517 148.801)" fill="#455a64"/>
        <path id="Path_13901" data-name="Path 13901" d="M193.2,343.81c-.218-.022-.3-1.059-.172-2.318s.4-2.262.619-2.24.3,1.059.172,2.318-.4,2.262-.619,2.24" transform="translate(86.241 151.618)" fill="#455a64"/>
        <path id="Path_13902" data-name="Path 13902" d="M192.58,350.111c-.218-.022-.3-1.059-.172-2.318s.4-2.262.619-2.241.3,1.059.172,2.319-.4,2.262-.619,2.24" transform="translate(85.964 154.433)" fill="#455a64"/>
        <path id="Path_13903" data-name="Path 13903" d="M191.962,356.412c-.219-.022-.3-1.059-.172-2.318s.4-2.262.619-2.241.3,1.059.172,2.319-.4,2.262-.619,2.24" transform="translate(85.688 157.249)" fill="#455a64"/>
        <path id="Path_13904" data-name="Path 13904" d="M191.344,362.713c-.218-.022-.3-1.059-.172-2.318s.4-2.262.619-2.241.3,1.059.172,2.319-.4,2.262-.619,2.24" transform="translate(85.412 160.065)" fill="#455a64"/>
        <path id="Path_13905" data-name="Path 13905" d="M190.725,369.015c-.219-.022-.3-1.059-.172-2.318s.4-2.262.619-2.241.3,1.059.172,2.319-.4,2.262-.619,2.24" transform="translate(85.135 162.882)" fill="#455a64"/>
        <path id="Path_13906" data-name="Path 13906" d="M190.107,375.316c-.218-.022-.3-1.059-.172-2.318s.4-2.261.619-2.241.3,1.059.172,2.319-.4,2.262-.619,2.24" transform="translate(84.859 165.698)" fill="#455a64"/>
        <path id="Path_13907" data-name="Path 13907" d="M189.826,377.332c-.218-.022-.389-.1-.382-.175s.191-.119.409-.1.389.1.382.175-.191.119-.41.1" transform="translate(84.666 168.512)" fill="#455a64"/>
        <path id="Path_13908" data-name="Path 13908" d="M193.9,286.068c.142.168-1.254,1.687-3.117,3.392s-3.5,2.962-3.655,2.807,1.24-1.674,3.118-3.393,3.512-2.973,3.654-2.806" transform="translate(83.628 127.842)" fill="#263238"/>
        <path id="Path_13909" data-name="Path 13909" d="M197.336,287.288c.09.2-2.2,1.424-5.111,2.73s-5.348,2.207-5.438,2.005,2.2-1.422,5.112-2.73,5.346-2.205,5.436-2.005" transform="translate(83.478 128.381)" fill="#263238"/>
        <path id="Path_13910" data-name="Path 13910" d="M149.567,243.03s-4.847-51.928-13.459-74.664l1.716-1.289-2.565-8.949-32.207-3.907.495,6.987a22.936,22.936,0,0,0-11.015,10.47c-11.538,24.518-5.851,53.131-12,106.171,0,0-7.2,24.873.243,32.654l70.267-16.378-3.353-16.033c30.675-.586,81.113-6.225,81.113-6.225l-1.406-29.019s-75.36.451-77.825.182" transform="translate(34.591 68.924)" fill="#455a64"/>
        <path id="Path_13911" data-name="Path 13911" d="M117.418,156.891c.208-.068,1.25,2.538,2.327,5.821a11.046,11.046,0,0,1,.641,2.448,1.79,1.79,0,0,1-.412,1.211,2.185,2.185,0,0,1-.871.609c-1.215.375-1.906.109-1.911.051-.027-.148.76-.13,1.677-.561a1.322,1.322,0,0,0,.786-1.281,15.007,15.007,0,0,0-.664-2.23c-1.077-3.283-1.78-6-1.571-6.068" transform="translate(52.375 70.117)" fill="#e0e0e0"/>
        <path id="Path_13912" data-name="Path 13912" d="M140.527,183.738c0,.22-12.951.4-28.924.4s-28.927-.178-28.927-.4,12.948-.4,28.927-.4,28.924.178,28.924.4" transform="translate(36.949 81.938)" fill="#263238"/>
        <path id="Path_13913" data-name="Path 13913" d="M136.4,173.625c0,.22-11.48.4-25.638.4s-25.641-.178-25.641-.4,11.477-.4,25.641-.4,25.638.178,25.638.4" transform="translate(38.043 77.418)" fill="#263238"/>
        <path id="Path_13914" data-name="Path 13914" d="M130.747,164.727c0,.221-9.5.4-21.207.4s-21.209-.178-21.209-.4,9.495-.4,21.209-.4,21.207.178,21.207.4" transform="translate(39.477 73.442)" fill="#263238"/>
        <path id="Path_13915" data-name="Path 13915" d="M127.392,158.457c0,.22-7.275.4-16.249.4s-16.249-.178-16.249-.4,7.274-.4,16.249-.4,16.249.178,16.249.4" transform="translate(42.41 70.639)" fill="#263238"/>
        <path id="Path_13916" data-name="Path 13916" d="M142.965,193.46c0,.22-13.7.4-30.6.4s-30.6-.178-30.6-.4,13.7-.4,30.6-.4,30.6.178,30.6.4" transform="translate(36.544 86.283)" fill="#263238"/>
        <path id="Path_13917" data-name="Path 13917" d="M145.457,203.232c0,.22-14.258.4-31.842.4s-31.847-.178-31.847-.4,14.255-.4,31.847-.4,31.842.178,31.842.4" transform="translate(36.544 90.65)" fill="#263238"/>
        <path id="Path_13918" data-name="Path 13918" d="M147.021,212.238c0,.22-14.608.4-32.625.4s-32.628-.178-32.628-.4,14.605-.4,32.628-.4,32.625.178,32.625.4" transform="translate(36.544 94.675)" fill="#263238"/>
        <path id="Path_13919" data-name="Path 13919" d="M218.615,222.08c0,.22-30.822.4-68.834.4s-68.841-.178-68.841-.4,30.815-.4,68.841-.4,68.834.178,68.834.4" transform="translate(36.173 99.074)" fill="#263238"/>
        <path id="Path_13920" data-name="Path 13920" d="M219.3,229.966c0,.221-31.055.4-69.357.4s-69.362-.178-69.362-.4,31.048-.4,69.362-.4,69.357.178,69.357.4" transform="translate(36.014 102.599)" fill="#263238"/>
        <path id="Path_13921" data-name="Path 13921" d="M145.722,239.688c0,.22-14.84.4-33.14.4s-33.145-.178-33.145-.4,14.837-.4,33.145-.4,33.14.178,33.14.4" transform="translate(35.502 106.943)" fill="#263238"/>
        <path id="Path_13922" data-name="Path 13922" d="M149.835,248.7c0,.22-16.132.4-36.027.4s-36.031-.178-36.031-.4,16.129-.4,36.031-.4,36.027.178,36.027.4" transform="translate(34.76 110.972)" fill="#263238"/>
        <path id="Path_13923" data-name="Path 13923" d="M85.295,285.884c-.22,0-.4-25.305-.4-56.514s.178-56.518.4-56.518.4,25.3.4,56.518-.178,56.514-.4,56.514" transform="translate(37.942 77.251)" fill="#263238"/>
        <path id="Path_13924" data-name="Path 13924" d="M97.313,292.687c-.22,0-.4-30.935-.4-69.086s.178-69.093.4-69.093.4,30.928.4,69.093-.178,69.086-.4,69.086" transform="translate(43.313 69.052)" fill="#263238"/>
        <path id="Path_13925" data-name="Path 13925" d="M110.584,289.727c-.22,0-.4-29.822-.4-66.6s.178-66.61.4-66.61.4,29.817.4,66.61-.178,66.6-.4,66.6" transform="translate(49.244 69.949)" fill="#263238"/>
        <path id="Path_13926" data-name="Path 13926" d="M121.729,283.236c-.22,0-.4-23.41-.4-52.277s.178-52.284.4-52.284.4,23.4.4,52.284-.178,52.277-.4,52.277" transform="translate(54.225 79.853)" fill="#263238"/>
        <path id="Path_13927" data-name="Path 13927" d="M133.721,215.554a32.3,32.3,0,0,1,.159,5.084c0,3.137-.061,7.466-.175,12.245s-.263,9.11-.409,12.242a32.387,32.387,0,0,1-.4,5.071,31.926,31.926,0,0,1-.161-5.074c0-3.137.062-7.47.177-12.258s.263-9.117.409-12.25a32.056,32.056,0,0,1,.4-5.061" transform="translate(59.321 96.335)" fill="#263238"/>
        <path id="Path_13928" data-name="Path 13928" d="M146.255,215.973a28.458,28.458,0,0,1,.168,4.765c0,2.939-.051,6.993-.158,11.471s-.249,8.532-.391,11.467a28.277,28.277,0,0,1-.4,4.75,28.216,28.216,0,0,1-.168-4.755c0-2.937.051-7,.158-11.483s.249-8.54.391-11.474a28.192,28.192,0,0,1,.4-4.742" transform="translate(64.943 96.522)" fill="#263238"/>
        <path id="Path_13929" data-name="Path 13929" d="M158.813,215.752a26.715,26.715,0,0,1,.171,4.619c0,2.849-.045,6.78-.149,11.12s-.243,8.272-.382,11.117a26.626,26.626,0,0,1-.392,4.6,26.642,26.642,0,0,1-.171-4.608c0-2.848.046-6.783.15-11.131s.242-8.279.382-11.124a26.283,26.283,0,0,1,.391-4.6" transform="translate(70.564 96.423)" fill="#263238"/>
        <path id="Path_13930" data-name="Path 13930" d="M171.374,215.4a25.143,25.143,0,0,1,.174,4.483c.006,2.764-.041,6.578-.14,10.788s-.237,8.025-.375,10.785a25.064,25.064,0,0,1-.388,4.468,24.959,24.959,0,0,1-.175-4.471c-.006-2.764.042-6.583.142-10.8s.237-8.033.375-10.794a24.794,24.794,0,0,1,.388-4.458" transform="translate(76.186 96.264)" fill="#263238"/>
        <path id="Path_13931" data-name="Path 13931" d="M122.925,222.407c-.184-.1.8-2.221,2.72-4.354s3.907-3.361,4.022-3.189c.139.185-1.59,1.648-3.429,3.719s-3.114,3.941-3.313,3.824" transform="translate(54.928 96.019)" fill="#263238"/>
        <path id="Path_13932" data-name="Path 13932" d="M125.864,222.758c-.2.039-.554-2.018.315-4.362.851-2.351,2.45-3.693,2.578-3.533.175.159-1.052,1.636-1.832,3.807-.807,2.16-.826,4.082-1.062,4.089" transform="translate(56.142 96.02)" fill="#263238"/>
        <path id="Path_13933" data-name="Path 13933" d="M177.755,244.025c-.218.02-.959-6.2-1.654-13.888s-1.079-13.941-.861-13.96.958,6.2,1.652,13.889,1.081,13.938.862,13.958" transform="translate(78.29 96.614)" fill="#263238"/>
        <path id="Path_13934" data-name="Path 13934" d="M177.968,220.067c.064.1-.405.388-.457,1.113a1.365,1.365,0,0,0,.347,1.056,1.211,1.211,0,0,0,1.943-.842,1.365,1.365,0,0,0-.532-.977c-.566-.457-1.094-.31-1.126-.427-.08-.067.531-.518,1.431-.045a1.845,1.845,0,0,1,.958,1.4,1.891,1.891,0,0,1-3.209,1.392,1.844,1.844,0,0,1-.366-1.654c.269-.981,1.019-1.118,1.011-1.014" transform="translate(79.059 98.202)" fill="#263238"/>
        <path id="Path_13935" data-name="Path 13935" d="M140.67,236.692a1.859,1.859,0,0,1,.363.01l1.065.084c.936.1,2.331.188,4.156.25,3.643.153,9,.223,15.8.166,13.621-.094,33.077-.592,56.4-1.516l.34-.014.017.341c.451,9.014.945,18.865,1.463,29.2l.016.328-.3.056c-3.706.7-7.442.987-11.279,1.379l-11.7,1.017c-7.931.645-16.106,1.252-24.436,1.843L142,271.9h-.051c-8.864-.572-17.48-3.752-23.494-9.6a28.881,28.881,0,0,1-6.824-10.029,72.874,72.874,0,0,1-3.426-11.03c-3.574-14.527-5.824-27.646-7.588-38.584-.874-5.472-1.608-10.4-2.24-14.724A90.507,90.507,0,0,1,97.1,176.846a13.728,13.728,0,0,1,1.422-6.828,6.885,6.885,0,0,1,1.473-1.932,13.287,13.287,0,0,0-1.349,2,13.865,13.865,0,0,0-1.272,6.759,93.735,93.735,0,0,0,1.395,11.039c.689,4.313,1.476,9.236,2.348,14.7,1.83,10.918,4.137,24.014,7.747,38.5A72.721,72.721,0,0,0,112.287,252a28.176,28.176,0,0,0,6.679,9.772c5.873,5.686,14.311,8.8,23.032,9.353h-.051l30.573-2.079,24.428-1.833,11.691-1c3.81-.381,7.617-.677,11.169-1.343l-.285.385c-.493-10.332-.965-20.184-1.4-29.2l.359.328c-23.334.855-42.8,1.256-56.427,1.231-6.815,0-12.17-.136-15.818-.357-1.825-.1-3.219-.217-4.156-.356l-1.061-.136a1.908,1.908,0,0,1-.356-.065" transform="translate(43.394 75.121)" fill="#263238"/>
        <path id="Path_13936" data-name="Path 13936" d="M131.593,233.717a13.694,13.694,0,0,1-.741-2.27c-.431-1.476-1.01-3.62-1.7-6.28-1.376-5.316-3.112-12.7-4.96-20.867s-3.552-15.554-4.824-20.892c-.608-2.564-1.111-4.691-1.5-6.323a13.648,13.648,0,0,1-.459-2.344,13.643,13.643,0,0,1,.757,2.264c.443,1.472,1.036,3.613,1.745,6.265,1.412,5.307,3.206,12.681,5.054,20.853,1.832,8.1,3.49,15.424,4.731,20.911.587,2.57,1.075,4.7,1.45,6.336a13.7,13.7,0,0,1,.441,2.347" transform="translate(52.47 78.095)" fill="#263238"/>
        <path id="Path_13937" data-name="Path 13937" d="M127.247,157.308a6.255,6.255,0,0,1-.149,1.6c-.146,1.02-.385,2.49-.7,4.3a25.133,25.133,0,0,1-.609,3,2.166,2.166,0,0,1-1.3,1.4,3.779,3.779,0,0,1-1.939-.059c-2.392-.491-5-1.127-7.712-1.869-5.427-1.492-10.264-3.059-13.779-4.138l-4.157-1.3a6.3,6.3,0,0,1-1.5-.561,6.192,6.192,0,0,1,1.584.262c1.006.224,2.454.582,4.232,1.061,3.562.945,8.428,2.426,13.833,3.912,2.7.739,5.288,1.395,7.656,1.92a3.221,3.221,0,0,0,1.571.11,1.5,1.5,0,0,0,.9-.974,28.874,28.874,0,0,0,.673-2.872c.382-1.8.7-3.256.945-4.257a6.256,6.256,0,0,1,.453-1.541" transform="translate(42.638 70.304)" fill="#263238"/>
        <path id="Path_13938" data-name="Path 13938" d="M99.915,295.749l10.108,137.272,4.232-.985-1.57-133.388Z" transform="translate(44.654 132.176)" fill="#263238"/>
        <path id="Path_13939" data-name="Path 13939" d="M79.78,299.048,49.065,431.383H54.62L98.591,299.048Z" transform="translate(21.928 133.65)" fill="#263238"/>
        <path id="Path_13940" data-name="Path 13940" d="M126.447,299.048l41.9,132.335h4.49l-33.3-132.335Z" transform="translate(56.511 133.65)" fill="#263238"/>
        <path id="Path_13941" data-name="Path 13941" d="M159.331,305.193,65.424,366.549v3.367l96.525-64.724Z" transform="translate(29.239 136.396)" fill="#263238"/>
        <path id="Path_13942" data-name="Path 13942" d="M75.25,306.117l101.763,68.465v-5.238l-98.77-66.22Z" transform="translate(33.631 135.472)" fill="#263238"/>
        <path id="Path_13943" data-name="Path 13943" d="M61.208,306.079,182.2,303.884a7.735,7.735,0,0,0-.265-15.468L59.227,290.388Z" transform="translate(26.47 128.898)" fill="#17a0ed"/>
        <g id="Group_3544" data-name="Group 3544" transform="translate(85.696 417.313)" opacity="0.2">
          <g id="Group_3543" data-name="Group 3543">
            <g id="Group_3542" data-name="Group 3542" clip-path="url(#clip-path-19)">
              <path id="Path_13944" data-name="Path 13944" d="M61.208,306.079,182.2,303.884a7.735,7.735,0,0,0-.265-15.468L59.227,290.388Z" transform="translate(-59.227 -288.415)"/>
            </g>
          </g>
        </g>
        <path id="Path_13945" data-name="Path 13945" d="M54.965,259.163l12.2,93.529,95.4-2.277-.245-56.8a15.929,15.929,0,0,0-17.357-16.084L72.22,284.089l-9.576-99.133-9.667-.818a6.792,6.792,0,0,0-7.3,7.695Z" transform="translate(20.386 82.284)" fill="#17a0ed"/>
      </g>
    </g>
  </g>
</svg>
