<svg xmlns="http://www.w3.org/2000/svg" width="74.423" height="50.237" viewBox="0 0 74.423 50.237">
  <path id="Icon_zocial-email" data-name="Icon zocial-email" d="M.072,49.856V8.518q0-.072.215-1.364L24.616,27.967.359,51.291a6.082,6.082,0,0,1-.287-1.435ZM3.3,4.283a3.093,3.093,0,0,1,1.22-.215H70.045a4.064,4.064,0,0,1,1.292.215l-24.4,20.884-3.23,2.584L37.319,32.99l-6.387-5.239L27.7,25.168ZM3.373,54.09,27.846,30.622,37.319,38.3l9.473-7.679L71.265,54.09a3.446,3.446,0,0,1-1.22.215H4.522a3.25,3.25,0,0,1-1.148-.215ZM50.022,27.967,74.279,7.154a4.284,4.284,0,0,1,.215,1.364V49.856a5.5,5.5,0,0,1-.215,1.435Z" transform="translate(-0.072 -4.068)" fill="#17a2f0"/>
</svg>
