<svg id="Group_3491" data-name="Group 3491" xmlns="http://www.w3.org/2000/svg" xmlns:xlink="http://www.w3.org/1999/xlink" width="664.992" height="593.921" viewBox="0 0 664.992 593.921">
  <defs>
    <clipPath id="clip-path">
      <rect id="Rectangle_3131" data-name="Rectangle 3131" width="664.992" height="593.921" fill="none"/>
    </clipPath>
    <clipPath id="clip-path-2">
      <rect id="Rectangle_3130" data-name="Rectangle 3130" width="664.99" height="593.922" fill="none"/>
    </clipPath>
    <clipPath id="clip-path-3">
      <rect id="Rectangle_3126" data-name="Rectangle 3126" width="247.445" height="145.23" fill="none"/>
    </clipPath>
    <clipPath id="clip-path-4">
      <rect id="Rectangle_3127" data-name="Rectangle 3127" width="10.28" height="10.28" fill="none"/>
    </clipPath>
  </defs>
  <g id="Group_3490" data-name="Group 3490" clip-path="url(#clip-path)">
    <g id="Group_3489" data-name="Group 3489" transform="translate(0 -0.001)">
      <g id="Group_3488" data-name="Group 3488" clip-path="url(#clip-path-2)">
        <path id="Path_13672" data-name="Path 13672" d="M648.636,770.308c-10.876-24.738-31.762-45.38-56.852-55.541-26.133-10.583-56.14-6.731-83.666-10.275-23.907-3.079-41.155-13.752-55.43-32.727-13.677-18.181-25.941-38.316-48.3-46.726-17.67-6.645-37.76-4.8-55.322,2.121-32.361,12.76-56.8,39.89-77.388,66.918-18.794,24.677-34.124,51.7-68.888,52.58-34.786.882-67.9-18.96-102.927-13.7-46.291,6.949-84.841,45.484-92.919,91.361-7.571,43,11.427,84.7,44.066,109.2h561c41.126-43.629,62.707-103.9,36.631-163.208" transform="translate(-2.899 -340.723)" fill="#def3ff"/>
        <path id="Path_13673" data-name="Path 13673" d="M286.888,1069.7h1.543a118.369,118.369,0,0,0,24.449-41.941c8.638-25.681,8.275-52.632-1.025-75.89-4.7-11.754-11.487-22.708-18.049-33.3-6.656-10.743-13.538-21.852-18.21-33.757a75.33,75.33,0,0,1-4.216-15.6c-.387-.051-.774-.092-1.161-.139a76.357,76.357,0,0,0,4.327,16.151c4.708,12,11.618,23.154,18.3,33.941,6.537,10.551,13.3,21.463,17.96,33.125,9.2,23.009,9.557,49.684,1,75.112a117.086,117.086,0,0,1-24.924,42.3" transform="translate(-148.284 -476.905)" fill="#fff"/>
        <path id="Path_13674" data-name="Path 13674" d="M862.666,895.141c11.559,2.463,22.7,4.672,33.47,6.061.185-.356.364-.713.546-1.07-10.862-1.381-22.1-3.606-33.781-6.095-17.779-3.788-37.022-7.888-56.107-7.888a99.586,99.586,0,0,0-34.882,5.763,71.107,71.107,0,0,0-12.344,6c-10.21-4.352-20.476-9.1-30.645-14.318,7.379-5.559,14.835-11,22.372-16.265,55.945-39.065,107.575-61.212,157.456-67.5-.1-.365-.2-.731-.308-1.1-50.014,6.337-101.757,28.541-157.793,67.668-7.7,5.375-15.31,10.937-22.84,16.617a378.108,378.108,0,0,1-33.672-19.567c-19.835-13-43.428-31.548-64.033-56.2,79.847-8.958,161.141-20.245,227.527-64.613,2.521-1.685,5.314-3.671,8.206-5.925-.32-.227-.643-.451-.966-.675-2.773,2.148-5.447,4.044-7.867,5.662-66.369,44.358-147.813,55.557-227.764,64.514a219.421,219.421,0,0,1-36.609-62.246c-14.083-37.3-13.339-73.911,2.04-100.436.668-1.152,1.373-2.286,2.1-3.408-.643.295-1.278.6-1.915.906-.4.641-.785,1.286-1.161,1.936-15.549,26.82-16.322,63.78-2.119,101.4a220.281,220.281,0,0,0,36.327,62q-6.943.776-13.873,1.538c-16.648,1.837-33.865,3.738-50.581,5.889-6.1.786-12.307,1.7-18.482,2.85-13.236-27.935-27.776-55.189-46.57-78.561-.268.268-.542.528-.814.792,18.634,23.2,33.083,50.245,46.238,77.984-26.931,5.136-53.081,14.791-67.044,37.264-13.04,20.987-13.028,50,.036,86.226q.677,1.878,1.388,3.715h1.208c-.517-1.342-1.031-2.7-1.536-4.1-12.94-35.887-12.987-64.568-.138-85.248,13.8-22.205,39.8-31.732,66.585-36.806,4.673,9.884,9.186,19.85,13.673,29.754l.488,1.077c15.58,34.393,31.694,67.585,52.794,95.32h1.407c-21.291-27.787-37.5-61.178-53.173-95.785l-.488-1.078c-4.448-9.82-8.924-19.7-13.555-29.5,6.055-1.119,12.141-2.016,18.127-2.786,16.706-2.151,33.917-4.051,50.561-5.887q7.291-.8,14.608-1.62c20.8,25.035,44.695,43.843,64.756,56.989a378.822,378.822,0,0,0,33.293,19.378c-19.19,14.514-37.857,29.786-56.082,44.7q-9.467,7.744-19.128,15.594h1.789q9.1-7.386,18.053-14.722c18.354-15.015,37.153-30.4,56.48-45,10.112,5.2,20.32,9.946,30.477,14.291-13.9,8.836-25.219,22.52-32.066,39.137-.857,2.08-1.606,4.181-2.3,6.289h1.188c.655-1.964,1.356-3.921,2.155-5.86,6.866-16.662,18.285-30.332,32.286-39.028,28.391,12.061,56.294,21.015,80.27,28.109l.9.267c10.1,2.988,20.438,6.049,29.579,10.967.255-.291.512-.582.766-.874-9.29-5.04-19.776-8.144-30.026-11.174l-.9-.267c-23.732-7.022-51.315-15.866-79.4-27.749A69.889,69.889,0,0,1,772.3,892.97c29.269-10.846,61.727-3.93,90.362,2.171" transform="translate(-256.271 -351.273)" fill="#fff"/>
        <path id="Path_13675" data-name="Path 13675" d="M75.66,994.733c4.983,20.4,2.76,42.421-6.1,60.431a104.032,104.032,0,0,1-24.5,31.647c.205.32.415.636.624.953a105.191,105.191,0,0,0,24.893-32.1c8.974-18.243,11.227-40.549,6.183-61.2-3.942-16.133-11.866-29.8-22.813-39.685q-.366.431-.727.865c10.765,9.734,18.561,23.193,22.445,39.087" transform="translate(-24.725 -523.939)" fill="#fff"/>
        <path id="Path_13676" data-name="Path 13676" d="M592.4,459.856c9.828,10.042,14.232,26.961,8.814,42.559-5.247,15.1-16.748,27.614-30.567,35.656-11.118,6.471-25.621,10.041-36.556,3.265-8.171-5.064-12.408-15-12.644-24.609s3-18.976,6.99-27.72c5.631-12.325,13.209-24.278,24.5-31.773,15.561-10.332,30.018-7.032,39.465,2.621" transform="translate(-286.138 -247.426)" fill="#def3ff"/>
        <path id="Path_13677" data-name="Path 13677" d="M291.044,36.352H209.666V0h81.378Zm-79.685-1.692h77.993V1.689H211.359Z" transform="translate(-115.055 0.003)" fill="#def3ff"/>
        <path id="Path_13678" data-name="Path 13678" d="M173.724,113.4H92.346V77.042h81.378ZM94.038,111.7h77.993V78.734H94.038Z" transform="translate(-50.675 -42.276)" fill="#def3ff"/>
        <path id="Path_13679" data-name="Path 13679" d="M1011.8,122.856q-7.9-26.282-27.8-48.315Q964.051,52.482,929.6,38.091t-87.548-14.4a342.511,342.511,0,0,0-86.332,11.423Q711.7,46.576,679.331,67.753l28.1,77.154-15.061,12.2,21.843,6.419q32.344-16.928,58.933-24.585a203.76,203.76,0,0,1,56.447-7.616q29.872,0,45.233,14.4,15.361,14.444,15.348,34.767a66.714,66.714,0,0,1-15.753,43.652q-15.807,19.08-34.884,38.574-13.254,13.534-25.724,27.952a200.683,200.683,0,0,0-21.995,30.959,168.346,168.346,0,0,0-15.348,35.594q-5.837,19.081-5.809,42.8c0,5.1.108,11.175.405,18.238.05,1.3.118,2.573.2,3.828H750.612l22.535,15.239h109.57a72.787,72.787,0,0,1-.838-11.865V415.283a73.6,73.6,0,0,1,5.81-28.393,146.876,146.876,0,0,1,14.537-26.71,197.337,197.337,0,0,1,19.509-24.143q10.782-11.465,20.752-21.633Q955.742,300.87,969.86,285.6a226.424,226.424,0,0,0,24.913-32.2,180.935,180.935,0,0,0,17.834-36.891,129.862,129.862,0,0,0,7.08-43.652q0-23.716-7.89-50" transform="translate(-372.786 -12.998)" fill="#1f5385"/>
        <path id="Path_13680" data-name="Path 13680" d="M780.331,123.615a205.353,205.353,0,0,0-55.784,7.37q-26.277,7.41-58.241,23.793L631.83,62.089Q663.835,41.58,707.322,30.5a345.249,345.249,0,0,1,85.319-11.056q52.474,0,86.521,13.939t53.755,35.276q19.667,21.35,27.478,46.759,7.771,25.435,7.8,48.388a123.323,123.323,0,0,1-7,42.246,173.586,173.586,0,0,1-17.625,35.7,219.776,219.776,0,0,1-24.621,31.164Q905.011,287.7,891.9,300.8q-9.853,9.854-20.508,20.936a191.712,191.712,0,0,0-19.28,23.365,141.238,141.238,0,0,0-14.367,25.85A69.961,69.961,0,0,0,832,398.425v9.854a69.081,69.081,0,0,0,.828,11.483H724.546a114.768,114.768,0,0,1-2.056-18.452c-.294-6.836-.4-12.711-.4-17.651q0-22.952,5.742-41.418A161.14,161.14,0,0,1,743,307.792a194.279,194.279,0,0,1,21.737-29.962q12.3-13.939,25.422-27.051,18.866-18.866,34.475-37.332A63.759,63.759,0,0,0,840.2,171.2q0-19.707-15.168-33.647t-44.7-13.939" transform="translate(-346.719 -10.669)" fill="#17a1ee"/>
        <path id="Path_13681" data-name="Path 13681" d="M994.488,1101.642q0,29.632-19.185,45.751-19.185,16.162-43.385,16.141-24.244,0-43.407-16.141t-19.164-45.751q0-29.6,19.164-45.751c19.688-16.615,48.814-20.317,71.865-8.656,20.454,10.347,34.112,31.361,34.112,54.406" transform="translate(-477.058 -570.954)" fill="#1f5385"/>
        <path id="Path_13682" data-name="Path 13682" d="M946.988,1100.783q0,29.632-19.185,45.751-19.185,16.162-43.385,16.141-24.244,0-43.407-16.141t-19.163-45.751q0-29.6,19.163-45.751,19.185-16.13,43.407-16.141t43.385,16.141q19.185,16.163,19.185,45.751" transform="translate(-450.992 -570.095)" fill="#17a1ee"/>
        <path id="Path_13683" data-name="Path 13683" d="M350.008,529.595a11.8,11.8,0,1,1-16.4-3.074,11.8,11.8,0,0,1,16.4,3.074" transform="translate(-180.249 -287.797)" fill="#d3dfff"/>
        <path id="Path_13684" data-name="Path 13684" d="M376.7,594.974a6.684,6.684,0,1,1-5.347-7.755,6.66,6.66,0,0,1,5.347,7.755" transform="translate(-199.441 -322.174)" fill="#d3dfff"/>
        <path id="Path_13685" data-name="Path 13685" d="M279.247,370.993a46.461,46.461,0,1,1-37.106-54.225,46.461,46.461,0,0,1,37.106,54.225" transform="translate(-102.679 -173.386)" fill="#d3dfff"/>
        <path id="Path_13686" data-name="Path 13686" d="M249.293,411.826a5.854,5.854,0,1,1-5.854-5.854,5.854,5.854,0,0,1,5.854,5.854" transform="translate(-130.376 -222.778)" fill="#fff"/>
        <path id="Path_13687" data-name="Path 13687" d="M288.828,411.826a5.854,5.854,0,1,1-5.854-5.854,5.854,5.854,0,0,1,5.854,5.854" transform="translate(-152.071 -222.778)" fill="#fff"/>
        <path id="Path_13688" data-name="Path 13688" d="M328.362,411.826a5.854,5.854,0,1,1-5.854-5.854,5.854,5.854,0,0,1,5.854,5.854" transform="translate(-173.765 -222.778)" fill="#fff"/>
        <path id="Path_13689" data-name="Path 13689" d="M215.986,1240l4.341,16.735a9.59,9.59,0,0,0,10.02,7c14.234-.967,43.807-4.454,60.781-16.965l-4.825-24.119c-23.338-1.319-45.162-.021-64.061,6.342A9.243,9.243,0,0,0,215.986,1240" transform="translate(-118.366 -670.676)" fill="#102048"/>
        <path id="Path_13690" data-name="Path 13690" d="M268.839,1264.435a.564.564,0,0,1-.543-.412l-5.828-20.87a.564.564,0,0,1,1.087-.3l5.829,20.87a.565.565,0,0,1-.392.695.572.572,0,0,1-.152.021" transform="translate(-144.019 -681.792)" fill="#fff"/>
        <path id="Path_13691" data-name="Path 13691" d="M296.756,1258.185a.564.564,0,0,1-.543-.412l-5.828-20.87a.564.564,0,1,1,1.087-.3l5.829,20.87a.564.564,0,0,1-.392.695.577.577,0,0,1-.152.021" transform="translate(-159.338 -678.361)" fill="#fff"/>
        <path id="Path_13692" data-name="Path 13692" d="M270.99,1056.992l-54.241,16.1,40.282,55.193,57.831,4.6,79.767-33.729-30.312-45.611Z" transform="translate(-118.942 -578.135)" fill="#17a1ee"/>
        <path id="Path_13693" data-name="Path 13693" d="M406.249,1069.456c119.118-35.263,138.262,70.014-47.594,89.178-6.564-7.387-14.236-20.2-17.282-30.918l98.148-45.356Z" transform="translate(-187.329 -582.933)" fill="#17a1ee"/>
        <path id="Path_13694" data-name="Path 13694" d="M459.809,1238.925a51.529,51.529,0,0,1-10.909-5.309l-19.144,6,4.387,20.825,19.887,4.04c6.058-11.081,6.412-20.179,5.779-25.562" transform="translate(-235.83 -676.951)" fill="#f9b384"/>
        <path id="Path_13695" data-name="Path 13695" d="M341.28,1147.637l-.85-1.463c20.475-11.9,72.923-40.488,117.607-48.919l.314,1.663c-44.427,8.382-96.671,36.863-117.071,48.719" transform="translate(-186.812 -602.122)" fill="#1f5385"/>
        <path id="Path_13696" data-name="Path 13696" d="M229.645,1057.846c-110.876-21.081-139.592,85.473,46.264,104.638a67.518,67.518,0,0,0,14.757-26.83c-28.549-19.1-60.47-37.259-95.454-54.555Z" transform="translate(-77.596 -578.989)" fill="#17a1ee"/>
        <path id="Path_13697" data-name="Path 13697" d="M341.02,1156.6c-5.274-3.357-10.77-6.906-16.588-10.662-29.208-18.858-62.313-40.232-90.439-52.42l.673-1.553c28.254,12.244,61.421,33.658,90.684,52.552,5.816,3.755,11.31,7.3,16.579,10.656Z" transform="translate(-128.405 -599.217)" fill="#1f5385"/>
        <path id="Path_13698" data-name="Path 13698" d="M154.875,1158.9l-1.481-.818c4.162-7.535,10.828-12.617,19.813-15.1l.451,1.63c-8.65,2.4-14.795,7.071-18.784,14.292" transform="translate(-84.176 -627.215)" fill="#1f5385"/>
        <path id="Path_13699" data-name="Path 13699" d="M646.667,1144.689c-3.989-7.221-10.133-11.9-18.784-14.292l.452-1.63c8.985,2.489,15.651,7.571,19.813,15.1Z" transform="translate(-344.553 -619.414)" fill="#1f5385"/>
        <path id="Path_13700" data-name="Path 13700" d="M414.966,1252.313l-1.237-1.155c8.869-9.5,14.317-19.527,16.653-30.657l1.656.347c-2.4,11.441-7.987,21.734-17.072,31.464" transform="translate(-227.035 -669.755)" fill="#1f5385"/>
        <path id="Path_13701" data-name="Path 13701" d="M544.627,1228.319c-14.206-8.776-41.744,6.388-48.657,7.155a16.641,16.641,0,0,1-6.64-.952c.633,5.383.279,14.481-5.779,25.563l3.378.686s23.353,8.56,48.126,3.578c22.866-4.6,20.739-29.13,9.572-36.029" transform="translate(-265.351 -672.549)" fill="#102048"/>
        <path id="Path_13702" data-name="Path 13702" d="M572.216,1265.41a.572.572,0,0,1-.17-.026.564.564,0,0,1-.368-.708c1.687-5.344,2.424-15.857-2.464-22.917a.564.564,0,0,1,.927-.642c5.119,7.394,4.367,18.344,2.612,23.9a.564.564,0,0,1-.537.394" transform="translate(-312.303 -680.933)" fill="#fff"/>
        <path id="Path_13703" data-name="Path 13703" d="M547.529,1270.1a.572.572,0,0,1-.17-.026.564.564,0,0,1-.368-.708c1.687-5.344,2.424-15.857-2.464-22.917a.564.564,0,0,1,.927-.642c5.119,7.394,4.367,18.343,2.612,23.9a.564.564,0,0,1-.537.394" transform="translate(-298.756 -683.506)" fill="#fff"/>
        <path id="Path_13704" data-name="Path 13704" d="M253.383,696.063s27.924-23.744,26.89-28.257c-.739-3.225-8.649,1.5-8.649,1.5s11.093-13.161,10.529-14.759c-1.008-2.856-8.68,2.467-8.68,2.467s5.186-7.464,2.706-8.68-7.884,3.383-7.884,3.383,3.157-4.144,1.674-5.231-7.884,3.383-7.884,3.383,2.3-5.225-2.582-3.245-39.093,33.379-39.093,33.379Z" transform="translate(-120.951 -354.593)" fill="#f9b384"/>
        <path id="Path_13705" data-name="Path 13705" d="M303.025,684.194a.563.563,0,0,1-.38-.148c-4.793-4.379-6.906-5.442-12.194-7.069a.564.564,0,0,1,.332-1.078c5.479,1.685,7.667,2.786,12.624,7.314a.564.564,0,0,1-.381.981" transform="translate(-159.167 -370.888)" fill="#e28b6d"/>
        <path id="Path_13706" data-name="Path 13706" d="M299.47,712.158a.564.564,0,0,1-.559-.642c.549-3.926,1.785-6.38,3.779-7.5,1.7-.959,3.922-.86,6.592.293a.564.564,0,1,1-.447,1.035c-2.329-1.005-4.21-1.122-5.592-.344-1.643.924-2.725,3.169-3.215,6.674a.564.564,0,0,1-.558.486" transform="translate(-164.026 -385.972)" fill="#e28b6d"/>
        <path id="Path_13707" data-name="Path 13707" d="M296.553,660.846a.564.564,0,0,1-.387-.974l7.007-6.6a.564.564,0,0,1,.774.82l-7.007,6.6a.56.56,0,0,1-.387.153" transform="translate(-162.425 -358.398)" fill="#e28b6d"/>
        <path id="Path_13708" data-name="Path 13708" d="M310.928,665.349a.564.564,0,0,1-.407-.954l6.73-7.012a.564.564,0,0,1,.814.781l-6.73,7.013a.564.564,0,0,1-.407.173" transform="translate(-170.313 -360.645)" fill="#e28b6d"/>
        <path id="Path_13709" data-name="Path 13709" d="M325.615,675.739a.564.564,0,0,1-.412-.949l5.28-5.664a.564.564,0,1,1,.825.769l-5.281,5.664a.565.565,0,0,1-.413.179" transform="translate(-178.373 -367.086)" fill="#e28b6d"/>
        <path id="Path_13710" data-name="Path 13710" d="M389.365,944.975,287.27,948.923l-11.281-93.069s34.179-32.418,47.328-44.357l22.2-1.138c68.874,31.306,57.6,70.407,43.848,134.616" transform="translate(-151.45 -444.687)" fill="#3a6bea"/>
        <path id="Path_13711" data-name="Path 13711" d="M430.068,810.359s78.8,6.738,103.638,60.725c24.307,52.825-75.584,71.635-75.584,71.635Z" transform="translate(-236.002 -444.687)" fill="#3a6bea"/>
        <path id="Path_13712" data-name="Path 13712" d="M148.5,765.367l32.562-39.625-30.45-18.454c-12.7,8.832-37.263,28.836-58.079,51.488a42.994,42.994,0,0,0-9.991,17.271,37.173,37.173,0,0,0-.956,16.216,31.305,31.305,0,0,0,27.666,26.209c12.405,1.453,59.79-2.256,98.146-13.537l11.281-43.54c-5.8-3.29-48.881-3.861-70.18,3.973" transform="translate(-44.505 -388.127)" fill="#3a6bea"/>
        <g id="Group_3484" data-name="Group 3484" transform="translate(53.239 332.268)" opacity="0.8">
          <g id="Group_3483" data-name="Group 3483">
            <g id="Group_3482" data-name="Group 3482" clip-path="url(#clip-path-3)">
              <path id="Path_13713" data-name="Path 13713" d="M528.878,838.933l.509-.117c-.356-.211-.713-.416-1.07-.623a170.719,170.719,0,0,1-17.606,3.4c-3.53.425-15.322,1.2-18.769-6.653-1.715-3.909-.417-8.256,1.523-11.308l-.846-.242c-1.986,3.232-3.26,7.767-1.451,11.889,3.679,8.393,15.968,7.6,19.645,7.153a174.516,174.516,0,0,0,18.066-3.5" transform="translate(-322.292 -784.105)" fill="#fff"/>
              <path id="Path_13714" data-name="Path 13714" d="M626.346,989.566c-3.764-1.454-7.653-2.958-11.742-2.573-7.171.678-13.308,7.769-13.68,15.808-.254,5.481,1.84,11.226,5.832,16.278q.361-.225.719-.453c-3.9-4.91-5.951-10.483-5.706-15.785.354-7.635,6.147-14.366,12.914-15.006,3.887-.36,7.516,1.036,11.357,2.52,1.371.53,2.765,1.064,4.182,1.517.073-.273.144-.546.21-.822-1.38-.444-2.744-.966-4.086-1.485" transform="translate(-382.987 -873.85)" fill="#fff"/>
              <path id="Path_13715" data-name="Path 13715" d="M168.746,928.177c-4.919-4.069-12.564-5.156-20.968-2.983a36.181,36.181,0,0,0-18.332,10.854c.29.094.574.2.868.285a35.487,35.487,0,0,1,17.675-10.319c8.138-2.106,15.509-1.078,20.218,2.816a18.363,18.363,0,0,1,4.971,6.847l.875-.1a19.342,19.342,0,0,0-5.307-7.4" transform="translate(-124.273 -839.369)" fill="#fff"/>
              <path id="Path_13716" data-name="Path 13716" d="M117.982,769.182a102.091,102.091,0,0,0,26.51-10.286c3.135-1.806,6.675-4.108,9.164-7.488,2.648-3.6,3.528-7.879,2.354-11.454a8.95,8.95,0,0,0-2.3-3.62l-.651.534a8.167,8.167,0,0,1,2.143,3.351c1.089,3.315.255,7.311-2.231,10.687-2.4,3.254-5.847,5.5-8.905,7.257a99.967,99.967,0,0,1-24.985,9.877q-.553.569-1.1,1.143" transform="translate(-117.982 -736.333)" fill="#fff"/>
            </g>
          </g>
        </g>
        <path id="Path_13717" data-name="Path 13717" d="M411.4,762.765l-.014,1.444-.229,22.44-.028,2.431a13.974,13.974,0,0,1-27.947-.014l-.272-27.733Z" transform="translate(-210.125 -417.785)" fill="#f9b384"/>
        <path id="Path_13718" data-name="Path 13718" d="M424.328,767.706l-.229,22.441c-12.472-5.077-17.606-18.579-17.606-18.579Z" transform="translate(-223.065 -421.281)" fill="#102048"/>
        <path id="Path_13719" data-name="Path 13719" d="M412.817,678.533c4.47,5.363,17.521,35.756,4.291,46.125-14.888,11.668-37.544-7.509-37.544-7.509l-3.039-35.4,19.666-5.185Z" transform="translate(-206.62 -371.268)" fill="#f9b384"/>
        <path id="Path_13720" data-name="Path 13720" d="M327.552,676.6s-43.621,22.75-8.053,88.33a17.661,17.661,0,1,0,31.1-16.72c-5.818-10.335-11.433-23.644-9.036-33.547Z" transform="translate(-167.666 -371.288)" fill="#102048"/>
        <path id="Path_13721" data-name="Path 13721" d="M360.9,686.12a11.8,11.8,0,1,1-11.8-11.8,11.8,11.8,0,0,1,11.8,11.8" transform="translate(-185.096 -370.035)" fill="#17a1ee"/>
        <path id="Path_13722" data-name="Path 13722" d="M369.1,683.645c-1.275-7.362-2.052-12.41,5.388-16.2,0,0,26.221,4.767,31.227-5.125s-2.622-25.506-18.593-14.66c-40.881-7.986-46.364,30.273-33.968,43.026l12.235-1.878a4.454,4.454,0,0,0,3.712-5.16" transform="translate(-190.584 -353.383)" fill="#102048"/>
        <path id="Path_13723" data-name="Path 13723" d="M440.232,729.814a1.743,1.743,0,1,1-1.743-1.743,1.743,1.743,0,0,1,1.743,1.743" transform="translate(-239.666 -399.531)" fill="#102048"/>
        <path id="Path_13724" data-name="Path 13724" d="M466.381,716.938a1.743,1.743,0,1,1-1.743-1.743,1.743,1.743,0,0,1,1.743,1.743" transform="translate(-254.016 -392.465)" fill="#102048"/>
        <path id="Path_13725" data-name="Path 13725" d="M459.461,734.035a.494.494,0,0,1-.358-.833c.7-.736,1.465-1.771,1.143-2.521-.334-.778-1.747-1.115-2.394-1.115-1.391,0-2.058-2.475-2.178-2.97a.493.493,0,0,1,.959-.232c.254,1.045.829,2.215,1.219,2.215.666,0,2.7.315,3.3,1.713.429,1-.02,2.207-1.334,3.59a.491.491,0,0,1-.358.154" transform="translate(-250.045 -398.387)" fill="#102048"/>
        <path id="Path_13726" data-name="Path 13726" d="M454.985,755.846a.493.493,0,0,1-.276-.084,6.6,6.6,0,0,0-6.629-.338.494.494,0,0,1-.492-.856,7.5,7.5,0,0,1,7.674.376.493.493,0,0,1-.277.9" transform="translate(-245.48 -413.582)" fill="#102048"/>
        <path id="Path_13727" data-name="Path 13727" d="M429.88,714.211c.992,1.866-.736,2.241-2.761,3.317s-4.1,1.47-4.571.58.785-2.484,2.809-3.56,3.755-1.781,4.522-.336" transform="translate(-231.82 -391.478)" fill="#102048"/>
        <path id="Path_13728" data-name="Path 13728" d="M455.219,704.66c.436,1.666,1.678.936,3.485.463s3.267-1.381,3.059-2.175-1.842-1.055-3.648-.583-3.234,1-2.9,2.295" transform="translate(-249.776 -385.296)" fill="#102048"/>
        <g id="Group_3487" data-name="Group 3487" transform="translate(185.638 333.278)" opacity="0.4">
          <g id="Group_3486" data-name="Group 3486">
            <g id="Group_3485" data-name="Group 3485" clip-path="url(#clip-path-4)">
              <path id="Path_13729" data-name="Path 13729" d="M421.67,743.71a5.14,5.14,0,1,1-5.14-5.14,5.14,5.14,0,0,1,5.14,5.14" transform="translate(-411.39 -738.57)" fill="#eb5d60"/>
            </g>
          </g>
        </g>
        <path id="Path_13730" data-name="Path 13730" d="M374.569,735.577c3.459,2.669,4.359,7.3,2.009,10.344s-7.057,3.347-10.515.678-4.358-7.3-2.009-10.344,7.057-3.347,10.515-.678" transform="translate(-199.058 -402.652)" fill="#f9b384"/>
        <path id="Path_13731" data-name="Path 13731" d="M378.619,748.736a.494.494,0,0,1-.494-.494,4.325,4.325,0,0,0-1.9-3.6,3.483,3.483,0,0,0-3.244-.432.493.493,0,1,1-.373-.914,4.465,4.465,0,0,1,4.167.527,5.309,5.309,0,0,1,2.336,4.422.494.494,0,0,1-.494.494" transform="translate(-204.302 -407.721)" fill="#102048"/>
        <rect id="Rectangle_3128" data-name="Rectangle 3128" width="26.238" height="1.128" transform="matrix(0.679, -0.734, 0.734, 0.679, 85.771, 396.124)" fill="#102048"/>
        <path id="Path_13732" data-name="Path 13732" d="M507.2,989.424l-.329-1.079c12.966-3.952,25.549-8.679,36.952-22.939l.881.7c-11.6,14.512-24.362,19.309-37.5,23.314" transform="translate(-278.149 -529.77)" fill="#102048"/>
        <path id="Path_13733" data-name="Path 13733" d="M382.214,921.82H271.921c-3.966,0-7.182,3.479-7.182,7.77v78.746c0,4.291,3.215,7.77,7.182,7.77H382.214c3.966,0,7.182-3.479,7.182-7.77V929.59c0-4.291-3.216-7.77-7.182-7.77" transform="translate(-145.277 -505.852)" fill="#d3dfff"/>
        <path id="Path_13734" data-name="Path 13734" d="M397.94,1012.518a.791.791,0,0,1,.758.82v8.314a.791.791,0,0,1-.758.82H386.3a.791.791,0,0,1-.758-.82v-8.314a.791.791,0,0,1,.758-.82Zm0-2.256H386.3a3.049,3.049,0,0,0-3.014,3.077v8.314a3.049,3.049,0,0,0,3.014,3.077H397.94a3.049,3.049,0,0,0,3.014-3.077v-8.314a3.049,3.049,0,0,0-3.014-3.077" transform="translate(-210.327 -554.385)" fill="#1f3c88"/>
        <rect id="Rectangle_3129" data-name="Rectangle 3129" width="664.99" height="2.256" transform="translate(0 591.665)" fill="#102048"/>
      </g>
    </g>
  </g>
</svg>
