<?xml version="1.0" encoding="utf-8"?>
<!-- Generator: Adobe Illustrator 25.0.0, SVG Export Plug-In . SVG Version: 6.00 Build 0)  -->
<svg version="1.1" id="Layer_1" xmlns="http://www.w3.org/2000/svg" xmlns:xlink="http://www.w3.org/1999/xlink" x="0px" y="0px"
	 viewBox="0 0 151 151" style="enable-background:new 0 0 151 151;" xml:space="preserve">
<style type="text/css">
	.st0{fill:#0082FF;}
	.st1{fill:#E6E6E6;}
	.st2{fill:#FFFFFF;}
</style>
<rect x="0" class="st0" width="151" height="151"/>
<g>
	<path id="Path_36" class="st1" d="M142.5,71.3c2.5,0,4.5,2,4.5,4.5v8.1c0,16.7-9.6,31.9-24.6,39.1c-15.7-7-25.8-22.6-25.9-39.8
		V71.1h46V71.3z"/>
	<path class="st2" d="M122.4,123.3c-5.9,2.8-12.3,4.3-18.8,4.3H53.5c-24,0-43.4-19.5-43.4-43.4V27.5c0-2.7,2.2-4.9,4.9-4.9h76.8
		c2.7,0,4.9,2.2,4.9,4.9v43.8h-0.2v12.2C96.6,100.7,106.7,116.2,122.4,123.3z"/>
	<g id="Group_17" transform="translate(167.352 93.998)">
		<path id="Path_38" class="st0" d="M-83.6-31.6c-0.6,0.9-1.6,1.4-2.7,1.3h-21.2c-2,0-2.7-0.7-2.7-2.7v-21.4c0-2,0.7-2.3,2.4-2.3
			h21.6c1.1-0.1,2.1,0.5,2.7,1.3C-83.6-47.6-83.6-39.6-83.6-31.6z M-102.5-49.3v11.3H-91v-11.3H-102.5z"/>
		<path id="Path_39" class="st0" d="M-143.2,3.8c-0.9-0.6-1.4-1.6-1.3-2.7v-21c0-2,0.7-2.7,2.7-2.7h21.6c2,0,2.7,0.7,2.7,2.7v21
			c0.1,1.1-0.5,2.1-1.3,2.7L-143.2,3.8z M-136.8-3.9h11.4v-11h-11.4V-3.9z"/>
		<path id="Path_40" class="st0" d="M-108.9,3.8c-0.9-0.6-1.4-1.6-1.3-2.7v-2.7c-0.1-1,0.5-1.9,1.5-2c0.2,0,0.3,0,0.5,0h9.4v-5
			c0-1.7,0.7-2.3,2.4-2.3h5.1v-9.3c0-1.7,0.7-2.3,2.4-2.3h2.7c1.1-0.1,2.1,0.5,2.7,1.3V4.1C-92,3.8-100.4,3.8-108.9,3.8z"/>
		<path id="Path_41" class="st0" d="M-144.6-43.6v-11c0-1.7,0.7-2.3,2.4-2.3h21.9c1.7,0,2.4,0.7,2.4,2.3v21.7c0,1.7-0.7,2.3-2.4,2.3
			h-21.9c-1.7,0-2.4-0.7-2.4-2.3V-43.6z M-136.8-37.9h11.4v-11.3h-11.4V-37.9z"/>
		<path id="Path_42" class="st0" d="M-98.8-17.2v3.7c0.1,1-0.5,1.9-1.5,2c-0.2,0-0.3,0-0.5,0h-7.4c-1,0.1-1.9-0.5-2-1.5
			c0-0.2,0-0.3,0-0.5v-7.3c-0.1-1,0.5-1.9,1.5-2c0.2,0,0.3,0,0.5,0h7.4c1-0.1,1.9,0.5,2,1.5c0,0.2,0,0.3,0,0.5L-98.8-17.2z"/>
	</g>
	<path id="Path_43" class="st0" d="M96.7,70.9l8.3,8.3l8.3-8.3l8.1,8.1l8.1-8.1l8.1,8.1l8.6-8.6"/>
</g>
</svg>
