<svg xmlns="http://www.w3.org/2000/svg" width="107.988" height="122.818" viewBox="0 0 107.988 122.818">
  <g id="Group_925" data-name="Group 925" transform="translate(0 0)">
    <g id="Group_3358" data-name="Group 3358">
      <path id="Path_9143" data-name="Path 9143" d="M483.836,1352.9c-1.96-.846-3.816-1.571-5.6-2.441-1.444-.7-2.816-1.558-4.191-2.394a.668.668,0,0,0-.987.117c-1.966,1.988-3.955,3.952-5.919,5.942-.315.319-.518.364-.907.085a52.71,52.71,0,0,1-11.606-11.585c-.059-.08-.107-.169-.316-.438a4.745,4.745,0,0,0,.711-.475c1.871-1.793,3.718-3.611,5.6-5.392a.83.83,0,0,0,.165-1.272,44.543,44.543,0,0,1-6.173-14.943.582.582,0,0,0-.691-.553c-2.816.019-5.632,0-8.448.019-.462,0-.617-.133-.685-.6a56.518,56.518,0,0,1,.007-16.338c.065-.452.241-.56.666-.558,2.673.016,5.346.007,8.019.009.972,0,.978.005,1.178-.94a43.31,43.31,0,0,1,5.934-14.322.82.82,0,0,0-.129-1.234c-1.9-1.877-3.777-3.783-5.665-5.676-.186-.187-.391-.354-.573-.518,2.068-3.5,9.564-10.972,12.535-12.457,1.5,1.539,3.04,3.115,4.578,4.689q.791.81,1.588,1.615a.662.662,0,0,0,.96.1,45.043,45.043,0,0,1,14.976-6.092c.535-.111.621-.4.621-.858,0-2.714.007-5.428.013-8.142,0-.182,0-.364,0-.667,1.316-.155,2.619-.348,3.928-.455a72.5,72.5,0,0,1,12.711.235c.341.032.51.111.509.5-.008,2.693.013,5.386,0,8.078,0,.928-.03.941.914,1.138a42.128,42.128,0,0,1,14.5,5.959.863.863,0,0,0,1.3-.141c1.851-1.871,3.723-3.723,5.583-5.585.172-.173.319-.372.514-.6a53.6,53.6,0,0,1,12.467,12.451c-.4.387-.8.761-1.184,1.147-1.715,1.719-3.419,3.449-5.146,5.156a.72.72,0,0,0-.106,1.085,43.777,43.777,0,0,1,6.054,14.6c.148.7.453.871,1.1.862,2.407-.031,4.815-.046,7.223-.019,1.742.02,1.347-.228,1.556,1.42a54.856,54.856,0,0,1,.731,9.747c-.109,2.113-.34,4.219-.522,6.4H550.8c-2.734,0-5.469.014-8.2-.012-.5,0-.712.131-.816.632a42.875,42.875,0,0,1-6.243,15.036c-.282.428-.186.659.132.974q2.893,2.864,5.762,5.753c.155.156.3.319.473.5a56.512,56.512,0,0,1-12.379,12.253c-.411-.46-.785-.917-1.2-1.335-1.622-1.639-3.273-3.25-4.877-4.906a.911.911,0,0,0-1.381-.174,46.5,46.5,0,0,1-9.52,4.56c-.016-.23-.041-.421-.041-.61,0-5.9,0-11.8-.011-17.693a1.016,1.016,0,0,1,.541-.97c6.415-4.293,10.573-10.176,11.848-17.812,1.9-11.391-2.072-20.55-11.306-27.331a25.134,25.134,0,0,0-16.289-4.859,27.232,27.232,0,0,0-25.8,21.775,26.571,26.571,0,0,0,4.471,21.213,26.082,26.082,0,0,0,7.353,7.012,1,1,0,0,1,.534.973c-.019,5.816-.013,11.632-.013,17.448Z" transform="translate(-444.198 -1256.945)" fill="#17a2f0"/>
      <path id="Path_9144" data-name="Path 9144" d="M750.935,1558.753c.807.581,1.5,1.031,2.143,1.551a18.876,18.876,0,0,1,7.255,12.489c.985,7.831-1.594,14.352-7.917,19.245a22.59,22.59,0,0,1-2.56,1.664.846.846,0,0,0-.5.855q.019,7.867.009,15.733,0,12.672,0,25.345a8.773,8.773,0,0,1-17.39,1.8,28.586,28.586,0,0,1-.183-4.39q-.016-19.008.014-38.017a1.55,1.55,0,0,0-.919-1.571,18.929,18.929,0,0,1-9.877-13.583c-1.462-8.057,1.218-14.711,7.57-19.877.5-.406,1.036-.764,1.686-1.24v.807q0,7.01,0,14.019a4.817,4.817,0,0,0,4.811,4.83q5.51.02,11.02,0a4.816,4.816,0,0,0,4.837-4.868q.007-6.979,0-13.958Z" transform="translate(-686.738 -1521.761)" fill="#084b8e"/>
    </g>
  </g>
</svg>
