<svg id="Group_923" data-name="Group 923" xmlns="http://www.w3.org/2000/svg" width="120.896" height="122.759" viewBox="0 0 120.896 122.759">
  <path id="Path_9133" data-name="Path 9133" d="M213.473,1034.727a13.044,13.044,0,0,0,14.586-14.024H267.74a13,13,0,0,0,14.467,14.035c.021.2.052.362.055.528a97.488,97.488,0,0,1-.523,14.269c-1.413,10.814-5.2,20.545-12.959,28.461a48.3,48.3,0,0,1-18.268,11.417c-2.61.957-2.615.954-5.239-.01a48.065,48.065,0,0,1-19.4-12.606,45.786,45.786,0,0,1-10.522-20.219,68.574,68.574,0,0,1-1.878-17.3C213.485,1037.793,213.473,1036.305,213.473,1034.727Zm54.547,20.691a20.143,20.143,0,1,0-20.135,20.181A20.168,20.168,0,0,0,268.019,1055.418Z" transform="translate(-187.381 -1020.703)" fill="#17a2f0"/>
  <path id="Path_9134" data-name="Path 9134" d="M155.531,1203.6c-.5-1.055-1.009-2.019-1.426-3.021a28.363,28.363,0,0,1-1.5-17.73,1.875,1.875,0,0,1,1.391-1.515,1.84,1.84,0,0,1,1.981.563c3.544,4.132,7.257,8.136,10.57,12.447a41.033,41.033,0,0,1,8.294,20.836c.362,3.305.3,6.658.405,9.99.037,1.159.006,2.321.006,3.572h-.744q-10.441,0-20.883.009a1.452,1.452,0,0,1-1.1-.44,40.132,40.132,0,0,0-6.746-4.912,40.016,40.016,0,0,1-14.389-15.848,55.135,55.135,0,0,1-5.322-13.55,61.839,61.839,0,0,1-1.4-12.934c-.02-3.138.02-6.281.171-9.415.266-5.489,6.207-9.674,11.262-7.992a15,15,0,0,1,1.546.719c.432.2.5.5.392.96a51.925,51.925,0,0,0-1.481,11.927c.008,5.461.982,10.705,3.868,15.441a23.776,23.776,0,0,0,14.535,10.786C155.12,1203.544,155.29,1203.561,155.531,1203.6Z" transform="translate(-124.66 -1121.406)" fill="#084b8e"/>
  <path id="Path_9135" data-name="Path 9135" d="M364.269,1228.61c0-.626-.006-1.193,0-1.761.037-3.117-.053-6.243.142-9.35a42.416,42.416,0,0,1,7.867-22.3c2.03-2.854,4.427-5.448,6.686-8.136,1.427-1.7,2.92-3.339,4.358-5.027a2.053,2.053,0,0,1,2.21-.8,1.994,1.994,0,0,1,1.44,1.7,28.493,28.493,0,0,1-2.651,19.857c-.1.193-.2.387-.362.715.343-.065.585-.09.814-.159,8.958-2.706,14.745-8.532,17.179-17.59a35.238,35.238,0,0,0,.709-13.725c-.294-2.3-.76-4.584-1.189-6.867a.737.737,0,0,1,.423-.9,7.536,7.536,0,0,1,7.783-.1,8.816,8.816,0,0,1,5.023,8c.079,3.971.12,7.948.007,11.917a50.436,50.436,0,0,1-6,22.227,44.724,44.724,0,0,1-9.261,12.62,54.625,54.625,0,0,1-7.081,5.243c-1.9,1.243-3.651,2.726-5.479,4.087a1.5,1.5,0,0,1-.792.352q-10.707.028-21.414.013C364.58,1228.642,364.473,1228.626,364.269,1228.61Z" transform="translate(-293.886 -1121.304)" fill="#084b8e"/>
  <path id="Path_9136" data-name="Path 9136" d="M226.907,1411.88q-6.027,0-12.055,0a2.447,2.447,0,0,1-2.748-2.763q-.009-2.832,0-5.665a2.423,2.423,0,0,1,2.689-2.691q12.088-.006,24.175,0c1.913,0,2.816.918,2.819,2.832,0,1.888.009,3.777,0,5.665a2.412,2.412,0,0,1-2.625,2.62Q233.033,1411.886,226.907,1411.88Z" transform="translate(-186.415 -1289.122)" fill="#fff"/>
  <path id="Path_9137" data-name="Path 9137" d="M362.857,1411.88q-6.027,0-12.055,0a2.447,2.447,0,0,1-2.756-2.756q-.008-2.865,0-5.731a2.407,2.407,0,0,1,2.621-2.628q12.219-.015,24.438,0a2.391,2.391,0,0,1,2.62,2.623q.018,2.931,0,5.863a2.423,2.423,0,0,1-2.683,2.629Q368.951,1411.884,362.857,1411.88Z" transform="translate(-282.427 -1289.122)" fill="#fff"/>
  <path id="Path_9138" data-name="Path 9138" d="M300.135,1122.572c.195-.183.371-.342.539-.509q4.938-4.935,9.87-9.877a2.237,2.237,0,0,1,1.935-.767,2.035,2.035,0,0,1,1.416,3.272,4.9,4.9,0,0,1-.488.533q-5.727,5.73-11.457,11.458c-1.251,1.251-2.381,1.251-3.63,0q-3.331-3.329-6.656-6.664a2.079,2.079,0,1,1,2.885-2.994c.131.117.251.245.375.37q2.353,2.351,4.706,4.7C299.784,1122.25,299.945,1122.394,300.135,1122.572Z" transform="translate(-242.166 -1084.761)" fill="#fff"/>
</svg>
