<svg id="Group_1013" data-name="Group 1013" xmlns="http://www.w3.org/2000/svg" xmlns:xlink="http://www.w3.org/1999/xlink" width="88.255" height="91.391" viewBox="0 0 88.255 91.391">
  <defs>
    <clipPath id="clip-path">
      <rect id="Rectangle_2312" data-name="Rectangle 2312" width="88.255" height="91.391" fill="#fff"/>
    </clipPath>
  </defs>
  <g id="Group_1012" data-name="Group 1012" clip-path="url(#clip-path)">
    <path id="Path_2929" data-name="Path 2929" d="M68.98,72.508c-2.208-.556-2.808-2.063-2.8-4.152.05-10.012.022-20.025.023-30.038,0-2.478,1.2-3.66,3.694-3.665q2.609-.005,5.218-.016a.726.726,0,0,0,.187-.05c-.822-11.615-11.027-26.2-28.879-27.679-16.5-1.366-31.56,10.986-33.557,27.745h2.308c1.083,0,2.166,0,3.249,0,2.412,0,3.646,1.224,3.646,3.619q0,12.9,0,25.8c0,1.642.006,3.283,0,4.924a3.167,3.167,0,0,1-3.409,3.46c-3.052.011-6.105.027-9.157,0A9.407,9.407,0,0,1,.039,63.017C0,56.681-.026,50.344.05,44.009A8.969,8.969,0,0,1,5.238,35.7a2,2,0,0,0,1.253-1.81A36.835,36.835,0,0,1,16.86,11.67,37.18,37.18,0,0,1,40.995.147,37.954,37.954,0,0,1,81.5,31.545c.176,1,.229,2.023.421,3.02a1.32,1.32,0,0,0,.609.836,9.427,9.427,0,0,1,5.717,9.1c.013,4.957,0,9.914,0,14.871a12.6,12.6,0,0,1-12.4,13.089c-.128.007-.254.036-.42.06-.177.77-.333,1.537-.53,2.293A21.958,21.958,0,0,1,53.817,91.361c-6.3.057-12.6.018-18.905.009a3.159,3.159,0,0,1-3.368-3.4q-.016-2.905,0-5.811a3.147,3.147,0,0,1,3.389-3.376q6.055-.015,12.111,0a3.163,3.163,0,0,1,3.391,3.38c.01.943,0,1.886,0,2.811,8.77,1.279,17.257-4.412,18.545-12.466" transform="translate(0 0)" fill="#fff"/>
  </g>
</svg>
