<svg xmlns="http://www.w3.org/2000/svg" width="45.369" height="73.224" viewBox="0 0 45.369 73.224">
  <g id="Group_1142" data-name="Group 1142" transform="translate(0)">
    <path id="Path_2444" data-name="Path 2444" d="M-1471.058,946.072c-.208-.414-.391-.772-.57-1.133-.574-1.16-1.151-2.32-1.717-3.484a.44.44,0,0,0-.477-.308,41.157,41.157,0,0,0-12.6,2.368,11.3,11.3,0,0,0-3.139,1.713c-1.416,1.157-1.414,2.2.019,3.346a13.6,13.6,0,0,0,4.33,2.145,39.918,39.918,0,0,0,8.635,1.716,55.981,55.981,0,0,0,7.433.229,42.122,42.122,0,0,0,12.977-2.194,12.328,12.328,0,0,0,3.48-1.788,5.04,5.04,0,0,0,.893-.891,1.324,1.324,0,0,0-.02-1.819,6.273,6.273,0,0,0-1.278-1.153,15.719,15.719,0,0,0-5.077-2.126c-1.828-.446-3.69-.757-5.536-1.128-.066-.013-.131-.029-.255-.056.361-.748.706-1.465,1.054-2.181s.352-.736,1.142-.6a28.744,28.744,0,0,1,9.687,3.062,9.04,9.04,0,0,1,2.6,2.13,4.5,4.5,0,0,1,.086,5.834,9.609,9.609,0,0,1-3.3,2.583,28.151,28.151,0,0,1-7.807,2.511,56.446,56.446,0,0,1-12.493.915,47.731,47.731,0,0,1-12.7-1.93,16.58,16.58,0,0,1-5.961-2.99,5.433,5.433,0,0,1-1.966-2.979,4.522,4.522,0,0,1,1.147-4.109,11.762,11.762,0,0,1,4.548-2.993,34.448,34.448,0,0,1,8.774-2.209c1.352-.178,2.709-.312,4.107-.47-.065-.148-.119-.288-.186-.423q-6.291-12.719-12.6-25.432a23.781,23.781,0,0,1-2.386-6.245,19.2,19.2,0,0,1,4.175-16.417,18.3,18.3,0,0,1,11.062-6.6c8.058-1.46,14.687,1.1,19.68,7.583a18.654,18.654,0,0,1,3.751,12.985,18.889,18.889,0,0,1-1.994,7.239q-2.9,5.821-5.788,11.647-5.756,11.616-11.506,23.235C-1470.888,945.779-1470.959,945.895-1471.058,946.072Zm8.274-46.378a8.286,8.286,0,0,0-8.246-8.273,8.26,8.26,0,0,0-8.253,8.25,8.23,8.23,0,0,0,8.231,8.259A8.257,8.257,0,0,0-1462.784,899.694Z" transform="translate(1493.729 -882.571)" fill="#17a2f0"/>
  </g>
</svg>
