<svg xmlns="http://www.w3.org/2000/svg" xmlns:xlink="http://www.w3.org/1999/xlink" width="1259.932" height="556.975" viewBox="0 0 1259.932 556.975">
  <defs>
    <linearGradient id="linear-gradient" x1="-3.977" y1="5.864" x2="-3.977" y2="5.16" gradientUnits="objectBoundingBox">
      <stop offset="0" stop-color="#2d0979"/>
      <stop offset="1" stop-color="#5b04f7"/>
    </linearGradient>
    <linearGradient id="linear-gradient-2" x1="-5.42" y1="6.191" x2="-4.294" y2="6.103" gradientUnits="objectBoundingBox">
      <stop offset="0" stop-color="#3919bb"/>
      <stop offset="1" stop-color="#6507fa"/>
    </linearGradient>
    <linearGradient id="linear-gradient-4" x1="-3.109" y1="4.857" x2="-3.109" y2="4.153" xlink:href="#linear-gradient"/>
    <linearGradient id="linear-gradient-5" x1="-4.427" y1="5.09" x2="-3.301" y2="5.002" xlink:href="#linear-gradient-2"/>
  </defs>
  <g id="platformapi" transform="translate(-320 -6007)">
    <g id="Group_1037" data-name="Group 1037" transform="translate(6103.543 4413.033)">
      <g id="Group_1023" data-name="Group 1023" transform="translate(-5783.543 1624.67)">
        <g id="Group_1020" data-name="Group 1020">
          <path id="Path_12950" data-name="Path 12950" d="M-5636.132,2609.343l-117.31-67.729c-4.3-2.482-3.76-6.818,1.2-9.684l124.337-71.972c4.964-2.866,12.473-3.177,16.772-.7l117.309,67.729c4.3,2.482,3.761,6.817-1.2,9.684l-124.336,71.971C-5624.323,2611.514-5631.833,2611.825-5636.132,2609.343Z" transform="translate(5768.519 -2084.747)" fill="#173d7a" opacity="0.5"/>
          <g id="Group_1019" data-name="Group 1019">
            <path id="Path_12951" data-name="Path 12951" d="M-5329.6,2021.869l-125.434-72.419c-4.878-2.816-8.833-10.372-8.833-16.876V1632.407c0-6.5,3.955-9.494,8.833-6.677l125.434,72.419c4.878,2.816,8.833,10.372,8.833,16.876v300.166C-5320.764,2021.7-5324.719,2024.685-5329.6,2021.869Z" transform="translate(5606.962 -1624.67)" fill="url(#linear-gradient)"/>
            <path id="Path_12952" data-name="Path 12952" d="M-5502.458,1698.155l-125.434-72.419c-2.181-1.259-4.173-1.35-5.714-.494h0l-143.2,82.615,6.748,24.971,130.573,371.874,142.63-82.264c.024-.013.047-.027.07-.041l.254-.146,0-.012c1.784-1.124,2.913-3.577,2.913-7.041V1715.031C-5493.625,1708.527-5497.58,1700.971-5502.458,1698.155Z" transform="translate(5779.823 -1624.675)" fill="#396caa"/>
            <path id="Path_12953" data-name="Path 12953" d="M-5502.458,1698.155l-125.434-72.419c-2.181-1.259-4.173-1.35-5.714-.494h0l-143.2,82.615,6.748,24.971,35.905,102.26,6.76,3.9,231.3-133.542A17.65,17.65,0,0,0-5502.458,1698.155Z" transform="translate(5779.823 -1624.675)" fill="#d4ecff"/>
            <path id="Path_12954" data-name="Path 12954" d="M-5649.276,2206.279l-125.434-72.419c-4.878-2.817-8.833-10.372-8.833-16.876V1816.818c0-6.5,3.955-9.493,8.833-6.677l125.434,72.419c4.878,2.816,8.833,10.372,8.833,16.876V2199.6C-5640.443,2206.106-5644.4,2209.1-5649.276,2206.279Z" transform="translate(5783.543 -1726.533)" fill="#5793ce"/>
            <path id="Path_12955" data-name="Path 12955" d="M-5646.059,2207.378l-109.652-63.308c-4.265-2.462-7.721-9.067-7.721-14.753V1850.548c0-5.686,3.457-8.3,7.721-5.837l109.652,63.308c4.265,2.462,7.722,9.067,7.722,14.753v278.77C-5638.337,2207.227-5641.794,2209.84-5646.059,2207.378Z" transform="translate(5772.435 -1745.702)" fill="url(#linear-gradient-2)"/>
            <path id="Path_12956" data-name="Path 12956" d="M-5646.059,2207.378l-109.652-63.308c-4.265-2.462-7.721-9.067-7.721-14.753V1850.548c0-5.686,3.457-8.3,7.721-5.837l109.652,63.308c4.265,2.462,7.722,9.067,7.722,14.753v278.77C-5638.337,2207.227-5641.794,2209.84-5646.059,2207.378Z" transform="translate(5772.435 -1745.702)" fill="url(#linear-gradient-2)"/>
            <path id="Path_12957" data-name="Path 12957" d="M-5646.059,2207.378l-109.652-63.308c-4.265-2.462-7.721-9.067-7.721-14.753V1850.548c0-5.686,3.457-8.3,7.721-5.837l109.652,63.308c4.265,2.462,7.722,9.067,7.722,14.753v278.77C-5638.337,2207.227-5641.794,2209.84-5646.059,2207.378Z" transform="translate(5772.435 -1745.702)" fill="#173d7a"/>
            <path id="Path_12958" data-name="Path 12958" d="M-5642.476,2205.272l-109.652-63.308c-4.265-2.462-7.722-9.067-7.722-14.752v-278.77a8.924,8.924,0,0,1,1.108-4.655c-2.758-.021-4.691,2.51-4.691,6.762v278.77c0,5.686,3.457,12.291,7.721,14.752l109.653,63.308c2.811,1.623,5.262,1.03,6.613-1.183A6.208,6.208,0,0,1-5642.476,2205.272Z" transform="translate(5772.435 -1745.703)" fill="#396caa"/>
          </g>
        </g>
        <g id="Group_1021" data-name="Group 1021" transform="translate(20.617 110.224)">
          <path id="Path_12959" data-name="Path 12959" d="M-5631.726,2341.087l-40.756-23.531-65,37.53L-5624,2420.6V2355.84C-5624,2350.154-5627.461,2343.548-5631.726,2341.087Z" transform="translate(5737.485 -2117.621)" fill="#173d7a"/>
          <path id="Path_12960" data-name="Path 12960" d="M-5631.726,2213.473l-40.756-23.53-65,37.53L-5624,2292.99v-64.763C-5624,2222.541-5627.461,2215.935-5631.726,2213.473Z" transform="translate(5737.485 -2047.132)" fill="#173d7a"/>
          <path id="Path_12961" data-name="Path 12961" d="M-5631.726,2085.859l-40.756-23.53-65,37.53,113.48,65.518v-64.764C-5624,2094.927-5627.461,2088.321-5631.726,2085.859Z" transform="translate(5737.485 -1976.642)" fill="#173d7a"/>
          <path id="Path_12962" data-name="Path 12962" d="M-5631.726,1958.245l-40.756-23.53-65,37.53,113.48,65.518V1973C-5624,1967.313-5627.461,1960.707-5631.726,1958.245Z" transform="translate(5737.485 -1906.152)" fill="#173d7a"/>
          <path id="Path_12963" data-name="Path 12963" d="M-5631.726,1923l-90.228-52.093-15.531,8.967,113.48,65.518v-7.638C-5624,1932.067-5627.461,1925.462-5631.726,1923Z" transform="translate(5737.485 -1870.907)" fill="#173d7a"/>
        </g>
        <path id="Path_12964" data-name="Path 12964" d="M-5624,1956.457l-113.48-65.518v36.105l113.48,65.518Z" transform="translate(5758.102 -1771.748)" fill="#5793ce"/>
        <path id="Path_12965" data-name="Path 12965" d="M-5624,2084.071l-113.48-65.518v36.105l113.48,65.518Z" transform="translate(5758.102 -1842.238)" fill="#5793ce"/>
        <path id="Path_12966" data-name="Path 12966" d="M-5624,2211.685l-113.48-65.518v36.105L-5624,2247.79Z" transform="translate(5758.102 -1912.728)" fill="#5793ce"/>
        <path id="Path_12967" data-name="Path 12967" d="M-5624,2339.3l-113.48-65.518v36.105L-5624,2375.4Z" transform="translate(5758.102 -1983.217)" fill="#5793ce"/>
        <path id="Path_12968" data-name="Path 12968" d="M-5624,2466.912l-113.48-65.518V2437.5l113.48,65.518Z" transform="translate(5758.102 -2053.707)" fill="#5793ce"/>
        <path id="Path_12969" data-name="Path 12969" d="M-5617.2,2001.367l-85.475-49.348c-2.413-1.394-4.369-5.132-4.369-8.349V1934c0-3.218,1.956-4.7,4.369-3.3l85.475,49.348c2.413,1.393,4.37,5.132,4.37,8.349v9.669C-5612.826,2001.281-5614.783,2002.76-5617.2,2001.367Z" transform="translate(5741.285 -1793.42)" fill="#173d7a"/>
        <path id="Path_12970" data-name="Path 12970" d="M-5698.351,1950.167c-2.414-1.393-4.37-5.131-4.37-8.349v-9.669a6.258,6.258,0,0,1,.16-1.389l-.109-.063c-2.414-1.394-4.37.086-4.37,3.3v9.669c0,3.218,1.957,6.955,4.37,8.349l85.474,49.348c2.027,1.171,3.716.3,4.21-1.915Z" transform="translate(5741.285 -1793.419)" fill="#06033e" opacity="0.3"/>
        <path id="Path_12971" data-name="Path 12971" d="M-5631.616,1988.085l-51.436-29.7a3.682,3.682,0,0,1-1.537-2.937h0c0-1.132.688-1.652,1.537-1.162l51.436,29.7a3.682,3.682,0,0,1,1.537,2.937h0C-5630.079,1988.055-5630.768,1988.575-5631.616,1988.085Z" transform="translate(5728.884 -1806.639)" fill="#fff"/>
        <path id="Path_12972" data-name="Path 12972" d="M-5617.2,2128.193l-85.475-49.349c-2.413-1.393-4.369-5.131-4.369-8.349v-9.669c0-3.218,1.956-4.7,4.369-3.3l85.475,49.349c2.413,1.393,4.37,5.131,4.37,8.349v9.669C-5612.826,2128.107-5614.783,2129.586-5617.2,2128.193Z" transform="translate(5741.285 -1863.474)" fill="#173d7a"/>
        <path id="Path_12973" data-name="Path 12973" d="M-5698.351,2076.993c-2.414-1.394-4.37-5.131-4.37-8.349v-9.669a6.257,6.257,0,0,1,.16-1.389l-.109-.063c-2.414-1.393-4.37.086-4.37,3.3v9.669c0,3.218,1.957,6.955,4.37,8.349l85.474,49.348c2.027,1.17,3.716.3,4.21-1.915Z" transform="translate(5741.285 -1863.474)" fill="#06033e" opacity="0.3"/>
        <path id="Path_12974" data-name="Path 12974" d="M-5631.616,2114.911l-51.436-29.7a3.681,3.681,0,0,1-1.537-2.937h0c0-1.132.688-1.652,1.537-1.162l51.436,29.7a3.683,3.683,0,0,1,1.537,2.937h0C-5630.079,2114.881-5630.768,2115.4-5631.616,2114.911Z" transform="translate(5728.884 -1876.694)" fill="#fff"/>
        <path id="Path_12975" data-name="Path 12975" d="M-5617.2,2256.2l-85.475-49.349c-2.413-1.393-4.369-5.131-4.369-8.349v-9.669c0-3.218,1.956-4.7,4.369-3.3l85.475,49.348c2.413,1.394,4.37,5.131,4.37,8.35v9.669C-5612.826,2256.115-5614.783,2257.594-5617.2,2256.2Z" transform="translate(5741.285 -1934.182)" fill="#173d7a"/>
        <path id="Path_12976" data-name="Path 12976" d="M-5698.351,2205c-2.414-1.394-4.37-5.131-4.37-8.349v-9.669a6.253,6.253,0,0,1,.16-1.389l-.109-.063c-2.414-1.394-4.37.085-4.37,3.3v9.669c0,3.218,1.957,6.956,4.37,8.349l85.474,49.348c2.027,1.171,3.716.3,4.21-1.915Z" transform="translate(5741.285 -1934.182)" fill="#06033e" opacity="0.3"/>
        <path id="Path_12977" data-name="Path 12977" d="M-5631.616,2242.919l-51.436-29.7a3.681,3.681,0,0,1-1.537-2.937h0c0-1.132.688-1.652,1.537-1.162l51.436,29.7a3.682,3.682,0,0,1,1.537,2.937h0C-5630.079,2242.889-5630.768,2243.409-5631.616,2242.919Z" transform="translate(5728.884 -1947.401)" fill="#d4ecff"/>
        <path id="Path_12978" data-name="Path 12978" d="M-5617.2,2385.39l-85.475-49.349c-2.413-1.393-4.369-5.131-4.369-8.349v-9.669c0-3.218,1.956-4.7,4.369-3.3l85.475,49.349c2.413,1.393,4.37,5.131,4.37,8.349v9.669C-5612.826,2385.3-5614.783,2386.783-5617.2,2385.39Z" transform="translate(5741.285 -2005.541)" fill="#173d7a"/>
        <path id="Path_12979" data-name="Path 12979" d="M-5698.351,2334.19c-2.414-1.393-4.37-5.131-4.37-8.349v-9.669a6.253,6.253,0,0,1,.16-1.389l-.109-.063c-2.414-1.394-4.37.086-4.37,3.3v9.669c0,3.218,1.957,6.955,4.37,8.349l85.474,49.348c2.027,1.171,3.716.3,4.21-1.915Z" transform="translate(5741.285 -2005.541)" fill="#06033e" opacity="0.3"/>
        <path id="Path_12980" data-name="Path 12980" d="M-5631.616,2372.108l-51.436-29.7a3.681,3.681,0,0,1-1.537-2.937h0c0-1.132.688-1.652,1.537-1.162l51.436,29.7a3.683,3.683,0,0,1,1.537,2.937h0C-5630.079,2372.078-5630.768,2372.6-5631.616,2372.108Z" transform="translate(5728.884 -2018.761)" fill="#ff2c9c"/>
        <path id="Path_12981" data-name="Path 12981" d="M-5617.2,2512.019l-85.475-49.349c-2.413-1.394-4.369-5.131-4.369-8.349v-9.669c0-3.217,1.956-4.7,4.369-3.3l85.475,49.348c2.413,1.394,4.37,5.132,4.37,8.349v9.669C-5612.826,2511.933-5614.783,2513.412-5617.2,2512.019Z" transform="translate(5741.285 -2075.487)" fill="#173d7a"/>
        <path id="Path_12982" data-name="Path 12982" d="M-5698.351,2460.819c-2.414-1.393-4.37-5.131-4.37-8.349V2442.8a6.253,6.253,0,0,1,.16-1.389l-.109-.063c-2.414-1.394-4.37.085-4.37,3.3v9.669c0,3.218,1.957,6.955,4.37,8.349l85.474,49.348c2.027,1.17,3.716.3,4.21-1.915Z" transform="translate(5741.285 -2075.487)" fill="#06033e" opacity="0.3"/>
        <path id="Path_12983" data-name="Path 12983" d="M-5631.616,2498.737l-51.436-29.7a3.682,3.682,0,0,1-1.537-2.937h0c0-1.132.688-1.652,1.537-1.162l51.436,29.7a3.682,3.682,0,0,1,1.537,2.937h0C-5630.079,2498.707-5630.768,2499.227-5631.616,2498.737Z" transform="translate(5728.884 -2088.707)" fill="#d4ecff"/>
        <path id="Path_12984" data-name="Path 12984" d="M-5737.485,1890.939l8.937,5.159V1932.2l-8.937-5.159Z" transform="translate(5758.102 -1771.748)" fill="#173d7a" opacity="0.5"/>
        <path id="Path_12985" data-name="Path 12985" d="M-5737.485,2018.553l8.937,5.159v36.105l-8.937-5.159Z" transform="translate(5758.102 -1842.238)" fill="#173d7a" opacity="0.5"/>
        <path id="Path_12986" data-name="Path 12986" d="M-5737.485,2146.167l8.937,5.159v36.105l-8.937-5.159Z" transform="translate(5758.102 -1912.728)" fill="#173d7a" opacity="0.5"/>
        <path id="Path_12987" data-name="Path 12987" d="M-5737.485,2273.78l8.937,5.159v36.105l-8.937-5.159Z" transform="translate(5758.102 -1983.217)" fill="#173d7a" opacity="0.5"/>
        <path id="Path_12988" data-name="Path 12988" d="M-5737.485,2401.394l8.937,5.159v36.105l-8.937-5.159Z" transform="translate(5758.102 -2053.707)" fill="#173d7a" opacity="0.5"/>
        <path id="Path_12989" data-name="Path 12989" d="M-5548.078,2033.808c0,1.154-.811,1.621-1.81,1.044a4,4,0,0,1-1.809-3.133c0-1.154.81-1.621,1.809-1.045A4,4,0,0,1-5548.078,2033.808Z" transform="translate(5655.479 -1848.797)" fill="#d4ecff"/>
        <path id="Path_12990" data-name="Path 12990" d="M-5530.942,2043.7c0,1.154-.81,1.622-1.81,1.045a4,4,0,0,1-1.809-3.134c0-1.154.81-1.621,1.809-1.044A4,4,0,0,1-5530.942,2043.7Z" transform="translate(5646.014 -1854.262)" fill="#ff2c9c"/>
        <path id="Path_12991" data-name="Path 12991" d="M-5513.806,2053.595c0,1.154-.81,1.621-1.809,1.044a4,4,0,0,1-1.81-3.133c0-1.154.81-1.622,1.81-1.045A4,4,0,0,1-5513.806,2053.595Z" transform="translate(5636.548 -1859.727)" fill="#d4ecff"/>
        <path id="Path_12992" data-name="Path 12992" d="M-5548.078,2161.357c0,1.153-.811,1.621-1.81,1.044a4,4,0,0,1-1.809-3.133c0-1.154.81-1.622,1.809-1.045A4,4,0,0,1-5548.078,2161.357Z" transform="translate(5655.479 -1919.251)" fill="#ff2c9c"/>
        <path id="Path_12993" data-name="Path 12993" d="M-5530.942,2171.25c0,1.154-.81,1.622-1.81,1.044a4,4,0,0,1-1.809-3.133c0-1.154.81-1.621,1.809-1.044A4,4,0,0,1-5530.942,2171.25Z" transform="translate(5646.014 -1924.716)" fill="#d4ecff"/>
        <path id="Path_12994" data-name="Path 12994" d="M-5513.806,2181.144c0,1.153-.81,1.621-1.809,1.044a4,4,0,0,1-1.81-3.134c0-1.154.81-1.622,1.81-1.045A4,4,0,0,1-5513.806,2181.144Z" transform="translate(5636.548 -1930.181)" fill="#fff"/>
        <path id="Path_12995" data-name="Path 12995" d="M-5548.078,2289.869c0,1.154-.811,1.622-1.81,1.045a4,4,0,0,1-1.809-3.134c0-1.153.81-1.621,1.809-1.044A4,4,0,0,1-5548.078,2289.869Z" transform="translate(5655.479 -1990.237)" fill="#fff"/>
        <path id="Path_12996" data-name="Path 12996" d="M-5530.942,2299.763c0,1.153-.81,1.621-1.81,1.044a4,4,0,0,1-1.809-3.134c0-1.154.81-1.622,1.809-1.044A4,4,0,0,1-5530.942,2299.763Z" transform="translate(5646.014 -1995.702)" fill="#ff2c9c"/>
        <path id="Path_12997" data-name="Path 12997" d="M-5513.806,2309.656c0,1.154-.81,1.622-1.809,1.045a4,4,0,0,1-1.81-3.134c0-1.154.81-1.621,1.81-1.044A4,4,0,0,1-5513.806,2309.656Z" transform="translate(5636.548 -2001.167)" fill="#fff"/>
        <path id="Path_12998" data-name="Path 12998" d="M-5548.078,2416.51c0,1.154-.811,1.622-1.81,1.045a4,4,0,0,1-1.809-3.134c0-1.153.81-1.621,1.809-1.044A4,4,0,0,1-5548.078,2416.51Z" transform="translate(5655.479 -2060.189)" fill="#fff"/>
        <path id="Path_12999" data-name="Path 12999" d="M-5530.942,2426.4c0,1.154-.81,1.622-1.81,1.044a4,4,0,0,1-1.809-3.133c0-1.154.81-1.622,1.809-1.045A4,4,0,0,1-5530.942,2426.4Z" transform="translate(5646.014 -2065.654)" fill="#d4ecff"/>
        <path id="Path_13000" data-name="Path 13000" d="M-5513.806,2436.3c0,1.153-.81,1.621-1.809,1.044a4,4,0,0,1-1.81-3.134c0-1.154.81-1.621,1.81-1.044A4,4,0,0,1-5513.806,2436.3Z" transform="translate(5636.548 -2071.119)" fill="#d4ecff"/>
        <path id="Path_13001" data-name="Path 13001" d="M-5548.078,2544.878c0,1.154-.811,1.622-1.81,1.045a4,4,0,0,1-1.809-3.134c0-1.154.81-1.621,1.809-1.044A4,4,0,0,1-5548.078,2544.878Z" transform="translate(5655.479 -2131.096)" fill="#fff"/>
        <path id="Path_13002" data-name="Path 13002" d="M-5530.942,2554.772c0,1.153-.81,1.621-1.81,1.044a4,4,0,0,1-1.809-3.134c0-1.154.81-1.622,1.809-1.045A4,4,0,0,1-5530.942,2554.772Z" transform="translate(5646.014 -2136.561)" fill="#ff2c9c"/>
        <path id="Path_13003" data-name="Path 13003" d="M-5513.806,2564.666c0,1.154-.81,1.621-1.809,1.044a4,4,0,0,1-1.81-3.134c0-1.154.81-1.621,1.81-1.044A4,4,0,0,1-5513.806,2564.666Z" transform="translate(5636.548 -2142.026)" fill="#d4ecff"/>
        <path id="Path_13004" data-name="Path 13004" d="M-5421.657,2213.894V1958.3l.529-.3,106.82-61.674v255.6l-.529.3Zm2.115-254.372v250.707l103.118-59.535V1899.986Z" transform="translate(5583.649 -1774.721)" fill="#173d7a"/>
        <path id="Path_13005" data-name="Path 13005" d="M-5310.125,2100.428l-47.9,27.653c-3.217,1.858-5.826-.114-5.826-4.4v-26.556c0-4.29,2.608-9.274,5.826-11.131l47.9-27.653c3.217-1.858,5.826.114,5.826,4.4V2089.3C-5304.3,2093.586-5306.907,2098.57-5310.125,2100.428Z" transform="translate(5551.717 -1863.827)" fill="#173d7a"/>
        <path id="Path_13006" data-name="Path 13006" d="M-5308.429,2057.823a7.687,7.687,0,0,1,.432,2.663v26.557c0,4.29-2.608,9.273-5.826,11.131l-47.9,27.653a5.627,5.627,0,0,1-1.162.514c.864,2.345,2.95,3.152,5.394,1.741l47.9-27.653c3.217-1.858,5.825-6.842,5.825-11.131v-26.556C-5303.766,2058.983-5305.769,2057.006-5308.429,2057.823Z" transform="translate(5551.184 -1863.829)" fill="#5793ce"/>
        <g id="Group_1022" data-name="Group 1022" transform="translate(196.885 220.388)">
          <path id="Path_13007" data-name="Path 13007" d="M-5265.354,2117.231c.886-.511,1.6-.1,1.6.926v6.049a3.543,3.543,0,0,1-1.6,2.777c-.886.511-1.6.1-1.6-.926v-6.049A3.544,3.544,0,0,1-5265.354,2117.231Z" transform="translate(5301.313 -2117.012)" fill="#fff"/>
          <path id="Path_13008" data-name="Path 13008" d="M-5280.7,2127.783c.886-.511,1.6-.1,1.6.925V2134a3.543,3.543,0,0,1-1.6,2.777c-.886.511-1.6.1-1.6-.926v-5.293A3.542,3.542,0,0,1-5280.7,2127.783Z" transform="translate(5309.792 -2122.84)" fill="#d4ecff"/>
          <path id="Path_13009" data-name="Path 13009" d="M-5296.054,2123.451c.886-.511,1.6-.1,1.6.925v11.2a3.543,3.543,0,0,1-1.6,2.777c-.885.511-1.6.1-1.6-.926v-11.2A3.543,3.543,0,0,1-5296.054,2123.451Z" transform="translate(5318.27 -2120.448)" fill="#ff2c9c"/>
          <path id="Path_13010" data-name="Path 13010" d="M-5311.4,2117.9c.886-.512,1.6-.1,1.6.926v17.652a3.543,3.543,0,0,1-1.6,2.777c-.886.511-1.6.1-1.6-.926v-17.652A3.544,3.544,0,0,1-5311.4,2117.9Z" transform="translate(5326.749 -2117.38)" fill="#d4ecff"/>
          <path id="Path_13011" data-name="Path 13011" d="M-5326.753,2130.895c.886-.511,1.6-.1,1.6.925v15.8a3.543,3.543,0,0,1-1.6,2.777c-.886.512-1.6.1-1.6-.926v-15.8A3.543,3.543,0,0,1-5326.753,2130.895Z" transform="translate(5335.227 -2124.559)" fill="#d4ecff"/>
          <path id="Path_13012" data-name="Path 13012" d="M-5342.1,2155.885c.886-.512,1.6-.1,1.6.926v8.582a3.542,3.542,0,0,1-1.6,2.777c-.885.511-1.6.1-1.6-.926v-8.582A3.543,3.543,0,0,1-5342.1,2155.885Z" transform="translate(5343.706 -2138.363)" fill="#fff"/>
        </g>
        <path id="Path_13013" data-name="Path 13013" d="M-5266.9,2107.039c0,1.005.706,1.413,1.577.91a3.484,3.484,0,0,0,1.577-2.731c0-1-.706-1.413-1.577-.91A3.484,3.484,0,0,0-5266.9,2107.039Z" transform="translate(5498.166 -1889.488)" fill="#ff2c9c"/>
        <path id="Path_13014" data-name="Path 13014" d="M-5266.9,2094.337c0,1.006.706,1.413,1.577.91a3.484,3.484,0,0,0,1.577-2.731c0-1.005-.706-1.413-1.577-.91A3.483,3.483,0,0,0-5266.9,2094.337Z" transform="translate(5498.166 -1882.471)" fill="#fff"/>
      </g>
      <g id="Group_1036" data-name="Group 1036" transform="translate(-4809.809 1624.67)">
        <g id="Group_1026" data-name="Group 1026" transform="translate(0)">
          <g id="Group_1025" data-name="Group 1025">
            <path id="Path_13015" data-name="Path 13015" d="M-3843.56,2609.343l-117.31-67.729c-4.3-2.482-3.76-6.818,1.2-9.684l124.336-71.972c4.964-2.866,12.473-3.177,16.772-.7l117.31,67.729c4.3,2.482,3.76,6.817-1.2,9.684l-124.336,71.971C-3831.751,2611.514-3839.26,2611.825-3843.56,2609.343Z" transform="translate(3975.947 -2084.747)" fill="#173d7a" opacity="0.5"/>
            <g id="Group_1024" data-name="Group 1024">
              <path id="Path_13016" data-name="Path 13016" d="M-3537.024,2021.869l-125.434-72.419c-4.878-2.816-8.833-10.372-8.833-16.876V1632.407c0-6.5,3.955-9.494,8.833-6.677l125.434,72.419c4.878,2.816,8.833,10.372,8.833,16.876v300.166C-3528.192,2021.7-3532.146,2024.685-3537.024,2021.869Z" transform="translate(3814.39 -1624.67)" fill="url(#linear-gradient-4)"/>
              <path id="Path_13017" data-name="Path 13017" d="M-3709.885,1698.155l-125.434-72.419c-2.181-1.259-4.173-1.35-5.714-.494h0l-143.2,82.615,6.747,24.971,130.573,371.874,142.63-82.264c.023-.013.046-.027.07-.041l.254-.146,0-.012c1.785-1.124,2.913-3.577,2.913-7.041V1715.031C-3701.052,1708.527-3705.007,1700.971-3709.885,1698.155Z" transform="translate(3987.25 -1624.675)" fill="#08994b"/>
              <path id="Path_13018" data-name="Path 13018" d="M-3709.885,1698.155l-125.434-72.419c-2.181-1.259-4.173-1.35-5.714-.494h0l-143.2,82.615,6.747,24.971,35.906,102.26,6.759,3.9,231.3-133.542A17.645,17.645,0,0,0-3709.885,1698.155Z" transform="translate(3987.25 -1624.675)" fill="#a4ce4c"/>
              <path id="Path_13019" data-name="Path 13019" d="M-3856.7,2206.279l-125.434-72.419c-4.878-2.817-8.832-10.372-8.832-16.876V1816.818c0-6.5,3.954-9.493,8.832-6.677l125.434,72.419c4.878,2.816,8.832,10.372,8.832,16.876V2199.6C-3847.871,2206.106-3851.826,2209.1-3856.7,2206.279Z" transform="translate(3990.97 -1726.533)" fill="#016b37"/>
              <path id="Path_13020" data-name="Path 13020" d="M-3853.486,2207.378l-109.653-63.308c-4.264-2.462-7.721-9.067-7.721-14.753V1850.548c0-5.686,3.457-8.3,7.721-5.837l109.653,63.308c4.265,2.462,7.721,9.067,7.721,14.753v278.77C-3845.765,2207.227-3849.222,2209.84-3853.486,2207.378Z" transform="translate(3979.862 -1745.702)" fill="url(#linear-gradient-5)"/>
              <path id="Path_13021" data-name="Path 13021" d="M-3853.486,2207.378l-109.653-63.308c-4.264-2.462-7.721-9.067-7.721-14.753V1850.548c0-5.686,3.457-8.3,7.721-5.837l109.653,63.308c4.265,2.462,7.721,9.067,7.721,14.753v278.77C-3845.765,2207.227-3849.222,2209.84-3853.486,2207.378Z" transform="translate(3979.862 -1745.702)" fill="url(#linear-gradient-5)"/>
              <path id="Path_13022" data-name="Path 13022" d="M-3853.486,2207.378l-109.653-63.308c-4.264-2.462-7.721-9.067-7.721-14.753V1850.548c0-5.686,3.457-8.3,7.721-5.837l109.653,63.308c4.265,2.462,7.721,9.067,7.721,14.753v278.77C-3845.765,2207.227-3849.222,2209.84-3853.486,2207.378Z" transform="translate(3979.862 -1745.702)" fill="#a4ce4c"/>
              <path id="Path_13023" data-name="Path 13023" d="M-3849.9,2205.272l-109.653-63.308c-4.264-2.462-7.721-9.067-7.721-14.752v-278.77a8.919,8.919,0,0,1,1.108-4.655c-2.757-.021-4.691,2.51-4.691,6.762v278.77c0,5.686,3.457,12.291,7.721,14.752l109.653,63.308c2.81,1.623,5.262,1.03,6.613-1.183A6.209,6.209,0,0,1-3849.9,2205.272Z" transform="translate(3979.862 -1745.703)" fill="#396caa"/>
            </g>
          </g>
        </g>
        <g id="Group_1028" data-name="Group 1028" transform="translate(20.617 110.224)">
          <g id="Group_1027" data-name="Group 1027">
            <path id="Path_13024" data-name="Path 13024" d="M-3839.154,2341.087l-40.756-23.531-65,37.53,113.48,65.518V2355.84C-3831.433,2350.154-3834.89,2343.548-3839.154,2341.087Z" transform="translate(3944.913 -2117.621)" fill="#0d3455"/>
            <path id="Path_13025" data-name="Path 13025" d="M-3839.154,2213.473l-40.756-23.53-65,37.53,113.48,65.517v-64.763C-3831.433,2222.541-3834.89,2215.935-3839.154,2213.473Z" transform="translate(3944.913 -2047.132)" fill="#0d3455"/>
            <path id="Path_13026" data-name="Path 13026" d="M-3839.154,2085.859l-40.756-23.53-65,37.53,113.48,65.518v-64.764C-3831.433,2094.927-3834.89,2088.321-3839.154,2085.859Z" transform="translate(3944.913 -1976.642)" fill="#0d3455"/>
            <path id="Path_13027" data-name="Path 13027" d="M-3839.154,1958.245l-40.756-23.53-65,37.53,113.48,65.518V1973C-3831.433,1967.313-3834.89,1960.707-3839.154,1958.245Z" transform="translate(3944.913 -1906.152)" fill="#0d3455"/>
            <path id="Path_13028" data-name="Path 13028" d="M-3839.154,1923l-90.228-52.093-15.531,8.967,113.48,65.518v-7.638C-3831.433,1932.067-3834.89,1925.462-3839.154,1923Z" transform="translate(3944.913 -1870.907)" fill="#0d3455"/>
          </g>
          <path id="Path_13029" data-name="Path 13029" d="M-3831.433,1956.457l-113.48-65.518v36.105l113.48,65.518Z" transform="translate(3944.913 -1881.972)" fill="#a4ce4c"/>
          <path id="Path_13030" data-name="Path 13030" d="M-3831.433,2084.071l-113.48-65.518v36.105l113.48,65.518Z" transform="translate(3944.913 -1952.462)" fill="#a4ce4c"/>
          <path id="Path_13031" data-name="Path 13031" d="M-3831.433,2211.685l-113.48-65.518v36.105l113.48,65.518Z" transform="translate(3944.913 -2022.951)" fill="#a4ce4c"/>
          <path id="Path_13032" data-name="Path 13032" d="M-3831.433,2339.3l-113.48-65.518v36.105l113.48,65.518Z" transform="translate(3944.913 -2093.441)" fill="#a4ce4c"/>
          <path id="Path_13033" data-name="Path 13033" d="M-3831.433,2466.912l-113.48-65.518V2437.5l113.48,65.518Z" transform="translate(3944.913 -2163.931)" fill="#a4ce4c"/>
        </g>
        <g id="Group_1029" data-name="Group 1029" transform="translate(34.245 136.753)">
          <path id="Path_13034" data-name="Path 13034" d="M-3824.624,2001.367l-85.475-49.348c-2.413-1.394-4.37-5.132-4.37-8.349V1934c0-3.218,1.957-4.7,4.37-3.3l85.475,49.348c2.413,1.393,4.369,5.132,4.369,8.349v9.669C-3820.254,2001.281-3822.21,2002.76-3824.624,2001.367Z" transform="translate(3914.468 -1930.172)" fill="#0d3455"/>
          <path id="Path_13035" data-name="Path 13035" d="M-3905.778,1950.167c-2.414-1.393-4.37-5.131-4.37-8.349v-9.669a6.288,6.288,0,0,1,.16-1.389l-.109-.063c-2.414-1.394-4.37.086-4.37,3.3v9.669c0,3.218,1.957,6.955,4.37,8.349l85.474,49.348c2.027,1.171,3.715.3,4.209-1.915Z" transform="translate(3914.468 -1930.172)" fill="#06033e" opacity="0.3"/>
          <path id="Path_13036" data-name="Path 13036" d="M-3839.045,1988.085l-51.435-29.7a3.682,3.682,0,0,1-1.537-2.937h0c0-1.132.688-1.652,1.537-1.162l51.435,29.7a3.68,3.68,0,0,1,1.537,2.937h0C-3837.507,1988.055-3838.2,1988.575-3839.045,1988.085Z" transform="translate(3902.067 -1943.392)" fill="#fff"/>
        </g>
        <g id="Group_1030" data-name="Group 1030" transform="translate(34.245 193.524)">
          <path id="Path_13037" data-name="Path 13037" d="M-3824.624,2128.193l-85.475-49.349c-2.413-1.393-4.37-5.131-4.37-8.349v-9.669c0-3.218,1.957-4.7,4.37-3.3l85.475,49.349c2.413,1.393,4.369,5.131,4.369,8.349v9.669C-3820.254,2128.107-3822.21,2129.586-3824.624,2128.193Z" transform="translate(3914.468 -2056.998)" fill="#0d3455"/>
          <path id="Path_13038" data-name="Path 13038" d="M-3905.778,2076.993c-2.414-1.394-4.37-5.131-4.37-8.349v-9.669a6.287,6.287,0,0,1,.16-1.389l-.109-.063c-2.414-1.393-4.37.086-4.37,3.3v9.669c0,3.218,1.957,6.955,4.37,8.349l85.474,49.348c2.027,1.17,3.715.3,4.209-1.915Z" transform="translate(3914.468 -2056.998)" fill="#06033e" opacity="0.3"/>
          <path id="Path_13039" data-name="Path 13039" d="M-3839.045,2114.911l-51.435-29.7a3.681,3.681,0,0,1-1.537-2.937h0c0-1.132.688-1.652,1.537-1.162l51.435,29.7a3.682,3.682,0,0,1,1.537,2.937h0C-3837.507,2114.881-3838.2,2115.4-3839.045,2114.911Z" transform="translate(3902.067 -2070.218)" fill="#fff"/>
        </g>
        <g id="Group_1031" data-name="Group 1031" transform="translate(34.245 250.825)">
          <path id="Path_13040" data-name="Path 13040" d="M-3824.624,2256.2l-85.475-49.349c-2.413-1.393-4.37-5.131-4.37-8.349v-9.669c0-3.218,1.957-4.7,4.37-3.3l85.475,49.348c2.413,1.394,4.369,5.131,4.369,8.35v9.669C-3820.254,2256.115-3822.21,2257.594-3824.624,2256.2Z" transform="translate(3914.468 -2185.006)" fill="#0d3455"/>
          <path id="Path_13041" data-name="Path 13041" d="M-3905.778,2205c-2.414-1.394-4.37-5.131-4.37-8.349v-9.669a6.283,6.283,0,0,1,.16-1.389l-.109-.063c-2.414-1.394-4.37.085-4.37,3.3v9.669c0,3.218,1.957,6.956,4.37,8.349l85.474,49.348c2.027,1.171,3.715.3,4.209-1.915Z" transform="translate(3914.468 -2185.006)" fill="#06033e" opacity="0.3"/>
          <path id="Path_13042" data-name="Path 13042" d="M-3839.045,2242.919l-51.435-29.7a3.681,3.681,0,0,1-1.537-2.937h0c0-1.132.688-1.652,1.537-1.162l51.435,29.7a3.681,3.681,0,0,1,1.537,2.937h0C-3837.507,2242.889-3838.2,2243.409-3839.045,2242.919Z" transform="translate(3902.067 -2198.226)" fill="#d4ecff"/>
        </g>
        <g id="Group_1032" data-name="Group 1032" transform="translate(34.245 308.654)">
          <path id="Path_13043" data-name="Path 13043" d="M-3824.624,2385.39l-85.475-49.349c-2.413-1.393-4.37-5.131-4.37-8.349v-9.669c0-3.218,1.957-4.7,4.37-3.3l85.475,49.349c2.413,1.393,4.369,5.131,4.369,8.349v9.669C-3820.254,2385.3-3822.21,2386.783-3824.624,2385.39Z" transform="translate(3914.468 -2314.195)" fill="#0d3455"/>
          <path id="Path_13044" data-name="Path 13044" d="M-3905.778,2334.19c-2.414-1.393-4.37-5.131-4.37-8.349v-9.669a6.283,6.283,0,0,1,.16-1.389l-.109-.063c-2.414-1.394-4.37.086-4.37,3.3v9.669c0,3.218,1.957,6.955,4.37,8.349l85.474,49.348c2.027,1.171,3.715.3,4.209-1.915Z" transform="translate(3914.468 -2314.195)" fill="#06033e" opacity="0.3"/>
          <path id="Path_13045" data-name="Path 13045" d="M-3839.045,2372.108l-51.435-29.7a3.681,3.681,0,0,1-1.537-2.937h0c0-1.132.688-1.652,1.537-1.162l51.435,29.7a3.682,3.682,0,0,1,1.537,2.937h0C-3837.507,2372.078-3838.2,2372.6-3839.045,2372.108Z" transform="translate(3902.067 -2327.415)" fill="#a4ce4c"/>
        </g>
        <g id="Group_1033" data-name="Group 1033" transform="translate(34.245 365.337)">
          <path id="Path_13046" data-name="Path 13046" d="M-3824.624,2512.019l-85.475-49.349c-2.413-1.394-4.37-5.131-4.37-8.349v-9.669c0-3.217,1.957-4.7,4.37-3.3l85.475,49.348c2.413,1.394,4.369,5.132,4.369,8.349v9.669C-3820.254,2511.933-3822.21,2513.412-3824.624,2512.019Z" transform="translate(3914.468 -2440.825)" fill="#0d3455"/>
          <path id="Path_13047" data-name="Path 13047" d="M-3905.778,2460.819c-2.414-1.393-4.37-5.131-4.37-8.349V2442.8a6.283,6.283,0,0,1,.16-1.389l-.109-.063c-2.414-1.394-4.37.085-4.37,3.3v9.669c0,3.218,1.957,6.955,4.37,8.349l85.474,49.348c2.027,1.17,3.715.3,4.209-1.915Z" transform="translate(3914.468 -2440.825)" fill="#06033e" opacity="0.3"/>
          <path id="Path_13048" data-name="Path 13048" d="M-3839.045,2498.737l-51.435-29.7a3.682,3.682,0,0,1-1.537-2.937h0c0-1.132.688-1.652,1.537-1.162l51.435,29.7a3.68,3.68,0,0,1,1.537,2.937h0C-3837.507,2498.707-3838.2,2499.227-3839.045,2498.737Z" transform="translate(3902.067 -2454.044)" fill="#d4ecff"/>
        </g>
        <path id="Path_13049" data-name="Path 13049" d="M-3944.913,1890.939l8.936,5.159V1932.2l-8.936-5.159Z" transform="translate(3965.529 -1771.748)" fill="#173d7a" opacity="0.5"/>
        <path id="Path_13050" data-name="Path 13050" d="M-3944.913,2018.553l8.936,5.159v36.105l-8.936-5.159Z" transform="translate(3965.529 -1842.238)" fill="#173d7a" opacity="0.5"/>
        <path id="Path_13051" data-name="Path 13051" d="M-3944.913,2146.167l8.936,5.159v36.105l-8.936-5.159Z" transform="translate(3965.529 -1912.728)" fill="#173d7a" opacity="0.5"/>
        <path id="Path_13052" data-name="Path 13052" d="M-3944.913,2273.78l8.936,5.159v36.105l-8.936-5.159Z" transform="translate(3965.529 -1983.217)" fill="#173d7a" opacity="0.5"/>
        <path id="Path_13053" data-name="Path 13053" d="M-3944.913,2401.394l8.936,5.159v36.105l-8.936-5.159Z" transform="translate(3965.529 -2053.707)" fill="#173d7a" opacity="0.5"/>
        <path id="Path_13054" data-name="Path 13054" d="M-3755.506,2033.808c0,1.154-.81,1.621-1.809,1.044a4,4,0,0,1-1.809-3.133c0-1.154.81-1.621,1.809-1.045A4,4,0,0,1-3755.506,2033.808Z" transform="translate(3862.906 -1848.797)" fill="#d4ecff"/>
        <path id="Path_13055" data-name="Path 13055" d="M-3738.37,2043.7c0,1.154-.81,1.622-1.81,1.045a4,4,0,0,1-1.809-3.134c0-1.154.81-1.621,1.809-1.044A4,4,0,0,1-3738.37,2043.7Z" transform="translate(3853.44 -1854.262)" fill="#a4ce4c"/>
        <path id="Path_13056" data-name="Path 13056" d="M-3721.234,2053.595c0,1.154-.81,1.621-1.809,1.044a4,4,0,0,1-1.809-3.133c0-1.154.81-1.622,1.809-1.045A4,4,0,0,1-3721.234,2053.595Z" transform="translate(3843.975 -1859.727)" fill="#d4ecff"/>
        <path id="Path_13057" data-name="Path 13057" d="M-3755.506,2161.357c0,1.153-.81,1.621-1.809,1.044a4,4,0,0,1-1.809-3.133c0-1.154.81-1.622,1.809-1.045A4,4,0,0,1-3755.506,2161.357Z" transform="translate(3862.906 -1919.251)" fill="#a4ce4c"/>
        <path id="Path_13058" data-name="Path 13058" d="M-3738.37,2171.25c0,1.154-.81,1.622-1.81,1.044a4,4,0,0,1-1.809-3.133c0-1.154.81-1.621,1.809-1.044A4,4,0,0,1-3738.37,2171.25Z" transform="translate(3853.44 -1924.716)" fill="#d4ecff"/>
        <path id="Path_13059" data-name="Path 13059" d="M-3721.234,2181.144c0,1.153-.81,1.621-1.809,1.044a4,4,0,0,1-1.809-3.134c0-1.154.81-1.622,1.809-1.045A4,4,0,0,1-3721.234,2181.144Z" transform="translate(3843.975 -1930.181)" fill="#fff"/>
        <path id="Path_13060" data-name="Path 13060" d="M-3755.506,2289.869c0,1.154-.81,1.622-1.809,1.045a4,4,0,0,1-1.809-3.134c0-1.153.81-1.621,1.809-1.044A4,4,0,0,1-3755.506,2289.869Z" transform="translate(3862.906 -1990.237)" fill="#fff"/>
        <path id="Path_13061" data-name="Path 13061" d="M-3738.37,2299.763c0,1.153-.81,1.621-1.81,1.044a4,4,0,0,1-1.809-3.134c0-1.154.81-1.622,1.809-1.044A4,4,0,0,1-3738.37,2299.763Z" transform="translate(3853.44 -1995.702)" fill="#a4ce4c"/>
        <path id="Path_13062" data-name="Path 13062" d="M-3721.234,2309.656c0,1.154-.81,1.622-1.809,1.045a4,4,0,0,1-1.809-3.134c0-1.154.81-1.621,1.809-1.044A4,4,0,0,1-3721.234,2309.656Z" transform="translate(3843.975 -2001.167)" fill="#fff"/>
        <path id="Path_13063" data-name="Path 13063" d="M-3755.506,2416.51c0,1.154-.81,1.622-1.809,1.045a4,4,0,0,1-1.809-3.134c0-1.153.81-1.621,1.809-1.044A4,4,0,0,1-3755.506,2416.51Z" transform="translate(3862.906 -2060.189)" fill="#fff"/>
        <path id="Path_13064" data-name="Path 13064" d="M-3738.37,2426.4c0,1.154-.81,1.622-1.81,1.044a4,4,0,0,1-1.809-3.133c0-1.154.81-1.622,1.809-1.045A4,4,0,0,1-3738.37,2426.4Z" transform="translate(3853.44 -2065.654)" fill="#d4ecff"/>
        <path id="Path_13065" data-name="Path 13065" d="M-3721.234,2436.3c0,1.153-.81,1.621-1.809,1.044a4,4,0,0,1-1.809-3.134c0-1.154.81-1.621,1.809-1.044A4,4,0,0,1-3721.234,2436.3Z" transform="translate(3843.975 -2071.119)" fill="#d4ecff"/>
        <path id="Path_13066" data-name="Path 13066" d="M-3755.506,2544.878c0,1.154-.81,1.622-1.809,1.045a4,4,0,0,1-1.809-3.134c0-1.154.81-1.621,1.809-1.044A4,4,0,0,1-3755.506,2544.878Z" transform="translate(3862.906 -2131.096)" fill="#fff"/>
        <path id="Path_13067" data-name="Path 13067" d="M-3738.37,2554.772c0,1.153-.81,1.621-1.81,1.044a4,4,0,0,1-1.809-3.134c0-1.154.81-1.622,1.809-1.045A4,4,0,0,1-3738.37,2554.772Z" transform="translate(3853.44 -2136.561)" fill="#a4ce4c"/>
        <path id="Path_13068" data-name="Path 13068" d="M-3721.234,2564.666c0,1.154-.81,1.621-1.809,1.044a4,4,0,0,1-1.809-3.134c0-1.154.81-1.621,1.809-1.044A4,4,0,0,1-3721.234,2564.666Z" transform="translate(3843.975 -2142.026)" fill="#d4ecff"/>
        <path id="Path_13069" data-name="Path 13069" d="M-3629.085,2213.894V1958.3l.529-.3,106.821-61.674v255.6l-.529.3Zm2.116-254.372v250.707l103.118-59.535V1899.986Z" transform="translate(3791.076 -1774.721)" fill="#0d3455"/>
        <path id="Path_13070" data-name="Path 13070" d="M-3517.552,2100.428l-47.9,27.653c-3.218,1.858-5.826-.114-5.826-4.4v-26.556c0-4.29,2.608-9.274,5.826-11.131l47.9-27.653c3.218-1.858,5.825.114,5.825,4.4V2089.3C-3511.727,2093.586-3514.335,2098.57-3517.552,2100.428Z" transform="translate(3759.144 -1863.827)" fill="#0d3455"/>
        <path id="Path_13071" data-name="Path 13071" d="M-3515.857,2057.823a7.687,7.687,0,0,1,.432,2.663v26.557c0,4.29-2.608,9.273-5.825,11.131l-47.9,27.653a5.638,5.638,0,0,1-1.162.514c.865,2.345,2.95,3.152,5.394,1.741l47.9-27.653c3.218-1.858,5.826-6.842,5.826-11.131v-26.556C-3511.193,2058.983-3513.2,2057.006-3515.857,2057.823Z" transform="translate(3758.611 -1863.829)" fill="#5793ce"/>
        <g id="Group_1035" data-name="Group 1035" transform="translate(196.885 208.919)">
          <g id="Group_1034" data-name="Group 1034" transform="translate(0 11.469)">
            <path id="Path_13072" data-name="Path 13072" d="M-3472.782,2117.231c.885-.511,1.6-.1,1.6.926v6.049a3.543,3.543,0,0,1-1.6,2.777c-.886.511-1.6.1-1.6-.926v-6.049A3.543,3.543,0,0,1-3472.782,2117.231Z" transform="translate(3508.74 -2117.012)" fill="#fff"/>
            <path id="Path_13073" data-name="Path 13073" d="M-3488.132,2127.783c.886-.511,1.6-.1,1.6.925V2134a3.542,3.542,0,0,1-1.6,2.777c-.885.511-1.6.1-1.6-.926v-5.293A3.544,3.544,0,0,1-3488.132,2127.783Z" transform="translate(3517.219 -2122.84)" fill="#d4ecff"/>
            <path id="Path_13074" data-name="Path 13074" d="M-3503.481,2123.451c.885-.511,1.6-.1,1.6.925v11.2a3.544,3.544,0,0,1-1.6,2.777c-.886.511-1.6.1-1.6-.926v-11.2A3.542,3.542,0,0,1-3503.481,2123.451Z" transform="translate(3525.698 -2120.448)" fill="#a4ce4c"/>
            <path id="Path_13075" data-name="Path 13075" d="M-3518.831,2117.9c.886-.512,1.6-.1,1.6.926v17.652a3.543,3.543,0,0,1-1.6,2.777c-.885.511-1.6.1-1.6-.926v-17.652A3.544,3.544,0,0,1-3518.831,2117.9Z" transform="translate(3534.176 -2117.38)" fill="#d4ecff"/>
            <path id="Path_13076" data-name="Path 13076" d="M-3534.181,2130.895c.885-.511,1.6-.1,1.6.925v15.8a3.544,3.544,0,0,1-1.6,2.777c-.886.512-1.6.1-1.6-.926v-15.8A3.543,3.543,0,0,1-3534.181,2130.895Z" transform="translate(3542.655 -2124.559)" fill="#d4ecff"/>
            <path id="Path_13077" data-name="Path 13077" d="M-3549.53,2155.885c.886-.512,1.6-.1,1.6.926v8.582a3.541,3.541,0,0,1-1.6,2.777c-.885.511-1.6.1-1.6-.926v-8.582A3.543,3.543,0,0,1-3549.53,2155.885Z" transform="translate(3551.133 -2138.363)" fill="#fff"/>
          </g>
          <path id="Path_13078" data-name="Path 13078" d="M-3474.326,2107.039c0,1.005.706,1.413,1.576.91a3.485,3.485,0,0,0,1.577-2.731c0-1-.706-1.413-1.577-.91A3.485,3.485,0,0,0-3474.326,2107.039Z" transform="translate(3508.707 -2098.407)" fill="#a4ce4c"/>
          <path id="Path_13079" data-name="Path 13079" d="M-3474.326,2094.337c0,1.006.706,1.413,1.576.91a3.485,3.485,0,0,0,1.577-2.731c0-1.005-.706-1.413-1.577-.91A3.485,3.485,0,0,0-3474.326,2094.337Z" transform="translate(3508.707 -2091.391)" fill="#fff"/>
        </g>
      </g>
    </g>
    <text id="Your_Existing_Platform" data-name="Your Existing Platform" transform="translate(334 6007)" fill="#0d3455" font-size="32" font-family="SegoeUI-Bold, Segoe UI" font-weight="700"><tspan x="32.188" y="35">Your Existing </tspan><tspan x="63.805" y="75">Platform</tspan></text>
    <text id="Our_Existing_Platform" data-name="Our Existing Platform" transform="translate(1313 6007)" fill="#0d3455" font-size="32" font-family="SegoeUI-Bold, Segoe UI" font-weight="700"><tspan x="38.109" y="35">Our Existing </tspan><tspan x="63.805" y="75">Platform</tspan></text>
    <g id="Group_1039" data-name="Group 1039" transform="translate(-17.5)">
      <g id="Group_1038" data-name="Group 1038">
        <g id="Rectangle_135" data-name="Rectangle 135" transform="translate(823 6176)" fill="none" stroke="#707070" stroke-width="1" stroke-dasharray="4">
          <rect width="288" height="190" stroke="none"/>
          <rect x="0.5" y="0.5" width="287" height="189" fill="none"/>
        </g>
        <text id="API_Application_Programming_Interface" data-name="API 
Application
Programming
Interface" transform="translate(967 6222)" fill="#0d3455" font-size="32" font-family="SegoeUI-Bold, Segoe UI" font-weight="700"><tspan x="-30.563" y="0">API </tspan><tspan font-family="SegoeUI, Segoe UI" font-weight="400"><tspan x="-80.141" y="40">Application</tspan><tspan x="-96.727" y="80">Programming</tspan><tspan x="-61.75" y="120">Interface</tspan></tspan></text>
      </g>
      <line id="Line_18" data-name="Line 18" x2="189" transform="translate(1111.5 6271)" fill="none" stroke="#707070" stroke-width="1" stroke-dasharray="4 4"/>
      <line id="Line_19" data-name="Line 19" x2="189" transform="translate(633.5 6271)" fill="none" stroke="#707070" stroke-width="1" stroke-dasharray="4 4"/>
    </g>
    <text id="Intergration" transform="translate(701 6254)" fill="#0d3455" font-size="24" font-family="SegoeUI-Bold, Segoe UI" font-weight="700"><tspan x="-68.244" y="0">Intergration</tspan></text>
  </g>
</svg>
