<svg id="Group_1011" data-name="Group 1011" xmlns="http://www.w3.org/2000/svg" xmlns:xlink="http://www.w3.org/1999/xlink" width="87.141" height="91.391" viewBox="0 0 87.141 91.391">
  <defs>
    <clipPath id="clip-path">
      <rect id="Rectangle_2311" data-name="Rectangle 2311" width="87.141" height="91.391" fill="#fff"/>
    </clipPath>
  </defs>
  <g id="Group_1010" data-name="Group 1010" clip-path="url(#clip-path)">
    <path id="Path_2927" data-name="Path 2927" d="M84.362,67.149c-3.134.9-6.16,1.769-9.189,2.627a3.445,3.445,0,0,1-3.579-.986Q65.4,62.613,59.2,56.444a3.627,3.627,0,0,1-.986-3.837c.849-2.938,1.708-5.873,2.6-8.941-.269-.128-.659-.332-1.064-.5q-4.494-1.866-8.993-3.721c-1.1-.456-1.17-.841-.319-1.695,2.038-2.043,4.086-4.075,6.118-6.122a10.98,10.98,0,0,1,8.521-3.414c1.244.046,2.487.162,3.73.158a1.482,1.482,0,0,0,1.034-.5C80.027,14.6,93.6,6.626,109.612,2.563c4.339-1.1,8.8-1.742,13.218-2.5a4.4,4.4,0,0,1,5.07,4.252,31.426,31.426,0,0,1-.558,5.145,85.013,85.013,0,0,1-8.956,27.262,65.165,65.165,0,0,1-18.121,21.247,1.5,1.5,0,0,0-.654,1.447,45.714,45.714,0,0,1,.072,5.269A10.175,10.175,0,0,1,96.567,71.2c-2.112,2.14-4.245,4.259-6.376,6.38-.809.8-1.177.722-1.625-.354q-1.923-4.618-3.835-9.241c-.127-.305-.267-.6-.369-.833m25.4-40.94a7.913,7.913,0,0,0-7.895-7.957,7.953,7.953,0,1,0,7.895,7.957M94.271,39.742a6.048,6.048,0,0,0-6.007-6.051,6.045,6.045,0,1,0,.009,12.09,6,6,0,0,0,6-6.039" transform="translate(-40.759 0)" fill="#fff"/>
    <path id="Path_2928" data-name="Path 2928" d="M7.091,341.3a12.114,12.114,0,0,0-5.449-.6,1.747,1.747,0,0,1-1.34-.383,1.711,1.711,0,0,1,.051-1.407,18.7,18.7,0,0,1,3.917-5.763,8.688,8.688,0,0,1,10.28-1.9,29.866,29.866,0,0,1,2.776,1.545c.683.389.711.773.082,1.306a10.861,10.861,0,0,0-3.834,7.5c-.018.181-.025.363-.028.545-.025,1.211.261,1.513,1.5,1.457a10.983,10.983,0,0,0,7.821-3.561c.86-.92.942-.929,1.68.081,1.636,2.24,2.772,4.673,2.357,7.527a9.772,9.772,0,0,1-7.742,7.77c-1.922.417-3.923.494-5.825.976A62.117,62.117,0,0,0,6,358.716a12,12,0,0,0-3.112,2.16c-1.061.889-1.787.738-2.151-.627-1.829-6.857-.259-12.77,4.94-17.664.437-.411.888-.808,1.416-1.287" transform="translate(0 -270.042)" fill="#fff"/>
  </g>
</svg>
