<svg xmlns="http://www.w3.org/2000/svg" xmlns:xlink="http://www.w3.org/1999/xlink" width="74.957" height="91.391" viewBox="0 0 74.957 91.391">
  <defs>
    <clipPath id="clip-path">
      <rect id="Rectangle_2310" data-name="Rectangle 2310" width="74.957" height="91.391" fill="#fff"/>
    </clipPath>
  </defs>
  <g id="Group_1008" data-name="Group 1008" style="isolation: isolate">
    <g id="Group_1007" data-name="Group 1007" clip-path="url(#clip-path)">
      <path id="Path_2926" data-name="Path 2926" d="M.009,30.985c0-4.53.007-9.06-.009-13.589a1.187,1.187,0,0,1,.8-1.228Q18.841,8.167,36.87.14a1.385,1.385,0,0,1,1.22,0Q55.744,8,73.406,15.838a2.335,2.335,0,0,1,1.536,2.31c0,7.839.046,15.679-.015,23.518a52.47,52.47,0,0,1-9.655,30.079A49.6,49.6,0,0,1,46.986,87.909,42.893,42.893,0,0,1,37.9,91.341a1.762,1.762,0,0,1-.84,0,46.62,46.62,0,0,1-23.1-14.215,53.317,53.317,0,0,1-12.828-25A49.766,49.766,0,0,1,.01,41.6Q0,36.293.009,30.985m31.9,35.73a3.867,3.867,0,0,1,.356-.49Q45.822,52.662,59.382,39.106c.173-.173.346-.345.508-.527A4.644,4.644,0,0,0,53.138,32.2q-10.45,10.453-20.9,20.911a4.063,4.063,0,0,0-.351.48L29.352,51.05l-7.535-7.544a4.649,4.649,0,1,0-6.457,6.686q8.068,8.079,16.147,16.147c.1.1.2.184.405.376" transform="translate(0 -0.001)" fill="#fff"/>
    </g>
  </g>
</svg>
