<svg xmlns="http://www.w3.org/2000/svg" width="113.915" height="113.915" viewBox="0 0 113.915 113.915">
  <g id="Group_934" data-name="Group 934" transform="translate(3 3)">
    <g id="Group_3359" data-name="Group 3359">
      <g id="Group_933" data-name="Group 933" transform="translate(18.712 20.744)">
        <path id="Path_9152" data-name="Path 9152" d="M3313.686,2661.034c.392-.779.756-1.573,1.185-2.331a1.3,1.3,0,0,0,.118-1.368,1.125,1.125,0,0,0-1.946-.093,16.1,16.1,0,0,0-1.241,2.368c-.306.692-.506,1.431-.753,2.15l-.182.016a13.861,13.861,0,0,1-.513-1.92c-.2-1.615-.324-3.241-.476-4.863-.016-.176-.008-.354-.03-.528a1.151,1.151,0,0,0-1.244-1.1,1.133,1.133,0,0,0-1.093,1.205c.038,1.189.073,2.384.215,3.563.161,1.334.44,2.655.678,4.045-.258.24-.584.137-.826-.168a7.885,7.885,0,0,1-1.059-1.506c-1.771-3.824-3.506-7.653-4.1-11.9-1.354-9.672,2.282-20.411,10.143-26.714a22.487,22.487,0,0,1,11.114-4.774,29.037,29.037,0,0,1,7.383-.184,22.692,22.692,0,0,1,11.218,4.416,28.152,28.152,0,0,1,9.031,11.594,46.681,46.681,0,0,0,12.224,16.406,44.765,44.765,0,0,0,7.087,5.375c1.91,1.111,3.968,1.971,5.977,2.905,3.929,1.827,7.844,3.68,11.586,5.875a.618.618,0,0,1,.342.828,50.764,50.764,0,0,1-17.057,27.738,49.561,49.561,0,0,1-14.709,8.552,6.867,6.867,0,0,1-1.858.126c.234-.447.4-.756.556-1.066a56.783,56.783,0,0,0,5.119-13.512,28.371,28.371,0,0,0,.708-6.2,4.364,4.364,0,0,0-1.791-3.6,12.423,12.423,0,0,0-4.05-1.992c-1.44-.457-2.9-.857-4.339-1.315-.989-.315-.98-.34-.692-1.322.214-.733.445-1.461.639-2.2a4.637,4.637,0,0,0-3.089-5.629,4.514,4.514,0,0,0-5.621,2.968q-1.293,3.722-2.6,7.44c-.126.36-.252.72-.383,1.079a1.789,1.789,0,0,1-3.04.867q-4.958-3.969-9.893-7.967c-1.773-1.431-3.532-2.88-5.32-4.292a.573.573,0,0,1-.184-.872c.668-1.157,1.336-2.315,1.986-3.482.393-.7.762-1.423,1.127-2.142a1.138,1.138,0,0,0-.286-1.4,1.152,1.152,0,0,0-1.5-.007c-.722.58-1.428,1.181-2.132,1.782-1.062.905-2.115,1.82-3.177,2.725a.357.357,0,0,1-.267.079,3.822,3.822,0,0,0-2.844.465Zm26.43-13.329c-.031-.336-.043-.675-.1-1.008a11.587,11.587,0,0,0-2.58-5.428,9.823,9.823,0,0,0-4.03-3.194,4.055,4.055,0,0,0-4.56.915,4.883,4.883,0,0,0-1.305,4.714,1.151,1.151,0,0,0,2.2.009,2.891,2.891,0,0,0,.023-.823,2.563,2.563,0,0,1,1.047-2.468,2.03,2.03,0,0,1,2.424.186,9.981,9.981,0,0,1,4.393,6.11c.475,1.93-.236,3.023-2.156,3.559-.042.012-.087.016-.129.029a1.174,1.174,0,0,0-.86,1.429,1.147,1.147,0,0,0,1.388.853C3338.638,2651.992,3340.114,2650.15,3340.117,2647.7Z" transform="translate(-3302.144 -2616.779)" fill="#17a2f0"/>
        <path id="Path_9153" data-name="Path 9153" d="M3368.153,3150.058a6.7,6.7,0,0,1-.538-.432q-5.966-5.824-11.926-11.656a1.7,1.7,0,0,1,.588-2.938,1.766,1.766,0,0,1,1.72.408q3.373,2.772,6.761,5.528,5.619,4.59,11.238,9.18a4.654,4.654,0,0,0,2.626,1.237,2.956,2.956,0,0,0,2.6-1.159,7.4,7.4,0,0,0,1.139-1.962c1.067-2.829,2.063-5.685,3.1-8.527a2.344,2.344,0,0,1,2.394-1.581,2.319,2.319,0,0,1,2.142,1.85,2.638,2.638,0,0,1-.024,1.129q-2.215,8.864-4.463,17.721c-.291,1.153-.554,2.313-.862,3.461a.858.858,0,0,0,.193.871q4.393,5.352,8.76,10.726c.092.112.173.233.3.4-.184.063-.326.119-.474.16a52.706,52.706,0,0,1-15.346,1.865,2.081,2.081,0,0,1-2.122-1.132,17.07,17.07,0,0,0-1.462-2.04,17.905,17.905,0,0,0-6.041-5.046c-1.512-.847-2.983-1.768-4.5-2.607a30.081,30.081,0,0,1-7.186-5.85c-3.24-3.417-6.273-7.012-9.257-10.651a1.65,1.65,0,0,1,.147-2.308,1.833,1.833,0,0,1,2.519.05c.934.937,1.834,1.908,2.748,2.866q2.541,2.666,5.079,5.337a3.364,3.364,0,0,1,.27.371l.121-.117c-.084-.108-.164-.22-.254-.323q-4.952-5.661-9.906-11.32a1.651,1.651,0,1,1,2.422-2.237q6.293,6.371,12.582,12.747c.105.107.219.207.328.309l.111-.091c-.092-.124-.174-.257-.277-.371q-3.438-3.82-6.88-7.636-3.411-3.785-6.821-7.571a1.633,1.633,0,0,1-.3-1.951,1.567,1.567,0,0,1,1.747-.814,2.1,2.1,0,0,1,.879.458q7.188,6.255,14.356,12.531c.432.377.862.757,1.3,1.127a1.965,1.965,0,0,0,.325.186Z" transform="translate(-3343.131 -3089.188)" fill="#084b8e"/>
      </g>
      <g id="Group_932" data-name="Group 932">
        <circle id="Ellipse_19" data-name="Ellipse 19" cx="53.957" cy="53.957" r="53.957" fill="none" stroke="#fff" stroke-miterlimit="10" stroke-width="6"/>
        <line id="Line_6" data-name="Line 6" x2="76.786" y2="76.786" transform="translate(15.526 15.526)" fill="none" stroke="#fff" stroke-miterlimit="10" stroke-width="6"/>
      </g>
    </g>
  </g>
</svg>
