<?xml version="1.0" encoding="utf-8"?>
<!-- Generator: Adobe Illustrator 25.0.0, SVG Export Plug-In . SVG Version: 6.00 Build 0)  -->
<svg version="1.1" id="Layer_1" xmlns="http://www.w3.org/2000/svg" xmlns:xlink="http://www.w3.org/1999/xlink" x="0px" y="0px"
	 viewBox="0 0 453 462" style="enable-background:new 0 0 453 462;" xml:space="preserve">
<style type="text/css">
	.st0{fill:#F7FAFF;}
	.st1{fill:none;stroke:#E2E2E2;}
	.st2{clip-path:url(#SVGID_2_);}
	.st3{clip-path:url(#SVGID_4_);}
	.st4{fill:#FFAC9D;}
	.st5{fill:#CC887F;}
	.st6{fill:#FFA65B;}
	.st7{clip-path:url(#SVGID_6_);}
	.st8{fill:#352C38;}
	.st9{clip-path:url(#SVGID_8_);}
	.st10{fill:#FFFFFF;}
	.st11{fill:#765E69;}
	.st12{opacity:0.4;}
	.st13{clip-path:url(#SVGID_10_);}
	.st14{clip-path:url(#SVGID_12_);}
</style>
<g id="team3" transform="translate(-140 -2672)">
	<g id="Rectangle_3116" transform="translate(140 2672)">
		<path class="st0" d="M5,0h443c2.8,0,5,2.2,5,5v452c0,2.8-2.2,5-5,5H5c-2.8,0-5-2.2-5-5V5C0,2.2,2.2,0,5,0z"/>
		<path class="st1" d="M5,0.5h443c2.5,0,4.5,2,4.5,4.5v452c0,2.5-2,4.5-4.5,4.5H5c-2.5,0-4.5-2-4.5-4.5V5C0.5,2.5,2.5,0.5,5,0.5z"/>
	</g>
	<g id="Group_3122" transform="translate(168 2721.488)">
		<g>
			<defs>
				<rect id="SVGID_1_" y="14" width="415" height="398"/>
			</defs>
			<clipPath id="SVGID_2_">
				<use xlink:href="#SVGID_1_"  style="overflow:visible;"/>
			</clipPath>
			<g id="Group_3121" class="st2">
				<g id="Group_3110">
					<g>
						<defs>
							<rect id="SVGID_3_" y="14" width="415" height="412.5"/>
						</defs>
						<clipPath id="SVGID_4_">
							<use xlink:href="#SVGID_3_"  style="overflow:visible;"/>
						</clipPath>
						<g id="Group_3109" class="st3">
							<path id="Path_5001" class="st4" d="M357,338.3c-14.6-39.1-103.6-57.8-119.2-69.2c-20-14.6-13.6-62.8-13.6-62.8l-32.8,0.9
								l-32.8-0.9c0,0,6.4,48.2-13.6,62.8c-15.6,11.3-104.6,30-119.2,69.2c-8.9,23.9-15.6,48.6-20,73.7H377
								C372.6,386.9,365.9,362.2,357,338.3"/>
							<path id="Path_5002" class="st5" d="M152.6,260.2c15.3-1.6,30.7-4.7,44.1-12.1c9.5-5.4,18.5-11.8,26.6-19.1
								c-0.3-7.5,0-15.1,0.9-22.6l-32.8,0.9l-32.8-0.9C158.6,206.4,163.2,240.7,152.6,260.2"/>
							<path id="Path_5003" class="st6" d="M360.2,337.8c-5.3-14.3-20.6-25.9-38.6-35.4C289.5,324.3,244,338,193.4,338
								s-96.1-13.7-128.2-35.6c-18,9.5-33.2,21.1-38.6,35.4c-8.9,24.1-15.7,48.9-20.2,74.2h374C375.9,386.7,369.2,361.9,360.2,337.8
								"/>
						</g>
					</g>
				</g>
				<g id="Group_3112" transform="translate(6.422 288.324)">
					<g>
						<defs>
							<path id="SVGID_5_" d="M187,49.7c-50.6,0-96.1-13.7-128.2-35.7c-18,9.5-33.2,21.1-38.6,35.4C11.2,73.5,4.5,98.4,0,123.7h374
								c-4.5-25.3-11.2-50.1-20.2-74.2c-5.3-14.3-20.6-25.9-38.6-35.4C283.1,35.9,237.5,49.7,187,49.7"/>
						</defs>
						<clipPath id="SVGID_6_">
							<use xlink:href="#SVGID_5_"  style="overflow:visible;"/>
						</clipPath>
						<g id="Group_3111" class="st7">
							<path id="Path_5004" class="st8" d="M240.7,51.3c0,12.9,10.5,23.4,23.4,23.4c12.9,0,23.4-10.5,23.4-23.4
								c0-12.9-10.5-23.4-23.4-23.4C251.2,27.9,240.7,38.4,240.7,51.3"/>
							<path id="Path_5005" class="st8" d="M158.3,51.3c0,12.9,10.5,23.4,23.4,23.4c12.9,0,23.4-10.5,23.4-23.4
								c0-12.9-10.5-23.4-23.4-23.4C168.8,27.9,158.3,38.4,158.3,51.3L158.3,51.3"/>
							<path id="Path_5006" class="st8" d="M76,51.3c0,12.9,10.5,23.4,23.4,23.4c12.9,0,23.4-10.5,23.4-23.4
								c0-12.9-10.5-23.4-23.4-23.4C86.5,27.9,76,38.4,76,51.3"/>
							<path id="Path_5007" class="st8" d="M-6.4,51.3c0,12.9,10.5,23.4,23.4,23.4c12.9,0,23.4-10.5,23.4-23.4
								C40.5,38.4,30,27.9,17,27.9C4.1,27.9-6.4,38.4-6.4,51.3"/>
							<path id="Path_5008" class="st8" d="M323.1,51.3c0,12.9,10.5,23.4,23.4,23.4c12.9,0,23.4-10.5,23.4-23.4
								c0-12.9-10.5-23.4-23.4-23.4C333.6,27.9,323.1,38.4,323.1,51.3"/>
							<path id="Path_5009" class="st8" d="M279.3,114.7c0,12.9,10.5,23.4,23.4,23.4c12.9,0,23.4-10.5,23.4-23.4
								c0-12.9-10.5-23.4-23.4-23.4C289.8,91.3,279.3,101.8,279.3,114.7C279.3,114.7,279.3,114.7,279.3,114.7"/>
							<path id="Path_5010" class="st8" d="M196.9,114.7c0,12.9,10.5,23.4,23.4,23.4c12.9,0,23.4-10.5,23.4-23.4
								c0-12.9-10.5-23.4-23.4-23.4C207.4,91.3,196.9,101.8,196.9,114.7"/>
							<path id="Path_5011" class="st8" d="M114.6,114.7c0,12.9,10.5,23.4,23.4,23.4c12.9,0,23.4-10.5,23.4-23.4
								c0-12.9-10.5-23.4-23.4-23.4C125.1,91.3,114.6,101.8,114.6,114.7"/>
							<path id="Path_5012" class="st8" d="M32.2,114.7c0,12.9,10.5,23.4,23.4,23.4c12.9,0,23.4-10.5,23.4-23.4
								c0-12.9-10.5-23.4-23.4-23.4C42.7,91.3,32.2,101.8,32.2,114.7"/>
							<path id="Path_5013" class="st8" d="M361.7,114.7c0,12.9,10.5,23.4,23.4,23.4c12.9,0,23.4-10.5,23.4-23.4
								c0-12.9-10.5-23.4-23.4-23.4C372.2,91.3,361.7,101.8,361.7,114.7"/>
						</g>
					</g>
				</g>
				<g id="Group_3120">
					<g>
						<defs>
							<rect id="SVGID_7_" y="14" width="415" height="412.5"/>
						</defs>
						<clipPath id="SVGID_8_">
							<use xlink:href="#SVGID_7_"  style="overflow:visible;"/>
						</clipPath>
						<g id="Group_3119" class="st9">
							<path id="Path_5015" class="st5" d="M244.8,131.2c5.3-16.4,17.8-12.6,19-12.2c1.2,0.1,14.2,2.1,11.9,19.2
								c-2.2,17.2-12.2,26.5-21.6,23.8C244.5,160.4,239.4,147.7,244.8,131.2"/>
							<path id="Path_5016" class="st4" d="M255.7,105.4c-6.6-72-61.3-67.9-66.4-67.4c-5.2-0.5-59.9-4.6-66.4,67.4
								c-6.6,72.4,25.6,119.7,66.4,117.1C230,225,262.3,177.8,255.7,105.4"/>
							<path id="Path_5017" class="st5" d="M197.1,129.9c0.4,1.2,0.7,2.3,1,3.5s0.6,2.3,0.9,3.5c0.5,2.3,1,4.7,1.4,7.1
								c0.4,2.4,0.8,4.7,1.1,7.1c0.3,2.4,0.6,4.8,0.8,7.2l0.1,0.6l-0.4,0.3c-1.4,1.2-2.9,2.4-4.4,3.6c-1.5,1.1-3,2.3-4.6,3.4
								c1.2-1.5,2.4-2.9,3.7-4.4c1.3-1.4,2.6-2.8,3.9-4.2l-0.3,0.9c-0.5-2.4-0.9-4.7-1.3-7.1c-0.4-2.4-0.7-4.8-1-7.1
								c-0.3-2.4-0.5-4.8-0.6-7.2c-0.1-1.2-0.1-2.4-0.1-3.6S197,131.2,197.1,129.9"/>
							<path id="Path_5018" class="st10" d="M157.6,176.9l64.9-0.7C222.5,176.2,196.5,201.7,157.6,176.9"/>
							<path id="Path_5019" class="st5" d="M174.2,189.9c0,0,0.7,0.1,1.9,0.5c1.6,0.5,3.3,0.9,4.9,1.3c1,0.2,2.1,0.4,3.2,0.6
								c1.2,0.2,2.4,0.3,3.7,0.4c1.3,0.2,2.6,0.2,3.9,0.2c1.3-0.1,2.7,0,4-0.1c1.3-0.2,2.7-0.4,4-0.6c1.3-0.2,2.5-0.6,3.8-1
								c1.2-0.3,2.4-0.7,3.5-1.2c1.1-0.5,2.1-0.9,3-1.3c0.9-0.4,1.7-0.8,2.5-1.3l1.9-1.1c1.1-0.6,1.7-0.9,1.7-0.9s-0.5,0.5-1.4,1.4
								l-1.6,1.5c-0.7,0.7-1.4,1.3-2.3,1.8c-0.9,0.6-1.9,1.2-3,1.8c-1.1,0.7-2.3,1.2-3.5,1.6l-1.9,0.7l-1,0.4l-1,0.2l-4.3,0.8
								c-1.4,0.1-2.9,0-4.3,0.1c-1.4,0-2.8-0.1-4.1-0.4c-1.3-0.2-2.6-0.4-3.8-0.8c-1.2-0.4-2.3-0.8-3.3-1.1
								c-0.9-0.3-1.8-0.7-2.6-1.2c-0.8-0.4-1.4-0.8-2-1.1C174.8,190.3,174.2,189.9,174.2,189.9"/>
							<path id="Path_5020" class="st8" d="M155.2,131c0,5.4,2,9.8,4.5,9.8c2.5,0,4.5-4.4,4.5-9.8c0-5.4-2-9.8-4.5-9.8
								C157.2,121.2,155.2,125.6,155.2,131"/>
							<path id="Path_5021" class="st8" d="M217,131c0,5.4,2,9.8,4.5,9.8s4.5-4.4,4.5-9.8c0-5.4-2-9.8-4.5-9.8S217,125.6,217,131"/>
							<path id="Path_5022" class="st8" d="M144.2,115c0.7-1.9,1.8-3.6,3.2-5.1c0.7-0.7,1.4-1.4,2.1-2.1c0.9-0.7,1.8-1.4,2.8-1.9
								c1.1-0.6,2.2-1.1,3.3-1.5c1.2-0.4,2.5-0.7,3.8-0.8c0.7,0,1.3-0.1,2-0.1c0.7,0.1,1.3,0.2,2,0.2c1.3,0.2,2.5,0.6,3.6,1.1
								c1.1,0.5,2.1,1.1,3,1.8c0.8,0.6,1.6,1.3,2.2,2c0.6,0.6,1.1,1.2,1.6,1.9c0.4,0.6,0.7,1.2,1,1.6c0.5,0.9,0.7,1.5,0.7,1.5
								s-0.6-0.3-1.5-0.7c-0.4-0.2-1-0.5-1.6-0.9c-0.7-0.4-1.3-0.7-2-1c-0.8-0.4-1.5-0.7-2.4-1c-0.9-0.3-1.7-0.6-2.6-0.8
								c-0.9-0.2-1.8-0.4-2.8-0.4c-0.5,0-0.9,0-1.4-0.1l-1.4,0.1c-1,0.1-1.9,0.2-2.9,0.4c-0.9,0.3-1.9,0.5-2.8,0.9
								c-0.9,0.3-1.8,0.7-2.6,1.1c-0.9,0.3-1.6,0.8-2.4,1.1l-2,1.1l-1.6,0.9C144.7,114.7,144.2,115,144.2,115"/>
							<path id="Path_5023" class="st8" d="M206.4,115c0.7-1.9,1.8-3.6,3.2-5.1c0.7-0.7,1.4-1.4,2.1-2.1c0.9-0.7,1.8-1.4,2.8-1.9
								c1.1-0.6,2.2-1.1,3.3-1.5c1.2-0.4,2.5-0.7,3.8-0.8c0.7,0,1.3-0.1,2-0.1c0.7,0.1,1.3,0.2,2,0.2c1.3,0.2,2.5,0.6,3.6,1.1
								c1.1,0.5,2.1,1.1,3,1.8c0.8,0.6,1.6,1.3,2.2,2c0.6,0.6,1.1,1.2,1.6,1.9c0.4,0.6,0.7,1.2,1,1.6c0.5,0.9,0.7,1.5,0.7,1.5
								s-0.6-0.3-1.5-0.7c-0.4-0.2-1-0.5-1.6-0.9c-0.7-0.4-1.3-0.7-2-1c-0.8-0.4-1.5-0.7-2.4-1c-0.8-0.3-1.7-0.6-2.6-0.8
								c-0.9-0.2-1.8-0.4-2.8-0.4c-0.5,0-0.9,0-1.4-0.1l-1.4,0.1c-1,0.1-1.9,0.2-2.9,0.4c-0.9,0.3-1.9,0.5-2.8,0.9
								c-0.9,0.3-1.8,0.7-2.6,1.1c-0.9,0.3-1.6,0.8-2.4,1.1l-2,1.1l-1.6,0.9C206.9,114.7,206.4,115,206.4,115"/>
							<path id="Path_5024" class="st11" d="M145.1,49.8c0,0,1.6,45.5,56,53.6l-18.7-21.9c0,0,26,22.7,55.2,19.5
								c0,0-4.1-14.6-19.5-28.4c0,0,57.7,25.2,21.1,134c0,0,42.2-52.8,31.7-117c-12.6-76.3-78.1-84-106.4-69.9
								C140.2,32,145.1,49.8,145.1,49.8"/>
							<path id="Path_5025" class="st11" d="M154.1,32.8c0,0-43.5-12.9-57.7,50.4c-12.2,54.4,12.2,104.8,54.4,138.1
								c0,0-24.4-23.6-26-83.7s35.7-89.3,49.5-95S154.1,32.8,154.1,32.8"/>
							<g id="Group_3115" transform="translate(239.337 55.767)" class="st12">
								<g id="Group_3114">
									<g>
										<defs>
											<rect id="SVGID_9_" x="0" y="14" width="33.4" height="136.8"/>
										</defs>
										<clipPath id="SVGID_10_">
											<use xlink:href="#SVGID_9_"  style="overflow:visible;"/>
										</clipPath>
										<g id="Group_3113" class="st13">
											<path id="Path_5026" class="st8" d="M31.7,33.9c-1.1-6.8-2.7-13.4-4.9-19.9C23,29,16.8,43.2,8.2,56.1
												c6,20.5,6.6,50.8-8.2,94.8C0,150.8,42.2,98,31.7,33.9"/>
										</g>
									</g>
								</g>
							</g>
							<g id="Group_3118" transform="translate(93.25 60.835)" class="st12">
								<g id="Group_3117">
									<g>
										<defs>
											<rect id="SVGID_11_" x="0" y="14" width="57.6" height="146.4"/>
										</defs>
										<clipPath id="SVGID_12_">
											<use xlink:href="#SVGID_11_"  style="overflow:visible;"/>
										</clipPath>
										<g id="Group_3116" class="st14">
											<path id="Path_5027" class="st8" d="M31.6,76.7c-0.4-12.2,1-24.3,4.2-36c-1.4-0.9-2.8-1.7-4.1-2.6
												c-9.7-6.5-18.9-13.4-25.7-23.1c-0.2-0.3-0.4-0.6-0.6-0.9c-0.8,2.6-1.5,5.4-2.2,8.3C-9,76.7,15.3,127.1,57.6,160.4
												C57.6,160.4,33.2,136.8,31.6,76.7"/>
										</g>
									</g>
								</g>
							</g>
							<path id="Path_5028" class="st5" d="M109.6,122.7c-2.9,2.7-5.2,7.4-4.1,15.4c1.7,12.8,7.7,21.3,14.5,23.6
								C115.2,148.2,112.2,134,109.6,122.7"/>
						</g>
					</g>
				</g>
			</g>
		</g>
	</g>
</g>
</svg>
