<?xml version="1.0" encoding="utf-8"?>
<!-- Generator: Adobe Illustrator 25.0.0, SVG Export Plug-In . SVG Version: 6.00 Build 0)  -->
<svg version="1.1" id="Layer_1" xmlns="http://www.w3.org/2000/svg" xmlns:xlink="http://www.w3.org/1999/xlink" x="0px" y="0px"
	 viewBox="0 0 453 461.9" style="enable-background:new 0 0 453 461.9;" xml:space="preserve">
<style type="text/css">
	.st0{fill:#F7FAFF;}
	.st1{fill:none;stroke:#E2E2E2;}
	.st2{clip-path:url(#SVGID_2_);}
	.st3{fill:#965450;}
	.st4{fill:#76413B;}
	.st5{fill:#FFA65B;}
	.st6{clip-path:url(#SVGID_4_);}
	.st7{fill:none;stroke:#765E69;stroke-width:1.413;stroke-miterlimit:10;}
	.st8{fill:none;stroke:#765E69;stroke-miterlimit:10;}
	.st9{clip-path:url(#SVGID_6_);}
	.st10{fill:#352C38;}
	.st11{fill:#FFFFFF;}
</style>
<g id="team2" transform="translate(-140 -2672)">
	<g id="Rectangle_3116" transform="translate(140 2672)">
		<path class="st0" d="M5,0h443c2.8,0,5,2.2,5,5v452c0,2.8-2.2,5-5,5H5c-2.8,0-5-2.2-5-5V5C0,2.2,2.2,0,5,0z"/>
		<path class="st1" d="M5,0.5h443c2.5,0,4.5,2,4.5,4.5v452c0,2.5-2,4.5-4.5,4.5H5c-2.5,0-4.5-2-4.5-4.5V5C0.5,2.5,2.5,0.5,5,0.5z"/>
	</g>
	<g id="Group_3108" transform="translate(192.998 2730.78)">
		<g id="Group_3103">
			<g>
				<defs>
					<rect id="SVGID_1_" x="0" y="13.2" width="348" height="389"/>
				</defs>
				<clipPath id="SVGID_2_">
					<use xlink:href="#SVGID_1_"  style="overflow:visible;"/>
				</clipPath>
				<g id="Group_3102" class="st2">
					<path id="Path_4986" class="st3" d="M325.3,336.5c-13-35-92.7-51.7-106.7-61.9c-17.9-13-12.2-56.2-12.2-56.2l-29.3,0.8
						l-29.3-0.8c0,0,5.7,43.2-12.2,56.2c-14,10.1-93.7,26.9-106.7,61.9c-7.9,21.4-13.9,43.5-17.9,66h332.3
						C339.2,380,333.2,357.9,325.3,336.5"/>
					<path id="Path_4987" class="st4" d="M142.3,266.5c13.7-1.4,27.5-4.2,39.5-10.9c8.5-4.8,16.5-10.5,23.8-17.1
						c-0.3-6.7,0-13.5,0.8-20.2l-29.3,0.8l-29.3-0.8C147.7,218.4,151.8,249.1,142.3,266.5"/>
					<path id="Path_4988" class="st5" d="M327.6,336c-12.7-34.1-88.2-51-105.9-61.3c-15,8.6-32.1,13-49.4,12.9
						c-15.1,0.1-30.1-3.3-43.8-9.9C103.8,288.2,40.5,305,29,336c-8,21.6-14,43.8-18,66.4h334.7C341.6,379.8,335.6,357.6,327.6,336"
						/>
				</g>
			</g>
		</g>
		<g id="Group_3105" transform="translate(10.922 260.675)">
			<g>
				<defs>
					<path id="SVGID_3_" d="M161.4,26.9c-15.1,0.1-30.1-3.3-43.8-9.9C92.9,27.6,29.6,44.3,18,75.3c-8,21.6-14,43.8-18,66.4h334.7
						c-4-22.6-10.1-44.9-18-66.4C304,41.2,228.5,24.3,210.8,14C195.8,22.6,178.7,27,161.4,26.9"/>
				</defs>
				<clipPath id="SVGID_4_">
					<use xlink:href="#SVGID_3_"  style="overflow:visible;"/>
				</clipPath>
				<g id="Group_3104" class="st6">
					<line id="Line_8" class="st7" x1="285.1" y1="16.7" x2="285.1" y2="175.5"/>
					<line id="Line_9" class="st7" x1="264.6" y1="16.7" x2="264.6" y2="175.5"/>
					<line id="Line_10" class="st7" x1="244" y1="16.7" x2="244" y2="175.5"/>
					<line id="Line_11" class="st7" x1="223.4" y1="16.7" x2="223.4" y2="175.5"/>
					<line id="Line_12" class="st7" x1="202.8" y1="16.7" x2="202.8" y2="175.5"/>
					<line id="Line_13" class="st7" x1="182.2" y1="16.7" x2="182.2" y2="175.5"/>
					<line id="Line_14" class="st7" x1="161.6" y1="16.7" x2="161.6" y2="175.5"/>
					<line id="Line_15" class="st7" x1="141.1" y1="16.7" x2="141.1" y2="175.5"/>
					<line id="Line_16" class="st7" x1="120.5" y1="16.7" x2="120.5" y2="175.5"/>
					<line id="Line_17" class="st7" x1="99.9" y1="16.7" x2="99.9" y2="175.5"/>
					<line id="Line_18" class="st7" x1="79.3" y1="16.7" x2="79.3" y2="175.5"/>
					<line id="Line_19" class="st7" x1="58.7" y1="16.7" x2="58.7" y2="175.5"/>
					<line id="Line_20" class="st7" x1="38.1" y1="16.7" x2="38.1" y2="175.5"/>
					<line id="Line_21" class="st7" x1="17.6" y1="16.7" x2="17.6" y2="175.5"/>
					<line id="Line_22" class="st7" x1="305.7" y1="16.7" x2="305.7" y2="175.5"/>
					<line id="Line_23" class="st8" x1="-10.9" y1="63.6" x2="337.5" y2="63.6"/>
					<line id="Line_24" class="st8" x1="-10.9" y1="84.1" x2="337.5" y2="84.1"/>
					<line id="Line_25" class="st8" x1="-10.9" y1="104.7" x2="337.5" y2="104.7"/>
					<line id="Line_26" class="st8" x1="-10.9" y1="125.3" x2="337.5" y2="125.3"/>
					<line id="Line_27" class="st8" x1="-10.9" y1="43" x2="337.5" y2="43"/>
				</g>
			</g>
		</g>
		<g id="Group_3107">
			<g>
				<defs>
					<rect id="SVGID_5_" x="0" y="0.2" width="348" height="386"/>
				</defs>
				<clipPath id="SVGID_6_">
					<use xlink:href="#SVGID_5_"  style="overflow:visible;"/>
				</clipPath>
				<g id="Group_3106" class="st9">
					<path id="Path_4990" class="st4" d="M127.8,125.4c-4.7-13.4-15.9-10.3-17-10c-1.1,0.1-12.7,1.7-10.7,15.7
						c2,14.1,10.9,21.7,19.3,19.5C128.1,149.3,132.6,138.9,127.8,125.4"/>
					<path id="Path_4991" class="st4" d="M224.8,125.4c4.7-13.4,15.9-10.3,17-10c1.1,0.1,12.7,1.7,10.7,15.7
						c-2,14.1-11,21.7-19.3,19.5C224.6,149.3,220,138.9,224.8,125.4"/>
					<path id="Path_4992" class="st3" d="M234.6,104.3c-5.9-58.9-54.8-55.6-59.4-55.2c-4.6-0.4-53.6-3.7-59.4,55.2
						c-5.9,59.3,23,98,59.4,95.8C211.6,202.2,240.5,163.5,234.6,104.3"/>
					<path id="Path_4993" class="st4" d="M178.4,154.1c0.2-0.4,0.4-0.7,0.6-1.1c0.2-0.4,0.4-0.7,0.7-1c0.5-0.6,1-1.3,1.6-1.8
						c0.6-0.6,1.2-1.1,1.8-1.6c0.6-0.5,1.3-1,2-1.5l-0.3,0.8c-0.5-3.9-1-7.8-1.5-11.7c-0.4-3.9-0.9-7.8-1.2-11.7
						c0.9,3.9,1.6,7.7,2.4,11.6c0.8,3.9,1.5,7.7,2.2,11.6l0.1,0.4l-0.4,0.4c-0.5,0.6-1.1,1.2-1.7,1.7c-0.6,0.6-1.2,1.1-1.9,1.6
						c-0.7,0.5-1.4,0.9-2.1,1.4c-0.4,0.2-0.8,0.4-1.2,0.6C179.2,153.8,178.8,154,178.4,154.1"/>
					<path id="Path_4994" class="st10" d="M144.7,125.3c0,4.4,1.8,8,4,8c2.2,0,4-3.6,4-8c0-4.4-1.8-8-4-8S144.7,120.9,144.7,125.3"
						/>
					<path id="Path_4995" class="st10" d="M199.9,125.3c0,4.4,1.8,8,4,8s4-3.6,4-8c0-4.4-1.8-8-4-8S199.9,120.9,199.9,125.3"/>
					<path id="Path_4996" class="st10" d="M134.8,112.1c0.7-1.5,1.6-2.9,2.9-4.2c0.6-0.6,1.2-1.2,1.9-1.7c0.8-0.6,1.6-1.1,2.5-1.6
						c1-0.5,1.9-0.9,3-1.3c1.1-0.3,2.3-0.5,3.4-0.6c0.6,0,1.2-0.1,1.8-0.1c0.6,0,1.2,0.1,1.8,0.2c1.1,0.2,2.2,0.5,3.3,0.9
						c0.9,0.4,1.8,0.9,2.7,1.4c0.7,0.5,1.4,1,2,1.7c0.5,0.5,1,1,1.4,1.6c0.4,0.5,0.6,1,0.9,1.3c0.4,0.8,0.7,1.2,0.7,1.2
						s-0.5-0.2-1.3-0.6c-0.4-0.2-0.9-0.4-1.4-0.7c-0.6-0.3-1.2-0.6-1.8-0.8c-0.7-0.3-1.4-0.6-2.1-0.8c-0.8-0.3-1.5-0.5-2.3-0.7
						c-0.8-0.2-1.6-0.3-2.5-0.3c-0.4,0-0.8,0-1.3-0.1l-1.3,0.1c-0.9,0.1-1.7,0.2-2.6,0.3c-0.8,0.3-1.7,0.4-2.5,0.7
						c-0.8,0.3-1.6,0.5-2.4,0.9c-0.8,0.3-1.5,0.6-2.1,0.9l-1.8,0.9l-1.4,0.7L134.8,112.1"/>
					<path id="Path_4997" class="st10" d="M190.5,112.1c0.7-1.5,1.6-2.9,2.9-4.2c0.6-0.6,1.2-1.2,1.9-1.7c0.8-0.6,1.6-1.1,2.5-1.6
						c1-0.5,1.9-0.9,3-1.3c1.1-0.3,2.3-0.5,3.4-0.6c0.6,0,1.2-0.1,1.8-0.1c0.6,0,1.2,0.1,1.8,0.2c1.1,0.2,2.2,0.5,3.3,0.9
						c0.9,0.4,1.8,0.9,2.7,1.4c0.7,0.5,1.4,1,2,1.7c0.5,0.5,1,1,1.4,1.6c0.4,0.5,0.6,1,0.9,1.3c0.5,0.8,0.7,1.2,0.7,1.2
						s-0.5-0.2-1.3-0.6c-0.4-0.2-0.9-0.4-1.4-0.7c-0.6-0.3-1.2-0.6-1.8-0.8c-0.7-0.3-1.4-0.6-2.1-0.8c-0.8-0.3-1.5-0.5-2.3-0.7
						c-0.8-0.2-1.6-0.3-2.5-0.3c-0.4,0-0.8,0-1.3-0.1l-1.3,0.1c-0.9,0.1-1.7,0.2-2.6,0.3c-0.8,0.3-1.7,0.4-2.5,0.7
						c-0.8,0.3-1.6,0.5-2.4,0.9c-0.8,0.3-1.5,0.6-2.1,0.9l-1.8,0.9l-1.4,0.7L190.5,112.1"/>
					<path id="Path_4998" class="st11" d="M150.6,162.7l54.3-0.5C204.9,162.3,181.3,182.3,150.6,162.7"/>
					<path id="Path_4999" class="st10" d="M112.3,70.5c0,0-3.3,73.7,6,108.2c7,26,27.4,33.1,27.4,33.1s48.2,17,75.1-10.5
						c7.7-7.9,19.7-49.6,14.2-124.3l-19.7-7.5c0,0,3.3,36.6,13.1,41.1c0,0-2.9,65.4-15.3,73.2c-10.4,6.5,7.1-30.1-13.1-29.6
						s-20.8,1-20.8,1s-36.2-5.5-35.6,7.5c0.5,13,4.4,21.5-0.5,21.5s-23-10.5-19.7-79.2c0,0,10.4-3.5,10.4-27.6
						C133.6,45.9,112.3,70.5,112.3,70.5"/>
					<path id="Path_5000" class="st10" d="M131.5,66.5c0,0,15.8,19.5,34.5,19.5c10.4,0,0-16.5,0-16.5s14.8,21,30.1,20.5
						c15.3-0.5,2.2-20.5,2.2-20.5s11.5,21.5,25.7,20.5s2.2-22,2.2-22s6.6,22.5,20.3,19.5c13.7-3-3.3-22.5-3.3-22.5s11.5,10,16.4,9.5
						c4.9-0.5,4.9-14-12.1-20.6c0,0,17-0.5,17.5-8c0.6-8.5-10.4-11.5-35.6-9c0,0,20.8-8,16.4-15s-23,3-23,3s18.6-9.5,7.7-17
						c-9-6.2-55.9-6-84.4,25.1c0,0,59.2-28.6,52-32.6c-5-2.8-75.8,11.6-86.6,39.1c-13.1,33.6-3.3,52.6,1,75.5L131.5,66.5z"/>
				</g>
			</g>
		</g>
	</g>
</g>
</svg>
