<svg xmlns="http://www.w3.org/2000/svg" xmlns:xlink="http://www.w3.org/1999/xlink" width="453" height="462" viewBox="0 0 453 462">
  <defs>
    <clipPath id="clip-path">
      <rect id="Rectangle_3118" data-name="Rectangle 3118" width="338.761" height="367.816" fill="none"/>
    </clipPath>
  </defs>
  <g id="Group_4075" data-name="Group 4075" transform="translate(-140 -2672)">
    <g id="Rectangle_3116" data-name="Rectangle 3116" transform="translate(140 2672)" fill="#f7faff" stroke="#e2e2e2" stroke-width="1">
      <rect width="453" height="462" rx="5" stroke="none"/>
      <rect x="0.5" y="0.5" width="452" height="461" rx="4.5" fill="none"/>
    </g>
    <g id="Group_3097" data-name="Group 3097" transform="translate(197.187 2766.116)">
      <g id="Group_3096" data-name="Group 3096" clip-path="url(#clip-path)">
        <path id="Path_4962" data-name="Path 4962" d="M73.983,13.381s28.485-12.729,50.926-.849,37.115,59.4,57.83,78.066,36.809,40.856,24.725,62.071-23.863,19.391-11.777,49.089-38.5,36.786-28.145,58.848c0,0-26.234-48.666-18.464-91.092S135.267,26.11,100.74,29.5l-31.073-1.7Z" transform="translate(84.849 9.091)" fill="#965450"/>
        <path id="Path_4963" data-name="Path 4963" d="M76.841,10.592s14.108-22.264,44.143-2.236c14.749,9.836,21.039,33.783,48.213,47.208,29.833,14.738,34.977,28.556,22.561,50.063-7.681,13.3,16,10.7,4.294,43.775-9.145,25.845-88.138-115.05-88.138-115.05l-32.8-4.245Z" transform="translate(91.484 0)" fill="#965450"/>
        <path id="Path_4964" data-name="Path 4964" d="M156.651,54.59s23.31,18.812,16,41.045-28.181,30.441-13.569,61.567-13.569,38.991-13.569,38.991-68.192-4.789-59.842-76.957,43.673-74.349,43.673-74.349Z" transform="translate(103.482 54.669)" fill="#824846"/>
        <path id="Path_4965" data-name="Path 4965" d="M156.651,54.59s23.31,18.812,16,41.045-28.181,30.441-13.569,61.567-13.569,38.991-13.569,38.991-68.192-4.789-59.842-76.957,43.673-74.349,43.673-74.349Z" transform="translate(103.482 54.669)" fill="#824846"/>
        <path id="Path_4966" data-name="Path 4966" d="M67.432,25.174S41.424,50.365,43.148,74.7s-5.869,42.662-18.438,53.558-12.028,34.2.053,47.8c0,0-6.629-15.093.967-33.42,0,0-11.1,63.044,52.82,70.743,0,0-2.291-.949-9.156-19.362,0,0,3.467,17.542,42.575,20.329S170.7,164.6,152.243,108.1,97.134,36.41,97.134,36.41Z" transform="translate(18.868 30.66)" fill="#824846"/>
        <path id="Path_4967" data-name="Path 4967" d="M318.154,201.365C304.967,165.923,224.3,149,210.179,138.724c-18.134-13.188-12.363-56.874-12.363-56.874l-29.674.781-29.671-.781s5.769,43.686-12.365,56.874C111.983,149,31.319,165.923,18.132,201.365A387.61,387.61,0,0,0,0,268.129H336.288a387.748,387.748,0,0,0-18.134-66.764" transform="translate(0 99.687)" fill="#fddec0"/>
        <path id="Path_4968" data-name="Path 4968" d="M59.954,130.583c13.891-1.419,27.853-4.234,39.947-11a136.317,136.317,0,0,0,24.122-17.306,134.557,134.557,0,0,1,.774-20.427l-29.674.781-29.671-.781s4.105,31.091-5.5,48.732" transform="translate(73.019 99.688)" fill="#e2c6af"/>
        <path id="Path_4969" data-name="Path 4969" d="M320.494,169.59c-12.846-34.524-89.238-51.607-107.135-62.053a99.562,99.562,0,0,1-50,13.066,100.8,100.8,0,0,1-44.29-10.005c-25.087,10.677-89.138,27.644-100.8,58.992A390.487,390.487,0,0,0,0,236.844H338.761a390.488,390.488,0,0,0-18.267-67.254" transform="translate(0 130.972)" fill="#6f96bd"/>
        <path id="Path_4970" data-name="Path 4970" d="M68.862,57.549c-4.793-14.867-16.14-11.425-17.2-11.067-1.113.131-12.844,1.872-10.817,17.362C42.881,79.425,51.921,87.868,60.4,85.389,69.121,84,73.684,72.5,68.862,57.549" transform="translate(49.458 55.889)" fill="#e2c6af"/>
        <path id="Path_4971" data-name="Path 4971" d="M98.681,57.549c4.793-14.867,16.14-11.425,17.2-11.067,1.113.131,12.844,1.872,10.817,17.362-2.038,15.581-11.079,24.025-19.555,21.545C98.422,84,93.859,72.5,98.681,57.549" transform="translate(117.801 55.889)" fill="#e2c6af"/>
        <path id="Path_4972" data-name="Path 4972" d="M168.569,74.224c-5.94-65.178-55.49-61.527-60.163-61.037-4.673-.49-54.224-4.141-60.163,61.037-5.973,65.568,23.231,108.39,60.163,106.034,36.933,2.355,66.138-40.466,60.163-106.034" transform="translate(57.808 15.824)" fill="#fddec0"/>
        <path id="Path_4973" data-name="Path 4973" d="M80.214,50.634a44.282,44.282,0,0,1,2.309,6.257c.339,1.049.568,2.114.858,3.172s.47,2.127.71,3.192c.455,2.129.8,4.276,1.071,6.432.3,2.154.439,4.329.592,6.5l.08,1.129-.643.492a54.059,54.059,0,0,1-8.767,5.731,53.816,53.816,0,0,1,6.2-8.444l-.566,1.621c-.461-2.131-.936-4.258-1.253-6.408-.339-2.147-.614-4.3-.774-6.476-.069-1.089-.189-2.169-.213-3.265s-.1-2.18-.062-3.283a44,44,0,0,1,.461-6.654" transform="translate(93.079 61.668)" fill="#e2c6af"/>
        <path id="Path_4974" data-name="Path 4974" d="M62.005,70.136l58.8-.617s-23.514,23.142-58.8.617" transform="translate(75.517 84.669)" fill="#fff"/>
        <path id="Path_4975" data-name="Path 4975" d="M68.8,77.5s.625.146,1.7.452a42.454,42.454,0,0,0,4.442,1.18c.92.171,1.912.355,2.943.579a27.991,27.991,0,0,0,3.316.373,20,20,0,0,0,3.551.166c1.207-.047,2.437-.04,3.657-.126l3.611-.577a21.529,21.529,0,0,0,3.422-.907,17.693,17.693,0,0,0,3.143-1.091c.96-.455,1.885-.861,2.746-1.233a14.608,14.608,0,0,0,2.245-1.226l1.7-1.034c.956-.57,1.53-.878,1.53-.878s-.441.455-1.262,1.218l-1.5,1.371a10.432,10.432,0,0,1-2.069,1.643c-.821.515-1.719,1.071-2.688,1.637a14.677,14.677,0,0,1-3.212,1.442l-1.754.65-.9.328-.947.173-3.857.692c-1.306.069-2.619.038-3.908.06a17.646,17.646,0,0,1-3.748-.373,20.326,20.326,0,0,1-3.449-.7c-1.076-.333-2.08-.676-3-.991a11.328,11.328,0,0,1-2.4-1.049l-1.785-.929c-.985-.523-1.537-.852-1.537-.852" transform="translate(83.798 89.119)" fill="#e2c6af"/>
        <path id="Path_4976" data-name="Path 4976" d="M61.041,55.958c0,4.908,1.821,8.889,4.07,8.889s4.07-3.981,4.07-8.889-1.823-8.889-4.07-8.889-4.07,3.981-4.07,8.889" transform="translate(74.343 57.326)" fill="#352c38"/>
        <path id="Path_4977" data-name="Path 4977" d="M86.255,55.958c0,4.908,1.823,8.889,4.07,8.889s4.07-3.981,4.07-8.889-1.823-8.889-4.07-8.889-4.07,3.981-4.07,8.889" transform="translate(105.052 57.326)" fill="#352c38"/>
        <path id="Path_4978" data-name="Path 4978" d="M56.537,50.229a14.759,14.759,0,0,1,2.908-4.6,18.422,18.422,0,0,1,1.923-1.861,15.441,15.441,0,0,1,2.491-1.748,17.987,17.987,0,0,1,3.021-1.4,16.14,16.14,0,0,1,3.462-.7c.6-.033,1.2-.075,1.794-.082.6.053,1.191.146,1.777.226a12.812,12.812,0,0,1,3.291.978,15.55,15.55,0,0,1,2.7,1.59,11.067,11.067,0,0,1,2.007,1.854,8.239,8.239,0,0,1,1.428,1.748c.368.559.648,1.076.88,1.49.457.836.67,1.329.67,1.329s-.519-.235-1.342-.672c-.406-.224-.9-.481-1.424-.81a15.4,15.4,0,0,0-1.836-.914,15.944,15.944,0,0,0-2.129-.923,23.353,23.353,0,0,0-2.349-.739A14.877,14.877,0,0,0,73.32,44.6c-.424-.024-.849-.038-1.273-.089l-1.289.1a18.909,18.909,0,0,0-2.586.386c-.834.295-1.712.426-2.517.783a24.887,24.887,0,0,0-2.38.96c-.776.306-1.47.705-2.165,1l-1.834.969-1.444.792c-.825.455-1.3.716-1.3.716" transform="translate(68.858 48.511)" fill="#352c38"/>
        <path id="Path_4979" data-name="Path 4979" d="M81.928,50.229a14.759,14.759,0,0,1,2.908-4.6,18.42,18.42,0,0,1,1.923-1.861,15.442,15.442,0,0,1,2.491-1.748,17.986,17.986,0,0,1,3.021-1.4,16.14,16.14,0,0,1,3.462-.7c.6-.033,1.2-.075,1.794-.082.6.053,1.191.146,1.777.226a12.812,12.812,0,0,1,3.291.978,15.55,15.55,0,0,1,2.7,1.59,11.068,11.068,0,0,1,2.007,1.854,8.24,8.24,0,0,1,1.428,1.748c.368.559.648,1.076.88,1.49.457.836.67,1.329.67,1.329s-.519-.235-1.342-.672c-.406-.224-.9-.481-1.424-.81a15.4,15.4,0,0,0-1.836-.914,15.944,15.944,0,0,0-2.129-.923,23.353,23.353,0,0,0-2.349-.739,14.912,14.912,0,0,0-2.493-.386c-.424-.024-.849-.038-1.273-.089l-1.289.1a18.91,18.91,0,0,0-2.586.386c-.834.295-1.712.426-2.517.783a24.647,24.647,0,0,0-2.38.96c-.776.306-1.47.705-2.165,1l-1.834.969-1.444.792c-.825.455-1.3.716-1.3.716" transform="translate(99.782 48.511)" fill="#352c38"/>
        <path id="Path_4980" data-name="Path 4980" d="M138.023,27.35s-23.559-11.342-34.9,15.705-8.914,65.333-39.353,79C29.3,137.53,42.045,173.937,42.045,173.937s-22.687-18.324-15.707-35.775S66.475,97.153,73.455,64,116.21-.571,138.023,27.35" transform="translate(30.452 20.189)" fill="#965450"/>
        <path id="Path_4981" data-name="Path 4981" d="M125.832,25.121a15.947,15.947,0,0,0-1.8-.446,29.8,29.8,0,0,0-5.543-.581,26.376,26.376,0,0,0-8.5,1.258,22.857,22.857,0,0,0-9.357,5.88,33.465,33.465,0,0,0-6.982,11.631,114.978,114.978,0,0,0-4.4,15.337c-2.5,10.872-4.256,22.9-8.537,34.331a54.222,54.222,0,0,1-8.883,15.816A42.311,42.311,0,0,1,58.068,119.2a46.56,46.56,0,0,0-13.117,9.087,37.679,37.679,0,0,0-4.578,5.824,36.655,36.655,0,0,0-3.016,6.25,37.139,37.139,0,0,0-2.092,11.975,46.983,46.983,0,0,0,.841,9.391,39.951,39.951,0,0,0,2.229,7.922,40.073,40.073,0,0,1-2.362-7.9,47.266,47.266,0,0,1-1-9.42,39.112,39.112,0,0,1,1.872-12.148,37.383,37.383,0,0,1,2.914-6.445,38.4,38.4,0,0,1,4.538-6.075,47.715,47.715,0,0,1,13.168-9.626,40.818,40.818,0,0,0,13.01-10.786,52.01,52.01,0,0,0,8.169-15.466c3.786-11.24,5.132-23.173,7.281-34.276a118.725,118.725,0,0,1,4-15.956,37.647,37.647,0,0,1,7.463-13.339,28.159,28.159,0,0,1,10.961-7.472,31.483,31.483,0,0,1,10.072-1.93,35.341,35.341,0,0,1,6.583.417,22.267,22.267,0,0,1,2.4.495Z" transform="translate(42.597 22.895)" fill="#965450"/>
        <path id="Path_4982" data-name="Path 4982" d="M142.41,9.466,140.7,46.652S95.323,24.838,78.744,112.965c0,0-70.013,69.718-53.379,35.34S7.2,98.132,35.989,73.7,67.4,49.269,83.978,28.329,120.6-10.6,142.41,9.466" transform="translate(27.78 0.887)" fill="#965450"/>
        <path id="Path_4983" data-name="Path 4983" d="M81.942,36.011S106.253,22.535,114.1,47.837s23.594,39.692,27.724,63.581c5.174,29.942-38.421,73.664-31.441,99.84S144.5,229.194,144.5,229.194s-24.945-5.76-21.454-23.213,64.883-60.552,63.138-82.365-4.95-11.881-13.678-50.274S122.2,1.394,81.2,15.355c-23.255-20.933.747,20.656.747,20.656" transform="translate(86.533 11.528)" fill="#965450"/>
        <path id="Path_4984" data-name="Path 4984" d="M75.549,22.028s.661-.26,1.856-.637a48.652,48.652,0,0,1,5.3-1.337,36.466,36.466,0,0,1,8.537-.672c3.289.2,7.355.912,10.741,3.759a13.757,13.757,0,0,1,2.282,2.4c.353.464.608.9.965,1.453q.369.685.747,1.384a42.98,42.98,0,0,1,2.69,6.195c1.519,4.358,2.568,8.969,4.172,13.518a70.748,70.748,0,0,0,6.43,13.379c.637,1.1,1.348,2.158,2.067,3.22.7,1.071,1.428,2.131,2.207,3.163,1.51,2.1,3.134,4.152,4.536,6.527a39.371,39.371,0,0,1,4.944,15.16,50.912,50.912,0,0,1-.794,15.324c-1.963,9.772-5.9,18.218-9.468,25.2a30.638,30.638,0,0,0-3.542,9.921,25.585,25.585,0,0,0,.04,8.158,26.406,26.406,0,0,0,1.357,5.112,15.516,15.516,0,0,0,.752,1.721,15.548,15.548,0,0,1-.821-1.694,26.7,26.7,0,0,1-1.566-5.09,26.059,26.059,0,0,1-.362-8.286,29.568,29.568,0,0,1,3.294-10.26c3.4-7.035,7.077-15.494,8.763-25.069a49.159,49.159,0,0,0,.421-14.8,37.6,37.6,0,0,0-4.995-14.23c-1.273-2.131-2.9-4.19-4.46-6.308-.8-1.045-1.557-2.123-2.284-3.216-.743-1.082-1.482-2.165-2.147-3.289a73.328,73.328,0,0,1-6.756-13.793c-1.695-4.7-2.795-9.357-4.276-13.485a39.725,39.725,0,0,0-2.568-5.793c-.255-.464-.506-.923-.756-1.38-.224-.308-.488-.77-.761-1.111a11.118,11.118,0,0,0-1.856-1.93,15.721,15.721,0,0,0-9.145-3.154,33.705,33.705,0,0,0-7.9.574A45.685,45.685,0,0,0,78.184,23.9c-1.147.353-1.706.57-1.706.57Z" transform="translate(92.013 23.562)" fill="#965450"/>
        <path id="Path_4985" data-name="Path 4985" d="M97.462,37.508s12.569,31.421,7.763,53.969c0,0,8.872-21.07,6.283-40.291S97.462,37.508,97.462,37.508" transform="translate(118.701 44.777)" fill="#824846"/>
      </g>
    </g>
  </g>
</svg>
